<svg xmlns="http://www.w3.org/2000/svg" viewBox="0 0 3536.24 1191.4"><defs><style>.cls-1{fill:none;}.cls-2{fill:#ef7a1a;}.cls-3{fill:#010101;}.cls-4{fill:#ef791b;}.cls-5{fill:#2a4b9b;}.cls-6{fill:#1d1d1b;}</style></defs><g id="Ebene_2" data-name="Ebene 2"><g id="Ebene_1-2" data-name="Ebene 1"><rect class="cls-1" width="3536.24" height="1191.4"/><g id="Ebene_2-2" data-name="Ebene 2-2"><g id="Ebene_2-2-2" data-name="Ebene 2-2-2"><path class="cls-2" d="M779,900.87h-1.25V803.48H779a7.14,7.14,0,0,0,0-14.28h-1.27V757.11a22,22,0,1,0-44-1.06v33.2H721.27V757.11a22,22,0,1,0-44-.77v32.91H664.81V757.11a22,22,0,1,0-44-.77v32.91H608.34V757.11a22,22,0,0,0-44,0v32.13h-7.63v-3.82a7.14,7.14,0,0,0-14.28,0V807.3a7.14,7.14,0,1,0,14.28.43h0V803.5h7.63V941.22a22,22,0,0,0,44,0V915.14h12.48v26.08a22,22,0,1,0,44,.76h0V915.13h12.48v26.08a22,22,0,1,0,44,.76h0V915.13h12.48V941.2a22,22,0,0,0,44,0h0V915.13H779a7.14,7.14,0,0,0,0-14.28Zm-170.67,0V803.48H620.8v97.39Zm56.46,0V803.48h12.49v97.39Zm56.47,0V803.48h12.48v97.39Z"/><path class="cls-3" d="M548.25,777.71c-1.34-.12-1.53.62-3.28,1.23-4.58,1.58-4.7,3.32-11.09,2.49-5.16-.67-10.24-.08-18.07.5-4.41.34-12.41-1.52-19.72-3.59-33.76-9.51-19-60-38-77.83-29.22-27.47-40.24-21.6-74.63-19-5.74.43-7,3.6-10.06,3.87s-3.4,2-4.53,1.44c-3.35-1.73-3.89-4.28-2.29-7.37.91-1.72,1.61-.21,3.81-1.06,21.61-8.23,34.52-23.65,44.42-45.32,1.85-4,6.71-19.76,6.65-24.47-.43-22.32-1-44.09-19.69-58.29-26.48-20.08-44.61-3.2-60.46,20.18A57.89,57.89,0,0,0,336,580.91c-2.06,5.91-4.89,13.24-6.45,19.84s-4.39,14.18-4.23,20.9c.31,12.45,0,23.24,4.58,35,5.56,14.09,11.71,16,25.11,21.75,1.15.49,1.35,2.35,1.09,3.82-.07.43.89,2.35-.48,2.68-.07-4.48-10.44-3.13-12-5.29-15.59-21.87-63,5.34-79.1,10.11-53.17,15.75-43.86,6.61-64.6-34.14-1.13-2.19,2.51-3,.06-4.85a10.47,10.47,0,0,0,1.81-4.62c.76-11-2.45-21.83-6.79-31.39-2.68-6-3.29-13.06-9.38-15-4.22-1.34-.64,5-2.35,8.39s-1.11,7.63-7.94,10c-3.32,1.16-13.73,8.65-17.61,11.57-6.33,4.81-29.95,26.5-25.84,33.57,8.49,14.62,25.57-10.79,35.92-14.34,7.9-2.68,17.21-4.51,24.77,2.55,3.44,3.21,3.05-5.87,4.35,6.1,8.39,76.27,72.56,35.28,116.81,21.46,19.91-6.21,23.9,4.16,37.14,10.14,7.14,3.22,4.2.76,6.87,4.15,6.53,8.26,6.26,9.62,10.18,21a135.55,135.55,0,0,1,6.4,27.76c2.11,15.77,2.29,40.44,1.21,58.31-1,16.9-1.27,39-1.38,53.65-.15,17.71,2.2,24.42,4.09,39.68.21,1.62,1.22,1.21,1.28,3-1.25.67-2.85,4.26-3.65,5.3-25.18,32.64-46.74,71.72-58.53,110.07-4.47,14.5-3,20.35-5,31.71s1,18.78.9,27.8c0,3.16,2.2,6.39,1.06,6.63-13,2.77-24.51-2.59-37.39-4.18-.94-.13-1.05,1.84-1.25,3.45-.26,2.13-2.68,5.17-3.81,7.73-1.3,3,1.37,5.25,4.26,6.35,1.39.52,2.79.31,1.12,2-6,6,38.92,3.81,47.09,3.76,1.86,0,11.29-3.15,10.14,1.1s-14.09,3.05-17,3.35c-7.12.76-28.8,3.88-5.77,2.69,4.06-.22,21.95-1.8,29.5-2.47s27.7-2.37,33.7-2.94c21.05-2,38.63-5.34,57.82-3.74,5.12.42-7.11,1.64-9.5,1.85-3.6.32-9.62,1.1-15.31,1.21a331.9,331.9,0,0,0-37.39,3c-3.56.49-12.9,1.34-15.91,1.6-11.85,1.13-39.57-1.45-46.06,7.24-2.68,3.57,6.71,1.94,12.21,2.19,9.16.42,26.24,1.53,39.13,1.42,3.2,0,17.05.36,21.58.61s19.8,3.1,21.37,3.3c9.51,1.24,47.47-1.18,46,8.84-.29,2-8.53,1.34-11.45,1.52-7,.53-19.89,2.9-26.15,4.18-7.44,1.53-9.92,3.15-15,6.54-1.77,1.19.15,1-.72,1.44a23.37,23.37,0,0,1-2.68.89c-.86.32-2,.57-2.41,1.27-.7,1.12.24,1.23,1,1.75a3.24,3.24,0,0,1,1.58,1.83,5.35,5.35,0,0,0,1.52,2.51c.4.36,1,1.2,1.92,1.34,2.94,0,10.6,0,12.69-.06a170,170,0,0,1,20.06.53c3.52.28,4-.26,5.73,1.35s-5,0-4.58.18c1.19.52,4.14.66,7.94,1,8.14.82,22.68.67,28.89,9.23,3.88,5.35-.58,9.08-2.69,15-1,2.91-11.11,4.4-.34,7.48s22.27,4.36,33.69,4.73c1.35,0,1.35-1.2,2.29-2.85s3.47-6,4.79-7.93,5.49-6,4.44-8c-3.67-6.56-3.35-7.2-11-10.88-10-4.84-25.11-8.05-36.63-11.14-5.64-1.52.35-2.23,3.82-2.21a79.73,79.73,0,0,0,9.71-1.66,60.37,60.37,0,0,1,10.46-1.34c1.7,0,7,.66,6.38-.44-1.82-3.32-3.55-2.44-7.75-3.75-5.78-1.8-15-.33-21.46-2.68s-5.57.63,5.79-3.06c29.6-9.66-.23-12.82-15.91-14.25-4.58-.41-28.24-5.34-36.07-5.81-1.84-.11-8.93-.1-3.88-1.6,12.51-3.72,30.32-4.88,42.09-5.71a78.38,78.38,0,0,0,9.3-1c3.16-.49,1.52-.77,3.76-1.14s7.47-1.19,9.15-1.39c9.21-1,31.53-.33,33.75-10.12,1-4.31-11.91-2.1-14.81-2.54-.68-.1-5.35-.17-6.46-.39,0-.67,1.09-1.34,1.46-1.7.81-.76,2.22-1.89,2-2.87-.77-2.85-2.15-4.15-4.66-5.45-3.23-1.69-4-4-7.85-5.62s-8.39-.17-13.34,1.34c-2.42.77-9.49,2.56-12.54,1.53-4.16-1.34-6.55,3.36-9.21-1.61-8.26-15.43-8.6-28-10-46.79s-4.1-42.7-9.8-62c-6.92-23.38-17.44-45.19-30.28-65.88a29.06,29.06,0,0,0-3.45-4.58c.36-1.52.53-.27.92-1.84,4.66-18.52,5.34-31,7.69-52.52,1.26-11.63-.76-42.78-2.48-54.72-4.45-31.08-12.26-55.85-22.89-82.75-5.1-12.92-7.45-2.2-.92-12.21,3.05-4.69,4.34-4.91,12.68-5.16,21.42-.68,11.64-8.22,39.68-.82,51.12,13.47,26.78,61.39,54.4,92.48,5.09,5.74,14,8.32,19.07,12.21A172.89,172.89,0,0,0,538,811.84c6.28,2.54,7.47,5.52,12.07,3.2,5.43-2.73,0-6.28-2.39-9.92-3.87-5.93-3.77-14.17-.88-20.6C547.87,782,548.69,781,549,779,549.47,777.49,549.58,777.83,548.25,777.71ZM395.52,551.84c5.7,4.47,11.31,9.4,14.5,17.75,2.29,5.92,5.59,14.5,5.51,22A114.42,114.42,0,0,1,401,646.65a42.5,42.5,0,0,1-6.29,8.66c-19.87,19.67-39.92,27.47-58.3.67-5.29-7.71-4.79-17.44-5-27-.18-8.71,1.72-18.61,4.26-27.4,4.58-15.9,11.92-32.59,24.15-43.6,8.52-7.63,15.2-8.56,25.95-9.71C389.63,547.83,391.53,548.68,395.52,551.84Zm-7.19,234.43c2.11,16,2.87,39.91,2.34,54.68-.67,18.24-2.41,28.23-4.29,44.38-.16,1.39-.54.91-.66,2.36-.13-1.74-.55-1.41-.76-3.21-2.11-21.07-1.95-39.46-.87-62,.27-5.51.58-22,.77-29.58s.38-17.73.47-24.82c0-3.22.06-3,.08-5.71.34,2.57.45,3.36.87,6.1,1,5.9,1.13,10.82,2.05,17.77Zm3.18,119c13.32,21.7,23.85,44.54,30.57,70,4.42,16.79,6.93,38.79,7.93,55.7,1,16.38,2.51,29.76,7.44,43.75,1.34,3.77,1.64,2.46,2.8,5s2.43,3,4,5.13c.76,1,2.49,2.13,2.87,3.44-6,.06-15.95.19-21.81.19-29.39,0-62.79.86-90.26,1.6-11.44.31-9.35.55-16.29.46-9.71-.13-2.18.77-1.75-1.78.67-3.91,3.89-3.35,3.82-8.56,0-1.67-1.38-3.5-1.24-7.45.38-10.77-3.81-15.26-1.78-28.55,4.22-27.55,11.88-53.72,26.06-80.58,9.1-17.24,22.89-41.86,36.1-57.55,2.73-3.25,2.29-6,6.11-5.34s3,.58,5.4,4.46ZM364.16,1093.9c2,1.95,1.21,2.29,2.41,3.29,1.47,1.24-11.44.67-15.79.67-5.11,0-2.83-.76.46-2.09C353.79,1094.76,362.64,1092.41,364.16,1093.9Z"/><path class="cls-3" d="M394.93,630.7c-.41.52-.25,3-.82,4.84-1.34,4.06-2.39,9.54-6.78,12.29-6.39,4-12.81,6.1-20.07,2.42-6.43-3.26-8.39-10.45-9.92-16.93-.43-1.81-.18-4-.45-5.24-.35-1.53-.13-2.24-1.53-1.53s-1.7,1.16-1.22,3.44c1.68,8,1.53,17.24,10.37,21.61,15.45,7.64,21,4.25,30.85-9.25,2.28-3.18,2.28-7.63,1.83-11.13C396.92,629.16,396.41,628.81,394.93,630.7Z"/><path class="cls-3" d="M388.79,597.31c-.32,2.12-1.81,3.63-3.57,3.63-2.29,0-3.81-2.37-3.35-5.13a4,4,0,0,1,2.9-3.49C387.29,591.82,389.27,594.27,388.79,597.31Z"/><path class="cls-3" d="M372.56,600.17c-2.29,1.52-4.93.06-5.24-2.94a4.67,4.67,0,0,1,2.29-4.69,3.21,3.21,0,0,1,4.17,1.52C374.75,596.1,374.17,599.05,372.56,600.17Z"/></g></g><g id="Ebene_2-3" data-name="Ebene 2-3"><g id="Ebene_2-2-3" data-name="Ebene 2-2-3"><path class="cls-3" d="M2928.6,664a1.89,1.89,0,0,1,.25,1.6c-.25.95-.16,1,2.73,1.27,29,2.63,91.62,21.45,163.2,49,27.74,10.68,51.4,20.7,66.09,28,6.54,3.2,7.5,3.58,8.53,3.25,1.72-.62,3.46.62,5.75,4,4.57,6.73,6.49,15.44,6.49,29.38,0,16.1-2.79,33.38-9.3,57.72-7.6,28.43-20.44,64.27-34,94.71-1.27,2.84-2.32,5.34-2.42,5.59s1.81,1.77,4.2,3.4c9.35,6.29,17.83,13.73,34.06,30,21.41,21.41,41.08,43.61,69.28,78.1,19,23.26,34.55,43.11,34.88,44.63.54,2.14-1,4.65-4,6.57-6.62,4.2-26.5,8.93-65.46,15.58-6.13,1-14.87,2.55-19.52,3.32-21.85,3.75-24.73,4.44-33.45,8.34l-2.37,1.07h25.21c16.23,0,27.4.17,31.39.5,3.37.29,10.9.91,16.65,1.36,37.1,2.88,55.5,6,52.54,8.76-1.23,1.19-7.39,2.62-15.77,3.69-4.61.58-20.55,2.26-21.95,2.33-.36,0,.13.41,1,.86a10,10,0,0,1,2.59,1.77l.87.94-34.32.29c-25.58.2-38.05.5-48.84,1.07-8,.45-15.5.82-16.72.82s-2,.16-1.84.33a48.92,48.92,0,0,0,4.93,2.14,255.21,255.21,0,0,1,23.42,10.76c17.17,9.57,19.52,15.94,7.19,19.8-18.24,5.75-62.69,5.71-153.49-.16-19.48-1.27-28.43-1.68-52.8-2.47-20.26-.68-20.34-.68-11.3-.77a56.14,56.14,0,0,0,7.27-.33,1.85,1.85,0,0,1-1.14-.68c-.42-1.15-.78-15.5-.38-15.67.2-.12-.32-.21-1.27-.21s-2.8-.16-4.09-.28l-2.43-.25-1.14,2.64a38.37,38.37,0,0,1-8,11.41c-2.72,2.88-3.28,3.66-2.72,3.83s.25.2-.49.24c-1.16,0-1.12-.08,1.88-3.16a69.53,69.53,0,0,0,4.82-5.34c1.72-2.22,5-8.39,5-9.37,0-.37.45-.58,1.1-.58,2.05,0,27.7,2,50.87,4.09,40.36,3.53,63.65,4.23,102.52,3,9.37-.29,22.64-.67,29.46-.82,19.64-.49,20.8.12-22.68-12.41l-20.16-5.79-6.78-.57c-3.75-.33-11.92-.91-18.21-1.23a123.27,123.27,0,0,1-12.33-1c-.49-.21-.68-.37-.4-.37.73,0,.67-.86,0-.86a7.45,7.45,0,0,1-1.72-.42c-3.41-1.31,4.85-2.72,22-3.69,13.43-.78,17.29-1.15,21.79-2,8.35-1.61,18.83-2.43,37-2.93,13.47-.36,39.19,0,50.83.78,5.54.33,9.53.29,22.8-.41l18.2-.91c5.51-.16-17.71-.77-46.43-1.15-17.63-.2-34.64-.62-37.8-.82-5.3-.36-5.92-.32-7.93.41-3.38,1.28-5.26,1.11-6.86-.57a5.66,5.66,0,0,0-2.8-1.68c-1.64-.34-3.1-1.23-2.67-1.65a8.75,8.75,0,0,1,2.22-.78c1.93-.49,1.93-.49,2.62-3,1.12-4.08,1.66-4.65,6.21-6.32a11.33,11.33,0,0,0,3-2.14L3145,1119l12.4-.37c11.26-.29,13-.45,19-1.55,3.62-.68,14.31-2.59,23.86-4.19,29.78-5.06,46.67-8.34,57.31-11.18,9.21-2.42,15.54-5.09,15-6.29-.74-1.93-34.89-44.46-51.17-63.64-32.45-38.33-61.43-68.33-78.73-81.44-4.08-3.1-8.79-6.33-9.2-6.33-.58,0-1.19,2.09-1.89,6.37-.33,2.26-.91,5.38-1.24,7-.77,3.49-.77,3.49-.08,3.49a20,20,0,0,1,3.82,1.6c14.11,6.86,23.56,23.55,27.49,48.73.91,5.55,1.27,22,.69,28.23-3.42,34.31-18.61,60.32-38.34,65.5a31.59,31.59,0,0,1-12.33,0c-13.18-3.5-24-17.3-29.67-37.68-7-25.1-4-57.82,7.32-80.29q8.92-17.72,21.61-24c2.92-1.48,7.36-2.88,9.08-2.88,1,0,1.15-.24,1.77-2.38a20.21,20.21,0,0,0,.68-4.44,35.72,35.72,0,0,0-1-7.38c-.26-.28-12.53,3.4-17.14,5-16.23,5.67-26.35,11-35.54,18.65-2,1.73-6.57,5.63-10.08,8.76-8.17,7.31-13.17,11.46-18.39,15.37l-4.2,3.16,0,16.23c0,27.08-1.6,121.66-2.05,122.07s-28,.83-27.81.41-15.51-1.06-16.11-.68-11.25.37-12.08,0a2.06,2.06,0,0,1-.78-2.67,22.2,22.2,0,0,1,3.17-3c13-10.48,22.1-12.66,31-7.44a55.44,55.44,0,0,0,12.82,5.43,34.56,34.56,0,0,0,4.83,1.13c.4-.45,1.8-88.87,1.8-115.58V994.33l4.39-3.33c5.59-4.19,12.45-9.94,20.89-17.42,12.26-10.91,18-15.08,27.13-19.72,8.52-4.32,20-8.53,33.33-12.33l6.2-1.72.53-2.33c.58-2.67,6.2-22.31,10.28-36,18.48-62.09,27.6-100.71,31-131.85.68-6.49,1.23-15.45.9-15.45-1.32,0-48.28-3.1-56.59-3.69-44.34-3.38-72.77-7.82-99.65-15.62a291.54,291.54,0,0,1-74.77-33.82l-4.94-3.1-.53,1.48a16.76,16.76,0,0,0-.68,9.3l.68,2.64-4,4.85c-3.94,4.72-4.08,5-4.8,8.25-.45,1.85-1,3.37-1.24,3.37a9,9,0,0,1-1.85-.41c-1.31-.37-1.55-.28-3.88,1.93-5,4.65-7.35,5.79-9,4.36-.68-.61-.77-1.07-.62-3,.24-2.91,2.22-7.23,6.41-13.89,1.77-2.83,4-6.74,5-8.68a40.23,40.23,0,0,1,6.32-9.77,26.65,26.65,0,0,0,2.87-3.88c1.37-2.32,2.33-3,4.85-3.28,1.73-.16,2-.08,2,.58,0,.86,3.17,3,13.18,9A287.62,287.62,0,0,0,2996,725.05c34.4,11.87,67.76,17.3,132.8,21.53,23.54,1.55,28.93,1.85,29,1.68.45-.45-26.5-12.16-45.89-20-65.17-26.13-131-47.49-166.21-54a131.59,131.59,0,0,0-17.14-2.25h-2.09l.21,2.87.2,2.87-4.08,2.51c-9.55,5.88-18.45,14-23.67,21.66a25.33,25.33,0,0,1-3.66,4.48c-1,.68-1.07.68-2-.38-1.94-2.25-2.73-10.52-1.32-14.59,2.33-6.86,9.62-14.46,19.81-20.62,4.31-2.62,14.22-7.44,15.25-7.44A2.09,2.09,0,0,1,2928.6,664Zm242.8,118.1c-2.92,20.3-7.75,42.93-15,70.1-1.85,6.9-11.71,41.46-13.27,46.59-1.69,5.42-.46,2.63,3.4-7.85,13.84-37.26,22.4-68.14,25.72-93,.95-6.91,1.55-22,1-25.11-.32-1.92-.32-1.92-.49-.57C3172.71,773,3172.09,777.46,3171.4,782.08ZM3119.62,967c-6.29,1.15-13.86,7-19.38,14.79-7,9.9-12,24.37-14.37,41.5-.78,5.75-.69,23.17.2,29q4,26.92,16.23,38.87c3.44,3.37,4.27,4,7,5.38a18.65,18.65,0,0,0,10,2.13c16.28-1.55,30.61-22.84,35.43-52.76,3-18.39.9-39.53-5.38-55.34-5.22-13.17-14.59-22.63-23.26-23.62-3.83-.47-4.12-.47-6.5,0Zm-150.06,198.33a6.37,6.37,0,0,0,1.85,0c.54-.08.12-.16-.91-.16s-1.43.07-.93.14Zm2.72,16.44a15.39,15.39,0,0,0,2.88,0c.68-.08,0-.17-1.55-.17s-2.19.08-1.32.16Z"/><path class="cls-3" d="M3119.87,991c4.65,1.32,8.86,4.65,12.13,9.54a19.47,19.47,0,0,1,2,3.58c0,.45-2.79,1.76-3,1.39,0,0-.58-.94-1.15-2a19.52,19.52,0,0,0-11.51-9.31c-4.92-1.27-10.31.51-16.18,5.27l-3.33,2.73-1.07-1.37-1.07-1.32,2.18-1.88a36.94,36.94,0,0,1,9.65-6.09A23.33,23.33,0,0,1,3119.87,991Z"/><path class="cls-3" d="M3104.73,1049.21c.33,2.15,1.83,3.68,3.62,3.68,2.33,0,3.88-2.41,3.41-5.22a4,4,0,0,0-2.94-3.53C3106.25,1043.63,3104.25,1046.12,3104.73,1049.21Z"/><path class="cls-3" d="M3121.24,1052.11c2.32,1.55,5,.06,5.32-3a4.76,4.76,0,0,0-2.33-4.77,3.24,3.24,0,0,0-4.23,1.55C3119,1048,3119.59,1051,3121.24,1052.11Z"/><path class="cls-4" d="M3213.08,548.6a50.3,50.3,0,1,1-50.28,50.33h0A50.37,50.37,0,0,1,3213.08,548.6Z"/><path class="cls-4" d="M3213.08,478.19a13.7,13.7,0,0,1,13.72,13.7h0v30.18a13.71,13.71,0,1,1-27.42.07V491.9A13.7,13.7,0,0,1,3213.08,478.19Z"/><path class="cls-4" d="M3213.08,662a13.71,13.71,0,0,1,13.69,13.69h0v30.24a13.71,13.71,0,0,1-27.42,0V675.67A13.71,13.71,0,0,1,3213.08,662Z"/><path class="cls-4" d="M3257.7,534.88,3279,513.54a13.71,13.71,0,0,1,19.38,19.38l-21.35,21.34a13.72,13.72,0,1,1-20.35-18.4,12.94,12.94,0,0,1,1-1Z"/><path class="cls-4" d="M3127.74,664.82l21.34-21.34a13.72,13.72,0,0,1,19.37,19.38l-21.33,21.34a13.72,13.72,0,0,1-19.38-19.38Z"/><path class="cls-4" d="M3289.89,585.16h30.18a13.72,13.72,0,0,1,.61,27.43h-30.79a13.72,13.72,0,1,1-.61-27.43Z"/><path class="cls-4" d="M3106.11,585.16h30.17a13.72,13.72,0,0,1,.61,27.43h-30.78a13.72,13.72,0,0,1-.62-27.43Z"/><path class="cls-4" d="M3257.7,643.5a13.71,13.71,0,0,1,19.37,0h0l21.36,21.32a13.71,13.71,0,0,1-18.65,20.11c-.25-.24-.5-.48-.73-.73h0l-21.34-21.34a13.71,13.71,0,0,1,0-19.38Z"/><path class="cls-4" d="M3127.74,513.54a13.72,13.72,0,0,1,19.38,0h0l21.33,21.34a13.72,13.72,0,0,1-19.37,19.38h0l-21.34-21.35a13.69,13.69,0,0,1,0-19.37Z"/><path class="cls-5" d="M2956.63,957.76A30.83,30.83,0,0,0,2976.06,903V828.39a14.73,14.73,0,0,0-14.69-14.69h-9.47a14.72,14.72,0,0,0-14.68,14.69V903a30.83,30.83,0,0,0,19.38,54.76h0Zm4.73-138a8.66,8.66,0,0,1,8.65,8.61v76.08a3,3,0,0,0,1.24,2.44,24.81,24.81,0,1,1-34.66,5.47l0,0a25.32,25.32,0,0,1,5.42-5.42,3,3,0,0,0,1.24-2.44V828.39a8.66,8.66,0,0,1,8.65-8.64Z"/><path class="cls-5" d="M2937.83,926.94a18.81,18.81,0,1,0,25.22-17.68v-66a4.76,4.76,0,0,0-4.77-4.76h-3.34a4.75,4.75,0,0,0-4.77,4.76h0v66A18.82,18.82,0,0,0,2937.83,926.94Z"/><path class="cls-5" d="M2987.45,835.87a2.48,2.48,0,0,0,2.48,2.47h5.1a2.49,2.49,0,0,0,2.48-2.47v-2.73a2.48,2.48,0,0,0-2.48-2.48h-5.1a2.48,2.48,0,0,0-2.48,2.48h0Z"/><path class="cls-5" d="M2987.45,852a2.48,2.48,0,0,0,2.48,2.48h5.1a2.49,2.49,0,0,0,2.48-2.48h0v-2.71a2.47,2.47,0,0,0-2.47-2.47h-5.11a2.48,2.48,0,0,0-2.48,2.46h0Z"/><path class="cls-5" d="M2987.45,868.19a2.47,2.47,0,0,0,2.46,2.48H2995a2.48,2.48,0,0,0,2.48-2.47h0v-2.73A2.48,2.48,0,0,0,2995,863h-5.1a2.48,2.48,0,0,0-2.48,2.48h0Z"/><path class="cls-5" d="M2987.45,884.36a2.48,2.48,0,0,0,2.48,2.48h5.1a2.48,2.48,0,0,0,2.48-2.48h0v-2.72a2.48,2.48,0,0,0-2.47-2.48h-5.11a2.47,2.47,0,0,0-2.48,2.47h0Z"/><path class="cls-5" d="M2987.45,900.52a2.46,2.46,0,0,0,2.46,2.48H2995a2.48,2.48,0,0,0,2.48-2.46V897.8a2.48,2.48,0,0,0-2.48-2.48h-5.1a2.48,2.48,0,0,0-2.48,2.48h0Z"/><path class="cls-5" d="M2880.67,813.57h7.22l-2.45-4.24a2.21,2.21,0,0,1,3.82-2.21l2.46,4.27,3.53-6.13h-4.91a2.21,2.21,0,0,1-.25-4.41h5.16l-3.6-6.25a2.2,2.2,0,1,1,3.81-2.2h0l3.61,6.2,2.45-4.26a2.21,2.21,0,0,1,3.83,2.2l-2.46,4.26H2910l-2.45-4.26a2.2,2.2,0,0,1,3.81-2.2l2.47,4.26,3.6-6.25a2.2,2.2,0,1,1,3.81,2.2l-3.6,6.25h4.91a2.21,2.21,0,1,1,.33,4.4h-5.24l3.53,6.13,2.45-4.27a2.21,2.21,0,0,1,3.83,2.21l-2.47,4.26h7.19a2.2,2.2,0,1,1,0,4.4H2925l2.46,4.26a2.2,2.2,0,1,1-3.79,2.23l-2.46-4.26-3.54,6.13h4.91a2.21,2.21,0,1,1,.33,4.41h-5.24l3.61,6.24a2.21,2.21,0,0,1-.78,3h0a2.21,2.21,0,0,1-3-.77l-3.6-6.25-2.46,4.25a2.21,2.21,0,1,1-3.82-2.21h0l2.45-4.24H2903l2.45,4.24a2.2,2.2,0,0,1-.78,3h0a2.19,2.19,0,0,1-3-.76h0l-2.46-4.26-3.6,6.25a2.21,2.21,0,0,1-1.91,1.1,2.18,2.18,0,0,1-1.88-3.3h0l3.6-6.24h-5a2.21,2.21,0,0,1-.25-4.42h5.16l-3.54-6.13-2.45,4.27a2.21,2.21,0,0,1-3.82-2.21l2.46-4.27h-7.24a2.2,2.2,0,1,1,0-4.4Zm19.66,12.74h12.16l6.08-10.53-6.08-10.53h-12.16l-6.08,10.53Z"/></g></g><g id="Ebene_2-4" data-name="Ebene 2-4"><g id="Ebene_2-2-4" data-name="Ebene 2-2-4"><path class="cls-3" d="M1490.32,723l-.11-.12"/><path class="cls-5" d="M1128.16,641.55a5.31,5.31,0,0,1-5.31-5.31h0v-5.3a5.31,5.31,0,0,1,10.61,0v5.3a5.3,5.3,0,0,1-5.3,5.31Z"/><path class="cls-5" d="M1133.46,662.77a5.31,5.31,0,0,1-10.61,0v-5.31a5.31,5.31,0,0,1,10.61-.36,2.16,2.16,0,0,1,0,.36Z"/><path class="cls-5" d="M1133.46,689.28a5.31,5.31,0,1,1-10.61,0V684a5.31,5.31,0,0,1,10.61,0Z"/><path class="cls-5" d="M1149.37,641.55a5.29,5.29,0,0,1-5.3-5.29h0V631a5.31,5.31,0,1,1,10.61,0v5.3a5.3,5.3,0,0,1-5.3,5.31h0Z"/><path class="cls-5" d="M1149.37,668.06a5.29,5.29,0,0,1-5.3-5.29v-5.31a5.31,5.31,0,0,1,10.61,0h0v5.31a5.29,5.29,0,0,1-5.3,5.29Z"/><path class="cls-5" d="M1149.37,694.59a5.3,5.3,0,0,1-5.3-5.3h0V684a5.31,5.31,0,0,1,10.61,0v5.31a5.3,5.3,0,0,1-5.3,5.31Z"/><path class="cls-5" d="M1106.94,641.55a5.3,5.3,0,0,1-5.3-5.3h0V631a5.31,5.31,0,1,1,10.61,0v5.3a5.3,5.3,0,0,1-5.3,5.31h0Z"/><path class="cls-5" d="M1112.25,662.77a5.31,5.31,0,0,1-10.61,0v-5.31a5.31,5.31,0,0,1,10.61-.36v5.67Z"/><path class="cls-5" d="M1112.25,689.28a5.31,5.31,0,1,1-10.61,0V684a5.31,5.31,0,0,1,10.61,0Z"/><path class="cls-5" d="M1061.07,710.5h8.75V593.82a42.43,42.43,0,0,1,42.43-42.42h15.92a5.29,5.29,0,0,1,5.3,5.29h0v27a26.51,26.51,0,0,1,21.21,26,5.3,5.3,0,0,1-5.3,5.31H1107a5.3,5.3,0,0,1-5.3-5.31,26.53,26.53,0,0,1,21.21-26V562h-10.61a31.82,31.82,0,0,0-31.82,31.82h0V710.47H1365a7.16,7.16,0,0,1,7.16,7.17v6.88a7.16,7.16,0,0,1-7.16,7.17H1061.05a7.18,7.18,0,0,1-7.15-7.17v-6.88A7.17,7.17,0,0,1,1061.07,710.5Z"/><path class="cls-5" d="M1072.73,742.31H1353.3A2.73,2.73,0,0,1,1356,745h0v.11c-2.08,37.76-18.47,76.85-42.43,88.87a21.21,21.21,0,1,1-33.79,3.77H1146.41a20.61,20.61,0,0,1,1.87,17.19,21.21,21.21,0,1,1-35.64-21.22c-24.13-12-40.52-51.12-42.43-88.87A2.71,2.71,0,0,1,1072.73,742.31Z"/><path class="cls-3" d="M1303.27,588.05c5.54-1.86,11.66-5.59,14.53-10.77,1.11-2,1-2.87,2.26-4.11,1-.91.71-.71,1.56.13s.44,1.86,1.24,3.16a30.5,30.5,0,0,0,6.42,8.09,42.08,42.08,0,0,1,8.28,11.92c1.38,2.83,5.33,8.7,7.61,12.6,10.61,17.95,29.89,34.83,43.8,48.87,21.33,21.52,42,39.25,66.09,55.35,4,2.69,6.16,3.34,8.49,4.87s2.64,2.59,3.84,2.21c3.62-1.12,3.95-4,2.51-7-.8-1.68-1.79-.62-3.81-1.69-19.76-10.53-31.2-26.62-37.65-48.79-1.24-4.16-3.28-19-2.44-23.33,4-20.37,7.46-40.16,26.69-50.57,27.21-14.7,40.65,2.57,52.21,26.36a50,50,0,0,1,3.26,10.19c1,5.75,2.49,12.63,3,19s1.86,13.31.91,19.8c-1.73,12-2,22.47-5.23,34.74-3.92,14.76-10,15.56-24.86,15.2-1.24,0-1.56,2.23-1.24,3.54.09.4-.86,2.35.46,2.67.08.19-.31,0,.12.27,5,2.41,19.16,8.44,23.54,10.21,15.12,6.06,40.22,16.47,50.5,21.48,17.89,8.74,22.07,11.87,31.19,22.83,3.79,4.55,2.41,3.41,1.63,7.66-2.62,14.29-6.6,23-18.19,34.31-11.25,11-31.12,19.55-46.2,25.45-10.56,4.14-20.83,7.93-29.61,13.73-3.11,2-3.27,3.3-4.91,6.06-2.28,3.83-3.11,5.86-1.87,10.64.71,2.79-.15,5.11-1.49,8.88-3.26,9.11-6.64,20.94-11.47,29.94.26-15.88.63-32,.8-47.89,3.69-2.49,5.07-2.69,8.35-6.64,7.87-9.49,23.33-15.22,34.54-19.58,9-3.53,21.85-8.92,28.39-12.39,14.85-7.89,25.21-16.43,31.65-30.12,2.83-6,4-9.39,3.54-15.21-.18-2.25-.37-1.73-2.76-4.15-12.92-13.14-30.54-19.58-49.25-27.39-3.94-1.65-21.16-8.8-27.5-11.47s-15.14-6.36-20.89-8.7c-2.61-1.07-1.67-.67-3.68-1.48.23-.16-.15,0,.2-.45-2.12,2.82,2.44-3.11-1.24,1.65s-7.59,6.91-9.23,18c-1.06,7.17-3,14.85-2.7,26.73.36,14.79,1.41,37.57,3.53,54,2,15.56,3.61,35.95,4.12,49.5.63,16.36-1.08,22.37-2.57,36.53-.16,1.51-1.1,1.12-1.12,2.73,1.11.62,2.74,3.82,3.48,4.77,23.43,29.78,44.88,65,55.72,100.4,4.1,13.44,3.69,18.65,5.48,29.15s-.51,17.4-.43,25.75c0,2.92-1.92,6-.86,6.15,12,2.3,22.53-2.94,34.33-4.68.87-.14,1,1.7,1.24,3.17.29,1.95,2.69,4.76,3.73,7.07,1.24,2.7-1,5.11-3.81,5.91-1.33.39-1.94.9-1.13,1.76,2.94,3.12-39.21,4.5-43.33,4.71-1,.05-10.54-2.7-9.2,1.24s13.06,2.49,15.84,2.72c6.73.55,26.73,3,5.38,2.36-3.78-.1-20.27-1.19-27.26-1.65s-25.58-1.59-31.11-2c-19.47-1.41-35.84-4.13-53.55-2.23-4.71.51,6.78,1.35,9,1.49,3.31.23,8.94.81,14.18.79a309,309,0,0,1,34.54,1.94c3.28.37,11.88,1,14.69,1.15,11,.8,36.42-2.19,42.67,5.7,2.56,3.25-6.14,1.94-11.25,2.3-8.44.63-24.17,2-36.06,2.12-3,.06-15.69.71-19.85,1s-18.08,3.28-19.49,3.54c-8.66,1.36-41.42-.19-39.6,9.19.35,1.86,8.08.93,10.82,1,6.66.17,19,2,24.86,2.93,7.07,1.16,9.32,2.56,14.19,5.54,1.71,1.06-.12.93.7,1.31a19.48,19.48,0,0,0,2.48.71c.82.27,1.87.45,2.3,1.1.7,1-.21,1.14-.91,1.66a3,3,0,0,0-1.41,1.74,5,5,0,0,1-1.42,2.37c-.36.36-1,1.16-1.77,1.3-2.75.13-9.94.38-11.92.37a162.44,162.44,0,0,0-18.83,1.18c-3.29.38-3.79-.1-5.35,1.42s4.67-.18,4.24,0c-1.09.52-3.87.7-7.41,1.23-7.59,1-21.27,1.42-26.87,9.52-3.5,5.08.65,8.37,2.82,13.83,1.06,2.68,10.57,3.68.46,6.91a134.62,134.62,0,0,1-31.51,5.54c-1.3.08-1.25-1.07-2.21-2.57s-3.37-5.47-4.63-7.19-5.28-5.44-4.36-7.21c3.34-6.21,3.09-6.83,10.09-10.45,9.2-4.79,23.4-8.33,34-11.54,5.21-1.57-.46-2-3.69-1.92a75.16,75.16,0,0,1-9.07-1.24,57.32,57.32,0,0,0-9.79-.9c-1.6.08-6.48.87-6-.18,1.51-3.15,3.37-2.34,7.11-3.73,5.16-2,14.19-.59,19.8-3.28s4.88.25-6.09-2.67c-28.58-7.59-1.1-11.47,14.34-13.48,4.54-.62,24.31-5.7,31.48-6.36,1.71-.16,8.16-.25,3.4-1.57-11.75-3.26-28.34-3.85-39.35-4.35a70.53,70.53,0,0,1-8.71-.71c-2.94-.38-1.41-.66-3.53-1s-7-.94-8.57-1.08c-8.57-.78-29.4.37-31.65-8.67-1-4,11-2.2,13.67-2.66.62-.12,5-.29,6-.5,0-.63-1-1.25-1.42-1.55-.77-.63-2.12-1.7-1.9-2.62.62-2.66,1.86-3.89,4.18-5.16,3-1.63,3.61-3.81,7.17-5.37s7.78-.34,12.48.92c2.26.62,8.91,2.17,11.73,1.19,3.86-1.34,6.18,2.95,8.57-1.7,7.43-14.42,7.39-26.1,8.49-43.51s2.88-39.49,8-57.45a242.62,242.62,0,0,1,26.87-61.35,25.91,25.91,0,0,1,3.1-4.24c-.31-1.42-.52-.24-.92-1.67-4.68-16.92-5.74-28.38-8.77-48.09-1.63-10.6-1.46-39.37-.93-50.45,1.41-28.88,4.24-53.63,13.59-78.42,4.49-11.91,5.2-1.52,2.17-12.19-1.42-5-6.29-3.54-11-7.18-12-9.32-23-14.62-35.72-26.06-23.16-20.88-48.36-46.37-68.59-70.83a37.64,37.64,0,0,0-10.56-9.19c-9.33-5.66-20.64-9.11-29.83-12.73-4.81-1.86-8.87-1.08-10.37-5.38C1294.2,588,1299.89,589.19,1303.27,588.05Zm198.81,109.07c3.42-8.23,2.45-17.87,3.83-26.87,1.24-8.2.62-17.54-.35-26-1.81-15.23-6.12-31.36-15.87-43-6.79-8.09-12.43-9.71-22.08-11.9-3.54-.79-5.26-.29-9.39,1.91-5.89,3.11-11.77,7.07-16,14.21-3,5.07-7.24,12.73-8.37,19.54-2.93,17.68-1,34.74,5.14,51.82a42,42,0,0,0,4.82,8.74C1456.12,701.23,1490.21,725.7,1502.08,697.12Zm-3,404c3.49,0,4.18-.7-1.07-1.93-4.06-.94-11.19-3.06-12.2-1.41-1.29,2.12-.18,2-1.91,2.93-2.12,1.18,12.23.37,15.18.41Zm-67.93-112.62c-3.85,15.67-6,36.56-6.69,52.27-.71,15.24-1.64,27.58-6.37,40.4-1.28,3.47-1.41,2.08-2.49,4.42s-2.12,2.69-3.58,4.69c-.67.91-2.33,2.12-2.74,3.29,5.65,0,14.85-.08,20.35-.15,27.57-.44,58.52-.1,84.43.24,10.8.14,7.13.38,14.6.19,3.53-.09,1.41-.15,4.28-.14-1.36-.23-2.92-.08-3.29-1.55-.92-3.61-3.73-2.58-3.81-7.46,0-1.59,1.18-3.32,1.1-7-.21-10,3.22-14,1.41-26.29a216.35,216.35,0,0,0-24.75-74c-8.59-15.86-22-39-34.37-53.48-2.55-3-2-5.37-5.42-4.65s-2.65.62-4.87,4.24c-12.42,20-21.94,41.12-27.8,64.92ZM1463.6,848.4c-.48-5-2-20.79-2.61-27.89s-1.51-16.53-2.19-23.08c-.31-3-.34-2.49-.58-4.91-.08,2.36-.11,2.94-.24,5.46-.3,5.49-.29,9.62-.63,16.15a481,481,0,0,0,1,51.59c1.37,17,2.95,24.86,5.21,39.67.19,1.24.44.82.62,2.12.12-1.59.44-1.24.62-2.83,2-19.24.75-35.62-1.23-56.27Z"/><path class="cls-3" d="M1447.05,663.06c.3.47-.22,2.82.06,4.59.62,4.05,1,9.33,4.86,12.57,5.59,4.73,11.8,8.08,19.41,5.6,6.69-2.24,8.59-9.14,10.29-15.23.47-1.69.52-3.89.87-5,.45-1.45.3-1.87,1.51-1.2s1.42,1.32.92,3.35c-1.75,7.07-1.82,17-10.57,19.89-15.26,5-21.86-.38-29.36-13.67-1.76-3.12-1-7.62-.12-10.57C1445.47,661.62,1446,661.34,1447.05,663.06Z"/><path class="cls-3" d="M1461.7,638.19a3.61,3.61,0,0,1-3.31,3.36c-2.12,0-3.53-2.2-3.11-4.76a3.68,3.68,0,0,1,2.69-3.23C1460.31,633.1,1462.15,635.36,1461.7,638.19Z"/><path class="cls-3" d="M1475.92,638.07a3.6,3.6,0,0,1-3.3,3.35c-2.12,0-3.54-2.19-3.11-4.75a3.65,3.65,0,0,1,2.68-3.23C1474.51,633,1476.35,635.24,1475.92,638.07Z"/></g></g><g id="Ebene_2-5" data-name="Ebene 2-5"><g id="Ebene_2-2-5" data-name="Ebene 2-2-5"><path class="cls-5" d="M2503.25,686.51a26.19,26.19,0,0,1,7.92-13.33c-14.65-15.57-8.54-33.35-4.7-44.46A33.84,33.84,0,0,0,2509,619a22.68,22.68,0,0,0-2.93-.49c-11.45-1-25,5.3-36.29,16.87-10.94,11.19-17.29,24.92-16.17,35C2454.3,676.88,2467.87,684.35,2503.25,686.51Z"/><path class="cls-5" d="M2547.09,769.09c5-3.91,5-19.39-10.85-51.08a26.46,26.46,0,0,1-15.44-.22c-6.17,20.4-24.61,24-36.16,26.27a39.06,39.06,0,0,0-9.71,2.71,20.49,20.49,0,0,0,1,2.84c4.85,10.37,17.13,18.95,32.85,23C2523.94,776.43,2539,775.06,2547.09,769.09Z"/><path class="cls-5" d="M2595.35,705.36a33.52,33.52,0,0,0,7.18,7,24.74,24.74,0,0,0,1.92-2.27c6.57-9.41,7.86-24.33,3.48-39.93-4.23-15-12.92-27.36-22.15-31.41-5.75-2.53-19.24,5.31-38.84,35a24.32,24.32,0,0,1,2.07,2,26.05,26.05,0,0,1,5.46,11.43C2575.27,682.3,2587.65,696.49,2595.35,705.36Z"/><path class="cls-5" d="M2540.15,683.19a14.83,14.83,0,1,1-20.91-1.83,14.83,14.83,0,0,1,20.91,1.83Z"/><path class="cls-5" d="M2396.89,879.23a26.06,26.06,0,0,1-2.49-15.29c-21.22-2.52-28-20.07-32.19-31a33.91,33.91,0,0,0-4.31-9,22.83,22.83,0,0,0-2.57,1.52c-9.39,6.57-15.73,20.1-17,36.26-1.18,15.6,2.78,30.19,10.09,37.18C2353.19,903.31,2368.4,900.31,2396.89,879.23Z"/><path class="cls-5" d="M2483.55,914.3c1.33-6.22-8.62-18.08-41.15-32.15a26.56,26.56,0,0,1-12,9.77c8.39,19.58-3.41,34.23-10.81,43.35a38.83,38.83,0,0,0-5.67,8.3,20.45,20.45,0,0,0,2.6,1.51c10.4,4.83,25.33,3.53,39.94-3.51C2470.54,934.8,2481.18,924.07,2483.55,914.3Z"/><path class="cls-5" d="M2479.59,834.47a33.54,33.54,0,0,0,10,.75,21.89,21.89,0,0,0,0-3c-1-11.43-9.62-23.7-22.95-32.83-12.89-8.8-27.48-12.66-37.14-9.85-6,1.75-11.33,16.45-7.26,51.76a25.38,25.38,0,0,1,2.88.22,26.08,26.08,0,0,1,11.52,5.23C2449.35,829.71,2467.94,832.62,2479.59,834.47Z"/><path class="cls-5" d="M2423,853a14.82,14.82,0,1,1-17.18,12A14.82,14.82,0,0,1,2423,853Z"/><path class="cls-5" d="M2325.84,725.12A26.16,26.16,0,0,1,2314.1,715c-17.87,11.72-34.34,2.66-44.64-3.08a34.21,34.21,0,0,0-9.09-4.17,21.85,21.85,0,0,0-1,2.81c-3,11.07.86,25.51,10.31,38.66,9.09,12.72,21.53,21.32,31.63,22C2307.85,771.71,2317.57,759.58,2325.84,725.12Z"/><path class="cls-5" d="M2414.78,696.28c-3-5.62-18.2-8.34-52.19,1.81a26.56,26.56,0,0,1-2.89,15.16c19,9.62,19.39,28.41,19.58,40.18a39.89,39.89,0,0,0,1,10,19.87,19.87,0,0,0,3-.53c11.06-3,21.66-13.58,28.34-28.36C2418,720.37,2419.25,705.32,2414.78,696.28Z"/><path class="cls-5" d="M2360.4,637.69a34,34,0,0,0,8.18-5.84,19.7,19.7,0,0,0-1.92-2.27c-8.11-8.1-22.58-12-38.71-10.37-15.54,1.56-29.19,8-34.78,16.36-3.48,5.22,1.92,19.88,27.72,44.32a22.22,22.22,0,0,1,14.54-5.07C2334.21,653.46,2350.32,643.75,2360.4,637.69Z"/><path class="cls-5" d="M2329,688.2a14.82,14.82,0,1,1-5.42,20.24h0A14.82,14.82,0,0,1,2329,688.2Z"/><path class="cls-3" d="M1922.45,997.81a3.87,3.87,0,0,1,2.93,4.11c-.4,2.23-3,3.33-5.6,2.39-1.78-.67-2.88-1.95-2.91-3.44C1916.78,998.36,1919.51,996.84,1922.45,997.81Z"/><path class="cls-3" d="M2024.39,1154.69a15.93,15.93,0,0,0,2.93,0c.91-.08-1.41-.14-1.56-.14S2023.36,1154.6,2024.39,1154.69Z"/><path class="cls-3" d="M2031,1163.12a1.2,1.2,0,0,0,.91,0c.31-.12-.38-.17-.47-.17S2030.69,1163,2031,1163.12Z"/><path class="cls-3" d="M2018.15,1163.49a16,16,0,0,0,2.94,0c.91-.09-1.41-.14-1.57-.14S2017.12,1163.44,2018.15,1163.49Z"/><path class="cls-3" d="M2019.08,1177.43a47.23,47.23,0,0,0,4.76,0c1.52-.08-2.27-.11-2.47-.11S2017.46,1177.35,2019.08,1177.43Z"/><path class="cls-3" d="M2021.64,1189.18a7.08,7.08,0,0,0,1.84,0c.56-.09-.91-.15-1-.15S2021,1189.08,2021.64,1189.18Z"/><path class="cls-6" d="M1902,950c-.67.76-1.29,1.51-1.93,2.27-.11.14-.23.27-.33.41.32-.61.66-1.23,1-1.87Z"/><path class="cls-6" d="M1905.19,977.67l-.15.09-.1-.21Z"/><path class="cls-6" d="M1902,950c-.67.76-1.29,1.51-1.93,2.27-.11.14-.23.27-.33.41.32-.61.66-1.23,1-1.87Z"/><path class="cls-6" d="M2319.86,898.36a38.52,38.52,0,0,0-10.56-2.15c-1.75-.07-5.31-.5-7.83-.89s-6-.83-9.1-1.11c-1.4-.14-4.27-.38-5.81-.56-2.09,1-2.41,1.11-4.66,2.28-15.29,7.58-29.82,17-44.64,26.37-1.67,1.06-6.21,3.9-8.19,5.19-1.74.25-2.34.36-4.06.55-6.51.75-9.26,1-17.54,1.51-2.06.14-13.69.67-18.5.87-9.29.37-22.9,1.15-31.53,1.72-3,.2-3.47.83-4.21.22s-1.58.41-.44-1.11c2.5-3.33,11-6.88,20.21-12,12.52-6.89,34.49-17.89,47.81-29.42,5.07-4.41,5.2-7,7.58-16.79,2.13-8.85,6.06-27.78,7.43-38.65.28-2.16-.25-3.63,1.07-4.82s3.16-.67,5.85-1c6.92-1.05,21.32-1,27.28-.11,6.27,1,7.58.75,5.77-3.23-2.31-5.13-5.49-7.43-11-9.1-4.16-1.28-11-.83-15.44-.17-5.37.75-12.52,2.32-16.67,4.58-2.67,1.44-.94,1.74-.82,3.47.07,1,.83,1.33.54,2.75s-.32,2.54-.57,4.55a348.9,348.9,0,0,1-9.51,48.13c-.45,1.62-1,3.63-1.52,5.31-1.33,1-2.71,2.1-4.06,3.13-14.52,11.11-31.07,19.76-47.05,28.38-5.51,3-14.66,7.85-18.5,10s-1.51.82-4,1.66c-11.17,3.86-17.57,9.61-28.68,17.24-24.44,16.79-55.3,37.9-83.8,47.13-11.21,3.61-13.19,3.32-21.91,4.23a105.56,105.56,0,0,0-13.46,2c-.81.15-.39-1-1.37-3.68-3-8.15-7.06-15.74-15.11-22.87a71.69,71.69,0,0,0-7.58-5.84c.34-.29.67-.59,1-.88l1.47-1.38,1.45-1.33,11.37-12.95c1.91-2.14,3.74-4.45,5.47-6.77.44-.57.86-1.16,1.29-1.75a12.85,12.85,0,0,0,1.16-2c.54-1.31,1.15-2.6,1.81-3.85a36.39,36.39,0,0,0-2.62,3.19,11.77,11.77,0,0,1-1.39,1.52c-.5.45-1,.9-1.58,1.33-2.15,1.76-4.31,3.44-6.6,5l-8.62,6c1.14-1.44,2.27-2.85,3.48-4.2,1.62-1.86,3.36-3.68,5.16-5.49l5.44-5.45,2.7-2.78a16.18,16.18,0,0,0,1.34-1.52,8,8,0,0,0,1.13-1.94,4,4,0,0,0,.11-2.09,2,2,0,0,1,.07-1.33c-.33.17-.47.76-.51,1.33a3.37,3.37,0,0,1-.49,1.75,9.66,9.66,0,0,1-2.73,2.36l-3.13,1.94-6.38,3.84c-2.14,1.28-4.28,2.62-6.4,4.06s-4.2,3-6.19,4.55l-3.58,3.69-2.1,2.15-2.09,2.09a17.35,17.35,0,0,1-3.79,3l.31.58-.85-.38.06,0a36.89,36.89,0,0,0,3.79-4.75c1.09-1.57,2-3.12,3-4.6s1.93-3.08,2.85-4.62c.7-1.18,1.39-2.37,2.07-3.56,2.35-5.3,4.43-10.72,6.58-16,1.08-2.67,2.18-5.26,3.33-7.86.59-1.29,1.19-2.57,1.82-3.87a14.32,14.32,0,0,1,2-3.55,12,12,0,0,0-2.82,2.9c-.88,1.07-1.79,2.14-2.67,3.24-1.74,2.19-3.43,4.44-5.09,6.67-3.33,4.54-6.51,9.09-9.85,13.41q-1.23,2.19-2.52,4.35c-.89,1.51-1.79,2.94-2.74,4.42s-1.88,3-2.81,4.33a28.39,28.39,0,0,1-2.92,3.64,16.73,16.73,0,0,1-2.88,2.5l-1.29-.4a3.12,3.12,0,0,1,.31-.76l1.07-2,2.22-4.09,2.21-4.1c.76-1.38,1.52-2.83,2.27-4.19.12-1.51.23-3,.39-4.49s.56-3,.64-4.6c-1.34,1-2.67,1.45-4.12,2.38-.94.57-1.88,1.16-2.8,1.76-.67.76-1.28,1.52-1.93,2.28l-.33.41,1-1.88,1.26-.82.6-.71a98.12,98.12,0,0,1,10.51-12.93c2-2,4-4,6.12-5.79,1.07-.9,2.2-1.77,3.3-2.55.49-.32,1.19-.63,1.84-1a5.8,5.8,0,0,0,1.89-1.44,4.92,4.92,0,0,1-2,.94c-.67.18-1.33.29-2,.5a39,39,0,0,0-3.88,1.66c-2.53,1.24-5,2.67-7.39,4.12a100.72,100.72,0,0,0-13.81,10.21c-1.16,1.33-2.28,2.67-3.4,4-.67.81-1.34,1.59-2,2.42s-1.33,1.69-1.92,2.53c-1.24,1.69-2.42,3.38-3.58,5a87.14,87.14,0,0,1-7.06,9.16h0c-1.72-.13-3.45-.21-5.14-.22.21-.38.43-.76.66-1.13.66-1.07,1.33-2.15,2.05-3.18a48.53,48.53,0,0,1,9.72-12.83c2-1.89,4.26-3.72,6.43-5.64,1.07-1,2.16-2,3.16-3a15.9,15.9,0,0,1,1.52-1.33,9.66,9.66,0,0,1,.88-.55,2.76,2.76,0,0,0,1-.93,2.4,2.4,0,0,1-1,.67c-.35.13-.66.2-1,.32a14.67,14.67,0,0,0-1.87.91c-1.21.69-2.41,1.39-3.63,2-2.46,1.29-5,2.48-7.46,3.83a54,54,0,0,0-13.77,10.93c-1,1.52-2,3-3,4.55q-1.74,2.9-3.23,5.85c-10.89,1.18-19.18,4.08-25.86,11-5.6,5.8-6.93,8.45-6.06,16.26,1.38,12.88,8.86,21.09,20.9,29.42,10.36,7.19,28.17,13.13,41.9,14.22,6,.47,12.6,1.08,17.81.5,7.58-.86,13.45-3.22,19.88-6.07a32.57,32.57,0,0,0,12.12-9c.54-.67.41-.86.81-.33s3-1.1,3-.88,6.76-4,4.8-.8c-2.86,4.66-13.32,18.6-16.67,22.74-5.55,6.88-9.34,12.89-14.76,16.92-14.09,10.48-28.46,18.26-43.35,26.8-.83.48-1.51.76-2.41,1.26-1.22-.76-4.31-2.79-5.26-3.37a107,107,0,0,1-15.55-12c-3.51-3.34-6.31-6.53-9.86-6.88-2.43-.24-2.44.52-3,2.47-.81,3,.57,7.83,2.34,10.93a10.93,10.93,0,0,0,3,2.47,22.12,22.12,0,0,1,3.47,2.85c1.05,1,.06.94,1.85,2.2,3.38,2.37,11.08,3.38,15.81,4.27.94.18,3.79,1.09,5,1.27,2.39.37,2.17,1.09,5.11-.75,1.11-.72,6.66-4,9.33-5.57,10.66-6,29.49-16.31,37.19-23.5,12.06-11.28,17.23-21,25.64-31.83,2.43-3.16,3.39-5.54,4.71-6.38s.28.08-.1,1.38a258.65,258.65,0,0,0-6.66,28.52,229.3,229.3,0,0,1-5.31,22.59,110.31,110.31,0,0,1-6.19,15c-5.14,10.66-12.09,25.52-16.68,35.63-2.42,5.3-4.55,10.18-5.61,12.22-1.74,3.45-.85-.09-2,.16-.67.15-1.89-1.52-2.62-1.73-4-1.39-8.07-1.92-11,2.15-3.33,4.66-17.58,4.27-20.35,4.4-7.58.35-73.29,3.49-74,6.83-.49,2.62,37.62,4.81,40.5,4.81,1.08,0,9.49.19,7.67,1-.92.43-4.08.2-1.23.9,7.58,1.83,17.82,1,28.2.94,9.51-.1,7.37.35,2.35.87-9.51,1-22.17,1.52-30.54,6.42-.94.55-.38.51-1.2,1,2.17-.1,2-.12,4.5-.2,5.54-.18,10.66-.3,17.52-.41,21.83-.32,52.83-.81,72.28-1.43,3.46-.11,5-.23,5.68-.3.14-.12.82-.09,0,0-.07.07,0,.16.5.3,2.23.67-5.7,1.52-7.52,2-11.37,2.61-38.83,6.82-47.64,14.47-1.51,1.34-3.37,1.13-1.72,1.94,10.8,5.3,4.13,4.2,24.75,5.8s60.45.93,85.57-.23c1.69-.08,9-.12,10.24-.27H2059c-2.62,0-5.31,0-8-.06v-12.13c2,0,4.21-.12,6-.11h.47c-.93,0-19.93-.33-26.74-.16-7.58.19-30.9-.07-31.92-.17-6.48-.54,11.33-3.52,29-6.88,6.35-1.21,21.32-3.48,26.77-4.44s5.92-.92,9.5-1.52l.71-.11.48-.08c-.63,0-.38-.06-1.1-.06-1.6,0-6.2.85-7.33,1-1.82.29-9.15,1.33-7.07.81a3.43,3.43,0,0,0,1.06-.26c.43-1-.32-4.43.14-4.92,1.82-1.89-2-4.62.13-5.72,1.25-.67,1.51-.07,8.38-.13,25.45-.21-48.25-1.22-70.43-1.51-3.44,0-25-.42-31.61-.72s-22.89-.46-27.4-.89-20.1.1-18.54-.76c5.94-3.33,48.11-.58,61.25-.62,17.43,0,47.47.13,64.25-2.43,10.07-1.52,8.34-.85.21-2.11-12.5-1.93-36.32-1.52-49.85-1.6-5.26,0-16.28.86-16.19-.6.49-8.71,13.59-31.57,16-36.94,5.73-12.66,10-20.65,12.09-27.8a218.87,218.87,0,0,0,5.51-23.56c2-10,3.1-16,5.88-25.32.45-1.51,1.16-3.89,1.75-5.81.26-.87.76-2.62,1.11-3.6,1.9-.09,5.64,0,7.16-.08,5-.23,7.69,0,12.38-1a140.94,140.94,0,0,0,21.37-5.69A278.93,278.93,0,0,0,2135,953.88a80.57,80.57,0,0,0,15-14.75c.86-1.1.86-1.45,1.62-2.48.91,0,1.7,0,2.6,0a26.82,26.82,0,0,0,3.79-.26c6.82-.75,20.25-1.28,26.87-1.56,15-.67,27.76-.9,41.82-2.75,1.8-.24,2.12-.31,3.91-.61,2.17-1.39,7.15-4.54,9-5.67,14.16-8.92,27.74-17.66,42.17-25.09,1.85-.94,2.13-1,3.79-1.89,1.07.54,1.86.92,3,1.45a119.27,119.27,0,0,0,15.16,5.17l3.89,1.1c.47-.28,1.33-.62,1.75-.91,2.45-1.6,8.29-2.07,10.22-2.27,2.18-.23,6.16.67,6.06-1.43S2322.4,899.38,2319.86,898.36ZM1965.53,1017a19,19,0,0,1-4.13.21,14.44,14.44,0,0,1-1.74-.17c.38-.48,1.25-1.78,1.56-2.13,2.89-3.33.29-10.41,4.12-8,1.88,1.19,2.38,3.92,2.73,5.76.52,2.76.11,3.85-2.54,4.32Zm11.2-3.33c-2.28,1-4.23,2.22-6.07,1.95-.76-.11,0-1.18-.17-2.08-.3-1.84-.49-5.19-1.84-7-2.34-3.09-5.53-4.62-8.45-1.13-2.08,2.48-.3,5.31-2.67,9.18-.44.76-1,1.67-1.51,2.41-.67,0-2-.06-2.67,0-8,0-19.89-2.76-26.26-4.55-2.66-.76-4.43-1.23-4.89-1.64-4-1.58-19.83-11.32-22.19-13.55-3.22-3-6.66-6.6-8.34-10.24-3.63-7.94-4.55-13.91,1.52-20.85,4.43-5.24,10.88-7.24,18.34-9.24.53-.14,6.2-.5,8.34-.62a90.11,90.11,0,0,1,11.62,0,106.29,106.29,0,0,1,24.66,6l.25.11c.76.28,1.47.59,2.16.9a102.81,102.81,0,0,1,11.62,6l.47.29c9.65,5.93,17.77,13.77,21.23,24.62,3.9,12.24-6.31,15.67-15.16,19.53Zm71.76,125.48c.09,0,.76.06.48.17a1.25,1.25,0,0,1-.93,0c-.32-.11.36-.17.45-.17Zm90.25-197.4c-15,14.4-37.25,27.78-56.52,37.27-7,3.47-15.42,8.53-21.15,9.5-1.43.24.86-.67,3.33-1.86,17.11-8.41,40.17-23.91,55-34,9.54-6.46,16.95-13.37,23-14.83,1.89-.45-1,1.36-3.64,3.9Z"/><path class="cls-6" d="M1909.26,1003.07l-.17-.14Z"/></g></g></g></g></svg>