<svg xmlns="http://www.w3.org/2000/svg" viewBox="0 0 3536.24 1987.45"><defs><style>.cls-1{fill:none;}.cls-2{fill:#ef7a1a;}.cls-3{fill:#010101;}.cls-4{fill:#ef791b;}.cls-5{fill:#2a4b9b;}.cls-6{fill:#1d1d1b;}</style></defs><g id="Ebene_2" data-name="Ebene 2"><g id="Ebene_1-2" data-name="Ebene 1"><rect class="cls-1" width="3536.24" height="1987.45"/><g id="Ebene_2-2" data-name="Ebene 2"><g id="Ebene_2-2-2" data-name="Ebene 2-2"><path class="cls-2" d="M1319.64,1324.41H1318V1196.77h1.66a9.36,9.36,0,0,0,0-18.71H1318V1136a28.83,28.83,0,1,0-57.65-1v43.12H1244V1136a28.83,28.83,0,0,0-57.66-1v43.12H1170V1136a28.83,28.83,0,0,0-57.66-1v43.12H1096V1136a28.83,28.83,0,0,0-57.66,0v42.11h-10v-5a9.36,9.36,0,0,0-18.72,0v28.67a9.36,9.36,0,0,0,18.72.57v-5.55h10v180.48a28.83,28.83,0,0,0,57.66,0v-34.17h16.35v34.17a28.83,28.83,0,0,0,57.66,1v-35.18h16.35v34.17a28.83,28.83,0,0,0,57.66,1v-35.18h16.36v34.17a28.83,28.83,0,0,0,57.66,0v-34.17h1.65a9.36,9.36,0,0,0,0-18.71Zm-223.67,0V1196.77h16.36v127.64Zm74,0V1196.77h16.36v127.64Zm74,0V1196.77h16.35v127.64Z"/><path class="cls-3" d="M1017.25,1163c-1.76-.15-2,.82-4.3,1.62-6,2.07-6.16,4.35-14.53,3.26-6.76-.88-13.42-.11-23.68.66-5.78.44-16.26-2-25.84-4.71-44.25-12.46-24.89-78.59-49.87-102-38.29-36-52.74-28.3-97.81-24.89-7.52.57-9.11,4.72-13.18,5.08s-4.46,2.64-5.94,1.88c-4.39-2.27-5.09-5.61-3-9.66,1.2-2.25,2.11-.27,5-1.38,28.32-10.79,45.23-31,58.21-59.4,2.43-5.27,8.79-25.89,8.71-32.07-.56-29.24-1.27-57.78-25.8-76.39-34.7-26.31-58.46-4.19-79.23,26.45a75.72,75.72,0,0,0-6.93,13.64c-2.7,7.75-6.42,17.36-8.46,26s-5.75,18.59-5.54,27.4c.4,16.31,0,30.45,6,45.8,7.29,18.46,15.35,20.91,32.91,28.5,1.5.64,1.76,3.08,1.42,5-.09.57,1.17,3.09-.63,3.52-.08-5.87-13.67-4.11-15.7-6.94-20.43-28.65-82.5,7-103.66,13.26-69.68,20.63-57.47,8.66-84.66-44.74-1.47-2.87,3.29-4,.09-6.36a13.73,13.73,0,0,0,2.36-6.06c1-14.37-3.21-28.6-8.89-41.13-3.51-7.81-4.32-17.12-12.3-19.7-5.52-1.76-.84,6.54-3.08,11s-1.45,10-10.4,13.06c-4.35,1.52-18,11.34-23.08,15.16-8.3,6.31-39.25,34.73-33.86,44,11.12,19.16,33.51-14.14,47.07-18.79,10.35-3.52,22.56-5.91,32.46,3.33,4.51,4.21,4-7.69,5.7,8,11,99.95,95.09,46.23,153.09,28.12,26.09-8.13,31.31,5.45,48.67,13.29,9.36,4.22,5.5,1,9,5.44,8.56,10.82,8.2,12.61,13.34,27.59a177.3,177.3,0,0,1,8.39,36.38c2.76,20.66,3,53,1.58,76.41-1.3,22.15-1.66,51.13-1.81,70.31-.19,23.21,2.89,32,5.37,52,.27,2.13,1.59,1.59,1.68,3.87-1.65.88-3.74,5.58-4.79,6.94-33,42.78-61.25,94-76.71,144.26-5.85,19-3.9,26.66-6.49,41.55s1.31,24.61,1.17,36.43c0,4.14,2.89,8.38,1.4,8.69-17.07,3.63-32.12-3.39-49-5.48-1.24-.16-1.38,2.42-1.64,4.53-.34,2.79-3.51,6.77-5,10.12-1.7,3.92,1.8,6.89,5.59,8.33,1.82.68,3.65.4,1.47,2.63-7.91,7.91,51,5,61.71,4.93,2.43,0,14.79-4.13,13.28,1.44s-18.46,4-22.32,4.39c-9.33,1-37.74,5.09-7.56,3.52,5.33-.28,28.77-2.35,38.67-3.23s36.29-3.1,44.16-3.85c27.58-2.64,50.62-7,75.78-4.91,6.7.55-9.32,2.16-12.46,2.43-4.71.42-12.61,1.44-20.06,1.59a432,432,0,0,0-49,3.94c-4.66.64-16.9,1.76-20.85,2.1-15.53,1.48-51.86-1.9-60.36,9.48-3.51,4.68,8.79,2.55,16,2.88,12,.55,34.38,2,51.28,1.86,4.19,0,22.34.47,28.28.8s25.95,4.06,28,4.32c12.47,1.62,62.21-1.55,60.29,11.58-.38,2.58-11.18,1.76-15,2-9.19.69-26.07,3.8-34.28,5.48-9.75,2-13,4.12-19.6,8.57-2.32,1.56.2,1.28-.95,1.88a30.73,30.73,0,0,1-3.51,1.17c-1.13.42-2.56.74-3.15,1.67-.92,1.46.31,1.6,1.31,2.29a4.22,4.22,0,0,1,2.06,2.39,7.08,7.08,0,0,0,2,3.29c.52.48,1.35,1.58,2.51,1.76,3.85.06,13.9,0,16.63-.08a223.94,223.94,0,0,1,26.29.7c4.61.36,5.28-.34,7.51,1.76s-6.53,0-6,.24c1.56.68,5.43.87,10.41,1.34,10.66,1.07,29.72.88,37.85,12.1,5.09,7-.76,11.9-3.52,19.68-1.37,3.81-14.56,5.77-.44,9.8s29.18,5.71,44.15,6.2c1.76.06,1.76-1.57,3-3.73s4.55-7.92,6.27-10.4,7.2-7.91,5.82-10.41c-4.8-8.6-4.39-9.44-14.36-14.27-13.06-6.34-32.9-10.55-48-14.59-7.39-2,.45-2.93,5-2.9a103.53,103.53,0,0,0,12.73-2.18,79,79,0,0,1,13.7-1.75c2.24,0,9.16.87,8.37-.58-2.39-4.35-4.65-3.19-10.16-4.91-7.57-2.36-19.61-.44-28.12-3.52s-7.3.83,7.58-4c38.79-12.67-.3-16.81-20.85-18.68-6-.54-37-7-47.26-7.61-2.42-.15-11.71-.14-5.09-2.1,16.4-4.87,39.74-6.39,55.16-7.49a101.58,101.58,0,0,0,12.18-1.27c4.15-.64,2-1,4.93-1.49s9.79-1.56,12-1.82c12.07-1.34,41.31-.43,44.22-13.26,1.27-5.65-15.6-2.76-19.41-3.33-.88-.13-7-.22-8.46-.51,0-.88,1.43-1.76,1.91-2.23,1.06-1,2.91-2.48,2.58-3.76-1-3.74-2.81-5.44-6.1-7.15-4.24-2.21-5.28-5.28-10.29-7.36s-11-.22-17.48,1.76c-3.17,1-12.44,3.35-16.44,2-5.45-1.75-8.58,4.4-12.07-2.11-10.82-20.22-11.26-36.75-13.14-61.32s-5.37-55.95-12.84-81.31c-9.07-30.64-22.86-59.23-39.69-86.34a37.2,37.2,0,0,0-4.52-6c.48-2,.7-.36,1.21-2.42,6.1-24.27,7-40.61,10.08-68.83,1.65-15.24-1-56.06-3.25-71.7-5.83-40.74-16.07-73.2-30-108.45-6.69-16.93-9.76-2.89-1.21-16,4-6.15,5.69-6.43,16.62-6.77,28.07-.88,15.26-10.76,52-1.07,67,17.66,35.1,80.46,71.29,121.2,6.68,7.52,18.37,10.9,25,16a226.52,226.52,0,0,0,49.61,28.07c8.23,3.33,9.79,7.24,15.82,4.2,7.11-3.58,0-8.24-3.13-13-5.08-7.78-4.94-18.58-1.15-27,1.46-3.27,2.54-4.56,2.95-7.23C1018.85,1162.72,1019,1163.16,1017.25,1163ZM817.1,867c7.47,5.86,14.82,12.31,19,23.26,3,7.75,7.33,19,7.22,28.83a150,150,0,0,1-19.08,72.16A56,56,0,0,1,816,1002.6c-26.05,25.77-52.32,36-76.41.88-6.93-10.11-6.28-22.86-6.54-35.41-.23-11.42,2.26-24.39,5.59-35.92,6-20.83,15.61-42.71,31.65-57.13,11.16-10,19.91-11.22,34-12.73C809.38,861.74,811.87,862.86,817.1,867Zm-9.43,307.22c2.77,21,3.76,52.31,3.07,71.66-.88,23.9-3.16,37-5.62,58.16-.21,1.82-.71,1.19-.87,3.1-.17-2.28-.72-1.86-1-4.21-2.76-27.61-2.55-51.71-1.13-81.25.35-7.22.76-28.79,1-38.77s.5-23.23.62-32.53c.05-4.22.08-3.93.1-7.48.45,3.37.6,4.4,1.15,8C806.23,1158.62,806.47,1165.08,807.67,1174.18Zm4.17,155.9c17.46,28.44,31.25,58.37,40.06,91.8,5.8,22,9.08,50.84,10.4,73,1.28,21.46,3.28,39,9.74,57.33,1.76,4.95,2.16,3.23,3.67,6.56s3.19,3.89,5.28,6.72c1,1.29,3.27,2.79,3.77,4.51-7.91.08-20.9.24-28.59.24-38.51,0-82.28,1.13-118.28,2.1-15,.41-12.26.72-21.35.61-12.72-.17-2.86,1-2.29-2.34.88-5.12,5.1-4.39,5-11.22,0-2.19-1.81-4.58-1.62-9.76.49-14.11-5-20-2.34-37.41,5.53-36.11,15.57-70.41,34.15-105.61,11.93-22.59,30-54.85,47.32-75.42,3.58-4.25,3-7.91,8-7S808.72,1325,811.84,1330.08ZM776,1577.38c2.68,2.55,1.58,3,3.16,4.31,1.92,1.62-15,.88-20.7.88-6.69,0-3.7-1,.6-2.74C762.41,1578.5,774,1575.42,776,1577.38Z"/><path class="cls-3" d="M816.32,970.34c-.53.69-.33,4-1.07,6.35-1.76,5.32-3.13,12.5-8.89,16.1-8.37,5.22-16.78,8-26.3,3.17-8.42-4.27-11-13.69-13-22.18-.56-2.37-.24-5.27-.59-6.87-.46-2-.17-2.93-2-2s-2.23,1.51-1.6,4.51c2.2,10.43,2,22.59,13.58,28.32,20.26,10,27.56,5.57,40.43-12.13,3-4.16,3-10,2.4-14.59C818.93,968.32,818.26,967.87,816.32,970.34Z"/><path class="cls-3" d="M808.27,926.59c-.42,2.78-2.36,4.75-4.67,4.75-3,0-5-3.1-4.39-6.72.44-2.46,1.86-4.19,3.8-4.57C806.31,919.39,808.9,922.6,808.27,926.59Z"/><path class="cls-3" d="M787,930.33c-3,2-6.46.08-6.86-3.85-.25-2.64,1-5.21,3-6.15a4.2,4.2,0,0,1,5.46,2C789.87,925,789.11,928.87,787,930.33Z"/></g></g><g id="Ebene_2-3" data-name="Ebene 2"><g id="Ebene_2-2-3" data-name="Ebene 2-2"><path class="cls-3" d="M2693.36,503.91a2.45,2.45,0,0,1,.32,2.07c-.32,1.22-.21,1.27,3.52,1.64,37.41,3.39,118.19,27.67,210.53,63.23,35.78,13.78,66.31,26.71,85.26,36.1,8.43,4.13,9.67,4.61,11,4.19,2.22-.8,4.46.8,7.42,5.14,5.89,8.69,8.37,19.92,8.37,37.9,0,20.78-3.6,43.07-12,74.46-9.8,36.68-26.36,82.91-43.83,122.18-1.64,3.66-3,6.89-3.13,7.21s2.34,2.28,5.42,4.39c12.07,8.11,23,17.71,43.94,38.75,27.62,27.62,53,56.25,89.37,100.75,24.49,30,44.57,55.61,45,57.57.69,2.76-1.32,6-5.19,8.48-8.54,5.41-34.19,11.51-84.44,20.09-7.91,1.32-19.19,3.29-25.18,4.29-28.19,4.83-31.9,5.73-43.15,10.76l-3.06,1.38,32.52,0c20.94,0,35.35.22,40.49.64,4.35.38,14.07,1.17,21.48,1.76,47.86,3.71,71.6,7.69,67.78,11.29-1.59,1.54-9.53,3.39-20.35,4.77-5.94.74-26.51,2.91-28.31,3-.47,0,.17.53,1.33,1.11a12.92,12.92,0,0,1,3.34,2.28l1.12,1.22-44.27.37c-33,.26-49.08.64-63,1.38-10.27.58-20,1.06-21.57,1.06s-2.63.21-2.38.42a60.75,60.75,0,0,0,6.36,2.76,329.46,329.46,0,0,1,30.21,13.88c22.15,12.35,25.18,20.57,9.28,25.55-23.53,7.42-80.87,7.37-198-.21-25.13-1.64-36.68-2.17-68.11-3.18-26.14-.88-26.24-.88-14.58-1,5.83-.1,10.07-.32,9.38-.42a2.45,2.45,0,0,1-1.48-.88c-.53-1.49-1-20-.48-20.22.26-.15-.42-.26-1.64-.26s-3.61-.21-5.28-.37l-3.13-.32-1.48,3.4c-2.17,5-5.27,9.48-10.29,14.73-3.51,3.71-4.23,4.72-3.51,4.93s.32.26-.63.32c-1.49,0-1.44-.11,2.43-4.08a90,90,0,0,0,6.21-6.89c2.22-2.87,6.47-10.82,6.47-12.09,0-.48.58-.75,1.42-.75,2.64,0,35.73,2.64,65.62,5.28,52.06,4.56,82.11,5.46,132.25,3.87,12.08-.37,29.2-.87,38-1.06,25.34-.63,26.83.16-29.26-16l-26-7.47-8.75-.74c-4.83-.43-15.37-1.17-23.49-1.59s-15.26-1.06-15.9-1.33-.88-.48-.52-.48c.94-.05.87-1.1-.06-1.1a10.58,10.58,0,0,1-2.22-.54c-4.4-1.7,6.25-3.52,28.41-4.77,17.33-1,22.31-1.48,28.12-2.54,10.76-2.07,24.28-3.13,47.71-3.77,17.38-.47,50.56,0,65.57,1,7.15.43,12.3.37,29.41-.53,11.42-.58,22-1.11,23.48-1.17,7.11-.21-22.85-1-59.89-1.48-22.74-.27-44.69-.8-48.76-1.06-6.84-.47-7.64-.42-10.24.53-4.35,1.64-6.78,1.43-8.85-.74a7.25,7.25,0,0,0-3.6-2.17c-2.12-.43-4-1.59-3.45-2.13a11.31,11.31,0,0,1,2.86-1c2.5-.63,2.5-.63,3.39-3.87,1.44-5.27,2.13-6,8-8.16a14.31,14.31,0,0,0,3.87-2.76l2-2,16-.47c14.53-.37,16.81-.58,24.49-2,4.67-.88,18.46-3.34,30.77-5.41,38.42-6.52,60.21-10.76,73.93-14.42,11.88-3.12,20.05-6.57,19.4-8.11-.95-2.49-45-57.35-66-82.1-41.87-49.45-79.25-88.15-101.56-105.06-5.27-4-11.34-8.16-11.87-8.16-.75,0-1.54,2.7-2.44,8.22-.43,2.91-1.17,6.94-1.6,9-1,4.5-1,4.5-.1,4.5a26.65,26.65,0,0,1,4.93,2.07c18.19,8.85,30.38,30.37,35.46,62.86,1.17,7.16,1.64,28.41.88,36.42-4.4,44.26-24,77.81-49.45,84.49a40.57,40.57,0,0,1-15.91,0c-17-4.51-31-22.32-38.27-48.61-9-32.38-5.14-74.58,9.44-103.57q11.52-22.86,27.88-31c3.76-1.91,9.49-3.71,11.71-3.71,1.27,0,1.49-.32,2.28-3.08a25.62,25.62,0,0,0,.88-5.72c0-2.71-.88-9.17-1.22-9.53s-16.17,4.39-22.11,6.51c-20.94,7.31-34,14.2-45.85,24.06-2.63,2.23-8.48,7.26-13,11.3-10.55,9.43-17,14.78-23.73,19.82l-5.41,4.08-.05,20.94c0,34.93-2.06,156.94-2.64,157.47s-36.19,1.07-35.88.53-20-1.37-20.77-.88-14.52.47-15.59.05a2.65,2.65,0,0,1-1-3.44,28.37,28.37,0,0,1,4.08-3.82c16.81-13.52,28.51-16.33,40-9.6a71.11,71.11,0,0,0,16.53,7A43.47,43.47,0,0,0,2823,1103c.52-.58,2.32-114.64,2.32-149.1V930.06l5.67-4.29c7.21-5.4,16.06-12.82,26.94-22.47,15.82-14.07,23.16-19.46,35-25.44,11-5.57,25.81-11,43-15.91l8-2.22.68-3c.75-3.44,8-28.78,13.26-46.43,23.84-80.09,35.61-129.91,40-170.08.88-8.38,1.59-19.94,1.16-19.94-1.7,0-62.28-4-73-4.76-57.19-4.35-93.87-10.08-128.54-20.15a376.19,376.19,0,0,1-96.46-43.62l-6.37-4-.68,1.91a21.65,21.65,0,0,0-.88,12l.88,3.4-5.2,6.25c-5.09,6.1-5.27,6.41-6.2,10.65-.58,2.39-1.27,4.35-1.59,4.35a11.62,11.62,0,0,1-2.39-.53c-1.69-.48-2-.37-5,2.49-6.46,6-9.49,7.47-11.55,5.62-.88-.79-1-1.38-.8-3.92.31-3.76,2.86-9.33,8.27-17.92,2.28-3.65,5.19-8.69,6.42-11.19,2.9-5.82,5.35-9.59,8.15-12.61a33.89,33.89,0,0,0,3.71-5c1.76-3,3-3.86,6.26-4.23,2.22-.21,2.54-.11,2.54.74,0,1.11,4.09,3.86,17,11.61a370.89,370.89,0,0,0,66.68,31.32c44.37,15.32,87.41,22.32,171.31,27.78,30.37,2,37.32,2.38,37.48,2.17.58-.58-34.19-15.69-59.2-25.76-84.07-33.71-168.93-61.27-214.41-69.7-9.22-1.7-18.55-2.91-22.11-2.91h-2.7l.27,3.71.26,3.7-5.27,3.24c-12.31,7.58-23.8,18.07-30.53,27.93a32.52,32.52,0,0,1-4.72,5.78c-1.33.88-1.38.88-2.54-.48-2.5-2.91-3.52-13.57-1.7-18.82,3-8.85,12.41-18.66,25.55-26.6,5.56-3.39,18.34-9.6,19.67-9.6A2.69,2.69,0,0,1,2693.36,503.91Zm313.21,152.35c-3.77,26.19-10,55.38-19.34,90.43-2.39,8.9-15.11,53.48-17.12,60.1-2.18,7-.59,3.4,4.39-10.12,17.86-48.07,28.89-87.9,33.18-119.95,1.23-8.91,2-28.31,1.28-32.39-.42-2.48-.42-2.48-.63-.73C3008.26,644.58,3007.46,650.3,3006.57,656.26Zm-66.8,238.57c-8.11,1.49-17.87,9-25,19.08-9,12.78-15.42,31.44-18.54,53.54-1,7.42-.88,29.89.26,37.47q5.17,34.74,20.94,50.15c4.44,4.34,5.51,5.19,9,6.94a24.18,24.18,0,0,0,12.93,2.75c21-2,39.49-29.47,45.7-68.06,3.82-23.73,1.17-51-6.94-71.39-6.73-17-18.81-29.2-30-30.48-4.94-.6-5.31-.6-8.39,0ZM2746.2,1150.68a7.91,7.91,0,0,0,2.38,0c.7-.1.16-.21-1.17-.21s-1.84.09-1.2.19Zm3.51,21.21a20.9,20.9,0,0,0,3.71,0c.88-.1,0-.22-2-.22s-2.82.1-1.7.2Z"/><path class="cls-3" d="M2940.1,925.77c6,1.7,11.43,6,15.64,12.31a24.43,24.43,0,0,1,2.63,4.61c0,.58-3.6,2.28-3.92,1.8,0,0-.74-1.22-1.48-2.55-3.45-6-9-10.49-14.85-12-6.35-1.64-13.3.65-20.87,6.79l-4.3,3.52-1.38-1.76-1.37-1.7,2.8-2.43a47.32,47.32,0,0,1,12.46-7.85C2929.28,925.14,2936.38,924.71,2940.1,925.77Z"/><path class="cls-3" d="M2920.57,1000.86c.42,2.78,2.36,4.75,4.67,4.75,3,0,5-3.11,4.39-6.73-.43-2.45-1.86-4.18-3.79-4.56C2922.53,993.66,2919.94,996.87,2920.57,1000.86Z"/><path class="cls-3" d="M2941.86,1004.6c3,2,6.46.08,6.86-3.86.26-2.64-1-5.21-3-6.15a4.19,4.19,0,0,0-5.46,2C2939,999.26,2939.74,1003.16,2941.86,1004.6Z"/><path class="cls-4" d="M3060.34,355.07A64.88,64.88,0,1,1,2995.47,420h0A65,65,0,0,1,3060.34,355.07Z"/><path class="cls-4" d="M3060.34,264.24a17.69,17.69,0,0,1,17.7,17.69h0v38.93a17.69,17.69,0,1,1-35.38,0V281.93A17.69,17.69,0,0,1,3060.34,264.24Z"/><path class="cls-4" d="M3060.34,501.33A17.7,17.7,0,0,1,3078,519h0V558a17.69,17.69,0,0,1-35.38,0V519A17.7,17.7,0,0,1,3060.34,501.33Z"/><path class="cls-4" d="M3117.89,337.37l27.53-27.52a17.69,17.69,0,0,1,25,25l-27.53,27.53a17.7,17.7,0,1,1-25-25Z"/><path class="cls-4" d="M2950.25,505l27.52-27.53a17.7,17.7,0,0,1,25,25l-27.52,27.53a17.7,17.7,0,0,1-25-25Z"/><path class="cls-4" d="M3159.42,402.24h38.93a17.69,17.69,0,0,1,.79,35.38h-39.72a17.69,17.69,0,0,1-.79-35.38Z"/><path class="cls-4" d="M2922.34,402.24h38.93a17.69,17.69,0,1,1,.78,35.38h-39.71a17.69,17.69,0,1,1-.79-35.38Z"/><path class="cls-4" d="M3117.89,477.5a17.69,17.69,0,0,1,25,0h0L3170.44,505a17.69,17.69,0,1,1-25,25h0l-27.53-27.53a17.69,17.69,0,0,1,0-25Z"/><path class="cls-4" d="M2950.25,309.85a17.69,17.69,0,0,1,25,0h0l27.52,27.52a17.7,17.7,0,0,1-25,25h0l-27.52-27.53a17.68,17.68,0,0,1-.05-25Z"/><path class="cls-5" d="M2729.52,882.89a39.77,39.77,0,0,0,25.06-70.63V716a19,19,0,0,0-18.95-18.95h-12.21A19,19,0,0,0,2704.48,716v96.23a39.76,39.76,0,0,0,25,70.63h0Zm6.1-178A11.16,11.16,0,0,1,2746.77,716v98.15a3.87,3.87,0,0,0,1.6,3.14,32,32,0,1,1-44.66,7,32.35,32.35,0,0,1,7-7,3.87,3.87,0,0,0,1.6-3.14V716a11.16,11.16,0,0,1,11.15-11.14Z"/><path class="cls-5" d="M2705.27,843.13a24.26,24.26,0,1,0,32.53-22.8V735.15a6.15,6.15,0,0,0-6.16-6.15h-4.3a6.15,6.15,0,0,0-6.16,6.15v85.18A24.26,24.26,0,0,0,2705.27,843.13Z"/><path class="cls-5" d="M2769.27,725.65a3.21,3.21,0,0,0,3.2,3.19h6.58a3.21,3.21,0,0,0,3.2-3.19v-3.52a3.2,3.2,0,0,0-3.2-3.2h-6.58a3.2,3.2,0,0,0-3.2,3.2h0Z"/><path class="cls-5" d="M2769.27,746.5a3.2,3.2,0,0,0,3.2,3.2h6.58a3.21,3.21,0,0,0,3.2-3.2h0V743a3.19,3.19,0,0,0-3.2-3.19h-6.58a3.2,3.2,0,0,0-3.2,3.18h0Z"/><path class="cls-5" d="M2769.27,767.35a3.2,3.2,0,0,0,3.18,3.2h6.6a3.2,3.2,0,0,0,3.2-3.19h0v-3.52a3.2,3.2,0,0,0-3.2-3.2h-6.58a3.2,3.2,0,0,0-3.2,3.2h0Z"/><path class="cls-5" d="M2769.27,788.2a3.2,3.2,0,0,0,3.2,3.2h6.58a3.2,3.2,0,0,0,3.2-3.2h0v-3.51a3.19,3.19,0,0,0-3.2-3.19h-6.58a3.19,3.19,0,0,0-3.2,3.18h0Z"/><path class="cls-5" d="M2769.27,809.05a3.19,3.19,0,0,0,3.18,3.2h6.6a3.19,3.19,0,0,0,3.2-3.18v-3.53a3.2,3.2,0,0,0-3.2-3.2h-6.58a3.2,3.2,0,0,0-3.2,3.2h0Z"/><path class="cls-5" d="M2631.53,696.89h9.31l-3.16-5.47a2.85,2.85,0,0,1,4.93-2.85l3.17,5.5,4.56-7.91H2644a2.85,2.85,0,0,1-.32-5.69h6.66l-4.65-8.06a2.84,2.84,0,1,1,4.92-2.84h0l4.65,8,3.17-5.49a2.84,2.84,0,0,1,4.93,2.84l-3.17,5.49h9.13l-3.16-5.49a2.84,2.84,0,1,1,4.92-2.84l3.18,5.49,4.65-8.06a2.84,2.84,0,1,1,4.92,2.84l-4.65,8.06h6.33a2.85,2.85,0,1,1,.32,5.69h-6.65l4.56,7.91,3.16-5.51a2.85,2.85,0,0,1,4.93,2.85l-3.18,5.49h9.28a2.84,2.84,0,0,1,0,5.68h-9.27l3.17,5.5a2.84,2.84,0,0,1-1,3.88,2.86,2.86,0,0,1-3.89-1l-3.17-5.5-4.56,7.91h6.33a2.85,2.85,0,1,1,.32,5.69h-6.65l4.65,8.05a2.85,2.85,0,0,1-1,3.88h0a2.84,2.84,0,0,1-3.88-1l-4.65-8.06-3.18,5.49a2.84,2.84,0,1,1-4.92-2.85l3.16-5.48h-9.11l3.16,5.48a2.84,2.84,0,0,1-1,3.89h0a2.83,2.83,0,0,1-3.89-1l-3.17-5.49-4.65,8.06a2.85,2.85,0,0,1-2.46,1.42,2.89,2.89,0,0,1-1.43-.38,2.85,2.85,0,0,1-1-3.88h0l4.65-8.05H2644a2.85,2.85,0,0,1-.32-5.69h6.66l-4.57-7.91-3.16,5.5a2.85,2.85,0,0,1-4.93-2.85l3.17-5.5h-9.34a2.84,2.84,0,0,1,0-5.68Zm25.36,16.43h15.69l7.84-13.58-7.84-13.59h-15.69l-7.84,13.59Z"/></g></g><g id="Ebene_2-4" data-name="Ebene 2"><g id="Ebene_2-2-4" data-name="Ebene 2-2"><path class="cls-3" d="M1786.36,523a.8.8,0,0,1-.15-.17"/><path class="cls-5" d="M1274.19,407.76a7.51,7.51,0,0,1-7.51-7.51v-7.5a7.5,7.5,0,0,1,15,0v7.5a7.5,7.5,0,0,1-7.49,7.51Z"/><path class="cls-5" d="M1281.68,437.76a7.5,7.5,0,0,1-15,0v-7.5a7.5,7.5,0,0,1,15-.52,4.51,4.51,0,0,1,0,.52Z"/><path class="cls-5" d="M1281.68,475.26a7.5,7.5,0,0,1-15,0v-7.51a7.5,7.5,0,0,1,15,0Z"/><path class="cls-5" d="M1304.18,407.76a7.49,7.49,0,0,1-7.49-7.5h0v-7.5a7.5,7.5,0,0,1,15,0v7.5a7.5,7.5,0,0,1-7.49,7.51Z"/><path class="cls-5" d="M1304.18,445.25a7.49,7.49,0,0,1-7.49-7.49v-7.5a7.5,7.5,0,1,1,15,0h0v7.5A7.49,7.49,0,0,1,1304.18,445.25Z"/><path class="cls-5" d="M1304.18,482.76a7.49,7.49,0,0,1-7.49-7.5v-7.51a7.5,7.5,0,0,1,15,0v7.51A7.5,7.5,0,0,1,1304.18,482.76Z"/><path class="cls-5" d="M1244.18,407.76a7.5,7.5,0,0,1-7.5-7.5h0v-7.5a7.5,7.5,0,0,1,15,0v7.5a7.5,7.5,0,0,1-7.5,7.51Z"/><path class="cls-5" d="M1251.68,437.76a7.5,7.5,0,0,1-15,0v-7.5a7.5,7.5,0,0,1,15-.52,4.51,4.51,0,0,1,0,.52Z"/><path class="cls-5" d="M1251.68,475.26a7.5,7.5,0,0,1-15,0v-7.51a7.5,7.5,0,0,1,15,0Z"/><path class="cls-5" d="M1179.3,505.26h12.38v-165a60,60,0,0,1,60-60h22.52a7.49,7.49,0,0,1,7.49,7.5V326a37.5,37.5,0,0,1,30,36.76,7.5,7.5,0,0,1-7.5,7.5h-60a7.5,7.5,0,0,1-7.5-7.5,37.52,37.52,0,0,1,30-36.76V295.23h-15a45,45,0,0,0-45,45h0v165h402.4a10.13,10.13,0,0,1,10.13,10.13v9.74a10.13,10.13,0,0,1-10.13,10.13H1179.27a10.14,10.14,0,0,1-10.1-10.13v-9.74A10.13,10.13,0,0,1,1179.3,505.26Z"/><path class="cls-5" d="M1195.8,550.26h396.78a3.84,3.84,0,0,1,3.83,3.83h0v.15c-2.93,53.4-26.11,108.68-60,125.69a30,30,0,1,1-47.78,5.33H1300a29.15,29.15,0,0,1,2.64,24.3,30,30,0,1,1-50.41-30c-34.12-17-57.3-72.3-60-125.69A3.82,3.82,0,0,1,1195.8,550.26Z"/><path class="cls-3" d="M1521.83,332.1c7.84-2.63,16.49-7.91,20.55-15.23,1.57-2.84,1.34-4.07,3.2-5.82,1.38-1.28,1-1,2.2.18s.63,2.63,1.76,4.48c2.87,4.86,4.08,6.55,9.08,11.43A59.89,59.89,0,0,1,1570.33,344c1.94,4,7.53,12.31,10.76,17.82,15,25.39,42.27,49.26,61.94,69.11,30.16,30.44,59.42,55.51,93.47,78.28,5.68,3.8,8.71,4.72,12,6.89s3.73,3.66,5.43,3.13c5.12-1.59,5.59-5.59,3.56-9.83-1.14-2.38-2.54-.88-5.4-2.39-27.94-14.89-44.12-37.65-53.24-69-1.76-5.89-4.64-26.87-3.45-33,5.65-28.8,10.55-56.79,37.75-71.51,38.47-20.8,57.48,3.63,73.83,37.27a70,70,0,0,1,4.61,14.42c1.45,8.13,3.52,17.86,4.21,26.86s2.63,18.83,1.3,28c-2.45,17-2.8,31.78-7.4,49.14-5.55,20.87-14.22,22-35.16,21.5-1.76,0-2.21,3.15-1.76,5,.13.56-1.21,3.32.65,3.78.12.27-.43,0,.18.38,7.12,3.41,27.09,11.94,33.28,14.43,21.39,8.57,56.88,23.3,71.42,30.39,25.31,12.36,31.22,16.78,44.11,32.28,5.36,6.43,3.41,4.83,2.31,10.83-3.7,20.22-9.34,32.53-25.73,48.52-15.91,15.5-44,27.66-65.33,36-14.94,5.85-29.46,11.21-41.88,19.41-4.39,2.88-4.62,4.67-6.94,8.57-3.23,5.42-4.4,8.29-2.64,15.06,1,3.94-.22,7.22-2.12,12.55-4.6,12.89-9.38,29.62-16.21,42.35.36-22.46.88-45.29,1.12-67.73,5.23-3.52,7.18-3.81,11.81-9.4,11.13-13.42,33-21.52,48.85-27.68,12.76-5,30.91-12.62,40.16-17.53,21-11.15,35.65-23.23,44.76-42.59,4-8.42,5.66-13.29,5-21.52-.26-3.17-.53-2.44-3.9-5.86-18.27-18.59-43.19-27.7-69.65-38.74-5.58-2.33-29.93-12.45-38.89-16.22s-21.41-9-29.55-12.3c-3.69-1.52-2.36-.95-5.21-2.1.33-.22-.21.06.29-.64-3,4,3.45-4.39-1.76,2.34s-10.73,9.77-13.05,25.49c-1.49,10.14-4.24,21-3.82,37.8.51,20.92,2,53.13,5,76.4,2.88,22,5.1,50.83,5.83,70,.88,23.14-1.54,31.64-3.64,51.66-.23,2.13-1.55,1.58-1.59,3.86,1.58.88,3.88,5.4,4.92,6.74,33.14,42.12,63.48,91.9,78.8,142,5.8,19,5.23,26.37,7.76,41.22s-.73,24.61-.61,36.41c0,4.13-2.71,8.42-1.22,8.7,17,3.26,31.87-4.16,48.55-6.62,1.23-.19,1.46,2.41,1.76,4.49.41,2.75,3.8,6.73,5.27,10,1.76,3.81-1.44,7.22-5.38,8.36-1.89.55-2.75,1.27-1.6,2.49,4.16,4.4-55.45,6.36-61.29,6.65-1.33.07-14.9-3.82-13,1.76s18.46,3.52,22.4,3.85c9.52.78,37.8,4.21,7.6,3.34-5.34-.15-28.66-1.69-38.54-2.34s-36.18-2.25-44-2.83c-27.54-2-50.69-5.84-75.73-3.15-6.66.72,9.58,1.9,12.72,2.11,4.69.32,12.64,1.14,20.06,1.11a435.56,435.56,0,0,1,48.84,2.75c4.65.52,16.81,1.34,20.78,1.62,15.56,1.13,51.51-3.1,60.34,8.06,3.63,4.6-8.68,2.75-15.9,3.26-11.94.88-34.18,2.75-51,3-4.17.08-22.19,1-28.08,1.47s-25.56,4.64-27.56,5c-12.24,1.92-58.57-.27-56,13,.49,2.63,11.42,1.31,15.3,1.42,9.42.25,26.8,2.77,35.16,4.15,10,1.64,13.18,3.62,20.06,7.84,2.43,1.5-.17,1.31,1,1.85a28.82,28.82,0,0,0,3.51,1c1.15.38,2.64.64,3.24,1.56,1,1.45-.29,1.61-1.28,2.34a4.32,4.32,0,0,0-2,2.46,7.11,7.11,0,0,1-2,3.36c-.51.5-1.34,1.64-2.51,1.83-3.88.19-14.06.54-16.85.53a230.21,230.21,0,0,0-26.63,1.67c-4.65.53-5.36-.15-7.57,2s6.6-.25,6,0c-1.55.74-5.48,1-10.49,1.75-10.73,1.45-30.08,2-38,13.46-4.94,7.19.92,11.84,4,19.56,1.5,3.79,14.94,5.2.65,9.77s-29.38,6.76-44.57,7.83c-1.83.12-1.76-1.51-3.12-3.63s-4.77-7.74-6.55-10.17-7.47-7.69-6.16-10.19c4.71-8.79,4.36-9.67,14.27-14.79,13-6.77,33.08-11.78,48.12-16.31,7.37-2.22-.65-2.9-5.22-2.72a104.49,104.49,0,0,1-12.82-1.75,79.46,79.46,0,0,0-13.85-1.27c-2.27.11-9.16,1.22-8.46-.26,2.13-4.46,4.77-3.31,10.06-5.28,7.3-2.75,20.06-.83,28-4.63s6.9.35-8.61-3.78c-40.43-10.74-1.56-16.22,20.28-19.06,6.41-.88,34.37-8.07,44.52-9,2.41-.23,11.53-.35,4.81-2.22-16.63-4.61-40.09-5.45-55.66-6.15a100.9,100.9,0,0,1-12.31-1c-4.16-.54-2-.94-5-1.38s-9.89-1.33-12.12-1.53c-12.12-1.09-41.58.53-44.76-12.25-1.4-5.63,15.55-3.12,19.33-3.77.88-.16,7-.4,8.49-.71,0-.88-1.48-1.76-2-2.19-1.09-.88-3-2.4-2.7-3.7.88-3.77,2.63-5.5,5.92-7.3,4.19-2.31,5.1-5.38,10.14-7.6s11-.47,17.65,1.31c3.2.88,12.6,3.07,16.59,1.68,5.45-1.89,8.74,4.17,12.12-2.4,10.5-20.39,10.44-36.92,12-61.53s4.07-55.86,11.26-81.26a343.19,343.19,0,0,1,38-86.76,37.27,37.27,0,0,1,4.39-6c-.45-2-.74-.33-1.31-2.36-6.62-23.92-8.12-40.13-12.4-68-2.31-15-2.07-55.68-1.32-71.35,2-40.84,6-75.85,19.23-110.91,6.34-16.84,7.35-2.15,3.06-17.24-2-7-8.89-5-15.52-10.15-17-13.18-32.52-20.68-50.52-36.85-32.76-29.54-68.4-65.58-97-100.17a53.08,53.08,0,0,0-14.94-13c-13.19-8-29.18-12.89-42.19-18-6.8-2.64-12.54-1.53-14.66-7.61C1509,332,1517.05,333.7,1521.83,332.1ZM1803,486.34c4.83-11.63,3.46-25.27,5.41-38,1.75-11.59.88-24.8-.5-36.74-2.56-21.54-8.65-44.35-22.44-60.83-9.6-11.43-17.58-13.73-31.23-16.82-5-1.12-7.43-.41-13.28,2.7-8.33,4.4-16.64,10-22.56,20.1-4.19,7.16-10.24,18-11.84,27.63-4.15,25-1.39,49.13,7.27,73.29a59.79,59.79,0,0,0,6.81,12.36C1738,492.15,1786.21,526.77,1803,486.34Zm-4.2,571.4c4.93,0,5.91-1-1.52-2.73-5.74-1.33-15.82-4.33-17.25-2-1.83,3-.26,2.77-2.7,4.15-3,1.67,17.29.52,21.47.57Zm-96.08-159.27c-5.44,22.16-8.44,51.7-9.46,73.92-1,21.55-2.32,39-9,57.13-1.82,4.91-2,2.94-3.52,6.25s-3,3.8-5.07,6.63c-.95,1.29-3.29,3-3.88,4.66,8-.06,21-.11,28.78-.22,39-.61,82.76-.14,119.41.34,15.27.2,10.08.54,20.64.27,5-.13,2-.21,6.06-.2-1.92-.32-4.13-.11-4.66-2.19-1.29-5.1-5.27-3.64-5.38-10.55,0-2.25,1.66-4.69,1.55-9.86-.29-14.06,4.55-19.85,2-37.18-5.27-36-16-69.62-35-104.6-12.16-22.44-31.12-55.14-48.61-75.64-3.61-4.24-2.79-7.59-7.67-6.57s-3.75.87-6.89,6C1724.46,835,1711,864.8,1702.71,898.47Zm45.85-198.18c-.68-7.12-2.83-29.4-3.69-39.44s-2.13-23.38-3.1-32.65c-.44-4.19-.47-3.51-.82-6.94-.11,3.34-.15,4.16-.34,7.72-.42,7.77-.4,13.61-.88,22.85-1,21.37-.13,53.44,1.45,72.95,1.94,24.12,4.18,35.16,7.37,56.1.27,1.76.62,1.16.88,3,.17-2.24.62-1.75.88-4,2.83-27.21,1.06-50.38-1.75-79.57Z"/><path class="cls-3" d="M1725.17,438.17c.42.67-.31,4,.08,6.5.88,5.73,1.42,13.19,6.87,17.78,7.91,6.69,16.7,11.42,27.45,7.91,9.47-3.16,12.16-12.92,14.56-21.53.66-2.4.73-5.51,1.23-7.09.63-2.05.42-2.64,2.14-1.7s2,1.87,1.29,4.74c-2.47,10-2.57,24.1-14.94,28.13-21.58,7-30.92-.54-41.52-19.34-2.49-4.4-1.48-10.77-.17-14.94C1722.93,436.14,1723.63,435.75,1725.17,438.17Z"/><path class="cls-3" d="M1745.88,403c-.42,2.77-2.37,4.75-4.67,4.75-3,0-5-3.11-4.4-6.73.44-2.45,1.88-4.18,3.8-4.56C1743.92,395.8,1746.52,399,1745.88,403Z"/><path class="cls-3" d="M1766,402.83c-.42,2.76-2.36,4.74-4.67,4.74-3,0-5-3.1-4.4-6.72.43-2.45,1.87-4.19,3.79-4.56C1764,395.62,1766.6,398.83,1766,402.83Z"/></g></g><g id="Ebene_2-5" data-name="Ebene 2"><g id="Ebene_2-2-5" data-name="Ebene 2-2"><path class="cls-5" d="M2409.22,1096.6a34.53,34.53,0,0,1,10.45-17.58c-19.33-20.54-11.27-44-6.2-58.66a44.9,44.9,0,0,0,3.29-12.78,29.62,29.62,0,0,0-3.86-.65c-15.1-1.33-33,7-47.88,22.26-14.43,14.76-22.8,32.87-21.33,46.16C2344.64,1083.89,2362.55,1093.75,2409.22,1096.6Z"/><path class="cls-5" d="M2467.06,1205.54c6.63-5.16,6.61-25.58-14.32-67.39a34.91,34.91,0,0,1-20.37-.28c-8.14,26.91-32.47,31.7-47.7,34.65a51.81,51.81,0,0,0-12.81,3.58,26.11,26.11,0,0,0,1.36,3.74c6.4,13.68,22.6,25,43.33,30.3C2436.52,1215.22,2456.34,1213.42,2467.06,1205.54Z"/><path class="cls-5" d="M2530.72,1121.47a44.37,44.37,0,0,0,9.47,9.29,30.77,30.77,0,0,0,2.53-3c8.67-12.41,10.38-32.1,4.6-52.67-5.58-19.84-17.05-36.1-29.23-41.44-7.58-3.34-25.37,7-51.23,46.17a32.26,32.26,0,0,1,2.73,2.63,34.37,34.37,0,0,1,7.2,15.07C2504.23,1091.05,2520.56,1109.77,2530.72,1121.47Z"/><path class="cls-5" d="M2457.9,1092.22a19.56,19.56,0,1,1-27.58-2.41,19.55,19.55,0,0,1,27.58,2.41Z"/><path class="cls-5" d="M2268.9,1350.84a34.38,34.38,0,0,1-3.28-20.17c-28-3.32-36.92-26.47-42.47-40.94a44.72,44.72,0,0,0-5.68-11.94,30.36,30.36,0,0,0-3.39,2c-12.39,8.67-20.76,26.52-22.37,47.83-1.56,20.58,3.66,39.83,13.31,49.05C2211.26,1382.61,2231.32,1378.65,2268.9,1350.84Z"/><path class="cls-5" d="M2383.23,1397.11c1.76-8.21-11.37-23.85-54.28-42.42a35,35,0,0,1-15.82,12.89c11.06,25.84-4.5,45.16-14.26,57.2a51.74,51.74,0,0,0-7.49,10.94,26.18,26.18,0,0,0,3.44,2c13.72,6.37,33.41,4.65,52.68-4.63C2366.07,1424.16,2380.1,1410,2383.23,1397.11Z"/><path class="cls-5" d="M2378,1291.79a44.32,44.32,0,0,0,13.19,1,29.07,29.07,0,0,0,0-4c-1.33-15.08-12.7-31.27-30.28-43.31-17-11.61-36.26-16.7-49-13-7.91,2.31-14.94,21.71-9.57,68.29a32.21,32.21,0,0,1,3.79.28,34.39,34.39,0,0,1,15.2,6.91C2338.11,1285.52,2362.64,1289.35,2378,1291.79Z"/><path class="cls-5" d="M2303.39,1316.18a19.55,19.55,0,1,1-22.66,15.87A19.56,19.56,0,0,1,2303.39,1316.18Z"/><path class="cls-5" d="M2175.17,1147.53a34.39,34.39,0,0,1-15.48-13.29c-23.58,15.46-45.31,3.51-58.89-4.07a45.24,45.24,0,0,0-12-5.49,30.74,30.74,0,0,0-1.32,3.7c-3.92,14.61,1.14,33.66,13.6,51,12,16.78,28.41,28.13,41.73,29C2151.44,1209,2164.26,1193,2175.17,1147.53Z"/><path class="cls-5" d="M2292.5,1109.49c-3.93-7.42-24-11-68.85,2.39a35,35,0,0,1-3.81,20c25.09,12.69,25.58,37.48,25.84,53a52.25,52.25,0,0,0,1.29,13.25,27,27,0,0,0,3.92-.7c14.59-3.93,28.57-17.91,37.38-37.41C2296.71,1141.27,2298.41,1121.41,2292.5,1109.49Z"/><path class="cls-5" d="M2220.77,1032.2a44.72,44.72,0,0,0,10.79-7.71,28.2,28.2,0,0,0-2.53-3c-10.71-10.68-29.8-15.82-51.07-13.67-20.51,2.05-38.51,10.55-45.89,21.58-4.59,6.89,2.54,26.22,36.57,58.47a34.77,34.77,0,0,1,3.08-2.22,34.26,34.26,0,0,1,16.1-4.47C2186.21,1053,2207.47,1040.19,2220.77,1032.2Z"/><path class="cls-5" d="M2179.32,1098.83a19.55,19.55,0,1,1-7.16,26.7h0A19.55,19.55,0,0,1,2179.32,1098.83Z"/><path class="cls-3" d="M1643,1507.28c2.64.88,4.27,3.15,3.87,5.42-.52,2.94-3.93,4.4-7.38,3.15-2.35-.88-3.81-2.57-3.84-4.53C1635.52,1508,1639.13,1506,1643,1507.28Z"/><path class="cls-3" d="M1777.49,1714.24a20.85,20.85,0,0,0,3.87,0c1.2-.11-1.86-.18-2.06-.18S1776.13,1714.12,1777.49,1714.24Z"/><path class="cls-3" d="M1786.23,1725.36a1.59,1.59,0,0,0,1.21,0c.4-.15-.51-.22-.62-.22S1785.8,1725.2,1786.23,1725.36Z"/><path class="cls-3" d="M1769.26,1725.85a20.85,20.85,0,0,0,3.87,0c1.2-.12-1.85-.19-2.06-.19S1767.9,1725.78,1769.26,1725.85Z"/><path class="cls-3" d="M1770.48,1744.24a60,60,0,0,0,6.29,0c2-.11-3-.14-3.27-.14S1768.35,1744.14,1770.48,1744.24Z"/><path class="cls-3" d="M1773.86,1759.74a9,9,0,0,0,2.43,0c.74-.12-1.2-.19-1.35-.2S1773,1759.61,1773.86,1759.74Z"/><path class="cls-6" d="M1616.08,1444.15c-.88,1-1.7,2-2.54,3-.15.18-.31.36-.44.54.42-.81.87-1.62,1.31-2.47Z"/><path class="cls-6" d="M1620.23,1480.71l-.19.12-.13-.28Z"/><path class="cls-6" d="M1616.08,1444.15c-.88,1-1.7,2-2.54,3-.15.18-.31.36-.44.54.42-.81.87-1.62,1.31-2.47Z"/><path class="cls-6" d="M2167.28,1376.08a50.24,50.24,0,0,0-13.93-2.83c-2.31-.1-7-.66-10.33-1.18s-7.91-1.09-12-1.47c-1.85-.18-5.64-.49-7.67-.73-2.75,1.33-3.17,1.46-6.15,3-20.16,10-39.34,22.42-58.89,34.8-2.2,1.39-8.19,5.14-10.8,6.84-2.29.33-3.09.47-5.36.72-8.59,1-12.21,1.35-23.13,2-2.72.18-18.06.88-24.41,1.15-12.25.48-30.21,1.51-41.6,2.27-3.92.26-4.57,1.09-5.55.29s-2.09.54-.58-1.47c3.3-4.39,14.5-9.07,26.66-15.76,16.52-9.09,45.5-23.6,63.07-38.82,6.69-5.81,6.87-9.16,10-22.14,2.81-11.68,8-36.65,9.81-51,.36-2.85-.34-4.79,1.41-6.36s4.16-.88,7.71-1.38c9.13-1.38,28.13-1.36,36-.15,8.27,1.27,10,1,7.61-4.26-3.05-6.76-7.25-9.8-14.47-12-5.49-1.69-14.45-1.1-20.37-.23-7.09,1-16.52,3.07-22,6.05-3.52,1.9-1.24,2.29-1.08,4.57.1,1.3,1.09,1.76.72,3.63s-.43,3.35-.76,6a459.11,459.11,0,0,1-12.55,63.5c-.59,2.14-1.36,4.79-2,7-1.76,1.37-3.58,2.77-5.35,4.13-19.16,14.66-41,26.08-62.07,37.44-7.27,3.92-19.34,10.36-24.41,13.18s-2,1.08-5.22,2.19c-14.74,5.1-23.18,12.68-37.84,22.75-32.24,22.15-72.95,50-110.55,62.17-14.79,4.76-17.41,4.39-28.91,5.59a139.93,139.93,0,0,0-17.75,2.64c-1.07.21-.52-1.3-1.81-4.85-3.91-10.75-9.31-20.76-19.93-30.17a94.25,94.25,0,0,0-10-7.7c.44-.39.88-.78,1.29-1.17l1.94-1.81,1.91-1.76,15-17.08c2.52-2.83,4.93-5.87,7.22-8.93.58-.76,1.13-1.54,1.7-2.32a17.68,17.68,0,0,0,1.53-2.63,56,56,0,0,1,2.39-5.08,45,45,0,0,0-3.46,4.21,15.62,15.62,0,0,1-1.83,2c-.67.59-1.38,1.19-2.09,1.76-2.83,2.32-5.69,4.53-8.7,6.63l-11.38,7.85c1.5-1.9,3-3.76,4.59-5.54,2.14-2.45,4.44-4.85,6.81-7.24l7.18-7.19,3.56-3.67a22.07,22.07,0,0,0,1.76-2,10.61,10.61,0,0,0,1.5-2.56,5.28,5.28,0,0,0,.14-2.76,2.63,2.63,0,0,1,.09-1.75c-.43.22-.61,1-.67,1.75a4.47,4.47,0,0,1-.64,2.31,12.82,12.82,0,0,1-3.61,3.11l-4.12,2.56-8.42,5.06c-2.82,1.7-5.65,3.46-8.44,5.36s-5.54,4-8.17,6l-4.73,4.87-2.76,2.84-2.76,2.75a22.94,22.94,0,0,1-5,4l.41.77-1.12-.5.07-.07A48.65,48.65,0,0,0,1699,1449c1.43-2.07,2.7-4.12,3.94-6.07s2.54-4.06,3.76-6.1q1.38-2.34,2.73-4.69c3.1-7,5.84-14.15,8.68-21.09,1.43-3.52,2.88-6.94,4.4-10.36.77-1.71,1.56-3.39,2.4-5.11a18.71,18.71,0,0,1,2.64-4.69,16.35,16.35,0,0,0-3.72,3.83c-1.15,1.41-2.35,2.83-3.52,4.28-2.29,2.89-4.52,5.85-6.71,8.79-4.39,6-8.59,12-13,17.7q-1.62,2.89-3.32,5.73c-1.18,2-2.36,3.88-3.61,5.84s-2.48,3.93-3.71,5.71a38.54,38.54,0,0,1-3.85,4.8,21.76,21.76,0,0,1-3.81,3.3l-1.7-.53a4.5,4.5,0,0,1,.41-1l1.42-2.64,2.92-5.4,2.92-5.41c1-1.82,2-3.73,3-5.52.15-2,.3-4,.51-5.93.1-1.76.74-3.93.84-6.07-1.76,1.3-3.52,1.92-5.43,3.14q-1.87,1.13-3.7,2.33c-.88,1-1.69,2-2.54,3l-.44.54,1.32-2.47,1.66-1.08.8-.94a129,129,0,0,1,13.86-17.06c2.63-2.64,5.27-5.27,8.08-7.64,1.4-1.18,2.89-2.34,4.35-3.36.65-.43,1.57-.84,2.42-1.3a7.52,7.52,0,0,0,2.5-1.9,6.36,6.36,0,0,1-2.64,1.24c-.88.24-1.76.39-2.69.66a53.67,53.67,0,0,0-5.12,2.2c-3.34,1.63-6.59,3.52-9.75,5.43a133.1,133.1,0,0,0-18.22,13.47c-1.53,1.76-3,3.52-4.49,5.27-.88,1.07-1.76,2.1-2.64,3.2s-1.76,2.23-2.54,3.33c-1.64,2.24-3.19,4.47-4.72,6.64a113.37,113.37,0,0,1-9.32,12.09h0c-2.27-.17-4.54-.28-6.78-.3.28-.5.57-1,.87-1.48.88-1.42,1.76-2.84,2.71-4.2a64,64,0,0,1,12.82-16.92c2.69-2.5,5.62-4.91,8.48-7.45,1.42-1.26,2.86-2.64,4.18-3.92a20,20,0,0,1,2-1.75c.36-.27.71-.45,1.16-.73a3.51,3.51,0,0,0,1.26-1.22,3,3,0,0,1-1.36.88c-.47.17-.88.27-1.31.43a18.7,18.7,0,0,0-2.47,1.19c-1.6.92-3.18,1.84-4.79,2.68-3.24,1.71-6.54,3.28-9.84,5.06a71,71,0,0,0-18.16,14.42c-1.38,2-2.68,3.95-3.92,6q-2.3,3.81-4.26,7.72c-14.37,1.55-25.31,5.38-34.12,14.5-7.39,7.65-9.14,11.14-8,21.44,1.83,17,11.69,27.83,27.58,38.82,13.67,9.48,37.16,17.32,55.28,18.76,7.91.61,16.61,1.42,23.49.65,10-1.13,17.74-4.24,26.22-8a43,43,0,0,0,16-11.93c.71-.88.53-1.13,1.06-.44s3.94-1.45,3.9-1.15c-.06.47,8.91-5.27,6.33-1.06-3.78,6.15-17.58,24.54-22,30-7.31,9.08-12.31,17-19.46,22.32-18.59,13.83-37.55,24.09-57.19,35.36-1.1.63-2,1-3.19,1.66-1.6-1-5.68-3.68-6.93-4.45a141,141,0,0,1-20.52-15.82c-4.63-4.4-8.32-8.61-13-9.07-3.21-.32-3.23.68-3.94,3.26-1.07,3.93.76,10.33,3.09,14.42a14.59,14.59,0,0,0,4,3.26,29,29,0,0,1,4.58,3.76c1.38,1.33.07,1.24,2.44,2.9,4.45,3.13,14.61,4.46,20.86,5.63,1.24.24,5,1.44,6.56,1.68,3.16.49,2.87,1.44,6.74-1,1.47-.94,8.79-5.33,12.31-7.34,14.06-7.85,38.91-21.52,49.06-31,15.91-14.89,22.74-27.71,33.83-42,3.21-4.16,4.47-7.3,6.21-8.41s.37.11-.13,1.82a341.71,341.71,0,0,0-8.79,37.63,297.57,297.57,0,0,1-7,29.79c-1.58,5.45-4.91,13.1-8.17,19.86-6.78,14.06-15.94,33.67-22,47-3.19,7-6,13.43-7.4,16.13-2.3,4.55-1.12-.13-2.64.2-.88.21-2.49-2-3.45-2.28-5.27-1.83-10.65-2.53-14.45,2.84-4.39,6.15-23.19,5.63-26.85,5.81-10,.46-96.69,4.6-97.57,9-.64,3.46,49.63,6.35,53.43,6.35,1.42,0,12.52.25,10.12,1.38-1.22.57-5.38.27-1.63,1.19,10,2.42,23.52,1.37,37.21,1.24,12.54-.13,9.72.46,3.1,1.15-12.55,1.35-29.25,2-40.29,8.47-1.24.73-.5.67-1.59,1.28,2.87-.13,2.64-.16,5.94-.27,7.31-.23,14.06-.39,23.12-.53,28.8-.43,69.69-1.07,95.35-1.89,4.57-.15,6.64-.3,7.49-.4.19-.15,1.09-.11,0,0-.09.09,0,.21.66.4,2.94.88-7.52,2-9.92,2.58-15,3.45-51.22,9-62.84,19.1-2,1.76-4.45,1.48-2.28,2.55,14.25,7,5.45,5.55,32.66,7.65s79.75,1.23,112.88-.3c2.23-.11,11.82-.16,13.51-.35H1823.2c-3.45,0-7-.06-10.54-.08v-16c2.63,0,5.55-.17,7.91-.15h.62c-1.22,0-26.28-.43-35.27-.21-10,.25-40.77-.1-42.11-.22-8.55-.72,14.94-4.65,38.22-9.08,8.38-1.6,28.12-4.59,35.31-5.86s7.82-1.22,12.54-2c.55-.1.81-.14.93-.15l.63-.1c-.83,0-.5-.08-1.44-.08-2.11,0-8.18,1.11-9.67,1.34-2.41.38-12.07,1.76-9.33,1.07a4.57,4.57,0,0,0,1.4-.35c.57-1.26-.43-5.84.18-6.49,2.4-2.49-2.64-6.09.17-7.54,1.65-.88,2-.09,11.06-.17,33.57-.28-63.66-1.61-92.92-2-4.53,0-33-.55-41.7-.94s-30.2-.61-36.14-1.18-26.52.13-24.46-1c7.83-4.4,63.46-.77,80.8-.82,23-.07,62.63.17,84.76-3.21,13.28-2,11-1.12.28-2.78-16.49-2.54-47.92-2-65.77-2.11-6.93,0-21.47,1.13-21.36-.79.65-11.49,17.93-41.65,21.09-48.73,7.55-16.7,13.18-27.24,15.95-36.68,4.18-14.42,5.12-20.22,7.27-31.08,2.64-13.18,4.09-21.09,7.75-33.4.59-2,1.53-5.14,2.31-7.67.35-1.14,1-3.45,1.46-4.75,2.51-.12,7.44,0,9.45-.1,6.57-.3,10.14,0,16.34-1.3,11.13-2.3,16-3.33,28.18-7.5,37-12.61,75.33-33.73,106.25-58.28,8.16-6.47,13.87-11.78,19.81-19.46,1.13-1.46,1.14-1.92,2.14-3.27,1.2,0,2.24,0,3.42-.07a36.31,36.31,0,0,0,5-.34c9-1,26.72-1.69,35.46-2.06,19.73-.88,36.62-1.19,55.16-3.63,2.38-.32,2.8-.41,5.16-.8,2.87-1.84,9.44-6,11.85-7.49,18.68-11.76,36.6-23.29,55.63-33.09,2.44-1.25,2.81-1.37,5-2.5,1.41.71,2.46,1.22,4,1.91a156.42,156.42,0,0,0,20,6.83l5.13,1.45c.62-.37,1.75-.82,2.31-1.2,3.23-2.11,10.94-2.73,13.48-3,2.88-.3,8.13.88,8-1.88S2170.63,1377.43,2167.28,1376.08Zm-467.44,156.54a25.49,25.49,0,0,1-5.45.28,17.4,17.4,0,0,1-2.3-.23c.51-.63,1.66-2.34,2.06-2.8,3.82-4.4.38-13.74,5.44-10.55,2.48,1.58,3.14,5.18,3.6,7.6C1703.88,1530.56,1703.33,1532,1699.84,1532.62Zm14.77-4.39c-3,1.3-5.57,2.93-8,2.57-1-.15,0-1.56-.23-2.74-.39-2.43-.65-6.85-2.42-9.2-3.09-4.07-7.3-6.09-11.15-1.49-2.74,3.27-.4,7-3.52,12.11-.59,1-1.37,2.2-2,3.18-.88,0-2.64-.08-3.52-.07-10.6,0-26.24-3.63-34.64-6-3.51-1-5.85-1.62-6.46-2.16-5.2-2.09-26.15-14.94-29.27-17.88-4.25-4-8.79-8.7-11-13.5-4.79-10.48-6-18.36,2-27.51,5.85-6.91,14.36-9.55,24.2-12.19.7-.18,8.18-.66,11-.82a120.64,120.64,0,0,1,15.33,0,140.54,140.54,0,0,1,32.53,7.85l.34.14c1,.38,1.93.79,2.85,1.19a136.21,136.21,0,0,1,15.33,7.91l.62.38c12.73,7.82,23.43,18.16,28,32.48,5.15,16.15-8.32,20.67-20,25.76Zm94.67,165.54c.12,0,1,.07.63.22a1.61,1.61,0,0,1-1.22,0C1808.27,1693.84,1809.16,1693.77,1809.28,1693.77Zm119.06-260.42c-19.79,19-49.14,36.65-74.56,49.17-9.3,4.58-20.34,11.25-27.9,12.53-1.89.32,1.14-.88,4.39-2.45,22.58-11.1,53-31.55,72.53-44.83,12.59-8.53,22.36-17.64,30.34-19.57C1935.64,1427.61,1931.85,1430,1928.34,1433.35Z"/><path class="cls-6" d="M1625.61,1514.22l-.23-.18Z"/></g></g></g></g></svg>