<?xml version="1.0" encoding="utf-8"?>
<!-- Generator: Adobe Illustrator 25.2.2, SVG Export Plug-In . SVG Version: 6.00 Build 0)  -->
<svg version="1.1" id="Ebene_1" xmlns="http://www.w3.org/2000/svg" xmlns:xlink="http://www.w3.org/1999/xlink" x="0px" y="0px"
	 viewBox="0 0 3536.2 995.4" style="enable-background:new 0 0 3536.2 995.4;" xml:space="preserve">
<style type="text/css">
	.st0{fill:none;}
	.st1{fill:#EF7A1A;}
	.st2{fill:#010101;}
	.st3{fill:#EF791B;}
	.st4{fill:#2A4B9B;}
	.st5{fill:#1D1D1B;}
</style>
<g id="Ebene_2_1_">
	<g id="Ebene_1-2">
		<rect y="89.4" class="st0" width="3536.2" height="906"/>
		<g id="Ebene_2-2">
			<g id="Ebene_2-2-2">
				<path class="st1" d="M779,704.9h-1.2v-97.4h1.2c3.9,0,7.1-3.2,7.1-7.1s-3.2-7.1-7.1-7.1h-1.3v-32.1c0.3-12.2-9.3-22.2-21.5-22.5
					s-22.2,9.3-22.5,21.5v33.2h-12.5v-32.1c0.2-12.2-9.5-22.2-21.6-22.4s-22.2,9.5-22.4,21.6v32.9h-12.5v-32.1
					c0.2-12.2-9.5-22.2-21.6-22.4s-22.2,9.5-22.4,21.6v32.9h-12.5v-32.1c0-12.2-9.8-22-22-22s-22,9.8-22,22v32.1h-7.6v-3.8
					c0-3.9-3.2-7.1-7.1-7.1s-7.1,3.2-7.1,7.1l0,0v21.9c-0.1,3.9,3,7.2,6.9,7.4c3.9,0.1,7.2-3,7.4-6.9l0,0v-4.2h7.6v137.7
					c0,12.2,9.8,22,22,22s22-9.8,22-22l0,0v-26.1h12.5v26.1c-0.2,12.2,9.5,22.2,21.6,22.4s22.2-9.5,22.4-21.6l0,0l0,0v-26.9h12.5
					v26.1c-0.2,12.2,9.5,22.2,21.6,22.4s22.2-9.5,22.4-21.6l0,0v-26.8h12.5v26.1c0,12.2,9.8,22,22,22s22-9.8,22-22l0,0v-26.1h1.2
					c3.9,0,7.1-3.2,7.1-7.1S782.9,704.8,779,704.9L779,704.9z M608.3,704.9v-97.4h12.5v97.4H608.3z M664.8,704.9v-97.4h12.5v97.4
					H664.8z M721.3,704.9v-97.4h12.5v97.4H721.3z"/>
				<path class="st2" d="M548.2,581.7c-1.3-0.1-1.5,0.6-3.3,1.2c-4.6,1.6-4.7,3.3-11.1,2.5c-5.2-0.7-10.2-0.1-18.1,0.5
					c-4.4,0.3-12.4-1.5-19.7-3.6c-33.8-9.5-19-60-38-77.8c-29.2-27.5-40.2-21.6-74.6-19c-5.7,0.4-7,3.6-10.1,3.9s-3.4,2-4.5,1.4
					c-3.4-1.7-3.9-4.3-2.3-7.4c0.9-1.7,1.6-0.2,3.8-1.1c21.6-8.2,34.5-23.7,44.4-45.3c1.9-4,6.7-19.8,6.6-24.5
					c-0.4-22.3-1-44.1-19.7-58.3c-26.5-20.1-44.6-3.2-60.5,20.2c-2.1,3.3-3.9,6.8-5.3,10.4c-2.1,5.9-4.9,13.2-6.5,19.8
					s-4.4,14.2-4.2,20.9c0.3,12.5,0,23.2,4.6,35c5.6,14.1,11.7,16,25.1,21.8c1.1,0.5,1.4,2.3,1.1,3.8c-0.1,0.4,0.9,2.3-0.5,2.7
					c-0.1-4.5-10.4-3.1-12-5.3c-15.6-21.9-63,5.3-79.1,10.1c-53.2,15.8-43.9,6.6-64.6-34.1c-1.1-2.2,2.5-3,0.1-4.8
					c1-1.4,1.6-3,1.8-4.6c0.8-11-2.4-21.8-6.8-31.4c-2.7-6-3.3-13.1-9.4-15c-4.2-1.3-0.6,5-2.4,8.4s-1.1,7.6-7.9,10
					c-3.3,1.2-13.7,8.7-17.6,11.6c-6.3,4.8-29.9,26.5-25.8,33.6c8.5,14.6,25.6-10.8,35.9-14.3c7.9-2.7,17.2-4.5,24.8,2.5
					c3.4,3.2,3.1-5.9,4.4,6.1c8.4,76.3,72.6,35.3,116.8,21.5c19.9-6.2,23.9,4.2,37.1,10.1c7.1,3.2,4.2,0.8,6.9,4.2
					c6.5,8.3,6.3,9.6,10.2,21c3.1,9,5.2,18.3,6.4,27.8c2.1,15.8,2.3,40.4,1.2,58.3c-1,16.9-1.3,39-1.4,53.7
					c-0.1,17.7,2.2,24.4,4.1,39.7c0.2,1.6,1.2,1.2,1.3,3c-1.2,0.7-2.9,4.3-3.6,5.3c-25.2,32.6-46.7,71.7-58.5,110.1
					c-4.5,14.5-3,20.3-5,31.7s1,18.8,0.9,27.8c0,3.2,2.2,6.4,1.1,6.6c-13,2.8-24.5-2.6-37.4-4.2c-0.9-0.1-1,1.8-1.2,3.4
					c-0.3,2.1-2.7,5.2-3.8,7.7c-1.3,3,1.4,5.2,4.3,6.3c1.4,0.5,2.8,0.3,1.1,2c-6,6,38.9,3.8,47.1,3.8c1.9,0,11.3-3.2,10.1,1.1
					s-14.1,3.1-17,3.3c-7.1,0.8-28.8,3.9-5.8,2.7c4.1-0.2,22-1.8,29.5-2.5s27.7-2.4,33.7-2.9c21-2,38.6-5.3,57.8-3.7
					c5.1,0.4-7.1,1.6-9.5,1.8c-3.6,0.3-9.6,1.1-15.3,1.2c-12.5,0.3-25,1.3-37.4,3c-3.6,0.5-12.9,1.3-15.9,1.6
					c-11.9,1.1-39.6-1.4-46.1,7.2c-2.7,3.6,6.7,1.9,12.2,2.2c9.2,0.4,26.2,1.5,39.1,1.4c3.2,0,17,0.4,21.6,0.6s19.8,3.1,21.4,3.3
					c9.5,1.2,47.5-1.2,46,8.8c-0.3,2-8.5,1.3-11.5,1.5c-7,0.5-19.9,2.9-26.1,4.2c-7.4,1.5-9.9,3.2-15,6.5c-1.8,1.2,0.1,1-0.7,1.4
					c-0.9,0.4-1.8,0.6-2.7,0.9c-0.9,0.3-2,0.6-2.4,1.3c-0.7,1.1,0.2,1.2,1,1.8c0.7,0.4,1.3,1,1.6,1.8c0.3,1,0.8,1.8,1.5,2.5
					c0.4,0.4,1,1.2,1.9,1.3c2.9,0,10.6,0,12.7-0.1c6.7-0.2,13.4,0,20.1,0.5c3.5,0.3,4-0.3,5.7,1.3s-5,0-4.6,0.2
					c1.2,0.5,4.1,0.7,7.9,1c8.1,0.8,22.7,0.7,28.9,9.2c3.9,5.3-0.6,9.1-2.7,15c-1,2.9-11.1,4.4-0.3,7.5s22.3,4.4,33.7,4.7
					c1.4,0,1.4-1.2,2.3-2.8s3.5-6,4.8-7.9s5.5-6,4.4-8c-3.7-6.6-3.4-7.2-11-10.9c-10-4.8-25.1-8.1-36.6-11.1
					c-5.6-1.5,0.4-2.2,3.8-2.2c3.3-0.4,6.5-0.9,9.7-1.7c3.4-0.8,6.9-1.2,10.5-1.3c1.7,0,7,0.7,6.4-0.4c-1.8-3.3-3.5-2.4-7.8-3.8
					c-5.8-1.8-15-0.3-21.5-2.7s-5.6,0.6,5.8-3.1c29.6-9.7-0.2-12.8-15.9-14.2c-4.6-0.4-28.2-5.3-36.1-5.8c-1.8-0.1-8.9-0.1-3.9-1.6
					c12.5-3.7,30.3-4.9,42.1-5.7c3.1-0.1,6.2-0.5,9.3-1c3.2-0.5,1.5-0.8,3.8-1.1s7.5-1.2,9.1-1.4c9.2-1,31.5-0.3,33.8-10.1
					c1-4.3-11.9-2.1-14.8-2.5c-0.7-0.1-5.4-0.2-6.5-0.4c0-0.7,1.1-1.3,1.5-1.7c0.8-0.8,2.2-1.9,2-2.9c-0.8-2.8-2.1-4.2-4.7-5.4
					c-3.2-1.7-4-4-7.9-5.6s-8.4-0.2-13.3,1.3c-2.4,0.8-9.5,2.6-12.5,1.5c-4.2-1.3-6.5,3.4-9.2-1.6c-8.3-15.4-8.6-28-10-46.8
					s-4.1-42.7-9.8-62c-6.9-23.4-17.4-45.2-30.3-65.9c-1-1.6-2.2-3.2-3.5-4.6c0.4-1.5,0.5-0.3,0.9-1.8c4.7-18.5,5.3-31,7.7-52.5
					c1.3-11.6-0.8-42.8-2.5-54.7c-4.5-31.1-12.3-55.8-22.9-82.8c-5.1-12.9-7.5-2.2-0.9-12.2c3-4.7,4.3-4.9,12.7-5.2
					c21.4-0.7,11.6-8.2,39.7-0.8c51.1,13.5,26.8,61.4,54.4,92.5c5.1,5.7,14,8.3,19.1,12.2c11.7,8.7,24.4,15.9,37.9,21.4
					c6.3,2.5,7.5,5.5,12.1,3.2c5.4-2.7,0-6.3-2.4-9.9c-3.9-5.9-3.8-14.2-0.9-20.6c1.1-2.5,1.9-3.5,2.2-5.5
					C549.5,581.5,549.6,581.8,548.2,581.7z M395.5,355.8c5.7,4.5,11.3,9.4,14.5,17.8c2.3,5.9,5.6,14.5,5.5,22
					c-0.1,19.3-5.1,38.2-14.5,55.1c-1.7,3.1-3.8,6-6.3,8.7c-19.9,19.7-39.9,27.5-58.3,0.7c-5.3-7.7-4.8-17.4-5-27
					c-0.2-8.7,1.7-18.6,4.3-27.4c4.6-15.9,11.9-32.6,24.1-43.6c8.5-7.6,15.2-8.6,26-9.7C389.6,351.8,391.5,352.7,395.5,355.8z
					 M388.3,590.3c2.1,16,2.9,39.9,2.3,54.7c-0.7,18.2-2.4,28.2-4.3,44.4c-0.2,1.4-0.5,0.9-0.7,2.4c-0.1-1.7-0.5-1.4-0.8-3.2
					c-2.1-21.1-2-39.5-0.9-62c0.3-5.5,0.6-22,0.8-29.6s0.4-17.7,0.5-24.8c0-3.2,0.1-3,0.1-5.7c0.3,2.6,0.5,3.4,0.9,6.1
					C387.3,578.4,387.4,583.3,388.3,590.3L388.3,590.3z M391.5,709.3c13.3,21.7,23.9,44.5,30.6,70c4.4,16.8,6.9,38.8,7.9,55.7
					c1,16.4,2.5,29.8,7.4,43.8c1.3,3.8,1.6,2.5,2.8,5s2.4,3,4,5.1c0.8,1,2.5,2.1,2.9,3.4c-6,0.1-16,0.2-21.8,0.2
					c-29.4,0-62.8,0.9-90.3,1.6c-11.4,0.3-9.4,0.6-16.3,0.5c-9.7-0.1-2.2,0.8-1.8-1.8c0.7-3.9,3.9-3.3,3.8-8.6
					c0-1.7-1.4-3.5-1.2-7.4c0.4-10.8-3.8-15.3-1.8-28.6c4.2-27.5,11.9-53.7,26.1-80.6c9.1-17.2,22.9-41.9,36.1-57.5
					c2.7-3.2,2.3-6,6.1-5.3S389.1,705.3,391.5,709.3L391.5,709.3z M364.2,897.9c2,1.9,1.2,2.3,2.4,3.3c1.5,1.2-11.4,0.7-15.8,0.7
					c-5.1,0-2.8-0.8,0.5-2.1C353.8,898.8,362.6,896.4,364.2,897.9z"/>
				<path class="st2" d="M394.9,434.7c-0.4,0.5-0.2,3-0.8,4.8c-1.3,4.1-2.4,9.5-6.8,12.3c-6.4,4-12.8,6.1-20.1,2.4
					c-6.4-3.3-8.4-10.5-9.9-16.9c-0.4-1.8-0.2-4-0.5-5.2c-0.4-1.5-0.1-2.2-1.5-1.5s-1.7,1.2-1.2,3.4c1.7,8,1.5,17.2,10.4,21.6
					c15.5,7.6,21,4.2,30.9-9.2c2.3-3.2,2.3-7.6,1.8-11.1C396.9,433.2,396.4,432.8,394.9,434.7z"/>
				<path class="st2" d="M388.8,401.3c-0.3,2.1-1.8,3.6-3.6,3.6c-2.3,0-3.8-2.4-3.4-5.1c0.1-1.7,1.3-3,2.9-3.5
					C387.3,395.8,389.3,398.3,388.8,401.3z"/>
				<path class="st2" d="M372.6,404.2c-2.3,1.5-4.9,0.1-5.2-2.9c-0.3-1.9,0.6-3.7,2.3-4.7c1.6-0.7,3.4,0,4.2,1.5
					C374.8,400.1,374.2,403,372.6,404.2z"/>
			</g>
		</g>
		<g id="Ebene_2-3">
			<g id="Ebene_2-2-3">
				<path class="st2" d="M2928.6,468c0.3,0.5,0.4,1.1,0.2,1.6c-0.2,1-0.2,1,2.7,1.3c29,2.6,91.6,21.5,163.2,49
					c27.7,10.7,51.4,20.7,66.1,28c6.5,3.2,7.5,3.6,8.5,3.2c1.7-0.6,3.5,0.6,5.8,4c4.6,6.7,6.5,15.4,6.5,29.4
					c0,16.1-2.8,33.4-9.3,57.7c-7.6,28.4-20.4,64.3-34,94.7c-1.3,2.8-2.3,5.3-2.4,5.6s1.8,1.8,4.2,3.4c9.4,6.3,17.8,13.7,34.1,30
					c21.4,21.4,41.1,43.6,69.3,78.1c19,23.3,34.6,43.1,34.9,44.6c0.5,2.1-1,4.7-4,6.6c-6.6,4.2-26.5,8.9-65.5,15.6
					c-6.1,1-14.9,2.6-19.5,3.3c-21.9,3.8-24.7,4.4-33.4,8.3l-2.4,1.1h25.2c16.2,0,27.4,0.2,31.4,0.5c3.4,0.3,10.9,0.9,16.6,1.4
					c37.1,2.9,55.5,6,52.5,8.8c-1.2,1.2-7.4,2.6-15.8,3.7c-4.6,0.6-20.6,2.3-21.9,2.3c-0.4,0,0.1,0.4,1,0.9c1,0.5,1.8,1,2.6,1.8
					l0.9,0.9l-34.3,0.3c-25.6,0.2-38.1,0.5-48.8,1.1c-8,0.4-15.5,0.8-16.7,0.8s-2,0.2-1.8,0.3c1.6,0.8,3.2,1.5,4.9,2.1
					c8,3.2,15.8,6.8,23.4,10.8c17.2,9.6,19.5,15.9,7.2,19.8c-18.2,5.8-62.7,5.7-153.5-0.2c-19.5-1.3-28.4-1.7-52.8-2.5
					c-20.3-0.7-20.3-0.7-11.3-0.8c2.4,0,4.9-0.1,7.3-0.3c-0.5-0.1-0.9-0.3-1.1-0.7c-0.4-1.2-0.8-15.5-0.4-15.7
					c0.2-0.1-0.3-0.2-1.3-0.2s-2.8-0.2-4.1-0.3l-2.4-0.2l-1.1,2.6c-1.9,4.3-4.7,8.1-8,11.4c-2.7,2.9-3.3,3.7-2.7,3.8
					s0.2,0.2-0.5,0.2c-1.2,0-1.1-0.1,1.9-3.2c1.7-1.7,3.3-3.5,4.8-5.3c1.7-2.2,5-8.4,5-9.4c0-0.4,0.4-0.6,1.1-0.6
					c2.1,0,27.7,2,50.9,4.1c40.4,3.5,63.6,4.2,102.5,3c9.4-0.3,22.6-0.7,29.5-0.8c19.6-0.5,20.8,0.1-22.7-12.4l-20.2-5.8l-6.8-0.6
					c-3.8-0.3-11.9-0.9-18.2-1.2c-4.1-0.1-8.2-0.5-12.3-1c-0.5-0.2-0.7-0.4-0.4-0.4c0.7,0,0.7-0.9,0-0.9c-0.6-0.1-1.2-0.2-1.7-0.4
					c-3.4-1.3,4.9-2.7,22-3.7c13.4-0.8,17.3-1.2,21.8-2c8.4-1.6,18.8-2.4,37-2.9c13.5-0.4,39.2,0,50.8,0.8c5.5,0.3,9.5,0.3,22.8-0.4
					l18.2-0.9c5.5-0.2-17.7-0.8-46.4-1.2c-17.6-0.2-34.6-0.6-37.8-0.8c-5.3-0.4-5.9-0.3-7.9,0.4c-3.4,1.3-5.3,1.1-6.9-0.6
					c-0.7-0.8-1.7-1.4-2.8-1.7c-1.6-0.3-3.1-1.2-2.7-1.7c0.7-0.4,1.4-0.6,2.2-0.8c1.9-0.5,1.9-0.5,2.6-3c1.1-4.1,1.7-4.7,6.2-6.3
					c1.1-0.5,2.1-1.3,3-2.1l1.5-1.6l12.4-0.4c11.3-0.3,13-0.4,19-1.6c3.6-0.7,14.3-2.6,23.9-4.2c29.8-5.1,46.7-8.3,57.3-11.2
					c9.2-2.4,15.5-5.1,15-6.3c-0.7-1.9-34.9-44.5-51.2-63.6c-32.4-38.3-61.4-68.3-78.7-81.4c-4.1-3.1-8.8-6.3-9.2-6.3
					c-0.6,0-1.2,2.1-1.9,6.4c-0.3,2.3-0.9,5.4-1.2,7c-0.8,3.5-0.8,3.5-0.1,3.5c1.3,0.4,2.6,0.9,3.8,1.6
					c14.1,6.9,23.6,23.5,27.5,48.7c0.9,5.5,1.3,22,0.7,28.2c-3.4,34.3-18.6,60.3-38.3,65.5c-4.1,0.8-8.3,0.8-12.3,0
					c-13.2-3.5-24-17.3-29.7-37.7c-7-25.1-4-57.8,7.3-80.3c5.9-11.8,13.2-19.8,21.6-24c2.9-1.5,7.4-2.9,9.1-2.9c1,0,1.1-0.2,1.8-2.4
					c0.4-1.5,0.6-2.9,0.7-4.4c-0.1-2.5-0.4-5-1-7.4c-0.3-0.3-12.5,3.4-17.1,5c-16.2,5.7-26.4,11-35.5,18.7c-2,1.7-6.6,5.6-10.1,8.8
					c-8.2,7.3-13.2,11.5-18.4,15.4l-4.2,3.2v16.2c0,27.1-1.6,121.7-2.1,122.1s-28,0.8-27.8,0.4s-15.5-1.1-16.1-0.7s-11.2,0.4-12.1,0
					c-0.9-0.6-1.3-1.7-0.8-2.7c1-1.1,2-2.1,3.2-3c13-10.5,22.1-12.7,31-7.4c4,2.3,8.3,4.2,12.8,5.4c1.6,0.5,3.2,0.9,4.8,1.1
					c0.4-0.4,1.8-88.9,1.8-115.6V798l4.4-3.3c5.6-4.2,12.4-9.9,20.9-17.4c12.3-10.9,18-15.1,27.1-19.7c8.5-4.3,20-8.5,33.3-12.3
					l6.2-1.7l0.5-2.3c0.6-2.7,6.2-22.3,10.3-36c18.5-62.1,27.6-100.7,31-131.9c0.7-6.5,1.2-15.5,0.9-15.5c-1.3,0-48.3-3.1-56.6-3.7
					c-44.3-3.4-72.8-7.8-99.6-15.6c-26.4-7.7-51.6-19.1-74.8-33.8l-4.9-3.1l-0.5,1.5c-1.1,3-1.3,6.2-0.7,9.3l0.7,2.6l-4,4.8
					c-3.9,4.7-4.1,5-4.8,8.2c-0.4,1.8-1,3.4-1.2,3.4c-0.6-0.1-1.2-0.2-1.9-0.4c-1.3-0.4-1.6-0.3-3.9,1.9c-5,4.7-7.4,5.8-9,4.4
					c-0.7-0.6-0.8-1.1-0.6-3c0.2-2.9,2.2-7.2,6.4-13.9c1.8-2.8,4-6.7,5-8.7c1.6-3.5,3.8-6.8,6.3-9.8c1.1-1.2,2-2.5,2.9-3.9
					c1.4-2.3,2.3-3,4.9-3.3c1.7-0.2,2-0.1,2,0.6c0,0.9,3.2,3,13.2,9c16.4,9.8,33.8,17.9,51.8,24.3c34.4,11.9,67.8,17.3,132.8,21.5
					c23.5,1.5,28.9,1.8,29,1.7c0.4-0.5-26.5-12.2-45.9-20c-65.2-26.1-131-47.5-166.2-54c-5.7-1.1-11.4-1.9-17.1-2.2h-2.1l0.2,2.9
					l0.2,2.9l-4.1,2.5c-9.6,5.9-18.4,14-23.7,21.7c-1,1.6-2.3,3.1-3.7,4.5c-1,0.7-1.1,0.7-2-0.4c-1.9-2.2-2.7-10.5-1.3-14.6
					c2.3-6.9,9.6-14.5,19.8-20.6c4.3-2.6,14.2-7.4,15.2-7.4C2927.7,467.4,2928.2,467.6,2928.6,468z M3171.4,586.1
					c-2.9,20.3-7.8,42.9-15,70.1c-1.9,6.9-11.7,41.5-13.3,46.6c-1.7,5.4-0.5,2.6,3.4-7.8c13.8-37.3,22.4-68.1,25.7-93
					c0.9-6.9,1.6-22,1-25.1c-0.3-1.9-0.3-1.9-0.5-0.6C3172.7,577,3172.1,581.5,3171.4,586.1L3171.4,586.1z M3119.6,771
					c-6.3,1.2-13.9,7-19.4,14.8c-7,9.9-12,24.4-14.4,41.5c-0.8,5.8-0.7,23.2,0.2,29c2.7,17.9,8.1,30.9,16.2,38.9
					c3.4,3.4,4.3,4,7,5.4c3.1,1.6,6.5,2.4,10,2.1c16.3-1.6,30.6-22.8,35.4-52.8c3-18.4,0.9-39.5-5.4-55.3
					c-5.2-13.2-14.6-22.6-23.3-23.6C3122.3,770.5,3122,770.5,3119.6,771L3119.6,771z M2969.6,969.3c0.6,0.1,1.2,0.1,1.9,0
					c0.5-0.1,0.1-0.2-0.9-0.2S2969.1,969.2,2969.6,969.3L2969.6,969.3z M2972.3,985.8c1,0.1,1.9,0.1,2.9,0c0.7-0.1,0-0.2-1.6-0.2
					S2971.4,985.7,2972.3,985.8L2972.3,985.8z"/>
				<path class="st2" d="M3119.9,795c4.6,1.3,8.9,4.7,12.1,9.5c0.8,1.1,1.5,2.3,2,3.6c0,0.5-2.8,1.8-3,1.4c0,0-0.6-0.9-1.1-2
					c-2.5-4.5-6.6-7.8-11.5-9.3c-4.9-1.3-10.3,0.5-16.2,5.3l-3.3,2.7l-1.1-1.4l-1.1-1.3l2.2-1.9c2.9-2.5,6.1-4.6,9.6-6.1
					C3112.2,794.4,3116.1,794.2,3119.9,795z"/>
				<path class="st2" d="M3104.7,853.2c0.3,2.2,1.8,3.7,3.6,3.7c2.3,0,3.9-2.4,3.4-5.2c-0.1-1.7-1.3-3.1-2.9-3.5
					C3106.2,847.6,3104.2,850.1,3104.7,853.2z"/>
				<path class="st2" d="M3121.2,856.1c2.3,1.6,5,0.1,5.3-3c0.3-1.9-0.7-3.8-2.3-4.8c-1.6-0.7-3.5,0-4.2,1.6
					C3119,852,3119.6,855,3121.2,856.1z"/>
				<path class="st3" d="M3213.1,352.6c27.8,0,50.3,22.5,50.3,50.3s-22.5,50.3-50.3,50.3s-50.3-22.5-50.3-50.3l0,0
					C3162.8,375.2,3185.3,352.6,3213.1,352.6z"/>
				<path class="st3" d="M3213.1,282.2c7.6,0,13.7,6.1,13.7,13.7l0,0l0,0v30.2c0,7.6-6.1,13.7-13.7,13.7c-7.6,0-13.7-6.1-13.7-13.7
					l0,0v-30.2C3199.4,288.3,3205.5,282.2,3213.1,282.2L3213.1,282.2z"/>
				<path class="st3" d="M3213.1,466c7.6,0,13.7,6.1,13.7,13.7l0,0v30.2c0,7.6-6.2,13.7-13.7,13.7s-13.7-6.1-13.7-13.7v-30.3
					C3199.4,472.1,3205.5,466,3213.1,466z"/>
				<path class="st3" d="M3257.7,338.9l21.3-21.3c5.5-5.2,14.2-4.9,19.4,0.6c5,5.3,5,13.5,0,18.8l-21.4,21.3
					c-5,5.7-13.6,6.3-19.4,1.3s-6.3-13.6-1.3-19.4c0.1-0.1,0.2-0.3,0.3-0.4C3257,339.5,3257.3,339.2,3257.7,338.9L3257.7,338.9z"/>
				<path class="st3" d="M3127.7,468.8l21.3-21.3c5.6-5.1,14.3-4.6,19.4,1c4.7,5.2,4.7,13.1,0,18.3l-21.3,21.3
					c-5.6,5.1-14.3,4.7-19.4-0.9C3123,482,3123,474,3127.7,468.8L3127.7,468.8z"/>
				<path class="st3" d="M3289.9,389.2h30.2c7.6-0.1,13.8,6,13.8,13.6c0.1,7.4-5.8,13.5-13.2,13.8h-30.8
					c-7.6,0.3-13.9-5.6-14.2-13.2c-0.3-7.6,5.6-13.9,13.2-14.2c0.1,0,0.3,0,0.4,0L3289.9,389.2L3289.9,389.2z"/>
				<path class="st3" d="M3106.1,389.2h30.2c7.6-0.1,13.8,6,13.8,13.6c0.1,7.4-5.8,13.5-13.2,13.8h-30.8c-7.6,0.1-13.8-6-13.8-13.6
					c-0.1-7.4,5.8-13.5,13.2-13.8H3106.1z"/>
				<path class="st3" d="M3257.7,447.5c5.4-5.3,14-5.3,19.4,0l0,0l21.4,21.3c5.6,5.2,5.9,13.8,0.7,19.4c-5.1,5.6-13.8,5.9-19.4,0.7
					l0,0c-0.2-0.2-0.5-0.5-0.7-0.7l0,0l-21.3-21.3C3252.4,461.5,3252.4,452.8,3257.7,447.5L3257.7,447.5z"/>
				<path class="st3" d="M3127.7,317.5c5.4-5.3,14-5.3,19.4,0l0,0l21.3,21.3c5.1,5.6,4.6,14.3-1,19.4c-5.2,4.7-13.1,4.7-18.3,0l0,0
					l-21.3-21.3C3122.4,331.6,3122.4,322.9,3127.7,317.5L3127.7,317.5L3127.7,317.5z"/>
				<path class="st4" d="M2956.6,761.8c17,0,30.8-13.8,30.8-30.8c0-9.3-4.2-18.1-11.4-23.9v-74.6c0-8.1-6.6-14.7-14.7-14.7h-9.5
					c-8.1,0-14.7,6.6-14.7,14.7V707c-13.2,10.7-15.2,30.2-4.5,43.4C2938.6,757.6,2947.3,761.7,2956.6,761.8L2956.6,761.8
					L2956.6,761.8z M2961.4,623.8c4.8,0,8.6,3.9,8.6,8.6v76.1c0,1,0.5,1.9,1.2,2.4c11.1,8.1,13.5,23.6,5.5,34.7
					c-8.1,11.1-23.6,13.5-34.7,5.5c-11.1-8.1-13.5-23.6-5.5-34.7l0,0c1.5-2.1,3.3-3.9,5.4-5.4c0.8-0.6,1.2-1.5,1.2-2.4v-76.1
					c0-4.8,3.9-8.6,8.6-8.6L2961.4,623.8z"/>
				<path class="st4" d="M2937.8,730.9c0,10.4,8.4,18.8,18.8,18.8c10.4,0,18.8-8.4,18.8-18.8c0-7.9-5-15-12.4-17.7v-66
					c0-2.6-2.1-4.8-4.8-4.8l0,0h-3.3c-2.6,0-4.8,2.1-4.8,4.7l0,0l0,0v66C2942.8,716,2937.8,723,2937.8,730.9z"/>
				<path class="st4" d="M2987.4,639.9c0,1.4,1.1,2.5,2.5,2.5h5.1c1.4,0,2.5-1.1,2.5-2.5v-2.7c0-1.4-1.1-2.5-2.5-2.5h-5.1
					c-1.4,0-2.5,1.1-2.5,2.5l0,0V639.9z"/>
				<path class="st4" d="M2987.4,656c0,1.4,1.1,2.5,2.5,2.5h5.1c1.4,0,2.5-1.1,2.5-2.5l0,0v-2.7c0-1.4-1.1-2.5-2.5-2.5h-5.1
					c-1.4,0-2.5,1.1-2.5,2.5l0,0V656z"/>
				<path class="st4" d="M2987.4,672.2c0,1.4,1.1,2.5,2.5,2.5h5.1c1.4,0,2.5-1.1,2.5-2.5l0,0v-2.7c0-1.4-1.1-2.5-2.5-2.5h-5.1
					c-1.4,0-2.5,1.1-2.5,2.5l0,0V672.2z"/>
				<path class="st4" d="M2987.4,688.4c0,1.4,1.1,2.5,2.5,2.5h5.1c1.4,0,2.5-1.1,2.5-2.5l0,0v-2.7c0-1.4-1.1-2.5-2.5-2.5h-5.1
					c-1.4,0-2.5,1.1-2.5,2.5l0,0l0,0V688.4z"/>
				<path class="st4" d="M2987.4,704.5c0,1.4,1.1,2.5,2.4,2.5l0,0h5.1c1.4,0,2.5-1.1,2.5-2.5v-2.7c0-1.4-1.1-2.5-2.5-2.5h-5.1
					c-1.4,0-2.5,1.1-2.5,2.5l0,0L2987.4,704.5z"/>
				<path class="st4" d="M2880.7,617.6h7.2l-2.4-4.2c-0.6-1.1-0.1-2.4,1-3c1-0.5,2.2-0.2,2.8,0.8l2.5,4.3l3.5-6.1h-4.9
					c-1.2,0-2.2-0.9-2.3-2.2c0-1.2,0.9-2.1,2-2.2h5.2l-3.6-6.2c-0.6-1-0.3-2.4,0.8-3c1-0.6,2.4-0.3,3,0.8c0,0,0,0,0,0.1l0,0l3.6,6.2
					l2.4-4.3c0.6-1,2-1.3,3-0.7s1.3,1.9,0.8,2.9l-2.5,4.3h7.1l-2.4-4.3c-0.6-1.1-0.2-2.4,0.8-3s2.4-0.2,3,0.8l2.5,4.3l3.6-6.2
					c0.6-1.1,1.9-1.4,3-0.8c1.1,0.6,1.4,1.9,0.8,3c0,0,0,0,0,0.1l-3.6,6.2h4.9c1.2-0.2,2.3,0.7,2.5,1.9s-0.7,2.3-1.9,2.5
					c-0.1,0-0.2,0-0.3,0h-5.2l3.5,6.1l2.4-4.3c0.6-1.1,2-1.4,3-0.8c1.1,0.6,1.4,2,0.8,3l-2.5,4.3h7.2c1.2,0,2.2,1,2.2,2.2
					s-1,2.2-2.2,2.2h-7.2l2.5,4.3c0.7,1,0.3,2.4-0.7,3c-1,0.7-2.4,0.3-3-0.7l-0.1-0.1l-2.5-4.3l-3.5,6.1h4.9c1.2-0.1,2.3,0.8,2.4,2
					c0.1,1.2-0.8,2.3-2,2.4h-5.2l3.6,6.2c0.6,1,0.3,2.4-0.8,3l0,0c-1,0.6-2.4,0.3-3-0.8l-3.6-6.2l-2.5,4.2c-0.6,1.1-1.9,1.5-3,1
					c-1.1-0.6-1.5-1.9-1-3c0-0.1,0.1-0.1,0.1-0.2l0,0l2.4-4.2h-7.1l2.4,4.2c0.6,1,0.3,2.4-0.8,3l0,0c-1,0.6-2.4,0.3-3-0.8l0,0
					l-2.5-4.3l-3.6,6.2c-0.4,0.7-1.1,1.1-1.9,1.1c-1.2,0-2.2-1-2.2-2.2c0-0.4,0.1-0.8,0.3-1.1l0,0l3.6-6.2h-5
					c-1.2,0.1-2.3-0.9-2.3-2.1c-0.1-1.2,0.9-2.3,2.1-2.3l0,0h5.2l-3.5-6.1l-2.4,4.3c-0.7,1-2,1.3-3.1,0.6c-0.9-0.6-1.3-1.8-0.8-2.8
					l2.5-4.3h-7.2c-1.2,0-2.2-1-2.2-2.2S2879.5,617.6,2880.7,617.6L2880.7,617.6z M2900.3,630.3h12.2l6.1-10.5l-6.1-10.5h-12.2
					l-6.1,10.5L2900.3,630.3z"/>
			</g>
		</g>
		<g id="Ebene_2-4">
			<g id="Ebene_2-2-4">
				<path class="st2" d="M1490.3,527L1490.3,527"/>
				<path class="st4" d="M1128.2,445.5c-2.9,0-5.3-2.4-5.3-5.3l0,0l0,0v-5.3c0.1-2.9,2.6-5.2,5.5-5.1c2.8,0.1,5,2.3,5.1,5.1v5.3
					C1133.5,443.2,1131.1,445.5,1128.2,445.5L1128.2,445.5L1128.2,445.5z"/>
				<path class="st4" d="M1133.5,466.8c-0.1,2.9-2.6,5.2-5.5,5.1c-2.8-0.1-5-2.3-5.1-5.1v-5.3c0-2.9,2.3-5.3,5.3-5.3
					c2.8,0,5.2,2.2,5.3,5c0,0.1,0,0.2,0,0.4L1133.5,466.8L1133.5,466.8z"/>
				<path class="st4" d="M1133.5,493.3c0.1,2.9-2.1,5.4-5.1,5.5c-2.9,0.1-5.4-2.1-5.5-5.1c0-0.2,0-0.3,0-0.5V488
					c0.1-2.9,2.6-5.2,5.5-5.1c2.8,0.1,5,2.3,5.1,5.1V493.3z"/>
				<path class="st4" d="M1149.4,445.5c-2.9,0-5.3-2.4-5.3-5.3l0,0l0,0V435c-0.1-2.9,2.1-5.4,5.1-5.5c2.9-0.1,5.4,2.1,5.5,5.1
					c0,0.2,0,0.3,0,0.5v5.3C1154.7,443.2,1152.3,445.6,1149.4,445.5C1149.4,445.6,1149.4,445.6,1149.4,445.5L1149.4,445.5
					L1149.4,445.5z"/>
				<path class="st4" d="M1149.4,472.1c-2.9,0-5.3-2.4-5.3-5.3l0,0v-5.3c0.1-2.9,2.6-5.2,5.5-5.1c2.8,0.1,5,2.3,5.1,5.1l0,0v5.3
					C1154.7,469.7,1152.3,472.1,1149.4,472.1L1149.4,472.1L1149.4,472.1z"/>
				<path class="st4" d="M1149.4,498.6c-2.9,0-5.3-2.4-5.3-5.3l0,0l0,0V488c0.1-2.9,2.6-5.2,5.5-5.1c2.8,0.1,5,2.3,5.1,5.1v5.3
					C1154.7,496.2,1152.3,498.6,1149.4,498.6L1149.4,498.6L1149.4,498.6z"/>
				<path class="st4" d="M1106.9,445.5c-2.9,0-5.3-2.4-5.3-5.3l0,0l0,0V435c-0.1-2.9,2.1-5.4,5.1-5.5c2.9-0.1,5.4,2.1,5.5,5.1
					c0,0.2,0,0.3,0,0.5v5.3C1112.3,443.2,1109.9,445.6,1106.9,445.5C1107,445.6,1107,445.6,1106.9,445.5L1106.9,445.5L1106.9,445.5z
					"/>
				<path class="st4" d="M1112.2,466.8c-0.1,2.9-2.6,5.2-5.5,5.1c-2.8-0.1-5-2.3-5.1-5.1v-5.3c0-2.9,2.3-5.3,5.3-5.3
					c2.8,0,5.2,2.2,5.3,5L1112.2,466.8L1112.2,466.8z"/>
				<path class="st4" d="M1112.2,493.3c0.1,2.9-2.1,5.4-5.1,5.5c-2.9,0.1-5.4-2.1-5.5-5.1c0-0.2,0-0.3,0-0.5V488
					c0.1-2.9,2.6-5.2,5.5-5.1c2.8,0.1,5,2.3,5.1,5.1V493.3z"/>
				<path class="st4" d="M1061.1,514.5h8.8V397.8c0-23.4,19-42.4,42.4-42.4h15.9c2.9,0,5.3,2.4,5.3,5.3l0,0l0,0v27
					c12.4,2.5,21.2,13.4,21.2,26c0,2.9-2.4,5.3-5.3,5.3l0,0H1107c-2.9,0-5.3-2.4-5.3-5.3l0,0c0-12.6,8.9-23.5,21.2-26V366h-10.6
					c-17.6,0-31.8,14.2-31.8,31.8l0,0v116.6H1365c4,0,7.2,3.2,7.2,7.2l0,0v6.9c0,4-3.2,7.2-7.2,7.2l0,0h-303.9
					c-3.9,0-7.1-3.2-7.2-7.2v-6.9C1053.9,517.7,1057.1,514.5,1061.1,514.5z"/>
				<path class="st4" d="M1072.7,546.3h280.6c1.5,0,2.7,1.2,2.7,2.7l0,0v0.1c-2.1,37.8-18.5,76.8-42.4,88.9c8,8.6,7.6,22-1,30
					s-22,7.6-30-1c-6.4-6.9-7.6-17.1-2.8-25.2h-133.4c3.1,5.2,3.8,11.5,1.9,17.2c-3.8,11.1-15.8,17.1-26.9,13.3
					s-17.1-15.8-13.3-26.9c1-2.8,2.5-5.4,4.5-7.6c-24.1-12-40.5-51.1-42.4-88.9C1070.3,547.5,1071.4,546.4,1072.7,546.3z"/>
				<path class="st2" d="M1303.3,392c5.5-1.9,11.7-5.6,14.5-10.8c1.1-2,1-2.9,2.3-4.1c1-0.9,0.7-0.7,1.6,0.1s0.4,1.9,1.2,3.2
					c1.7,3,3.8,5.8,6.4,8.1c3.4,3.5,6.2,7.5,8.3,11.9c1.4,2.8,5.3,8.7,7.6,12.6c10.6,18,29.9,34.8,43.8,48.9
					c21.3,21.5,42,39.2,66.1,55.3c4,2.7,6.2,3.3,8.5,4.9s2.6,2.6,3.8,2.2c3.6-1.1,3.9-4,2.5-7c-0.8-1.7-1.8-0.6-3.8-1.7
					c-19.8-10.5-31.2-26.6-37.7-48.8c-1.2-4.2-3.3-19-2.4-23.3c4-20.4,7.5-40.2,26.7-50.6c27.2-14.7,40.7,2.6,52.2,26.4
					c1.4,3.3,2.5,6.7,3.3,10.2c1,5.8,2.5,12.6,3,19s1.9,13.3,0.9,19.8c-1.7,12-2,22.5-5.2,34.7c-3.9,14.8-10,15.6-24.9,15.2
					c-1.2,0-1.6,2.2-1.2,3.5c0.1,0.4-0.9,2.3,0.5,2.7c0.1,0.2-0.3,0,0.1,0.3c5,2.4,19.2,8.4,23.5,10.2c15.1,6.1,40.2,16.5,50.5,21.5
					c17.9,8.7,22.1,11.9,31.2,22.8c3.8,4.5,2.4,3.4,1.6,7.7c-2.6,14.3-6.6,23-18.2,34.3c-11.2,11-31.1,19.5-46.2,25.5
					c-10.6,4.1-20.8,7.9-29.6,13.7c-3.1,2-3.3,3.3-4.9,6.1c-2.3,3.8-3.1,5.9-1.9,10.6c0.7,2.8-0.2,5.1-1.5,8.9
					c-3.3,9.1-6.6,20.9-11.5,29.9c0.3-15.9,0.6-32,0.8-47.9c3.7-2.5,5.1-2.7,8.3-6.6c7.9-9.5,23.3-15.2,34.5-19.6
					c9-3.5,21.8-8.9,28.4-12.4c14.8-7.9,25.2-16.4,31.7-30.1c2.8-6,4-9.4,3.5-15.2c-0.2-2.2-0.4-1.7-2.8-4.2
					c-12.9-13.1-30.5-19.6-49.2-27.4c-3.9-1.7-21.2-8.8-27.5-11.5s-15.1-6.4-20.9-8.7c-2.6-1.1-1.7-0.7-3.7-1.5
					c0.2-0.2-0.2,0,0.2-0.5c-2.1,2.8,2.4-3.1-1.2,1.7s-7.6,6.9-9.2,18c-1.1,7.2-3,14.8-2.7,26.7c0.4,14.8,1.4,37.6,3.5,54
					c2,15.6,3.6,36,4.1,49.5c0.6,16.4-1.1,22.4-2.6,36.5c-0.2,1.5-1.1,1.1-1.1,2.7c1.1,0.6,2.7,3.8,3.5,4.8
					c23.4,29.8,44.9,65,55.7,100.4c4.1,13.4,3.7,18.7,5.5,29.2s-0.5,17.4-0.4,25.8c0,2.9-1.9,6-0.9,6.2c12,2.3,22.5-2.9,34.3-4.7
					c0.9-0.1,1,1.7,1.2,3.2c0.3,1.9,2.7,4.8,3.7,7.1c1.2,2.7-1,5.1-3.8,5.9c-1.3,0.4-1.9,0.9-1.1,1.8c2.9,3.1-39.2,4.5-43.3,4.7
					c-1,0.1-10.5-2.7-9.2,1.2s13.1,2.5,15.8,2.7c6.7,0.6,26.7,3,5.4,2.4c-3.8-0.1-20.3-1.2-27.3-1.7s-25.6-1.6-31.1-2
					c-19.5-1.4-35.8-4.1-53.6-2.2c-4.7,0.5,6.8,1.3,9,1.5c3.3,0.2,8.9,0.8,14.2,0.8c11.5,0,23.1,0.6,34.5,1.9
					c3.3,0.4,11.9,1,14.7,1.2c11,0.8,36.4-2.2,42.7,5.7c2.6,3.2-6.1,1.9-11.2,2.3c-8.4,0.6-24.2,2-36.1,2.1c-3,0.1-15.7,0.7-19.8,1
					s-18.1,3.3-19.5,3.5c-8.7,1.4-41.4-0.2-39.6,9.2c0.3,1.9,8.1,0.9,10.8,1c6.7,0.2,19,2,24.9,2.9c7.1,1.2,9.3,2.6,14.2,5.5
					c1.7,1.1-0.1,0.9,0.7,1.3c0.8,0.3,1.6,0.5,2.5,0.7c0.8,0.3,1.9,0.4,2.3,1.1c0.7,1-0.2,1.1-0.9,1.7c-0.7,0.4-1.2,1-1.4,1.7
					c-0.2,0.9-0.7,1.7-1.4,2.4c-0.4,0.4-1,1.2-1.8,1.3c-2.8,0.1-9.9,0.4-11.9,0.4c-6.3,0-12.6,0.4-18.8,1.2
					c-3.3,0.4-3.8-0.1-5.3,1.4s4.7-0.2,4.2,0c-1.1,0.5-3.9,0.7-7.4,1.2c-7.6,1-21.3,1.4-26.9,9.5c-3.5,5.1,0.7,8.4,2.8,13.8
					c1.1,2.7,10.6,3.7,0.5,6.9c-10.2,3.1-20.8,5-31.5,5.5c-1.3,0.1-1.2-1.1-2.2-2.6s-3.4-5.5-4.6-7.2s-5.3-5.4-4.4-7.2
					c3.3-6.2,3.1-6.8,10.1-10.4c9.2-4.8,23.4-8.3,34-11.5c5.2-1.6-0.5-2-3.7-1.9c-3-0.2-6.1-0.6-9.1-1.2c-3.2-0.6-6.5-0.9-9.8-0.9
					c-1.6,0.1-6.5,0.9-6-0.2c1.5-3.2,3.4-2.3,7.1-3.7c5.2-2,14.2-0.6,19.8-3.3s4.9,0.2-6.1-2.7c-28.6-7.6-1.1-11.5,14.3-13.5
					c4.5-0.6,24.3-5.7,31.5-6.4c1.7-0.2,8.2-0.2,3.4-1.6c-11.8-3.3-28.3-3.8-39.3-4.3c-2.9-0.1-5.8-0.3-8.7-0.7
					c-2.9-0.4-1.4-0.7-3.5-1s-7-0.9-8.6-1.1c-8.6-0.8-29.4,0.4-31.7-8.7c-1-4,11-2.2,13.7-2.7c0.6-0.1,5-0.3,6-0.5
					c0-0.6-1-1.2-1.4-1.6c-0.8-0.6-2.1-1.7-1.9-2.6c0.6-2.7,1.9-3.9,4.2-5.2c3-1.6,3.6-3.8,7.2-5.4s7.8-0.3,12.5,0.9
					c2.3,0.6,8.9,2.2,11.7,1.2c3.9-1.3,6.2,2.9,8.6-1.7c7.4-14.4,7.4-26.1,8.5-43.5s2.9-39.5,8-57.5c6.1-21.6,15.1-42.2,26.9-61.3
					c0.9-1.5,1.9-2.9,3.1-4.2c-0.3-1.4-0.5-0.2-0.9-1.7c-4.7-16.9-5.7-28.4-8.8-48.1c-1.6-10.6-1.5-39.4-0.9-50.5
					c1.4-28.9,4.2-53.6,13.6-78.4c4.5-11.9,5.2-1.5,2.2-12.2c-1.4-5-6.3-3.5-11-7.2c-12-9.3-23-14.6-35.7-26.1
					c-23.2-20.9-48.4-46.4-68.6-70.8c-2.9-3.7-6.5-6.8-10.6-9.2c-9.3-5.7-20.6-9.1-29.8-12.7c-4.8-1.9-8.9-1.1-10.4-5.4
					C1294.2,392,1299.9,393.2,1303.3,392z M1502.1,501.1c3.4-8.2,2.4-17.9,3.8-26.9c1.2-8.2,0.6-17.5-0.3-26
					c-1.8-15.2-6.1-31.4-15.9-43c-6.8-8.1-12.4-9.7-22.1-11.9c-3.5-0.8-5.3-0.3-9.4,1.9c-5.9,3.1-11.8,7.1-16,14.2
					c-3,5.1-7.2,12.7-8.4,19.5c-2.9,17.7-1,34.7,5.1,51.8c1.3,3.1,2.9,6,4.8,8.7C1456.1,505.2,1490.2,529.7,1502.1,501.1
					L1502.1,501.1z M1499.1,905.1c3.5,0,4.2-0.7-1.1-1.9c-4.1-0.9-11.2-3.1-12.2-1.4c-1.3,2.1-0.2,2-1.9,2.9
					C1481.8,905.9,1496.1,905.1,1499.1,905.1L1499.1,905.1z M1431.2,792.5c-3.8,15.7-6,36.6-6.7,52.3c-0.7,15.2-1.6,27.6-6.4,40.4
					c-1.3,3.5-1.4,2.1-2.5,4.4s-2.1,2.7-3.6,4.7c-0.7,0.9-2.3,2.1-2.7,3.3c5.7,0,14.8-0.1,20.3-0.2c27.6-0.4,58.5-0.1,84.4,0.2
					c10.8,0.1,7.1,0.4,14.6,0.2c3.5-0.1,1.4-0.2,4.3-0.1c-1.4-0.2-2.9-0.1-3.3-1.6c-0.9-3.6-3.7-2.6-3.8-7.5c0-1.6,1.2-3.3,1.1-7
					c-0.2-10,3.2-14,1.4-26.3c-3.7-26-12.1-51-24.8-74c-8.6-15.9-22-39-34.4-53.5c-2.6-3-2-5.4-5.4-4.7s-2.7,0.6-4.9,4.2
					C1446.5,747.5,1437,768.6,1431.2,792.5L1431.2,792.5z M1463.6,652.4c-0.5-5-2-20.8-2.6-27.9s-1.5-16.5-2.2-23.1
					c-0.3-3-0.3-2.5-0.6-4.9c-0.1,2.4-0.1,2.9-0.2,5.5c-0.3,5.5-0.3,9.6-0.6,16.2c-0.6,17.2-0.3,34.4,1,51.6
					c1.4,17,2.9,24.9,5.2,39.7c0.2,1.2,0.4,0.8,0.6,2.1c0.1-1.6,0.4-1.2,0.6-2.8C1466.8,689.4,1465.6,673.1,1463.6,652.4
					L1463.6,652.4z"/>
				<path class="st2" d="M1447.1,467.1c0.3,0.5-0.2,2.8,0.1,4.6c0.6,4,1,9.3,4.9,12.6c5.6,4.7,11.8,8.1,19.4,5.6
					c6.7-2.2,8.6-9.1,10.3-15.2c0.5-1.7,0.5-3.9,0.9-5c0.4-1.5,0.3-1.9,1.5-1.2s1.4,1.3,0.9,3.3c-1.8,7.1-1.8,17-10.6,19.9
					c-15.3,5-21.9-0.4-29.4-13.7c-1.8-3.1-1-7.6-0.1-10.6C1445.5,465.6,1446,465.3,1447.1,467.1z"/>
				<path class="st2" d="M1461.7,442.2c-0.1,1.8-1.5,3.2-3.3,3.4c-2.1,0-3.5-2.2-3.1-4.8c0.1-1.5,1.2-2.8,2.7-3.2
					C1460.3,437.1,1462.2,439.4,1461.7,442.2z"/>
				<path class="st2" d="M1475.9,442.1c-0.1,1.8-1.5,3.2-3.3,3.3c-2.1,0-3.5-2.2-3.1-4.8c0.1-1.5,1.2-2.8,2.7-3.2
					C1474.5,437,1476.3,439.2,1475.9,442.1z"/>
			</g>
		</g>
		<g id="Ebene_2-5">
			<g id="Ebene_2-2-5">
				<path class="st4" d="M2503.2,490.5c1.2-5.1,4-9.8,7.9-13.3c-14.6-15.6-8.5-33.3-4.7-44.5c1.3-3.1,2.2-6.4,2.5-9.7
					c-1-0.2-1.9-0.4-2.9-0.5c-11.4-1-25,5.3-36.3,16.9c-10.9,11.2-17.3,24.9-16.2,35C2454.3,480.9,2467.9,488.3,2503.2,490.5z"/>
				<path class="st4" d="M2547.1,573.1c5-3.9,5-19.4-10.9-51.1c-5.1,1.5-10.4,1.4-15.4-0.2c-6.2,20.4-24.6,24-36.2,26.3
					c-3.3,0.5-6.6,1.4-9.7,2.7c0.3,1,0.6,1.9,1,2.8c4.9,10.4,17.1,19,32.9,23C2523.9,580.4,2539,579.1,2547.1,573.1z"/>
				<path class="st4" d="M2595.4,509.4c2,2.7,4.4,5,7.2,7c0.7-0.7,1.3-1.5,1.9-2.3c6.6-9.4,7.9-24.3,3.5-39.9
					c-4.2-15-12.9-27.4-22.1-31.4c-5.8-2.5-19.2,5.3-38.8,35c0.7,0.6,1.4,1.3,2.1,2c2.7,3.3,4.6,7.2,5.5,11.4
					C2575.3,486.3,2587.6,500.5,2595.4,509.4z"/>
				<path class="st4" d="M2540.1,487.2c5.3,6.3,4.4,15.6-1.8,20.9c-6.3,5.3-15.6,4.4-20.9-1.8c-5.3-6.3-4.4-15.6,1.8-20.9
					C2525.5,480.1,2534.9,480.9,2540.1,487.2L2540.1,487.2z"/>
				<path class="st4" d="M2396.9,683.2c-2.4-4.7-3.2-10.1-2.5-15.3c-21.2-2.5-28-20.1-32.2-31c-1-3.2-2.4-6.2-4.3-9
					c-0.9,0.5-1.7,1-2.6,1.5c-9.4,6.6-15.7,20.1-17,36.3c-1.2,15.6,2.8,30.2,10.1,37.2C2353.2,707.3,2368.4,704.3,2396.9,683.2z"/>
				<path class="st4" d="M2483.6,718.3c1.3-6.2-8.6-18.1-41.1-32.2c-2.9,4.4-7.1,7.8-12,9.8c8.4,19.6-3.4,34.2-10.8,43.3
					c-2.2,2.5-4.1,5.3-5.7,8.3c0.8,0.6,1.7,1.1,2.6,1.5c10.4,4.8,25.3,3.5,39.9-3.5C2470.5,738.8,2481.2,728.1,2483.6,718.3z"/>
				<path class="st4" d="M2479.6,638.5c3.3,0.7,6.6,1,10,0.8c0.1-1,0.1-2,0-3c-1-11.4-9.6-23.7-22.9-32.8
					c-12.9-8.8-27.5-12.7-37.1-9.8c-6,1.8-11.3,16.5-7.3,51.8c1,0,1.9,0.1,2.9,0.2c4.2,0.8,8.2,2.6,11.5,5.2
					C2449.4,633.7,2467.9,636.6,2479.6,638.5z"/>
				<path class="st4" d="M2423,657c8.1,1.4,13.4,9.1,12,17.2c-1.4,8.1-9.1,13.4-17.2,12c-8.1-1.4-13.4-9.1-12-17.2l0,0
					C2407.3,660.9,2414.9,655.6,2423,657z"/>
				<path class="st4" d="M2325.8,529.1c-4.8-2.1-8.9-5.6-11.7-10.1c-17.9,11.7-34.3,2.7-44.6-3.1c-2.8-1.8-5.9-3.2-9.1-4.2
					c-0.4,0.9-0.7,1.9-1,2.8c-3,11.1,0.9,25.5,10.3,38.7c9.1,12.7,21.5,21.3,31.6,22C2307.9,575.7,2317.6,563.6,2325.8,529.1z"/>
				<path class="st4" d="M2414.8,500.3c-3-5.6-18.2-8.3-52.2,1.8c0.6,5.2-0.4,10.5-2.9,15.2c19,9.6,19.4,28.4,19.6,40.2
					c-0.1,3.4,0.2,6.7,1,10c1-0.1,2-0.3,3-0.5c11.1-3,21.7-13.6,28.3-28.4C2418,524.4,2419.2,509.3,2414.8,500.3z"/>
				<path class="st4" d="M2360.4,441.7c3-1.5,5.8-3.5,8.2-5.8c-0.6-0.8-1.2-1.6-1.9-2.3c-8.1-8.1-22.6-12-38.7-10.4
					c-15.5,1.6-29.2,8-34.8,16.4c-3.5,5.2,1.9,19.9,27.7,44.3c4.1-3.4,9.2-5.2,14.5-5.1C2334.2,457.5,2350.3,447.8,2360.4,441.7z"/>
				<path class="st4" d="M2329,492.2c7.1-4.1,16.2-1.7,20.2,5.4c4.1,7.1,1.7,16.2-5.4,20.2c-7.1,4.1-16.2,1.7-20.2-5.4l0,0l0,0
					C2319.5,505.4,2321.9,496.3,2329,492.2z"/>
				<path class="st2" d="M1922.4,801.8c1.9,0.5,3.1,2.2,2.9,4.1c-0.4,2.2-3,3.3-5.6,2.4c-1.8-0.7-2.9-2-2.9-3.4
					C1916.8,802.4,1919.5,800.8,1922.4,801.8z"/>
				<path class="st2" d="M2024.4,958.7c1,0.1,2,0.1,2.9,0s-1.4-0.1-1.6-0.1S2023.4,958.6,2024.4,958.7z"/>
				<path class="st2" d="M2031,967.1c0.3,0.1,0.6,0.1,0.9,0s-0.4-0.2-0.5-0.2S2030.7,967,2031,967.1z"/>
				<path class="st2" d="M2018.2,967.5c1,0.1,2,0.1,2.9,0s-1.4-0.1-1.6-0.1S2017.1,967.4,2018.2,967.5z"/>
				<path class="st2" d="M2019.1,981.4c1.6,0.1,3.2,0.1,4.8,0c1.5-0.1-2.3-0.1-2.5-0.1S2017.5,981.3,2019.1,981.4z"/>
				<path class="st2" d="M2021.6,993.2c0.6,0.1,1.2,0.1,1.8,0c0.6-0.1-0.9-0.2-1-0.2S2021,993.1,2021.6,993.2z"/>
				<path class="st5" d="M1902,754c-0.7,0.8-1.3,1.5-1.9,2.3c-0.1,0.1-0.2,0.3-0.3,0.4c0.3-0.6,0.7-1.2,1-1.9L1902,754z"/>
				<path class="st5" d="M1905.2,781.7l-0.2,0.1l-0.1-0.2L1905.2,781.7z"/>
				<path class="st5" d="M1902,754c-0.7,0.8-1.3,1.5-1.9,2.3c-0.1,0.1-0.2,0.3-0.3,0.4c0.3-0.6,0.7-1.2,1-1.9L1902,754z"/>
				<path class="st5" d="M2319.9,702.4c-3.4-1.2-7-1.9-10.6-2.2c-1.8-0.1-5.3-0.5-7.8-0.9s-6-0.8-9.1-1.1c-1.4-0.1-4.3-0.4-5.8-0.6
					c-2.1,1-2.4,1.1-4.7,2.3c-15.3,7.6-29.8,17-44.6,26.4c-1.7,1.1-6.2,3.9-8.2,5.2c-1.7,0.2-2.3,0.4-4.1,0.5
					c-6.5,0.8-9.3,1-17.5,1.5c-2.1,0.1-13.7,0.7-18.5,0.9c-9.3,0.4-22.9,1.2-31.5,1.7c-3,0.2-3.5,0.8-4.2,0.2s-1.6,0.4-0.4-1.1
					c2.5-3.3,11-6.9,20.2-12c12.5-6.9,34.5-17.9,47.8-29.4c5.1-4.4,5.2-7,7.6-16.8c2.1-8.8,6.1-27.8,7.4-38.7
					c0.3-2.2-0.2-3.6,1.1-4.8s3.2-0.7,5.9-1c6.9-1,21.3-1,27.3-0.1c6.3,1,7.6,0.8,5.8-3.2c-2.3-5.1-5.5-7.4-11-9.1
					c-4.2-1.3-11-0.8-15.4-0.2c-5.4,0.8-12.5,2.3-16.7,4.6c-2.7,1.4-0.9,1.7-0.8,3.5c0.1,1,0.8,1.3,0.5,2.8s-0.3,2.5-0.6,4.5
					c-2,16.2-5.2,32.3-9.5,48.1c-0.4,1.6-1,3.6-1.5,5.3c-1.3,1-2.7,2.1-4.1,3.1c-14.5,11.1-31.1,19.8-47.1,28.4
					c-5.5,3-14.7,7.8-18.5,10s-1.5,0.8-4,1.7c-11.2,3.9-17.6,9.6-28.7,17.2c-24.4,16.8-55.3,37.9-83.8,47.1
					c-11.2,3.6-13.2,3.3-21.9,4.2c-4.5,0.4-9,1-13.5,2c-0.8,0.2-0.4-1-1.4-3.7c-3-8.2-7.1-15.7-15.1-22.9c-2.4-2.1-4.9-4.1-7.6-5.8
					c0.3-0.3,0.7-0.6,1-0.9l1.5-1.4l1.4-1.3l11.4-13c1.9-2.1,3.7-4.5,5.5-6.8c0.4-0.6,0.9-1.2,1.3-1.8s0.8-1.3,1.2-2
					c0.5-1.3,1.2-2.6,1.8-3.8c-0.9,1-1.8,2.1-2.6,3.2c-0.4,0.5-0.9,1.1-1.4,1.5c-0.5,0.5-1,0.9-1.6,1.3c-2.2,1.8-4.3,3.4-6.6,5
					l-8.6,6c1.1-1.4,2.3-2.8,3.5-4.2c1.6-1.9,3.4-3.7,5.2-5.5l5.4-5.5l2.7-2.8c0.5-0.5,0.9-1,1.3-1.5c0.5-0.6,0.8-1.2,1.1-1.9
					c0.2-0.7,0.3-1.4,0.1-2.1c-0.1-0.4-0.1-0.9,0.1-1.3c-0.3,0.2-0.5,0.8-0.5,1.3c0,0.6-0.2,1.2-0.5,1.8c-0.8,1-1.7,1.8-2.7,2.4
					l-3.1,1.9l-6.4,3.8c-2.1,1.3-4.3,2.6-6.4,4.1s-4.2,3-6.2,4.5l-3.6,3.7l-2.1,2.2l-2.1,2.1c-1.1,1.2-2.4,2.2-3.8,3l0.3,0.6
					l-0.8-0.4h0.1c1.4-1.5,2.7-3.1,3.8-4.8c1.1-1.6,2-3.1,3-4.6s1.9-3.1,2.8-4.6c0.7-1.2,1.4-2.4,2.1-3.6c2.3-5.3,4.4-10.7,6.6-16
					c1.1-2.7,2.2-5.3,3.3-7.9c0.6-1.3,1.2-2.6,1.8-3.9c0.5-1.3,1.2-2.5,2-3.5c-1.1,0.8-2.1,1.8-2.8,2.9c-0.9,1.1-1.8,2.1-2.7,3.2
					c-1.7,2.2-3.4,4.4-5.1,6.7c-3.3,4.5-6.5,9.1-9.8,13.4c-0.8,1.5-1.7,2.9-2.5,4.3c-0.9,1.5-1.8,2.9-2.7,4.4s-1.9,3-2.8,4.3
					s-1.8,2.5-2.9,3.6c-0.9,0.9-1.8,1.8-2.9,2.5l-1.3-0.4c0.1-0.3,0.2-0.5,0.3-0.8l1.1-2l2.2-4.1l2.2-4.1c0.8-1.4,1.5-2.8,2.3-4.2
					c0.1-1.5,0.2-3,0.4-4.5s0.6-3,0.6-4.6c-1.3,1-2.7,1.5-4.1,2.4c-0.9,0.6-1.9,1.2-2.8,1.8c-0.7,0.8-1.3,1.5-1.9,2.3l-0.3,0.4
					l1-1.9l1.3-0.8l0.6-0.7c3.1-4.6,6.6-8.9,10.5-12.9c2-2,4-4,6.1-5.8c1.1-0.9,2.2-1.8,3.3-2.5c0.5-0.3,1.2-0.6,1.8-1
					c0.7-0.3,1.4-0.8,1.9-1.4c-0.6,0.5-1.3,0.8-2,0.9c-0.7,0.2-1.3,0.3-2,0.5c-1.3,0.5-2.6,1-3.9,1.7c-2.5,1.2-5,2.7-7.4,4.1
					c-4.9,3-9.5,6.4-13.8,10.2c-1.2,1.3-2.3,2.7-3.4,4c-0.7,0.8-1.3,1.6-2,2.4s-1.3,1.7-1.9,2.5c-1.2,1.7-2.4,3.4-3.6,5
					c-2.1,3.2-4.5,6.3-7.1,9.2l0,0c-1.7-0.1-3.4-0.2-5.1-0.2c0.2-0.4,0.4-0.8,0.7-1.1c0.7-1.1,1.3-2.2,2.1-3.2
					c2.5-4.8,5.8-9.1,9.7-12.8c2-1.9,4.3-3.7,6.4-5.6c1.1-1,2.2-2,3.2-3c0.5-0.5,1-0.9,1.5-1.3c0.3-0.2,0.6-0.4,0.9-0.5
					c0.4-0.2,0.7-0.5,1-0.9c-0.3,0.3-0.6,0.5-1,0.7c-0.3,0.1-0.7,0.2-1,0.3c-0.6,0.3-1.3,0.6-1.9,0.9c-1.2,0.7-2.4,1.4-3.6,2
					c-2.5,1.3-5,2.5-7.5,3.8c-5.2,2.9-9.8,6.6-13.8,10.9c-1,1.5-2,3-3,4.5c-1.2,1.9-2.2,3.9-3.2,5.8c-10.9,1.2-19.2,4.1-25.9,11
					c-5.6,5.8-6.9,8.5-6.1,16.3c1.4,12.9,8.9,21.1,20.9,29.4c10.4,7.2,28.2,13.1,41.9,14.2c6,0.5,12.6,1.1,17.8,0.5
					c7.6-0.9,13.4-3.2,19.9-6.1c4.7-2,8.8-5.1,12.1-9c0.5-0.7,0.4-0.9,0.8-0.3s3-1.1,3-0.9s6.8-4,4.8-0.8
					c-2.9,4.7-13.3,18.6-16.7,22.7c-5.6,6.9-9.3,12.9-14.8,16.9c-14.1,10.5-28.5,18.3-43.3,26.8c-0.8,0.5-1.5,0.8-2.4,1.3
					c-1.2-0.8-4.3-2.8-5.3-3.4c-5.5-3.5-10.7-7.5-15.6-12c-3.5-3.3-6.3-6.5-9.9-6.9c-2.4-0.2-2.4,0.5-3,2.5c-0.8,3,0.6,7.8,2.3,10.9
					c0.8,1,1.9,1.8,3,2.5c1.3,0.8,2.4,1.8,3.5,2.8s0.1,0.9,1.8,2.2c3.4,2.4,11.1,3.4,15.8,4.3c0.9,0.2,3.8,1.1,5,1.3
					c2.4,0.4,2.2,1.1,5.1-0.8c1.1-0.7,6.7-4,9.3-5.6c10.7-6,29.5-16.3,37.2-23.5c12.1-11.3,17.2-21,25.6-31.8
					c2.4-3.2,3.4-5.5,4.7-6.4s0.3,0.1-0.1,1.4c-2.8,9.4-5,18.9-6.7,28.5c-1.4,7.6-3.2,15.2-5.3,22.6c-1.7,5.1-3.8,10.2-6.2,15
					c-5.1,10.7-12.1,25.5-16.7,35.6c-2.4,5.3-4.6,10.2-5.6,12.2c-1.7,3.4-0.8-0.1-2,0.2c-0.7,0.2-1.9-1.5-2.6-1.7
					c-4-1.4-8.1-1.9-11,2.2c-3.3,4.7-17.6,4.3-20.3,4.4c-7.6,0.3-73.3,3.5-74,6.8c-0.5,2.6,37.6,4.8,40.5,4.8c1.1,0,9.5,0.2,7.7,1
					c-0.9,0.4-4.1,0.2-1.2,0.9c7.6,1.8,17.8,1,28.2,0.9c9.5-0.1,7.4,0.3,2.3,0.9c-9.5,1-22.2,1.5-30.5,6.4c-0.9,0.6-0.4,0.5-1.2,1
					c2.2-0.1,2-0.1,4.5-0.2c5.5-0.2,10.7-0.3,17.5-0.4c21.8-0.3,52.8-0.8,72.3-1.4c3.5-0.1,5-0.2,5.7-0.3c0.1-0.1,0.8-0.1,0,0
					c-0.1,0.1,0,0.2,0.5,0.3c2.2,0.7-5.7,1.5-7.5,2c-11.4,2.6-38.8,6.8-47.6,14.5c-1.5,1.3-3.4,1.1-1.7,1.9
					c10.8,5.3,4.1,4.2,24.8,5.8s60.4,0.9,85.6-0.2c1.7-0.1,9-0.1,10.2-0.3h-7.9c-2.6,0-5.3,0-8-0.1v-12.1c2,0,4.2-0.1,6-0.1h0.5
					c-0.9,0-19.9-0.3-26.7-0.2c-7.6,0.2-30.9-0.1-31.9-0.2c-6.5-0.5,11.3-3.5,29-6.9c6.3-1.2,21.3-3.5,26.8-4.4s5.9-0.9,9.5-1.5
					l0.7-0.1l0.5-0.1c-0.6,0-0.4-0.1-1.1-0.1c-1.6,0-6.2,0.8-7.3,1c-1.8,0.3-9.2,1.3-7.1,0.8c0.4,0,0.7-0.1,1.1-0.3
					c0.4-1-0.3-4.4,0.1-4.9c1.8-1.9-2-4.6,0.1-5.7c1.2-0.7,1.5-0.1,8.4-0.1c25.4-0.2-48.2-1.2-70.4-1.5c-3.4,0-25-0.4-31.6-0.7
					s-22.9-0.5-27.4-0.9s-20.1,0.1-18.5-0.8c5.9-3.3,48.1-0.6,61.2-0.6c17.4,0,47.5,0.1,64.2-2.4c10.1-1.5,8.3-0.8,0.2-2.1
					c-12.5-1.9-36.3-1.5-49.8-1.6c-5.3,0-16.3,0.9-16.2-0.6c0.5-8.7,13.6-31.6,16-36.9c5.7-12.7,10-20.7,12.1-27.8
					c2.3-7.7,4.1-15.6,5.5-23.6c2-10,3.1-16,5.9-25.3c0.4-1.5,1.2-3.9,1.8-5.8c0.3-0.9,0.8-2.6,1.1-3.6c1.9-0.1,5.6,0,7.2-0.1
					c5-0.2,7.7,0,12.4-1c7.3-1.3,14.4-3.2,21.4-5.7c29.1-10.1,56.3-25,80.6-44.1c5.6-4.2,10.7-9.2,15-14.8c0.9-1.1,0.9-1.5,1.6-2.5
					c0.9,0,1.7,0,2.6,0c1.3,0,2.5-0.1,3.8-0.3c6.8-0.8,20.2-1.3,26.9-1.6c15-0.7,27.8-0.9,41.8-2.8c1.8-0.2,2.1-0.3,3.9-0.6
					c2.2-1.4,7.1-4.5,9-5.7c14.2-8.9,27.7-17.7,42.2-25.1c1.9-0.9,2.1-1,3.8-1.9c1.1,0.5,1.9,0.9,3,1.5c4.9,2.1,10,3.8,15.2,5.2
					l3.9,1.1c0.5-0.3,1.3-0.6,1.8-0.9c2.4-1.6,8.3-2.1,10.2-2.3c2.2-0.2,6.2,0.7,6.1-1.4S2322.4,703.4,2319.9,702.4z M1965.5,821
					c-1.4,0.2-2.7,0.3-4.1,0.2c-0.6,0-1.2-0.1-1.7-0.2c0.4-0.5,1.2-1.8,1.6-2.1c2.9-3.3,0.3-10.4,4.1-8c1.9,1.2,2.4,3.9,2.7,5.8
					C1968.6,819.4,1968.2,820.5,1965.5,821L1965.5,821z M1976.7,817.7c-2.3,1-4.2,2.2-6.1,2c-0.8-0.1,0-1.2-0.2-2.1
					c-0.3-1.8-0.5-5.2-1.8-7c-2.3-3.1-5.5-4.6-8.4-1.1c-2.1,2.5-0.3,5.3-2.7,9.2c-0.4,0.8-1,1.7-1.5,2.4c-0.7,0-2-0.1-2.7,0
					c-8,0-19.9-2.8-26.3-4.5c-2.7-0.8-4.4-1.2-4.9-1.6c-4-1.6-19.8-11.3-22.2-13.5c-3.2-3-6.7-6.6-8.3-10.2
					c-3.6-7.9-4.6-13.9,1.5-20.8c4.4-5.2,10.9-7.2,18.3-9.2c0.5-0.1,6.2-0.5,8.3-0.6c3.9-0.2,7.8-0.2,11.6,0c8.4,1,16.7,3,24.7,6
					l0.2,0.1c0.8,0.3,1.5,0.6,2.2,0.9c4,1.8,7.9,3.8,11.6,6l0.5,0.3c9.7,5.9,17.8,13.8,21.2,24.6
					C1995.8,810.5,1985.6,813.9,1976.7,817.7L1976.7,817.7z M2048.5,943.2c0.1,0,0.8,0.1,0.5,0.2s-0.6,0.1-0.9,0
					C2047.7,943.2,2048.4,943.2,2048.5,943.2z M2138.7,745.8c-15,14.4-37.2,27.8-56.5,37.3c-7,3.5-15.4,8.5-21.1,9.5
					c-1.4,0.2,0.9-0.7,3.3-1.9c17.1-8.4,40.2-23.9,55-34c9.5-6.5,16.9-13.4,23-14.8C2144.3,741.4,2141.4,743.2,2138.7,745.8
					L2138.7,745.8z"/>
				<path class="st5" d="M1909.3,807.1l-0.2-0.1L1909.3,807.1z"/>
			</g>
		</g>
	</g>
</g>
</svg>
