<svg xmlns="http://www.w3.org/2000/svg" viewBox="0 0 3536.24 1191.4"><defs><style>.cls-1{fill:none;}.cls-2{fill:#ef7a1a;}.cls-3{fill:#010101;}.cls-4{fill:#ef791b;}.cls-5{fill:#2a4b9b;}.cls-6{fill:#1d1d1b;}</style></defs><g id="Ebene_2" data-name="Ebene 2"><g id="Ebene_1-2" data-name="Ebene 1"><rect class="cls-1" width="3536.24" height="1191.4"/><g id="Ebene_2-2" data-name="Ebene 2-2"><g id="Ebene_2-2-2" data-name="Ebene 2-2-2"><path class="cls-2" d="M1056.4,819.56h-1.25v-97.4h1.26a7.14,7.14,0,0,0,0-14.28h-1.26V675.79a22,22,0,0,0-44-1.06v33.2H998.68V675.79a22,22,0,0,0-44-.77v32.91H942.21V675.79a22,22,0,1,0-44-.77v32.91H885.75V675.79a22,22,0,0,0-44,0v32.13h-7.63V704.1a7.14,7.14,0,0,0-14.28,0V726a7.14,7.14,0,1,0,14.28.44h0v-4.24h7.63V859.9a22,22,0,1,0,44,0V833.82h12.47V859.9a22,22,0,1,0,44,.76h0V833.82H954.7v26.07a22,22,0,1,0,44,.76h0V833.81h12.48v26.07a22,22,0,1,0,44,0h0V833.81h1.26a7.14,7.14,0,0,0,0-14.28Zm-170.67,0v-97.4h12.48v97.4Zm56.46,0v-97.4h12.49v97.4Zm56.47,0v-97.4h12.47v97.4Z"/><path class="cls-3" d="M825.66,696.39c-1.35-.11-1.53.63-3.28,1.24-4.58,1.58-4.7,3.32-11.09,2.48-5.16-.67-10.24-.08-18.07.51-4.41.33-12.41-1.53-19.72-3.6-33.76-9.5-19-60-38-77.83-29.22-27.47-40.24-21.59-74.64-19-5.73.43-6.95,3.6-10,3.88s-3.41,2-4.54,1.43c-3.35-1.73-3.88-4.28-2.28-7.37.91-1.72,1.61-.21,3.81-1,21.61-8.24,34.51-23.66,44.42-45.33,1.85-4,6.71-19.76,6.64-24.47-.42-22.31-1-44.09-19.68-58.29-26.48-20.08-44.61-3.2-60.46,20.18a57.89,57.89,0,0,0-5.29,10.41c-2.06,5.91-4.9,13.25-6.45,19.84s-4.39,14.18-4.23,20.91c.3,12.44,0,23.23,4.58,34.95,5.56,14.08,11.71,16,25.11,21.74,1.14.49,1.34,2.35,1.08,3.82-.06.43.9,2.36-.48,2.68-.06-4.48-10.43-3.13-12-5.29-15.59-21.86-63,5.34-79.1,10.12-53.17,15.74-43.85,6.6-64.6-34.14-1.12-2.19,2.51-3.06.07-4.86a10.46,10.46,0,0,0,1.8-4.62c.77-11-2.45-21.82-6.78-31.38-2.68-6-3.3-13.07-9.39-15-4.21-1.34-.64,5-2.35,8.4s-1.1,7.63-7.93,10c-3.32,1.16-13.74,8.66-17.61,11.57-6.34,4.81-29.95,26.5-25.84,33.57,8.48,14.62,25.57-10.79,35.92-14.33C453.09,564.8,462.41,563,470,570c3.44,3.21,3-5.87,4.35,6.1,8.39,76.27,72.55,35.28,116.81,21.46,19.91-6.2,23.89,4.16,37.14,10.14,7.14,3.22,4.2.76,6.87,4.15,6.53,8.26,6.25,9.62,10.18,21a135.71,135.71,0,0,1,6.4,27.76c2.1,15.77,2.29,40.45,1.2,58.31-1,16.9-1.26,39-1.38,53.65-.14,17.71,2.21,24.42,4.1,39.68.21,1.62,1.21,1.21,1.28,2.95-1.26.67-2.85,4.26-3.65,5.3-25.18,32.64-46.74,71.73-58.54,110.08-4.46,14.49-3,20.34-5,31.7s1,18.78.89,27.8c0,3.16,2.21,6.39,1.07,6.63-13,2.77-24.51-2.59-37.39-4.18-.94-.12-1.05,1.85-1.25,3.46-.26,2.12-2.68,5.16-3.81,7.72-1.3,3,1.37,5.26,4.26,6.35,1.39.52,2.79.31,1.12,2-6,6,38.92,3.82,47.09,3.76,1.86,0,11.29-3.15,10.13,1.1s-14.08,3-17,3.35c-7.12.76-28.79,3.89-5.77,2.69,4.07-.22,22-1.8,29.51-2.47s27.69-2.36,33.7-2.94c21-2,38.62-5.34,57.82-3.74,5.12.42-7.11,1.65-9.5,1.85-3.6.32-9.63,1.1-15.31,1.22a329.38,329.38,0,0,0-37.39,3c-3.56.49-12.9,1.35-15.91,1.6-11.85,1.13-39.57-1.45-46.06,7.24-2.68,3.57,6.71,1.94,12.21,2.2,9.16.42,26.23,1.52,39.13,1.42,3.2,0,17.05.35,21.58.61s19.8,3.09,21.36,3.29c9.52,1.24,47.47-1.18,46,8.84-.29,2-8.53,1.34-11.45,1.52-7,.53-19.89,2.9-26.15,4.19-7.44,1.52-9.92,3.14-15,6.54-1.77,1.19.15,1-.73,1.43a22.59,22.59,0,0,1-2.67.89c-.87.32-2,.57-2.41,1.28-.7,1.11.24,1.22,1,1.74a3.22,3.22,0,0,1,1.57,1.83,5.45,5.45,0,0,0,1.53,2.51c.4.36,1,1.2,1.92,1.34,2.93,0,10.6,0,12.69-.06a172.18,172.18,0,0,1,20.06.53c3.51.28,4-.25,5.73,1.35s-5,0-4.58.18c1.19.52,4.14.66,7.94,1,8.14.82,22.68.67,28.88,9.24,3.89,5.34-.58,9.08-2.68,15-1,2.91-11.11,4.41-.34,7.48s22.27,4.36,33.69,4.73c1.34,0,1.34-1.2,2.29-2.84s3.47-6,4.78-7.94,5.5-6,4.44-7.94c-3.66-6.57-3.34-7.21-10.95-10.89-10-4.84-25.11-8-36.63-11.14-5.64-1.52.34-2.23,3.82-2.21a79.73,79.73,0,0,0,9.71-1.66,60.38,60.38,0,0,1,10.45-1.34c1.71,0,7,.67,6.39-.44-1.82-3.32-3.55-2.43-7.75-3.75-5.78-1.8-15-.33-21.46-2.68s-5.57.63,5.78-3c29.6-9.67-.22-12.83-15.91-14.26-4.57-.41-28.23-5.34-36.06-5.8-1.84-.12-8.93-.11-3.88-1.61,12.51-3.71,30.32-4.87,42.09-5.71a78.21,78.21,0,0,0,9.29-1c3.17-.49,1.53-.76,3.76-1.14s7.48-1.19,9.16-1.39c9.21-1,31.52-.33,33.74-10.12,1-4.31-11.9-2.1-14.81-2.54-.67-.1-5.34-.16-6.45-.39,0-.67,1.09-1.34,1.45-1.7.81-.76,2.23-1.89,2-2.87-.76-2.85-2.14-4.15-4.65-5.45-3.24-1.69-4-4-7.85-5.62s-8.4-.17-13.34,1.34c-2.42.77-9.49,2.56-12.55,1.53-4.15-1.33-6.54,3.36-9.21-1.61-8.25-15.43-8.59-28-10-46.79s-4.1-42.69-9.8-62c-6.92-23.38-17.44-45.2-30.29-65.89a27.89,27.89,0,0,0-3.44-4.57c.36-1.53.53-.28.92-1.85,4.65-18.52,5.34-31,7.69-52.52,1.26-11.63-.76-42.78-2.48-54.71-4.45-31.09-12.26-55.86-22.89-82.76-5.11-12.92-7.45-2.2-.92-12.21,3.05-4.69,4.34-4.9,12.68-5.16,21.42-.67,11.64-8.21,39.68-.82,51.12,13.48,26.78,61.4,54.39,92.48,5.1,5.74,14,8.32,19.08,12.21a172.89,172.89,0,0,0,37.86,21.42c6.28,2.54,7.47,5.53,12.07,3.21,5.42-2.74,0-6.29-2.39-9.92-3.88-5.94-3.77-14.18-.88-20.61,1.12-2.49,1.94-3.48,2.25-5.51C826.88,696.18,827,696.51,825.66,696.39ZM672.93,470.52c5.7,4.48,11.31,9.4,14.5,17.75,2.29,5.92,5.59,14.5,5.51,22a114.53,114.53,0,0,1-14.56,55.06,43.23,43.23,0,0,1-6.29,8.67c-19.88,19.66-39.92,27.47-58.3.67-5.29-7.72-4.8-17.45-5-27-.18-8.72,1.72-18.61,4.26-27.41,4.58-15.9,11.91-32.59,24.15-43.6,8.52-7.63,15.2-8.56,25.95-9.71C667,466.51,668.94,467.37,672.93,470.52ZM665.74,705c2.11,16,2.86,39.92,2.34,54.68-.67,18.24-2.41,28.24-4.29,44.38-.16,1.39-.54.91-.66,2.37-.13-1.74-.55-1.42-.77-3.22-2.1-21.06-1.94-39.45-.86-62,.27-5.51.58-22,.76-29.59s.39-17.72.48-24.82c0-3.22.06-3,.07-5.71.35,2.57.46,3.36.88,6.11.95,5.89,1.13,10.82,2,17.76Zm3.18,119c13.32,21.7,23.84,44.54,30.57,70.05,4.42,16.79,6.92,38.79,7.93,55.7,1,16.38,2.5,29.76,7.43,43.75,1.35,3.78,1.65,2.46,2.8,5s2.44,3,4,5.12c.77,1,2.5,2.13,2.88,3.44-6,.07-15.95.19-21.82.19-29.38,0-62.78.86-90.25,1.6-11.45.31-9.36.55-16.29.47-9.71-.13-2.18.76-1.75-1.79.67-3.91,3.89-3.35,3.82-8.56,0-1.67-1.38-3.5-1.24-7.45.37-10.77-3.82-15.26-1.79-28.54,4.22-27.56,11.89-53.73,26.06-80.59,9.11-17.24,22.89-41.85,36.11-57.55,2.73-3.24,2.29-6,6.11-5.34s3,.59,5.4,4.46Zm-27.35,188.68c2,1.94,1.21,2.28,2.41,3.28,1.47,1.24-11.44.68-15.79.68-5.11,0-2.83-.77.45-2.09C631.2,1013.44,640,1011.09,641.57,1012.59Z"/><path class="cls-3" d="M672.34,549.38c-.41.53-.26,3-.82,4.84-1.34,4.06-2.39,9.54-6.78,12.29-6.39,4-12.81,6.1-20.07,2.42-6.43-3.26-8.4-10.45-9.92-16.93-.43-1.8-.19-4-.45-5.24-.35-1.52-.13-2.23-1.53-1.52s-1.7,1.15-1.22,3.44c1.68,8,1.53,17.23,10.36,21.61,15.46,7.63,21,4.25,30.85-9.26,2.29-3.17,2.29-7.63,1.83-11.13C674.33,547.84,673.82,547.49,672.34,549.38Z"/><path class="cls-3" d="M666.19,516c-.32,2.12-1.8,3.62-3.56,3.62-2.29,0-3.82-2.37-3.35-5.13a4,4,0,0,1,2.9-3.48C664.7,510.5,666.67,513,666.19,516Z"/><path class="cls-3" d="M650,518.85c-2.29,1.53-4.93.06-5.23-2.94a4.68,4.68,0,0,1,2.29-4.69,3.2,3.2,0,0,1,4.16,1.52C652.15,514.78,651.57,517.74,650,518.85Z"/></g></g><g id="Ebene_2-3" data-name="Ebene 2-3"><g id="Ebene_2-2-3" data-name="Ebene 2-2-3"><path class="cls-3" d="M2673,424.6a1.91,1.91,0,0,1,.25,1.61c-.25.94-.16,1,2.73,1.27,29,2.63,91.62,21.45,163.2,49,27.74,10.69,51.41,20.71,66.1,28,6.53,3.2,7.49,3.57,8.52,3.25,1.72-.62,3.46.62,5.75,4,4.57,6.74,6.49,15.44,6.49,29.38,0,16.11-2.79,33.39-9.3,57.72-7.6,28.44-20.43,64.27-34,94.72-1.27,2.83-2.32,5.34-2.42,5.59s1.81,1.76,4.2,3.4c9.36,6.29,17.83,13.73,34.06,30,21.41,21.41,41.09,43.6,69.28,78.1,19,23.25,34.55,43.11,34.88,44.63.54,2.14-1,4.65-4,6.57-6.62,4.19-26.5,8.92-65.46,15.57-6.13,1-14.87,2.55-19.52,3.33-21.85,3.74-24.72,4.44-33.45,8.34l-2.37,1.07h25.21c16.23,0,27.41.17,31.39.5,3.37.29,10.91.9,16.65,1.36,37.1,2.88,55.5,6,52.54,8.75-1.23,1.2-7.38,2.63-15.77,3.7-4.61.57-20.55,2.26-21.95,2.33-.36,0,.13.41,1,.86a10,10,0,0,1,2.59,1.76l.87,1-34.32.29c-25.58.2-38,.49-48.83,1.07-8,.44-15.51.82-16.73.82s-2,.16-1.84.32a46.74,46.74,0,0,0,4.93,2.14,255.21,255.21,0,0,1,23.42,10.76c17.17,9.58,19.52,16,7.19,19.81-18.24,5.75-62.69,5.71-153.49-.16-19.48-1.28-28.43-1.69-52.79-2.47-20.27-.68-20.35-.68-11.31-.77a56.14,56.14,0,0,0,7.27-.33,1.85,1.85,0,0,1-1.14-.68c-.41-1.16-.78-15.51-.37-15.68.2-.11-.33-.2-1.28-.2s-2.79-.16-4.09-.29l-2.43-.24-1.14,2.63a38.1,38.1,0,0,1-8,11.42c-2.72,2.88-3.28,3.66-2.72,3.82s.25.2-.49.25c-1.15,0-1.11-.08,1.89-3.16a71.54,71.54,0,0,0,4.81-5.34c1.72-2.23,5-8.39,5-9.38,0-.37.45-.58,1.11-.58,2,0,27.69,2.05,50.86,4.1,40.36,3.53,63.65,4.23,102.52,3,9.37-.29,22.64-.68,29.46-.83,19.64-.48,20.8.13-22.68-12.4l-20.16-5.79-6.78-.57c-3.74-.34-11.91-.91-18.21-1.24a119.64,119.64,0,0,1-12.32-1c-.5-.21-.69-.37-.41-.37.73,0,.68-.85,0-.85a8.56,8.56,0,0,1-1.73-.42c-3.41-1.32,4.85-2.73,22-3.7,13.43-.77,17.29-1.14,21.8-2,8.34-1.6,18.82-2.42,37-2.92,13.47-.36,39.19,0,50.83.78,5.54.33,9.54.28,22.8-.41,8.85-.45,17-.87,18.2-.91,5.51-.16-17.71-.78-46.43-1.15-17.62-.21-34.64-.62-37.79-.82-5.31-.36-5.93-.33-7.94.41-3.37,1.27-5.26,1.11-6.86-.57a5.69,5.69,0,0,0-2.79-1.69c-1.65-.33-3.1-1.23-2.68-1.65a9.13,9.13,0,0,1,2.22-.77c1.94-.49,1.94-.49,2.63-3,1.11-4.09,1.65-4.65,6.2-6.33a11.11,11.11,0,0,0,3-2.14l1.55-1.55,12.4-.36c11.27-.29,13-.45,19-1.55,3.62-.68,14.31-2.59,23.85-4.2,29.78-5,46.67-8.34,57.31-11.17,9.21-2.42,15.54-5.1,15-6.29-.74-1.93-34.89-44.46-51.16-63.64-32.46-38.34-61.44-68.34-78.73-81.45-4.09-3.1-8.79-6.32-9.21-6.32-.58,0-1.19,2.09-1.89,6.37-.33,2.26-.9,5.38-1.24,7-.77,3.49-.77,3.49-.07,3.49a20.59,20.59,0,0,1,3.82,1.6c14.1,6.86,23.55,23.54,27.49,48.73.9,5.55,1.27,22,.68,28.23-3.41,34.31-18.61,60.32-38.34,65.5a31.59,31.59,0,0,1-12.33,0c-13.18-3.5-24-17.31-29.67-37.68-7-25.11-4-57.82,7.32-80.29q8.94-17.73,21.61-24c2.92-1.48,7.36-2.88,9.08-2.88,1,0,1.16-.25,1.77-2.39a20,20,0,0,0,.68-4.43,36.83,36.83,0,0,0-.94-7.39c-.27-.28-12.54,3.4-17.14,5-16.24,5.67-26.36,11-35.55,18.65-2,1.73-6.57,5.63-10.07,8.76-8.18,7.31-13.18,11.46-18.4,15.36l-4.19,3.17,0,16.23c0,27.08-1.6,121.66-2.05,122.07s-28.05.83-27.81.41-15.51-1.06-16.1-.68-11.26.36-12.09,0a2.05,2.05,0,0,1-.77-2.67,21.6,21.6,0,0,1,3.16-3c13-10.48,22.1-12.66,31-7.44a55.16,55.16,0,0,0,12.81,5.42,32,32,0,0,0,4.83,1.13c.4-.45,1.8-88.86,1.8-115.58V755l4.39-3.32c5.59-4.19,12.45-9.94,20.89-17.42,12.26-10.91,18-15.09,27.13-19.72,8.53-4.32,20-8.53,33.33-12.34l6.2-1.72.53-2.32c.58-2.67,6.2-22.31,10.28-36,18.48-62.09,27.61-100.71,31-131.85.68-6.5,1.23-15.46.9-15.46-1.32,0-48.28-3.1-56.59-3.69-44.33-3.37-72.77-7.81-99.65-15.62A291.67,291.67,0,0,1,2679,461.69l-4.94-3.1-.53,1.48a16.85,16.85,0,0,0-.68,9.3l.68,2.64-4,4.84c-3.94,4.73-4.08,5-4.8,8.26-.45,1.85-1,3.37-1.24,3.37a9,9,0,0,1-1.85-.41c-1.31-.37-1.55-.29-3.87,1.93-5,4.65-7.36,5.79-9,4.36-.68-.62-.77-1.07-.62-3,.24-2.92,2.22-7.24,6.41-13.89,1.77-2.83,4-6.74,5-8.68a40.23,40.23,0,0,1,6.32-9.77,26.46,26.46,0,0,0,2.87-3.88c1.37-2.33,2.33-3,4.86-3.28,1.72-.16,2-.08,2,.57,0,.86,3.17,3,13.17,9a287.26,287.26,0,0,0,51.69,24.28c34.4,11.88,67.76,17.31,132.8,21.54,23.54,1.55,28.93,1.84,29.06,1.68.45-.45-26.51-12.16-45.9-20-65.17-26.13-131-47.49-166.2-54a130.51,130.51,0,0,0-17.14-2.26h-2.1l.21,2.88.2,2.87-4.08,2.51c-9.54,5.88-18.45,14-23.67,21.65a25,25,0,0,1-3.66,4.48c-1,.68-1.07.68-2-.37-1.93-2.26-2.72-10.52-1.31-14.59,2.32-6.86,9.62-14.46,19.8-20.62,4.31-2.63,14.22-7.44,15.25-7.44A2.07,2.07,0,0,1,2673,424.6Zm242.8,118.1c-2.92,20.31-7.75,42.93-15,70.11-1.85,6.89-11.71,41.45-13.27,46.58-1.69,5.43-.46,2.64,3.4-7.84,13.85-37.26,22.4-68.14,25.72-93,1-6.9,1.55-21.94,1-25.1-.33-1.93-.33-1.93-.49-.57C2917.13,533.65,2916.51,538.08,2915.82,542.7ZM2864,727.64c-6.29,1.16-13.85,7-19.38,14.79-7,9.91-11.95,24.38-14.37,41.51-.78,5.75-.68,23.17.2,29q4,26.94,16.23,38.88c3.44,3.36,4.27,4,7,5.38a18.67,18.67,0,0,0,10,2.13c16.28-1.55,30.61-22.84,35.43-52.76,3-18.39.9-39.53-5.38-55.34-5.22-13.18-14.58-22.64-23.26-23.63-3.83-.46-4.11-.46-6.5,0ZM2714,926a6.3,6.3,0,0,0,1.84,0c.54-.08.12-.17-.91-.17s-1.42.07-.93.15Zm2.72,16.44a17.19,17.19,0,0,0,2.87,0c.68-.08,0-.17-1.55-.17s-2.18.07-1.32.15Z"/><path class="cls-3" d="M2864.3,751.63c4.65,1.31,8.86,4.65,12.12,9.54a18.83,18.83,0,0,1,2,3.57c0,.45-2.79,1.77-3,1.4,0,0-.57-.95-1.15-2a19.51,19.51,0,0,0-11.51-9.3c-4.92-1.27-10.31.5-16.18,5.26l-3.33,2.73-1.07-1.36-1.06-1.32,2.17-1.88a36.58,36.58,0,0,1,9.66-6.09A23.32,23.32,0,0,1,2864.3,751.63Z"/><path class="cls-3" d="M2849.16,809.84c.32,2.15,1.83,3.68,3.62,3.68,2.32,0,3.87-2.41,3.4-5.22a4,4,0,0,0-2.94-3.53C2850.68,804.25,2848.67,806.74,2849.16,809.84Z"/><path class="cls-3" d="M2865.66,812.74c2.33,1.55,5,.06,5.32-3a4.74,4.74,0,0,0-2.33-4.76,3.23,3.23,0,0,0-4.23,1.55C2863.44,808.6,2864,811.62,2865.66,812.74Z"/><path class="cls-4" d="M2957.5,309.22a50.3,50.3,0,1,1-50.28,50.34h0A50.39,50.39,0,0,1,2957.5,309.22Z"/><path class="cls-4" d="M2957.5,238.81a13.72,13.72,0,0,1,13.73,13.71h0V282.7a13.72,13.72,0,0,1-27.43.08V252.53A13.72,13.72,0,0,1,2957.5,238.81Z"/><path class="cls-4" d="M2957.5,422.6a13.72,13.72,0,0,1,13.69,13.7h0v30.23a13.71,13.71,0,0,1-27.42,0V436.3A13.72,13.72,0,0,1,2957.5,422.6Z"/><path class="cls-4" d="M3002.12,295.5l21.34-21.33a13.71,13.71,0,0,1,19.38,19.38l-21.34,21.34a13.72,13.72,0,0,1-20.36-18.41c.31-.34.64-.66,1-1Z"/><path class="cls-4" d="M2872.16,425.45l21.34-21.34a13.72,13.72,0,0,1,19.38,19.38l-21.34,21.34a13.72,13.72,0,0,1-19.38-19.38Z"/><path class="cls-4" d="M3034.31,345.79h30.18a13.72,13.72,0,0,1,.61,27.43h-30.79a13.72,13.72,0,1,1-.61-27.43Z"/><path class="cls-4" d="M2850.53,345.79h30.18a13.72,13.72,0,0,1,.6,27.43h-30.78a13.72,13.72,0,1,1-.61-27.43Z"/><path class="cls-4" d="M3002.12,404.13a13.71,13.71,0,0,1,19.38,0h0l21.35,21.32a13.71,13.71,0,1,1-18.65,20.1c-.25-.23-.49-.47-.73-.72h0l-21.34-21.34a13.72,13.72,0,0,1,0-19.38Z"/><path class="cls-4" d="M2872.16,274.17a13.71,13.71,0,0,1,19.38,0h0l21.34,21.33a13.72,13.72,0,0,1-19.38,19.38h0l-21.34-21.34a13.72,13.72,0,0,1,0-19.38Z"/><path class="cls-5" d="M2701.06,718.39a30.84,30.84,0,0,0,19.42-54.76V589a14.73,14.73,0,0,0-14.69-14.69h-9.46A14.75,14.75,0,0,0,2681.64,589v74.6A30.82,30.82,0,0,0,2701,718.36h0Zm4.72-138a8.66,8.66,0,0,1,8.65,8.61V665.1a3,3,0,0,0,1.24,2.43A24.81,24.81,0,1,1,2681,673l0,0a25.15,25.15,0,0,1,5.42-5.43,3,3,0,0,0,1.24-2.43V589a8.66,8.66,0,0,1,8.65-8.63Z"/><path class="cls-5" d="M2682.26,687.56a18.81,18.81,0,1,0,25.21-17.67v-66a4.77,4.77,0,0,0-4.76-4.77h-3.34a4.77,4.77,0,0,0-4.78,4.76h0v66A18.81,18.81,0,0,0,2682.26,687.56Z"/><path class="cls-5" d="M2731.87,596.49a2.49,2.49,0,0,0,2.48,2.48h5.1a2.49,2.49,0,0,0,2.48-2.48v-2.72a2.48,2.48,0,0,0-2.48-2.48h-5.1a2.48,2.48,0,0,0-2.48,2.48h0Z"/><path class="cls-5" d="M2731.87,612.66a2.48,2.48,0,0,0,2.48,2.48h5.1a2.49,2.49,0,0,0,2.48-2.48h0v-2.72a2.48,2.48,0,0,0-2.47-2.47h-5.11a2.48,2.48,0,0,0-2.48,2.47h0Z"/><path class="cls-5" d="M2731.87,628.82a2.48,2.48,0,0,0,2.46,2.48h5.12a2.47,2.47,0,0,0,2.48-2.47h0V626.1a2.48,2.48,0,0,0-2.48-2.48h-5.1a2.48,2.48,0,0,0-2.48,2.48h0Z"/><path class="cls-5" d="M2731.87,645a2.48,2.48,0,0,0,2.48,2.48h5.1a2.48,2.48,0,0,0,2.48-2.48h0v-2.72a2.48,2.48,0,0,0-2.47-2.47h-5.11a2.47,2.47,0,0,0-2.48,2.46h0Z"/><path class="cls-5" d="M2731.87,661.15a2.48,2.48,0,0,0,2.46,2.48h5.12a2.47,2.47,0,0,0,2.48-2.47v-2.73a2.49,2.49,0,0,0-2.48-2.49h-5.1a2.49,2.49,0,0,0-2.48,2.49h0Z"/><path class="cls-5" d="M2625.09,574.2h7.22l-2.45-4.24a2.21,2.21,0,0,1,3.82-2.21l2.46,4.26,3.54-6.13h-4.92a2.21,2.21,0,0,1-.25-4.41h5.17l-3.61-6.25a2.2,2.2,0,0,1,3.81-2.2h0l3.61,6.2L2646,555a2.2,2.2,0,0,1,3.82,2.2l-2.46,4.26h7.08l-2.45-4.26a2.2,2.2,0,1,1,3.81-2.2l2.47,4.25,3.6-6.24a2.2,2.2,0,0,1,3.82,2.2l-3.61,6.25h4.91a2.21,2.21,0,1,1,.33,4.4H2662l3.54,6.13,2.45-4.27a2.21,2.21,0,0,1,3.82,2.21l-2.47,4.25h7.2a2.2,2.2,0,0,1,0,4.4h-7.19l2.46,4.27a2.2,2.2,0,1,1-3.79,2.23l-2.46-4.26-3.54,6.13H2667a2.21,2.21,0,0,1,.33,4.41h-5.23l3.6,6.24a2.21,2.21,0,0,1-.78,3h0a2.2,2.2,0,0,1-3-.78l-3.61-6.25-2.46,4.26a2.21,2.21,0,0,1-3.82-2.21h0l2.45-4.25h-7.06l2.45,4.25a2.21,2.21,0,0,1-.77,3h0a2.19,2.19,0,0,1-3-.77h0l-2.46-4.25-3.6,6.24a2.21,2.21,0,0,1-1.91,1.1,2.27,2.27,0,0,1-1.11-.29,2.21,2.21,0,0,1-.77-3h0l3.6-6.24h-5a2.21,2.21,0,0,1-.25-4.41h5.17l-3.55-6.13-2.45,4.26a2.21,2.21,0,0,1-3.82-2.21l2.46-4.26h-7.24a2.2,2.2,0,1,1,0-4.4Zm19.66,12.74h12.17l6.07-10.53-6.07-10.54h-12.17l-6.07,10.54Z"/></g></g><g id="Ebene_2-4" data-name="Ebene 2-4"><g id="Ebene_2-2-4" data-name="Ebene 2-2-4"><path class="cls-3" d="M1646.13,436.47a.43.43,0,0,1-.11-.12"/><path class="cls-5" d="M1284,355a5.32,5.32,0,0,1-5.31-5.32h0v-5.3a5.31,5.31,0,0,1,10.61,0v5.3A5.32,5.32,0,0,1,1284,355Z"/><path class="cls-5" d="M1289.27,376.2a5.31,5.31,0,0,1-10.61,0v-5.31a5.31,5.31,0,0,1,10.61-.36,2.16,2.16,0,0,1,0,.36Z"/><path class="cls-5" d="M1289.27,402.71a5.31,5.31,0,1,1-10.61,0V397.4a5.31,5.31,0,0,1,10.61,0Z"/><path class="cls-5" d="M1305.18,355a5.3,5.3,0,0,1-5.3-5.3h0v-5.3a5.31,5.31,0,0,1,10.61,0v5.3a5.3,5.3,0,0,1-5.3,5.31h0Z"/><path class="cls-5" d="M1305.18,381.49a5.29,5.29,0,0,1-5.3-5.29v-5.31a5.31,5.31,0,0,1,10.61,0h0v5.31a5.29,5.29,0,0,1-5.3,5.29Z"/><path class="cls-5" d="M1305.18,408a5.3,5.3,0,0,1-5.3-5.3h0V397.4a5.31,5.31,0,0,1,10.61,0v5.31a5.3,5.3,0,0,1-5.3,5.31Z"/><path class="cls-5" d="M1262.75,355a5.3,5.3,0,0,1-5.3-5.31h0v-5.3a5.31,5.31,0,0,1,10.61,0v5.3a5.3,5.3,0,0,1-5.3,5.31Z"/><path class="cls-5" d="M1268.06,376.2a5.31,5.31,0,0,1-10.61,0v-5.31a5.31,5.31,0,0,1,10.61-.36v5.67Z"/><path class="cls-5" d="M1268.06,402.71a5.31,5.31,0,1,1-10.61,0V397.4a5.31,5.31,0,0,1,10.61,0Z"/><path class="cls-5" d="M1216.88,423.93h8.75V307.26a42.43,42.43,0,0,1,42.43-42.43H1284a5.3,5.3,0,0,1,5.3,5.3h0v27a26.51,26.51,0,0,1,21.21,26,5.3,5.3,0,0,1-5.3,5.3h-42.43a5.3,5.3,0,0,1-5.3-5.3,26.53,26.53,0,0,1,21.21-26V275.42h-10.61a31.82,31.82,0,0,0-31.82,31.81h0V423.91h284.54a7.15,7.15,0,0,1,7.16,7.16V438a7.16,7.16,0,0,1-7.16,7.16H1216.86a7.18,7.18,0,0,1-7.15-7.16v-6.89A7.17,7.17,0,0,1,1216.88,423.93Z"/><path class="cls-5" d="M1228.54,455.75h280.57a2.72,2.72,0,0,1,2.71,2.7h0v.11c-2.08,37.76-18.47,76.85-42.43,88.88a21.21,21.21,0,1,1-33.79,3.77H1302.22a20.58,20.58,0,0,1,1.87,17.18,21.21,21.21,0,1,1-35.64-21.22c-24.13-12-40.52-51.12-42.43-88.87A2.69,2.69,0,0,1,1228.54,455.75Z"/><path class="cls-3" d="M1459.08,301.49c5.54-1.86,11.66-5.6,14.53-10.77,1.11-2,1-2.88,2.26-4.12,1-.9.71-.71,1.56.13s.44,1.86,1.24,3.17a30.63,30.63,0,0,0,6.42,8.08,42.22,42.22,0,0,1,8.28,11.92c1.38,2.83,5.33,8.7,7.61,12.6,10.61,17.95,29.89,34.83,43.8,48.87,21.33,21.52,42,39.25,66.09,55.35,4,2.69,6.16,3.34,8.49,4.87s2.64,2.59,3.84,2.22c3.62-1.13,4-4,2.51-7-.8-1.68-1.79-.62-3.81-1.69-19.76-10.52-31.2-26.62-37.65-48.79-1.24-4.16-3.28-19-2.44-23.33,4-20.36,7.46-40.16,26.69-50.56,27.21-14.71,40.65,2.56,52.21,26.35A49.89,49.89,0,0,1,1664,339c1,5.74,2.49,12.62,3,19s1.86,13.31.91,19.8c-1.73,12-2,22.47-5.23,34.74-3.92,14.76-10.05,15.56-24.86,15.21-1.24,0-1.56,2.22-1.24,3.53.09.4-.86,2.35.46,2.68.08.19-.31,0,.12.26,5,2.42,19.16,8.45,23.54,10.21,15.12,6.06,40.22,16.47,50.5,21.49,17.89,8.74,22.07,11.86,31.19,22.82,3.79,4.55,2.41,3.42,1.63,7.66-2.62,14.3-6.6,23-18.19,34.31-11.25,11-31.12,19.56-46.2,25.45-10.56,4.14-20.83,7.93-29.61,13.73-3.11,2-3.27,3.3-4.91,6.06-2.28,3.83-3.11,5.86-1.87,10.65.71,2.78-.15,5.1-1.49,8.87-3.26,9.12-6.64,21-11.47,30,.26-15.89.63-32,.8-47.9,3.69-2.48,5.07-2.69,8.35-6.64,7.87-9.49,23.33-15.22,34.54-19.57,9-3.54,21.85-8.93,28.39-12.4,14.85-7.88,25.21-16.43,31.65-30.12,2.83-5.95,4-9.39,3.54-15.21-.18-2.24-.37-1.73-2.76-4.15-12.92-13.14-30.54-19.58-49.25-27.39-3.94-1.65-21.16-8.8-27.5-11.47s-15.14-6.36-20.89-8.7c-2.61-1.07-1.67-.67-3.68-1.48.23-.16-.15,0,.2-.45-2.12,2.83,2.44-3.11-1.24,1.65s-7.59,6.91-9.23,18c-1.06,7.17-3,14.84-2.7,26.72.36,14.8,1.41,37.57,3.53,54,2,15.55,3.61,35.94,4.12,49.49.63,16.37-1.08,22.38-2.57,36.53-.16,1.51-1.1,1.12-1.12,2.73,1.11.62,2.74,3.82,3.48,4.77,23.43,29.78,44.88,65,55.72,100.41,4.1,13.43,3.69,18.64,5.48,29.14s-.51,17.4-.43,25.75c0,2.92-1.92,5.95-.86,6.15,12,2.3,22.53-2.94,34.33-4.68.87-.14,1,1.7,1.24,3.17.29,1.95,2.69,4.76,3.73,7.07,1.24,2.7-1,5.11-3.81,5.92-1.33.38-1.94.89-1.13,1.76,2.94,3.11-39.21,4.49-43.33,4.7-.95.05-10.54-2.7-9.2,1.24s13.06,2.49,15.84,2.73c6.73.55,26.73,3,5.38,2.36-3.78-.11-20.27-1.2-27.26-1.66s-25.58-1.59-31.11-2c-19.47-1.41-35.84-4.13-53.55-2.23-4.71.51,6.78,1.35,9,1.5,3.31.22,8.94.8,14.18.78a306.68,306.68,0,0,1,34.54,2c3.28.36,11.88.94,14.69,1.14,11,.8,36.42-2.19,42.67,5.7,2.56,3.25-6.14,1.94-11.25,2.31-8.44.62-24.16,1.94-36.06,2.12-3,0-15.69.7-19.85,1s-18.08,3.28-19.49,3.53c-8.66,1.36-41.42-.19-39.6,9.19.35,1.86,8.08.93,10.82,1,6.66.17,19,2,24.86,2.93,7.07,1.16,9.32,2.56,14.19,5.55,1.71,1.06-.12.92.7,1.3a19.48,19.48,0,0,0,2.48.71c.82.27,1.87.45,2.3,1.1.7,1-.21,1.14-.91,1.66a3,3,0,0,0-1.41,1.74,5,5,0,0,1-1.42,2.37c-.36.36-.95,1.16-1.77,1.3-2.75.13-9.94.38-11.92.37a164.68,164.68,0,0,0-18.83,1.18c-3.29.38-3.79-.1-5.35,1.42s4.67-.18,4.24,0c-1.09.52-3.87.71-7.41,1.24-7.59,1-21.27,1.41-26.87,9.51-3.5,5.09.65,8.38,2.82,13.83,1.06,2.68,10.57,3.68.46,6.91a134.62,134.62,0,0,1-31.51,5.54c-1.3.08-1.25-1.07-2.21-2.57s-3.37-5.47-4.63-7.19-5.28-5.44-4.36-7.2c3.34-6.22,3.09-6.84,10.1-10.46,9.19-4.79,23.39-8.33,34-11.54,5.21-1.57-.46-2.05-3.69-1.92a73.21,73.21,0,0,1-9.07-1.24,56.32,56.32,0,0,0-9.79-.89c-1.6.07-6.48.86-6-.19,1.51-3.15,3.37-2.34,7.11-3.73,5.16-2,14.19-.59,19.8-3.28s4.88.25-6.09-2.67c-28.58-7.59-1.1-11.47,14.34-13.48,4.54-.62,24.31-5.7,31.48-6.36,1.71-.16,8.16-.25,3.4-1.57-11.75-3.26-28.34-3.85-39.35-4.35a72.52,72.52,0,0,1-8.71-.7c-2.94-.39-1.41-.67-3.53-1s-7-.94-8.57-1.08c-8.57-.77-29.4.37-31.65-8.66-1-4,11-2.21,13.67-2.67.62-.11,5-.28,6-.5,0-.62-1-1.25-1.41-1.55-.78-.62-2.13-1.7-1.91-2.62.62-2.66,1.86-3.89,4.18-5.16,3-1.63,3.61-3.8,7.17-5.37s7.78-.34,12.48.92c2.26.63,8.91,2.17,11.73,1.19,3.86-1.33,6.18,2.95,8.57-1.7,7.43-14.41,7.39-26.1,8.49-43.5s2.88-39.5,8-57.46a242.62,242.62,0,0,1,26.87-61.35,26.34,26.34,0,0,1,3.1-4.24c-.31-1.42-.52-.24-.92-1.67-4.68-16.92-5.74-28.38-8.77-48.08-1.63-10.61-1.46-39.38-.93-50.46,1.41-28.87,4.24-53.63,13.59-78.42,4.49-11.91,5.2-1.52,2.17-12.19-1.42-4.95-6.29-3.54-11-7.18-12-9.32-23-14.62-35.72-26.05-23.16-20.89-48.36-46.38-68.59-70.83a37.54,37.54,0,0,0-10.56-9.2c-9.33-5.65-20.63-9.11-29.83-12.72-4.81-1.87-8.87-1.09-10.37-5.39C1450,301.42,1455.7,302.62,1459.08,301.49Zm198.81,109.06c3.42-8.22,2.45-17.87,3.83-26.87,1.24-8.2.62-17.54-.35-26-1.81-15.23-6.12-31.36-15.87-43-6.79-8.08-12.43-9.71-22.08-11.9-3.54-.79-5.26-.29-9.39,1.91-5.89,3.11-11.77,7.07-16,14.22-3,5.06-7.24,12.72-8.37,19.53-2.93,17.68-1,34.74,5.14,51.83a42.56,42.56,0,0,0,4.82,8.74C1611.93,414.66,1646,439.14,1657.89,410.55Zm-3,404c3.49,0,4.18-.71-1.07-1.93-4.06-.95-11.19-3.07-12.2-1.42-1.29,2.12-.18,2-1.91,2.94-2.12,1.18,12.23.36,15.18.4ZM1587,702c-3.85,15.67-6,36.55-6.69,52.26-.71,15.24-1.64,27.58-6.37,40.4-1.28,3.47-1.41,2.08-2.49,4.42s-2.12,2.69-3.58,4.69c-.67.91-2.33,2.12-2.74,3.29,5.65,0,14.85-.07,20.35-.15,27.57-.43,58.52-.1,84.43.24,10.8.14,7.13.38,14.6.19,3.53-.09,1.41-.15,4.28-.14-1.36-.23-2.92-.08-3.29-1.55-.92-3.61-3.73-2.57-3.81-7.46,0-1.59,1.18-3.32,1.1-7-.21-9.94,3.22-14,1.41-26.29a216.23,216.23,0,0,0-24.75-74c-8.59-15.87-22-39-34.37-53.49-2.55-3-2-5.37-5.42-4.65s-2.65.62-4.87,4.25c-12.42,20-21.94,41.11-27.8,64.92Zm32.42-140.14c-.48-5-2-20.79-2.61-27.89s-1.51-16.53-2.19-23.08c-.31-3-.34-2.48-.58-4.91-.08,2.36-.11,2.94-.24,5.46-.3,5.49-.29,9.62-.63,16.16a480.83,480.83,0,0,0,1,51.58c1.37,17.05,3,24.86,5.21,39.67.19,1.24.44.82.62,2.12.12-1.58.44-1.24.62-2.83,2-19.24.75-35.62-1.23-56.26Z"/><path class="cls-3" d="M1602.86,376.49c.3.47-.22,2.83.06,4.59.62,4.06,1,9.33,4.86,12.58,5.59,4.73,11.8,8.07,19.41,5.59,6.69-2.23,8.59-9.14,10.29-15.22.47-1.7.52-3.9.87-5,.45-1.45.3-1.86,1.51-1.2s1.42,1.32.92,3.35c-1.75,7.07-1.82,17-10.57,19.89-15.26,4.95-21.86-.38-29.36-13.67-1.76-3.11-1-7.62-.12-10.57C1601.28,375.05,1601.77,374.78,1602.86,376.49Z"/><path class="cls-3" d="M1617.51,351.62a3.61,3.61,0,0,1-3.31,3.36c-2.12,0-3.53-2.2-3.11-4.76a3.69,3.69,0,0,1,2.69-3.23C1616.12,346.53,1618,348.79,1617.51,351.62Z"/><path class="cls-3" d="M1631.73,351.5a3.6,3.6,0,0,1-3.3,3.35c-2.12,0-3.54-2.19-3.11-4.75a3.67,3.67,0,0,1,2.68-3.23C1630.32,346.4,1632.16,348.67,1631.73,351.5Z"/></g></g><g id="Ebene_2-5" data-name="Ebene 2-5"><g id="Ebene_2-2-5" data-name="Ebene 2-2-5"><path class="cls-5" d="M2400.06,688.67a26.26,26.26,0,0,1,7.92-13.33c-14.65-15.57-8.54-33.35-4.7-44.46a33.92,33.92,0,0,0,2.5-9.69,22.39,22.39,0,0,0-2.93-.49c-11.45-1-25,5.3-36.29,16.87-10.94,11.19-17.29,24.91-16.17,35C2351.11,679,2364.68,686.51,2400.06,688.67Z"/><path class="cls-5" d="M2443.9,771.24c5-3.91,5-19.39-10.85-51.08a26.46,26.46,0,0,1-15.44-.21c-6.17,20.4-24.61,24-36.16,26.27a39.06,39.06,0,0,0-9.71,2.71,19.91,19.91,0,0,0,1,2.83c4.85,10.37,17.13,19,32.85,23C2420.75,778.58,2435.78,777.22,2443.9,771.24Z"/><path class="cls-5" d="M2492.16,707.52a33.75,33.75,0,0,0,7.18,7,25.89,25.89,0,0,0,1.92-2.27c6.57-9.41,7.86-24.34,3.48-39.93-4.23-15-12.92-27.36-22.15-31.41-5.75-2.53-19.24,5.31-38.84,35a24.32,24.32,0,0,1,2.07,2,26.07,26.07,0,0,1,5.46,11.42C2472.08,684.46,2484.46,698.65,2492.16,707.52Z"/><path class="cls-5" d="M2437,685.35a14.83,14.83,0,1,1-20.91-1.83,14.82,14.82,0,0,1,20.91,1.83Z"/><path class="cls-5" d="M2293.7,881.38a26,26,0,0,1-2.49-15.29c-21.22-2.51-28-20.06-32.19-31a33.91,33.91,0,0,0-4.31-9,22.83,22.83,0,0,0-2.57,1.52c-9.39,6.57-15.73,20.1-16.95,36.25C2234,879.38,2238,894,2245.27,901,2250,905.47,2265.21,902.46,2293.7,881.38Z"/><path class="cls-5" d="M2380.36,916.46c1.33-6.23-8.62-18.08-41.14-32.16a26.51,26.51,0,0,1-12,9.77c8.39,19.59-3.41,34.24-10.81,43.36a39.39,39.39,0,0,0-5.67,8.29,20.52,20.52,0,0,0,2.6,1.52c10.4,4.83,25.33,3.53,39.94-3.51C2367.35,937,2378,926.23,2380.36,916.46Z"/><path class="cls-5" d="M2376.4,836.62a33.54,33.54,0,0,0,10,.76,21.89,21.89,0,0,0,0-3c-1-11.43-9.62-23.7-22.95-32.83-12.89-8.8-27.48-12.66-37.14-9.85-6,1.75-11.33,16.45-7.26,51.76a25.19,25.19,0,0,1,2.88.21,26.1,26.1,0,0,1,11.52,5.24C2346.16,831.87,2364.75,834.77,2376.4,836.62Z"/><path class="cls-5" d="M2319.84,855.11a14.82,14.82,0,1,1-17.18,12,14.82,14.82,0,0,1,17.18-12Z"/><path class="cls-5" d="M2222.65,727.27a26.08,26.08,0,0,1-11.74-10.07c-17.87,11.72-34.34,2.66-44.64-3.09a34.5,34.5,0,0,0-9.09-4.16,22.87,22.87,0,0,0-1,2.81c-3,11.07.86,25.51,10.31,38.66,9.09,12.71,21.53,21.32,31.63,22C2204.66,773.87,2214.38,761.74,2222.65,727.27Z"/><path class="cls-5" d="M2311.59,698.44c-3-5.63-18.2-8.34-52.19,1.81a26.57,26.57,0,0,1-2.89,15.16c19,9.62,19.39,28.41,19.59,40.17a39.46,39.46,0,0,0,1,10,21,21,0,0,0,3-.53c11.06-3,21.66-13.58,28.34-28.36C2314.78,722.53,2316.07,707.47,2311.59,698.44Z"/><path class="cls-5" d="M2257.21,639.85a34,34,0,0,0,8.18-5.84,19,19,0,0,0-1.92-2.28c-8.11-8.09-22.58-12-38.71-10.36-15.54,1.55-29.19,8-34.78,16.36-3.48,5.22,1.92,19.87,27.72,44.32a25.47,25.47,0,0,1,2.33-1.68,25.93,25.93,0,0,1,12.21-3.39C2231,655.62,2247.13,645.91,2257.21,639.85Z"/><path class="cls-5" d="M2225.79,690.36a14.82,14.82,0,1,1-5.42,20.24h0A14.82,14.82,0,0,1,2225.79,690.36Z"/><path class="cls-3" d="M1819.26,1000a3.87,3.87,0,0,1,2.93,4.11c-.39,2.22-3,3.33-5.59,2.38-1.79-.66-2.89-1.94-2.92-3.43C1813.59,1000.51,1816.32,999,1819.26,1000Z"/><path class="cls-3" d="M1921.2,1156.85a15.93,15.93,0,0,0,2.93,0c.91-.09-1.41-.14-1.56-.14S1920.17,1156.76,1921.2,1156.85Z"/><path class="cls-3" d="M1927.83,1165.28a1.2,1.2,0,0,0,.91,0c.31-.12-.38-.17-.47-.17S1927.5,1165.15,1927.83,1165.28Z"/><path class="cls-3" d="M1915,1165.65a16,16,0,0,0,2.94,0c.91-.09-1.41-.15-1.57-.15S1913.93,1165.59,1915,1165.65Z"/><path class="cls-3" d="M1915.89,1179.59a47.43,47.43,0,0,0,4.77,0c1.51-.09-2.28-.11-2.48-.11S1914.27,1179.51,1915.89,1179.59Z"/><path class="cls-3" d="M1918.45,1191.34a7.08,7.08,0,0,0,1.84,0c.56-.1-.91-.15-1-.16S1917.8,1191.24,1918.45,1191.34Z"/><path class="cls-6" d="M1798.85,952.11c-.67.76-1.29,1.52-1.93,2.28-.11.13-.23.27-.33.41.32-.62.66-1.23,1-1.87Z"/><path class="cls-6" d="M1802,979.83l-.15.09-.1-.21Z"/><path class="cls-6" d="M1798.85,952.11c-.67.76-1.29,1.52-1.93,2.28-.11.13-.23.27-.33.41.32-.62.66-1.23,1-1.87Z"/><path class="cls-6" d="M2216.67,900.52a37.79,37.79,0,0,0-10.56-2.15c-1.75-.07-5.31-.5-7.83-.89s-6-.83-9.1-1.12c-1.4-.13-4.27-.37-5.81-.55-2.09,1-2.41,1.11-4.66,2.27-15.29,7.58-29.82,17-44.64,26.38-1.67,1.06-6.21,3.9-8.19,5.19-1.74.25-2.34.35-4.06.54-6.51.76-9.26,1-17.54,1.52-2.06.14-13.69.67-18.5.87-9.28.36-22.9,1.14-31.53,1.72-3,.2-3.47.83-4.21.22s-1.58.41-.44-1.11c2.5-3.33,11-6.88,20.21-11.95,12.52-6.89,34.49-17.89,47.81-29.43,5.07-4.4,5.21-6.94,7.58-16.78,2.13-8.85,6.06-27.78,7.43-38.66.28-2.16-.25-3.63,1.07-4.82s3.16-.66,5.85-1c6.92-1.05,21.32-1,27.29-.12,6.26,1,7.58.76,5.76-3.23-2.31-5.12-5.49-7.43-11-9.09-4.17-1.28-11-.84-15.45-.18-5.37.76-12.52,2.33-16.67,4.59-2.67,1.44-.94,1.73-.82,3.46.08,1,.83,1.34.55,2.75s-.33,2.54-.58,4.55a348.74,348.74,0,0,1-9.51,48.14c-.45,1.62-1,3.63-1.52,5.3-1.33,1-2.71,2.1-4.06,3.13-14.52,11.12-31.07,19.77-47,28.38-5.51,3-14.66,7.86-18.5,10s-1.51.82-4,1.66c-11.17,3.87-17.57,9.62-28.68,17.25-24.44,16.79-55.3,37.9-83.8,47.12-11.21,3.61-13.19,3.33-21.91,4.24a107.35,107.35,0,0,0-13.46,2c-.81.16-.39-1-1.37-3.67-3-8.15-7-15.74-15.1-22.87a70.21,70.21,0,0,0-7.59-5.84c.34-.3.67-.59,1-.89l1.47-1.37,1.45-1.33,11.37-13c1.91-2.14,3.74-4.45,5.47-6.77.44-.57.86-1.17,1.29-1.76a12.76,12.76,0,0,0,1.16-2c.54-1.31,1.15-2.6,1.81-3.85a35,35,0,0,0-2.62,3.19,12.46,12.46,0,0,1-1.39,1.52c-.5.44-1,.9-1.58,1.33-2.15,1.76-4.31,3.43-6.59,5l-8.63,5.95c1.14-1.44,2.27-2.85,3.48-4.2,1.62-1.86,3.36-3.68,5.16-5.49l5.44-5.45,2.7-2.78a17.55,17.55,0,0,0,1.34-1.52,8,8,0,0,0,1.13-1.94,4,4,0,0,0,.11-2.09,2,2,0,0,1,.07-1.33c-.33.17-.47.76-.51,1.33a3.4,3.4,0,0,1-.49,1.75,9.66,9.66,0,0,1-2.73,2.36l-3.13,1.94-6.38,3.83c-2.14,1.29-4.28,2.63-6.4,4.07s-4.19,3-6.19,4.54l-3.58,3.7-2.1,2.15-2.09,2.08a16.78,16.78,0,0,1-3.79,3l.31.59-.85-.38.06-.05a37.59,37.59,0,0,0,3.79-4.75c1.09-1.57,2-3.12,3-4.6s1.93-3.08,2.85-4.62c.7-1.19,1.39-2.37,2.07-3.56,2.35-5.31,4.43-10.73,6.58-16,1.08-2.66,2.18-5.26,3.34-7.85.58-1.29,1.18-2.57,1.81-3.87a14.38,14.38,0,0,1,2-3.56,12.18,12.18,0,0,0-2.82,2.91c-.88,1.06-1.79,2.14-2.67,3.24-1.74,2.19-3.43,4.43-5.09,6.66-3.33,4.55-6.51,9.1-9.85,13.42q-1.23,2.19-2.52,4.34c-.89,1.52-1.79,2.94-2.74,4.43s-1.88,3-2.81,4.33a29.1,29.1,0,0,1-2.92,3.64,16.73,16.73,0,0,1-2.88,2.5l-1.29-.4a3,3,0,0,1,.31-.76l1.07-2,2.22-4.1,2.21-4.1c.76-1.38,1.52-2.82,2.28-4.18.11-1.52.22-3,.38-4.5s.56-3,.64-4.6c-1.34,1-2.67,1.46-4.12,2.38-.94.57-1.88,1.16-2.8,1.77-.67.76-1.28,1.52-1.93,2.27l-.33.41,1-1.87,1.26-.82.6-.71a98.12,98.12,0,0,1,10.51-12.93c2-2,4-4,6.13-5.79,1.06-.9,2.19-1.78,3.29-2.55.5-.33,1.19-.64,1.84-1a5.66,5.66,0,0,0,1.89-1.44,4.67,4.67,0,0,1-2,.94c-.67.19-1.33.3-2,.5a41.58,41.58,0,0,0-3.88,1.67c-2.53,1.24-5,2.67-7.39,4.12a99.9,99.9,0,0,0-13.81,10.21c-1.16,1.33-2.27,2.67-3.4,4-.67.81-1.34,1.59-2,2.43s-1.33,1.69-1.92,2.52c-1.24,1.7-2.42,3.39-3.58,5a87.14,87.14,0,0,1-7.06,9.16h0c-1.72-.13-3.44-.21-5.14-.23.21-.38.43-.76.66-1.12.66-1.08,1.33-2.15,2-3.18a48.53,48.53,0,0,1,9.72-12.83c2-1.89,4.26-3.72,6.43-5.65,1.07-1,2.16-2,3.17-3a14.56,14.56,0,0,1,1.51-1.32c.27-.21.54-.34.88-.56a2.73,2.73,0,0,0,1-.92,2.4,2.4,0,0,1-1,.67c-.35.12-.66.2-1,.32a16.07,16.07,0,0,0-1.87.9c-1.21.7-2.41,1.4-3.63,2-2.46,1.3-5,2.49-7.46,3.84a53.78,53.78,0,0,0-13.77,10.93c-1,1.52-2,3-3,4.55-1.16,1.92-2.24,3.88-3.23,5.85-10.89,1.18-19.18,4.08-25.86,11-5.6,5.8-6.93,8.45-6.06,16.25,1.38,12.89,8.86,21.1,20.9,29.43,10.36,7.19,28.17,13.13,41.9,14.22,6,.46,12.6,1.08,17.81.49,7.58-.85,13.45-3.21,19.88-6.06a32.57,32.57,0,0,0,12.12-9c.54-.67.41-.86.81-.34s3-1.1,2.95-.87,6.76-4,4.8-.8c-2.86,4.66-13.32,18.6-16.67,22.74-5.55,6.88-9.34,12.88-14.76,16.92-14.09,10.48-28.46,18.26-43.35,26.8-.83.48-1.51.76-2.41,1.26-1.22-.76-4.31-2.79-5.26-3.38a106.26,106.26,0,0,1-15.55-12c-3.51-3.33-6.31-6.52-9.86-6.87-2.43-.24-2.44.51-3,2.47-.81,3,.57,7.83,2.34,10.93a11.11,11.11,0,0,0,3,2.47,21.57,21.57,0,0,1,3.47,2.85c1,1,.06.94,1.85,2.2,3.38,2.37,11.08,3.38,15.82,4.27.94.18,3.79,1.09,5,1.27,2.39.37,2.17,1.09,5.11-.76,1.11-.71,6.66-4,9.33-5.56,10.66-5.95,29.49-16.31,37.19-23.5,12.06-11.29,17.23-21,25.64-31.84,2.43-3.15,3.39-5.53,4.71-6.37s.28.08-.1,1.38a258.12,258.12,0,0,0-6.66,28.52,226.3,226.3,0,0,1-5.31,22.58,110.92,110.92,0,0,1-6.19,15.06c-5.14,10.66-12.09,25.52-16.68,35.62-2.42,5.31-4.55,10.18-5.61,12.23-1.74,3.45-.85-.1-2,.15-.67.16-1.89-1.51-2.62-1.73-4-1.38-8.07-1.91-10.95,2.16-3.33,4.66-17.58,4.26-20.35,4.4-7.58.35-73.29,3.49-74,6.82-.49,2.63,37.62,4.82,40.5,4.82,1.08,0,9.49.19,7.67,1-.92.43-4.08.21-1.23.9,7.58,1.84,17.82,1,28.2.94,9.51-.09,7.37.35,2.35.88-9.51,1-22.17,1.51-30.54,6.42-.94.55-.38.5-1.2,1,2.17-.1,2-.12,4.5-.21,5.54-.17,10.66-.29,17.52-.4,21.83-.33,52.83-.81,72.28-1.43,3.46-.12,5-.23,5.68-.31.14-.11.82-.08,0,0-.07.07,0,.16.5.31,2.23.66-5.7,1.51-7.52,2-11.37,2.62-38.83,6.83-47.64,14.48-1.51,1.34-3.37,1.12-1.72,1.93,10.8,5.31,4.13,4.21,24.75,5.8s60.45.94,85.57-.22c1.69-.09,9-.13,10.24-.27h-7.9c-2.62,0-5.31,0-8-.06V1164c2,0,4.21-.13,6-.11h.47c-.93,0-19.92-.33-26.74-.16-7.58.19-30.9-.08-31.92-.17-6.48-.54,11.33-3.52,29-6.88,6.35-1.21,21.32-3.48,26.77-4.44s5.93-.93,9.5-1.52l.71-.11.48-.08c-.63,0-.38-.06-1.1-.06-1.6,0-6.2.84-7.33,1-1.82.29-9.14,1.33-7.07.81a3.18,3.18,0,0,0,1.06-.27c.44-1-.32-4.42.14-4.92,1.82-1.88-2-4.61.13-5.71,1.25-.67,1.51-.07,8.38-.13,25.45-.21-48.25-1.22-70.43-1.52-3.44,0-25-.41-31.61-.71s-22.89-.46-27.4-.89-20.1.09-18.54-.76c5.94-3.34,48.11-.59,61.25-.62,17.43-.06,47.47.13,64.25-2.44,10.07-1.51,8.34-.85.21-2.1-12.5-1.93-36.32-1.52-49.85-1.6-5.26,0-16.28.85-16.19-.6.49-8.71,13.59-31.57,16-36.94,5.73-12.66,10-20.65,12.09-27.8a218.87,218.87,0,0,0,5.51-23.56c2-10,3.1-16,5.88-25.32.45-1.52,1.16-3.9,1.75-5.82.26-.86.76-2.61,1.11-3.6,1.9-.09,5.64,0,7.16-.07,5-.23,7.69,0,12.39-1a139.88,139.88,0,0,0,21.36-5.68A279.11,279.11,0,0,0,2031.77,956a80.82,80.82,0,0,0,15-14.75c.86-1.11.87-1.46,1.62-2.48.91,0,1.7,0,2.6,0a28.4,28.4,0,0,0,3.79-.26c6.82-.76,20.25-1.28,26.88-1.56,14.95-.67,27.75-.9,41.81-2.75,1.8-.25,2.12-.31,3.91-.61,2.17-1.39,7.15-4.55,9-5.68,14.16-8.91,27.74-17.65,42.17-25.08,1.85-1,2.13-1,3.79-1.89,1.07.53,1.86.92,3,1.44a117.77,117.77,0,0,0,15.16,5.18l3.89,1.1c.47-.28,1.33-.62,1.75-.91,2.45-1.6,8.29-2.07,10.22-2.27,2.18-.23,6.16.66,6.06-1.43S2219.21,901.54,2216.67,900.52Zm-354.33,118.66a19.67,19.67,0,0,1-4.13.21,12.67,12.67,0,0,1-1.74-.18c.38-.47,1.25-1.77,1.56-2.12,2.89-3.33.29-10.41,4.12-8,1.88,1.2,2.38,3.93,2.73,5.77.52,2.75.11,3.85-2.54,4.32Zm11.2-3.33c-2.28,1-4.22,2.22-6.07,1.95-.76-.12,0-1.19-.17-2.08-.3-1.84-.49-5.19-1.84-7-2.34-3.09-5.53-4.62-8.45-1.13-2.07,2.47-.3,5.3-2.67,9.18-.44.75-1,1.66-1.51,2.41-.67,0-2-.06-2.67-.06-8,0-19.89-2.75-26.26-4.54-2.66-.76-4.43-1.23-4.89-1.64-4-1.59-19.83-11.33-22.19-13.56-3.22-3-6.66-6.59-8.34-10.23-3.63-7.94-4.55-13.92,1.52-20.85,4.43-5.24,10.88-7.24,18.34-9.24.53-.14,6.2-.5,8.34-.62a90.11,90.11,0,0,1,11.62,0,106.29,106.29,0,0,1,24.66,5.95l.25.1c.76.29,1.47.6,2.16.91a103.81,103.81,0,0,1,11.63,6l.47.29c9.64,5.93,17.76,13.76,21.22,24.62,3.9,12.24-6.31,15.67-15.16,19.53Zm71.76,125.48c.09,0,.76.05.48.17a1.25,1.25,0,0,1-.93,0c-.32-.12.36-.17.45-.17Zm90.25-197.4c-15,14.4-37.25,27.78-56.52,37.27-7,3.47-15.42,8.53-21.15,9.5-1.43.24.87-.67,3.33-1.86,17.11-8.41,40.17-23.92,55-34,9.54-6.47,17-13.37,23-14.84,1.89-.44-1,1.37-3.64,3.91Z"/><path class="cls-6" d="M1806.07,1005.23l-.17-.14Z"/></g></g></g></g></svg>