<?xml version="1.0" encoding="utf-8"?>
<!-- Generator: Adobe Illustrator 25.2.2, SVG Export Plug-In . SVG Version: 6.00 Build 0)  -->
<svg version="1.1" id="Ebene_1" xmlns="http://www.w3.org/2000/svg" xmlns:xlink="http://www.w3.org/1999/xlink" x="0px" y="0px"
	 viewBox="0 0 5886.5 1571.7" style="enable-background:new 0 0 5886.5 1571.7;" xml:space="preserve">
<style type="text/css">
	.st0{fill:#C6D436;}
	.st1{fill:none;stroke:#C6D436;stroke-miterlimit:10;}
	.st2{fill:#FFEA04;}
	.st3{fill:#EE7919;}
	.st4{fill:#2A4B9A;}
	.st5{fill:#FFFFFF;}
	.st6{fill:none;}
</style>
<g>
	<g id="Ebene_2_1_">
		<g id="Ebene_1-2">
			<path d="M1604.4,743.2c-1.4-2.2-2.1-2.4-6-1.8c-2.4,0.3-11,3.7-19.1,7.5s-17.6,8-21,9.4c-6,2.4-21.4,11.8-30.2,18.4
				c-2.6,1.9-5.1,3.1-6,2.8s-16.8-2.4-35.6-4.6c-64.6-7.5-85.1-10-105-13c-90.5-13.6-151.6-36.1-222.3-81.7
				c-9-5.7-17-11.6-17.9-12.9s-1.6-4.5-1.6-7.1c-0.1-4.9,3.7-37,4.5-37.7c0.2-0.2,2.4,0.1,4.8,0.7c6.4,1.4,21.3,0.3,29.5-2.2
				c76.5-23.7,134.1-161.9,109-261.3c-6.9-27.2-23-50.7-41.4-60.5c-11.5-6.2-27.4-8.6-40-6.1c-39,7.6-78.2,49-101.5,107
				c-28.9,72-28.3,150.2,1.4,193.9c4,5.9,12.6,15.1,16.7,17.7c2.3,1.5,2.4,2,1.8,7.7c-0.4,3.4-1.8,11.7-3.1,18.5
				c-1.4,7.5-2.4,15.1-3,22.7l-0.7,10.2l-12.1,3.2c-110,29-162.8,51.6-212.7,91.1c-12.6,9.9-37,34.3-45.9,45.8
				c-3.6,4.7-8.6,11.1-11.2,14.3c-4.9,6.2-7.4,12-17,39.3l-5.4,15l1.8,5.5c1.1,3.6,1.5,7.3,1.2,11c-0.7,7.2,0.4,9.9,7.3,17.1
				c15.1,15.8,24,6,18.8-20.8c-2.5-12.8-2.9-25.4-1.1-41.1s1.3-14.6,11.4-27.7c45.4-58.7,105.2-94.4,209.7-124.9
				c24.8-7.2,52.8-14.7,53.3-14.2c0.7,0.8-3.8,22.7-7.9,38.6c-7.8,30.1-22.1,69.6-40.3,111.4c-14.6,33.3-28.4,62.2-61.5,128.4
				c-43.5,87.1-49.1,99.9-49.5,114.2l-0.2,7.5l-11.9,16c-49.6,67.1-95.2,112.4-141.7,140.9c-45.6,27.9-93.5,42.1-157.8,46.7
				c-16.7,1.2-67.5,0.7-94-1c-8.4-0.5-13-0.4-13.9,0.3c-2.5,1.9-0.8,16.7,3,27.1c4.6,12.4,18.5,40.5,20.1,40.5
				c0.7,0,3.1,2.6,5.3,5.6c8.1,11.3,19.2,19.9,29.5,22.7c6.5,1.8,33.6,3.2,34.4,1.8c0.4-0.5-2.7-3.6-6.7-6.9
				c-15.2-12.5-29.3-32.4-45.1-63.9c-3.6-7.3-6.6-13.4-6.6-13.5s14.5-0.2,32.2,0c32.3,0.3,50.7-0.5,73.3-3.4
				c67.4-8.6,122.4-32.5,175.2-76.1c14.6-12.1,42.2-39.3,57-56.3c13.3-15.2,33.2-40.3,46.8-58.8c10.8-14.9,11.1-15.1,14.9-15.1
				c3.3-0.4,6.5-1.3,9.6-2.7l5.8-2.6l11.3,3.1c62.1,16.6,117.2,47.1,168.8,93.5c28.8,25.9,53.7,54,110.1,124.6
				c43.5,54.4,63.8,78.3,89.6,105.3c11.9,12.6,12.3,12.9,15.6,12.2c2.4-0.6,4.6-1.4,6.8-2.5c1.9-1,7.8-3.2,13-5
				c7.7-2.9,15.2-6.1,22.5-9.8c7.2-3.6,17.8-8.4,23.7-10.7c11.8-4.7,20.4-10.3,30.9-20.3c7.2-6.8,8.8-10.5,5-11.7
				c-1.1-0.3-6.4,0.6-11.8,2.1c-11.7,3.2-24.5,3.6-30.6,1c-3.1-1.4-4.1-1.4-6-0.4c-0.9,0.6-2,0.9-3.1,1c-0.5-0.2-2.8,1.4-5,3.6
				s-9.7,7.9-16.5,12.8c-7.3,5.3-14.4,11.1-21,17.2l-8.6,8.4l-8.2-8.6c-22.3-23.4-44.8-49.9-87.3-103.1
				c-49.7-62.2-69.2-84.7-96.6-111.5c-56.1-54.9-115-89.6-185.6-109.5c-3.2-0.9-5.8-1.8-5.8-2s2-2.6,4.4-5.3
				c38.7-43.6,92.1-151.2,119.6-240.7c15.2-49.6,22.2-88.5,22.4-124.2c0-11.2,0.2-20.3,0.3-20.3s5.3,3.3,11.5,7.4
				c50.6,33,106.6,56.9,165.4,70.6c35.5,8.2,60.9,12,145.6,22c46.2,5.4,62.9,7,73.5,7c8.6,0,16.1,0.6,19.8,1.5
				c8.4,2,14.9,1.9,19.3-0.4c8.7-4.4,17.2-17.8,23.8-37.5C1605.8,746.2,1605.9,745.5,1604.4,743.2z M1117.5,765.2
				c-16.2,81.1-63.4,194.7-109.8,264.3c-10.7,16-27.2,36.4-28.4,35.1c-1-1,15.6-36.2,44.7-94.1c51-101.9,76.7-159.5,91.6-205.7
				c1.5-4.8,3-8.6,3.2-8.4S1118.4,760.6,1117.5,765.2z M1277.4,423.2c0,1,0.1,2,0.1,3c-0.1,6.8-0.9,13.6-2.5,20.2
				c-0.5,4.5-4.5,23.7-7,32.5c-6.6,24.1-20.5,56.1-31.7,72.5c-4.6,6.7-5,7-9.1,7.3c-8.8,0.6-20.1-4.1-28.1-11.9
				c-3.9-3.8-11.3-14.1-12.4-17.2c-0.3-0.9-1.4-0.7-4.1,0.5l-3.7,1.8l1.7,3.2c8.4,16.4,22.4,27.8,37.9,31.1c3,0.6,5.5,1.5,5.5,2
				c0,1.5-19.2,20.2-25,24.3c-17.5,12.6-34.4,17.6-48.8,14.5c-47.9-10.2-65.6-96.5-37.6-182.6c16.2-49.8,45-90.7,75.7-107.9
				c11.9-6.7,19.6-8.6,31.9-8.2c7.2,0.3,9.8,0.9,15.4,3.5c12.8,6,21.1,15.1,29,31.6c7.5,15.8,11.4,33.5,12.9,57.5l0.6,10.5"/>
			<path d="M755.5,1436.1c-38.8,1.1-119.8,5.5-173,9.5c-56.2,4.1-88.5,9-88.5,13.3c0,3.3,23.8,7.2,64.5,10.6
				c15.2,1.2,58.2,4.2,65.4,4.6c0.9,0-0.8,0.9-3.6,1.9c-6,2.1-11.3,5.1-11.3,6.2c0,0.4,46.7,0.8,103.8,0.8
				c84.9-0.1,115.4,0.3,168.7,2.1c35.8,1.1,66.1,2.3,67.5,2.6c1.6,0.4-3.3,1.8-14,4c-45.7,9.4-104.2,23.3-131.9,31.3
				c-46.3,13.3-67.3,24.1-63,32.2c6.7,12.4,89,18.7,209.9,15.9c53.1-1.3,88.1-2.7,96.5-4.1c8.7-1.4,117-7.5,176.5-10
				c39.2-1.6,41.3-1.8,12.3-1.3l-26.3,0.5v-18.1l-6.7-0.4c-3.8-0.2,7.2-0.5,24.2-0.7l31-0.4l-47.5-0.7c-26.1-0.3-65.5-1.4-87.5-2.3
				s-77.8-2.3-124-3.1s-85-1.7-86.2-2.1c-7.9-2.3-3.8-3.3,130.2-29.8c54.7-10.9,59.1-11.6,76.5-12.6c45.5-2.6,52.8-2.9,74.1-3.6
				c12.5-0.3,25.3-1,28.5-1.4c4.1-0.5,1.1-0.7-9.6-0.5c-8.5,0.1-12.7,0-9.2-0.2l6.3-0.4l-0.3-3.2c-0.3-3.1-0.4-3.2-6.3-3.8
				c-3.7-0.3-4.6-0.6-2.5-0.7c4.1-0.2,24.8,1.5,30.5,2.5l4,0.7l-5,1.2c-2.7,0.7-4.2,1.3-3.2,1.3c3.4,0.2,11-2.2,9.6-2.9
				c-4.7-2.6-53-6-106.9-7.6c-12.3-0.3-27.4-1.4-35.2-2.5c-30.7-4.3-69.1-6.6-132.3-7.8c-44.5-0.9-138.9,0.1-176,1.8
				c-15.2,0.7-32.8,0.5-73.5-1c-29.4-1-57.1-1.9-61.5-2c-22.4-0.5,50.5-1.9,150-2.8c128.9-1.2,169.6-2.6,193.3-6.6
				c9.6-1.6,11.5-2.5,8.3-3.7C985.7,1436.8,856.6,1433.2,755.5,1436.1z M1187.8,1471.7c-1.2,0.2-2.3,0.2-3.5,0
				c-1-0.3-0.2-0.5,1.7-0.5S1188.7,1471.4,1187.8,1471.7z M1185.7,1481.6c-0.6,0.4-1.3,0.4-1.9,0.1c-0.8-0.3-0.5-0.6,0.6-0.6
				S1186.1,1481.3,1185.7,1481.6L1185.7,1481.6z M1190.3,1537.7c-1.7,0.2-3.3,0.2-5,0c-1.6-0.2-0.5-0.4,2.2-0.4
				S1191.5,1537.5,1190.3,1537.7z M1197.8,1556.7c-1.8,0.2-3.7,0.2-5.5,0c-1.6-0.2-0.3-0.4,2.7-0.4S1199.3,1556.5,1197.8,1556.7z"/>
			<path d="M1313.3,1533.7c1,0.2,2,0.2,3,0c0.6-0.3-0.1-0.5-1.8-0.5S1312.3,1533.4,1313.3,1533.7z"/>
			<path d="M1298.8,1534.7c0.8,0.2,1.7,0.2,2.5,0c0.6-0.3,0.1-0.5-1.3-0.5S1298.1,1534.4,1298.8,1534.7z"/>
			<path d="M1267.3,1535.7c3.2,0.2,6.3,0.2,9.5,0c2.6-0.2,0.4-0.3-4.8-0.3S1264.6,1535.5,1267.3,1535.7z"/>
			<path d="M1302.8,1553.7c0.8,0.2,1.7,0.2,2.5,0c0.6-0.3,0.1-0.5-1.3-0.5S1302.1,1553.4,1302.8,1553.7z"/>
			<path d="M1269.3,1554.7c3,0.2,6,0.2,9,0c2.3-0.2,0.2-0.3-4.8-0.3S1266.7,1554.5,1269.3,1554.7z"/>
			<path d="M3439.7,433.2c-1.3-4.2-4.9-5.3-8.6-2.5c-2.4,1.7-22.4,27.8-29.9,38.8c-1.4,2.2-5.7,9.9-9.4,17.2s-6.9,13-7.2,12.7
				s-22.5,8.6-49.4,19.7c-66,27.3-87.6,35.6-116.3,44.8c-29.3,9.3-59.3,16-89.8,20.1c-15.8,1.9-61.9,4.6-62.9,3.7
				c-0.2-0.3,1.9-1.2,4.9-2.1c7.2-2.1,26.5-12,36.8-18.8c31-20.6,63.9-55.4,87.2-92.4c8.7-13.8,21.4-39.5,26.8-54.3
				c11.1-30.7,14.7-62.4,9.5-84.1c-3.7-15.1-14.3-30.3-25.4-36.3c-12.9-7.1-28.5-9.2-44.6-6.1c-22,4.1-47.3,17-72.5,37
				c-11.6,9.2-34.7,32.6-45.3,45.9c-32.5,40.8-54.2,86.5-60.8,128c-0.8,6.5-1.1,13-1,19.5c0,23.1,5.4,39.6,16.9,51.8
				c2.8,3,3,3.6,1.9,5.3c-0.8,1-1.6,1.7-1.9,1.4c-1.3-1.3-59.2,12.9-96.8,23.6c-70.7,20.3-139.8,46.7-242.2,92.5
				c-14.5,6.5-27.8,12.8-29.7,14.1c-1.3,1-2.9,1.8-4.5,2.3c-0.7,0-8.8,3.1-18.1,6.8c-16.4,6.6-17,6.9-17.9,10.2
				c-0.6,2-3.4,5.9-6.4,9c-6.2,6.3-7.2,8.3-7.2,15c0,16,6.8,24.3,15.8,19.6c3.1-1.6,7.8-6.5,11.2-11.6c3.1-4,6.5-7.9,10-11.5
				c4.2-4.4,10.2-11.2,13.3-15.1c10.8-13.5,17.5-18.5,36.4-27c120.2-54.1,200.3-83.2,292.8-106.2c25.6-6.4,35.5-8.6,36.1-7.9
				c0.3,0.3-1.1,3.2-3.2,6.4s-6.5,11.9-9.9,19.3c-26,57.3-79.9,119.7-197.5,229c-52,48.3-76.7,72.8-83.5,82.9
				c-4.6,6.7-5,7.9-5.2,13.5l-0.1,6.1l-19.9,9.2c-96.3,44.7-162,52.8-233.3,28.6c-34.8-11.8-70-31.3-114.6-63.4
				c-8.3-6-16-10.9-17-10.9c-2.4,0-7.7,10-9.3,17.5c-2.7,12.9-5.1,49.3-3.3,50.4c0.6,0.3,1.6,4.4,2.2,8.9c2.7,20.1,8.4,30,23,40.4
				c10.7,7.6,15,10.2,15.7,9.4c0.3-0.2-0.9-4.7-2.6-9.8c-5.7-17.2-6.6-25-6.6-58c0-16.3,0.3-29.9,0.6-30.2s6.2,3.1,13,7.7
				c64.6,43.7,118.3,62.9,175.9,62.9c51.1,0.1,101.7-13.9,169.9-46.8c9.6-4.6,18.7-8.4,20.3-8.4c8.6,0,16.3-2.9,39.8-15.1
				c1.9-1,8.1-2.7,13.6-3.9c59.2-11.9,116.9-10.4,176.7,4.6c39,9.8,72.2,22.2,148.4,55.5c66.6,29.1,94.3,40.3,129.1,52l17.4,5.8
				l2.9-2.1c1.6-1.2,2.9-2.5,2.9-2.8s3.8-4.9,8.5-10.1s11.6-13.7,15.3-18.9s10.7-14.2,15.5-20c8.7-10.2,15.4-22,19.6-34.8
				c2.2-6.4,2-11.2-0.4-11.2c-1.6,0-8.3,4.9-11.5,8.5c-5.8,6.4-18.8,13.5-24.7,13.5c-1.8,0.3-3.5,1.1-4.7,2.5
				c-1.3,1.4-2.8,2.5-3.4,2.5s-1.3,1.6-1.6,3.5s-3.8,9.7-7.5,17.3c-7.7,15.5-14.1,31.8-14.1,35.7c0,3.2,0.2,3.3-25-5.7
				c-31.4-11.3-57.5-22.1-122-50.3c-69.9-30.6-103.7-43-146-53.4c-34.3-8.5-60.1-11.6-97-11.5c-27,0-34.9,0.5-60.5,4l-5,0.7
				l12.8-10.2c21.3-17,35.9-30.3,64.3-58.6c69.1-69,117.2-135.3,138.9-191.5c4-10.4,8.9-28.4,10-37c0.5-3.7,2.2-7.9,5.1-13
				c2.6-4.5,4.9-9.1,7-13.9l2.8-6.4l7,0.7c30.2,2.9,78.3,2.3,108.2-1.4c57.6-7.1,99.5-19.8,193.9-58.8c22-9.1,47.6-19.6,56.9-23.4
				s20.9-9.3,26-12.3c9.5-5.6,13.4-7.3,22.8-9.9c6.8-1.9,11.8-7.1,13.9-14.4C3444.6,468.4,3443.4,445.2,3439.7,433.2z M2946.8,708.7
				c-35.1,58.3-95.5,127.4-159.2,182c-25.7,22.1-58.5,44.9-68.7,47.8c-3.9,1.1,16-18.6,66-65.3c80.9-75.6,126.2-121.8,156-159
				c4-5,7.5-9.2,7.8-9.2S2948,706.7,2946.8,708.7L2946.8,708.7z M3020.9,571.8c-37.6-27-22.7-81.4-3-125.1
				c18.4-40.8,67.2-106,115.9-126c15.6-6.4,26.5-12.7,43.1-13c2.7,0,5.3,0.4,7.9,1c7.1,2,13.9,3.2,19.9,9.9s10.1,12.5,12.4,23.4
				c2.4,11.2,1.7,30.3-0.8,42.5c-2,9.6-4,21.6-8.2,28.9c-0.1,0.2-0.3,0.4-0.4,0.6c-0.3,0.7-0.6,1.4-0.9,2.1c-0.9,2.2-2,4.3-2.7,6.5
				c-1.4,4.1-3.1,8-5,11.9c-1.8,3.6-2.5,7.7-4.3,11.1c-1.3,4.2-1.3,2.2-3.8,7.8c-6.2,10.9-13.1,21.5-20.4,31.6
				c-14.4,19.5-30.7,36.5-48.8,52.5c-1.9,1.7-4.7,4.2-6.9,5.9c-4.2-2.1-13.2-8.2-16.6-10.1c-7.4-4.2-5.8-22.1-7.6-24.9
				c-0.8-1.3-2.1-1.7-3.9-0.5c-1.1,0.6-1.9,1.7-1.8,3c-0.1,2.1,1.1,20.6,5.4,23.9c6.7,5.1,17.6,14,15,15.8
				c-10.8,7.3-28.1,18.4-39.6,20.7C3050.5,574.2,3034.6,581.7,3020.9,571.8L3020.9,571.8z"/>
			<path d="M2560.4,1440c-47.3,1.1-146,6.7-196.5,11c-44.9,3.9-67.8,7.8-66.7,11.4c1,3.2,20,6.5,55.1,9.6
				c19.6,1.7,62.9,4.9,69.6,5.1c1.8,0,1,0.6-2.7,1.8c-2.8,1-5.5,2.2-8,3.7c-2.8,1.9-2.5,1.9,44.7,2.5c26.1,0.3,74.5,0.7,107.5,0.8
				c38.3,0.1,79,0.8,112.5,2.1c28.9,1.1,55.2,2,58.4,2s5.7,0.3,5.4,0.6s-8.2,2.1-17.5,4c-25.5,5.2-64.5,14-86.8,19.5
				c-73.4,18.3-105.8,31.9-99.8,41.8c7.1,12,86.1,17.8,203.8,15.1c51.5-1.1,83.8-2.5,93.5-4c3.6-0.6,22.7-1.9,42.5-3
				s43.9-2.4,53.5-3s27.6-1.4,40-2.1c60.2-2.9,58.3-2.8,31.5-2.5c-13.2,0.2-21.6,0.1-18.7-0.1l5.2-0.4V1539l-11.7-0.2
				c-6.5-0.2,4.9-0.5,25.2-0.8l37-0.5l-37.5-0.3c-20.6-0.1-53.2-0.9-72.5-1.7c-43-1.8-103.1-3.2-168.4-4.1
				c-49.6-0.6-58.1-1-58.3-2.9c-0.1-2.3,4.1-3.2,124.2-27.1c65.5-13,64.5-12.9,131-15.3c35.7-1.4,50-2.2,49.6-3
				c-0.3-0.4-5.3-0.3-11.3,0.1c-5.3,0.5-10.5,0.6-15.8,0.5c-4.3-0.3-4.1-0.4,1.8-0.5l6.7-0.2v-7.3l10.8,0.7
				c4.6,0.2,9.2,0.7,13.7,1.4c2.9,0.8,2.8,0.9-1.8,1.6c-2.7,0.4-4.7,1-4.4,1.3s3.2-0.1,6.4-0.7c5.2-1.1,5.5-1.4,3.3-2.2
				c-6.1-2.3-30.9-4.1-90.5-6.8c-23.6-1.1-45.7-2.4-49-3c-43.9-7.2-180.6-10-288-5.9c-26.3,1-38,0.9-77-0.5
				c-25.3-0.9-50.6-1.6-56.2-1.6s-10.3-0.4-10.3-0.9c0-0.8,78.6-1.9,190.5-2.6c80.6-0.5,136.1-3.1,153.3-7.2
				c3.3-0.8,2.7-2.1-1.5-3.2c-7.4-1.9-40.2-4.5-69.8-5.5C2690.2,1439.6,2590.6,1439.3,2560.4,1440z M2969.7,1474.7
				c-1.3,0.2-2.7,0.2-4,0c-1.3-0.2-0.5-0.4,1.7-0.4S2970.6,1474.4,2969.7,1474.7L2969.7,1474.7z M2981.7,1475.7
				c-1.8,0.2-3.7,0.2-5.5,0c-1.6-0.2-0.3-0.4,2.7-0.4S2983.2,1475.5,2981.7,1475.7L2981.7,1475.7z M2970.7,1557.7
				c-1.3,0.2-2.7,0.2-4,0c-1.3-0.2-0.5-0.4,1.7-0.4S2971.6,1557.4,2970.7,1557.7L2970.7,1557.7z"/>
			<path d="M3075.7,1535.7c1.5,0.2,3,0.2,4.5,0c1.2-0.2,0.2-0.4-2.3-0.4S3074.4,1535.5,3075.7,1535.7z"/>
			<path d="M3048.7,1536.7c3.5,0.2,7,0.2,10.5,0c2.8-0.2,0.5-0.3-5.3-0.3S3045.8,1536.5,3048.7,1536.7z"/>
			<path d="M3067.2,1554.7c3,0.2,6,0.2,9,0c2.3-0.2,0.2-0.3-4.8-0.3S3064.6,1554.5,3067.2,1554.7z"/>
			<path d="M3032.2,1555.7c3.8,0.2,7.7,0.2,11.5,0c3.1-0.2,0.5-0.3-5.8-0.3S3029,1555.5,3032.2,1555.7z"/>
			<path d="M4928.6,324.5c-3.4-5-1.3-7.4-9.3-1.2c-8.8,6.8-23.8,25.1-33.8,36.8c-1.7,2-10.7,12.4-13.4,15.3
				c-0.5,2.3,0.2,2.8-0.1,4.9c-2,13.6-9.7,23-19.9,32.8c-4.3,4.1-2.6-0.3-9,9c-13.2,19.3-53,53-71.2,71.6
				c-30.6,31.2-65.1,81.4-97.4,103.7c-14.9,10.3-14.5,4.1-32.5,7.6c-25.8,5-59.2,3.5-88,9.3c-6.3,1.3-27.5,4.9-32.7,6
				s-9,4.6-10.6,2.4s4.9-9.8,7.6-13s6.6-10.7,9.9-14.2s2.7-2,9.3-3c107.1-15.8,144.6-188,124.3-277.2c-2.4-10.5-12.2-36.3-19.7-45.9
				c-24.8-31.8-49.9-46.2-89.8-27.6c-32.2,15-53.6,44.9-70.8,80.3c-6.1,12.6-19.9,52.4-23.1,69c-8.5,44.2-10.1,87.9,1,130.1
				c4.5,17.1,12.8,32.5,21.3,44.9c7.2,10.5,14,14.7,22.1,20.7c2.8,2.1,3.1-0.6,2.8,3.6s-6.4,11.4-9.7,16.9
				c-1.5,2.5-7.1,10.6-8.9,14.1c-4.3-3.2-9.9-6.5-14.4-9.6c-9.9-7-32.1-19.9-40-25c-32.7-21.5-75.7-40.2-96.2-73.8
				c-20.8-34.2-29.4-94.8-33.7-137.6c-3.6-36.5-0.1-83.5,4.4-121.9c2.5-21,5.1-41.4,6.4-62.9c0.3-4.9,4.5-16.1,6.7-21.2
				c4-9.6,12.3-26.2,9.4-35.3s-8.3-9.7-16.6-11.7s-21-10.5-27.5-14.9c-6.2-4.2-11.9-14.7-15.9-1.6c-2.3,7.5,7.4,47.3,10.7,59.1
				c0.8,3.6,2.8,6.8,5.7,9c8.2,6.2,13.8,6.1,13.9,24.1c0.1,14.3-3.8,40.1-6.5,63.2c-3.2,26.7-6.3,61.5-5,92
				c2,47.4,11.7,97.6,26.9,142.3c4.7,13.9,4.1,16,12.9,28c23.7,32.3,60.3,50.2,95.9,72.8c12.1,7.7,43.6,22.4,53.5,36.4
				c5,7.1,1.5,1.7-3.1,16.6c-20,65.3-6.2,142,13.2,211.1c14.5,51.3,36.3,119.5,60.2,168.5c2.6,5.4,0.9,2.9-1.3,5.2
				c-0.5,0.6-2,0-2.7,1.1c0.7,0.6,3,13.9,4,15.9c24.9,48,80.4,153,82.9,194.5c5.9,98.7-44.2,156.7-101.8,196.2
				c-8.2,5.6-13.6-6.9-19-6c-8.8,1.6-23.4-10.6-21,5.3c0.6,4.2,2.9,7.2,5,12.5s5.7,14.4,7.6,20.9c5.2,18.2,8,23.6,26.6,23
				c5.3-0.2,9.2-0.2,12.5-0.1c8.4,0.4,19.6,6.8,25.3,8.1c6.9,1.5,15.6,9.3,13-4.6c-1.4-7.3-19.4-29.2-24.9-39.3
				c-2-3.6-10.5-6.8-8.2-13.6s-0.9,3.3,7.9-6.1c44.2-46.8,48.9-42.3,82.4-119.8c25.6-59.2-15.4-195.2-66.9-251.6
				c-2.1-2.3-1.1-9.9-3-11.1c1.2,0.5,2.5,1.8,3.4,2.3c10.1,6.1,17,3.5,23.8-5.9c0.7-1,1.7-2.9,2.5-4.1c2.1,1,5.4,0.8,7.5,1.5
				c99,29.4,141.8,77.5,154.8,184.6c2.4,19.7-2.5,68-10.6,95.7c-5.1,17.7-15.4,56.1-23.4,77.4c-1.6,4.2-4.2,5.4-11.1,10.1
				c-15.6,10.6-10.1,13.3,10.2,14.2c33,1.5,66.6,0.2,95.8-22.4c5.5-4.2,22.1-20.9,26.8-28.5c0.9-1.4,0.1-2.4-2-3.2
				c-3.3-1.2-2.7-1.4-8.5,1c-18.3,7.6-42.3,14.8-63.4,15.9c-9.8,0.5-20.8,4.5-29.6,0c-1.7-0.9,3.1-12.7,6.3-21.9
				c25.8-74.6,34.2-167.4-5.3-238.3c-17-30.5-31.2-44.4-56.8-63.1c-24.1-17.7-52.4-26.9-80-34.1c-5.8-1.5-5.3,1.8-7.2-4
				c-1.4-4.1,0.9-3.7-0.6-13.3c-2.2-13.2-1.7-15.4-7.6-37.6c-9.1-34-29.6-87.4-45.3-122.2c-21-46.7-42-104.1-47.1-148
				c-3.4-29.2-2.1-47.1-0.5-57.2c2.7-17.8,0.7-14.8,6.5-20c2.6-2.3,7.2-0.7,13.9-3c14.3-4.9,39.9-10.3,55.6-11.9
				c34.1-3.6,69.5-1.8,100.5-12.9c11.6-4.2,8.5-2.5,18.2-12.9c38.9-41.9,92.5-103,130.7-138.1c23.5-21.6,33.1-32.4,41-41.5
				c9.8-11.3,16.9-6.6,30.1-11.5c18.8-6.9,33.4-8.1,28.4-34.8c-2.1-11.4,1.2-21.8,2.7-31.9C4926.8,335.9,4929.5,325.9,4928.6,324.5z
				 M4518,848.9c9.3,21.4,25.7,65.6,31.5,77.1c14.3,28.5,26.4,78.3,27.9,90.2c2.7,21.7,5.6,30.5-3.7,15.3
				c-15.7-25.4-18.7-42.5-34.9-83c-13.4-33.4-39-110.1-45.2-150.2c-2.4-15.9-3.9-22.4-4.6-28.5
				C4487.1,753.2,4499.2,805.8,4518,848.9z M4651.6,359.5c1.4,12.7-0.9,25.6-2,38.6c0.2,2,0.1,1.3,0.2,2c0,0.4,0.1,0.8,0,1.3
				c0,0.3,0.1,0.7,0.1,1c1.3,8.9-3.3,24.2-6,35.9c-7.6,32.8-25,70.9-45.2,96.3c-15.2,19.1-29.5,29.9-48.1,37.3
				c-13.1,5.2-14.7,4.4-27.3,2.1s-18.3-4.5-28.5-17.9c-8.5-11.2-18-30.6-21.6-49.1c-7.3-36.5-5.4-74.5,2.2-113.5
				c4-20.7,19.3-62.1,28.5-77.6c18.8-31.8,36.9-53.7,68.2-62.8c18.5-5.4,26.6-1.1,41.8,10.4c20.5,15.4,30.9,48,35.2,72.9"/>
			<path d="M4589.6,495.4c-5.9,6.8-15,16.6-23.9,21c-26.7,13.3-36.5-4.6-47.2-25.7c-3-6-5-12.9-7.5-15.2s-2-0.9-3.9,0.8
				c-5,4.6,0.9,13.3,4.9,21.4c4.3,8.8,14.3,25.5,26,29.4c7.2,2.4,8.4,3.8,15.9,2.5c15.2-2.7,29.5-14.5,39.4-25.8
				c4.1-4.7,5.5-6.6,1.1-9.7C4592,492.3,4592.3,492.3,4589.6,495.4z"/>
			<path d="M4555.5,1514c1,0.4,1.6,0.4,2.3-0.1s-1.1-0.6-1.6-0.6S4554.5,1513.6,4555.5,1514z"/>
			<path d="M4546,1516.3c1,0.4,1.6,0.4,2.3-0.1s-1.1-0.6-1.6-0.6S4545,1516,4546,1516.3z"/>
			<path d="M4525.3,1521.2c-7.2,2.4-43,10.2-44.2,16.5c-0.8,4,22.7,1.8,26.9,1.8c4.6,0,27.4-2.1,9.1-1.9c-6.7,0.1-7.6-0.2-7.8-0.5
				s5.1-2.7,5.7-4.4s3.6-4.3,4.5-5.6s1.3-1.1,1.4-2.5s7.8-2.8,8.3-3.1c1.4-0.5,15.5-4.9,12.8-4.7
				C4540.7,1517,4527.5,1520.5,4525.3,1521.2z"/>
			<path d="M4522.2,1542.2c-1.5,1-2.3,1.8-0.5,1.8c0.9,0.2,1.8-0.4,2.1-1.3c0.3-1,1.7-0.7,2.8-0.4s2.3,0.6,0.8-0.5
				C4525.1,1540,4524.2,1540.8,4522.2,1542.2z"/>
			<path d="M4531.8,1541.2c1,0.4,1.6,0.4,2.3-0.1s-1.1-0.6-1.6-0.6S4530.8,1540.8,4531.8,1541.2z"/>
			<path d="M1247.3,443.6c-4.2,2-7.1-2-5.7-8c0.9-4,3.4-7.3,6-8s4.8,1.4,5,4.8C1252.8,436.7,1250.2,442.2,1247.3,443.6z"/>
			<path d="M3169.1,435.2c-4.4,1.3-6.7-3.1-4.4-8.8c1.5-3.8,4.5-6.7,7.2-7s4.5,2.1,4.2,5.5C3175.7,429.3,3172.3,434.3,3169.1,435.2z
				"/>
			<path d="M4900.3,161.7c0.2,0.2,1.3,7,2.4,15c1.5,11.7,1.8,20.6,1.3,43.3c-0.7,30.7-2,42.8-8.8,85.1c-3.9,24.5-4.4,29.9-4.4,49.4
				c0,19.2,0.5,24.8,3.8,43.9c2,12.1,4,26.4,4.5,31.8s1.2,9.7,1.5,9.7s45.9,4,100.9,8.9s100.3,8.7,100.5,8.3s-2.5-8.3-6-18
				c-16.6-44.7-20.5-68.2-15.5-91c5.6-25.4,7.7-37,9.4-50.4c2.6-20.6,4-63.2,3-86.6c-0.5-10.8-0.7-19.7-0.7-19.8L4900.3,161.7z"/>
			
				<image style="overflow:visible;opacity:0.75;enable-background:new    ;" width="133" height="135" xlink:href="4334CE524318DD4E.png"  transform="matrix(1 0 0 1 4925.98 182.32)">
			</image>
			<path class="st0" d="M5038.3,288.2c-27.8-1.8-55.7-4.3-83.5-6.4c3.7-20.4,5.5-41,5.5-61.7c0-7.5-0.2-14.7-0.7-21.7
				c27.8,3.1,55.7,6.7,83.5,9.4c0.4,6.9,0.6,14.1,0.6,21.6C5043.6,249.2,5041.8,268.9,5038.3,288.2z"/>
			<path class="st1" d="M5038.3,288.2c-27.8-1.8-55.7-4.3-83.5-6.4c3.7-20.4,5.5-41,5.5-61.7c0-7.5-0.2-14.7-0.7-21.7
				c27.8,3.1,55.7,6.7,83.5,9.4c0.4,6.9,0.6,14.1,0.6,21.6C5043.6,249.2,5041.8,268.9,5038.3,288.2z"/>
			<path class="st2" d="M5031.3,230.6c-6.6-0.6-13.2-1.2-19.8-1.8l0.6-9.6C5018.5,223.1,5024.9,226.9,5031.3,230.6z"/>
			<path class="st3" d="M4975.2,225.2c11.8,1.1,23.6,2.4,35.4,3.5l1-16.6C4999.5,216.4,4987.4,220.8,4975.2,225.2z"/>
			
				<image style="overflow:visible;opacity:0.75;enable-background:new    ;" width="103" height="95" xlink:href="4334CE524318DD52.png"  transform="matrix(1 0 0 1 4943.98 211.59)">
			</image>
			<path class="st4" d="M4975.1,227.2c-0.6,9.9-1.2,19.9-1.8,29.8c-0.3,5.5-0.7,11.1-1,16.6c18.7,1.4,37.4,3,56,4.2
				c2.9-12.3,4-24.9,3.4-37.5c-0.1-2.7-0.4-5.3-0.6-7.8C5012.5,231,4993.8,229.1,4975.1,227.2z M5027.1,276.3
				c-17.7-1.2-35.5-2.7-53.2-4c0.9-14.5,1.7-29,2.5-43.5c17.7,1.7,35.5,3.5,53.2,5.1C5028.8,248,5028,262.2,5027.1,276.3
				L5027.1,276.3z"/>
			<path class="st4" d="M5029.7,233.9c0,0.4-0.8,12.8-0.8,13.2c-0.1,1.8-1.7,27.5-1.8,29.3c-17.7-1.2-35.5-2.7-53.2-4
				c0.9-14.5,1.7-29,2.5-43.5C4994.2,230.5,5011.9,232.3,5029.7,233.9z"/>
			<path class="st5" d="M4992.4,248.4c-0.2,2.7-2.3,4.1-6.3,3.8l-7.6-0.7c0.3-5.3,0.6-10.7,0.9-16l7.1,0.7c3.7,0.4,5.6,2.1,5.5,4.6
				c0,1.5-0.9,2.8-2.3,3.3C4991.5,244.8,4992.6,246.6,4992.4,248.4z M4981.6,237.6l-0.3,5.1l4.7,0.4c2.3,0.2,3.7-0.5,3.8-2.2
				s-1.2-2.7-3.5-2.9L4981.6,237.6z M4990.1,248.1c0.1-1.8-1.2-2.8-3.7-3l-5.2-0.5c-0.1,1.8-0.2,3.5-0.3,5.3l5.2,0.5
				C4988.6,250.6,4990,249.9,4990.1,248.1z"/>
			<path class="st5" d="M4986.1,252.5l-7.9-0.7c0.3-5.5,0.7-11,1-16.5l7.4,0.7c3.8,0.4,5.9,2.2,5.7,5c0,1.4-0.8,2.6-1.9,3.3
				c1.6,0.8,2.5,2.5,2.3,4.2C4992.5,251.4,4990.2,252.8,4986.1,252.5z M4978.8,251.3l7.3,0.6c2.6,0.2,5.9-0.2,6-3.5
				c0.2-1.7-0.9-3.4-2.5-3.9l-0.7-0.3l0.7-0.3c1.3-0.5,2.2-1.7,2.2-3.1c0.1-2.4-1.8-4-5.2-4.3l-6.8-0.6
				C4979.4,241,4979.1,246.1,4978.8,251.3z M4986.1,250.6l-5.5-0.5c0.1-2,0.2-3.9,0.4-5.9l5.5,0.5c2.8,0.3,4.1,1.4,4,3.3
				S4988.9,250.9,4986.1,250.6z M4981.2,249.6l4.9,0.4c3.2,0.3,3.7-1,3.7-2s-0.2-2.4-3.5-2.7l-4.9-0.4
				C4981.4,246.4,4981.3,248,4981.2,249.6L4981.2,249.6z M4985.9,243.4l-4.9-0.4c0.1-1.9,0.2-3.8,0.3-5.7l4.9,0.5
				c2.5,0.2,3.9,1.4,3.8,3.2S4988.5,243.7,4985.9,243.4L4985.9,243.4z M4981.6,242.4l4.4,0.4c1.5,0.1,3.4-0.1,3.5-2
				s-1.7-2.4-3.2-2.6l-4.4-0.4L4981.6,242.4z"/>
			<path class="st5" d="M5010.3,238.5c-0.3,5.3-0.6,10.5-0.9,15.8l-2.3-0.2l0.4-7l-9.1-0.8l-0.4,7.1l-2.3-0.2l0.9-15.8l2.3,0.2
				c-0.1,2.3-0.3,4.5-0.4,6.8l9.1,0.8c0.1-2.3,0.3-4.5,0.4-6.8L5010.3,238.5z"/>
			<path class="st5" d="M5009.6,254.5l-2.8-0.2l0.4-7l-8.6-0.8l-0.4,7.1l-2.8-0.2c0.3-5.5,0.7-10.9,1-16.4l2.8,0.3
				c-0.1,2.3-0.3,4.5-0.4,6.8l8.6,0.8c0.1-2.2,0.3-4.5,0.4-6.8l2.8,0.3C5010.3,243.6,5010,249.1,5009.6,254.5z M5007.4,253.8
				l1.7,0.1c0.3-5.1,0.6-10.1,0.9-15.2l-1.7-0.2c-0.1,2.3-0.3,4.5-0.4,6.8l-9.7-0.9c0.1-2.3,0.3-4.5,0.4-6.8l-1.7-0.2l-0.9,15.3
				l1.7,0.1l0.4-7.1c3.2,0.3,6.5,0.6,9.7,0.9L5007.4,253.8z"/>
			<path class="st5" d="M5018.1,241.1l-5.5-0.5c0-0.7,0.1-1.3,0.1-2l13.1,1.2c0,0.6-0.1,1.3-0.1,1.9l-5.5-0.5
				c-0.3,4.6-0.6,9.2-0.8,13.7l-2.2-0.2C5017.6,250.3,5017.8,245.7,5018.1,241.1z"/>
			<path class="st5" d="M5019.8,255.4l-2.8-0.2c0.3-4.6,0.5-9.2,0.8-13.7l-5.5-0.5l0.1-2.5c4.6,0.4,9.1,0.8,13.7,1.2
				c0,0.8-0.1,1.7-0.2,2.5l-5.5-0.5C5020.4,246.2,5020.1,250.8,5019.8,255.4z M5017.6,254.6l1.7,0.1c0.3-4.6,0.5-9.2,0.8-13.7
				l5.5,0.5c0-0.5,0.1-0.9,0.1-1.4c-4.2-0.4-8.4-0.7-12.6-1.1c0,0.5-0.1,0.9-0.1,1.4l5.5,0.5C5018.1,245.5,5017.9,250,5017.6,254.6z
				"/>
			<path class="st5" d="M4984.9,258.5l-0.4,6l-0.6,0c0.1-1.6,0.2-3.2,0.3-4.8l-2.6,3.8h-0.3l-2.1-4.2c-0.1,1.6-0.2,3.2-0.3,4.8
				l-0.6,0c0.1-2,0.2-4,0.4-6h0.5l2.3,4.7l2.8-4.2L4984.9,258.5z"/>
			<path class="st5" d="M4990.7,260.4c-0.1,1.5-0.2,3-0.3,4.5l-0.6,0c0-0.3,0-0.5,0-0.8c-0.4,0.5-1,0.8-1.7,0.7
				c-1,0-1.8-0.8-1.8-1.8c0-0.1,0-0.2,0-0.3l0.1-2.6l0.6,0l-0.1,2.5c-0.1,0.7,0.3,1.4,1,1.5c0.1,0,0.2,0,0.3,0
				c0.8,0.1,1.5-0.4,1.6-1.2c0-0.1,0-0.2,0-0.3c0-0.8,0.1-1.6,0.1-2.4L4990.7,260.4z"/>
			<path class="st5" d="M4994.5,265c-0.3,0.2-0.6,0.3-1,0.2c-0.7,0-1.2-0.5-1.2-1.2c0-0.1,0-0.1,0-0.2c0-0.9,0.1-1.8,0.2-2.7
				l-0.8-0.1v-0.5l0.8,0.1l0.1-1l0.6,0l-0.1,1l1.4,0.1v0.5l-1.4-0.1l-0.2,2.7c-0.1,0.4,0.2,0.8,0.6,0.9c0,0,0.1,0,0.1,0
				c0.2,0,0.5,0,0.7-0.2L4994.5,265z"/>
			<path class="st5" d="M4998.8,265.1v0.5l-3.6-0.3v-0.4l3-3.3l-2.8-0.2v-0.5l3.5,0.3v0.4c-1,1.1-2,2.2-3,3.3L4998.8,265.1z"/>
			<path class="st5" d="M4999.3,265.1l0.3-0.5c0.4,0.4,1,0.6,1.6,0.6c0.9,0.1,1.2-0.2,1.2-0.6c0.1-1.2-2.9-0.5-2.8-2.2
				c0-0.7,0.7-1.2,1.9-1.1c0.6,0,1.1,0.2,1.6,0.5l-0.3,0.5c-0.4-0.3-0.8-0.5-1.3-0.5c-0.8-0.1-1.2,0.2-1.2,0.6
				c-0.1,1.2,2.9,0.5,2.8,2.2c0,0.8-0.8,1.2-1.9,1.1C5000.5,265.8,4999.8,265.5,4999.3,265.1z"/>
			<path class="st5" d="M5003.8,263.8c0-1.2,1-2.1,2.2-2.1c0.1,0,0.2,0,0.2,0c0.7,0,1.3,0.4,1.7,1l-0.5,0.3
				c-0.3-0.5-0.7-0.7-1.3-0.8c-0.9-0.1-1.7,0.5-1.8,1.4c0,0.1,0,0.1,0,0.2c-0.1,0.9,0.6,1.8,1.5,1.9c0,0,0.1,0,0.1,0
				c0.5,0.1,1-0.2,1.4-0.5l0.4,0.3c-0.4,0.6-1.1,0.8-1.8,0.7C5004.7,266.1,5003.7,265.1,5003.8,263.8
				C5003.8,263.8,5003.8,263.8,5003.8,263.8z"/>
			<path class="st5" d="M5013.1,264.2l-0.1,2.6l-0.6,0l0.1-2.5c0.1-0.7-0.3-1.4-1-1.5c-0.1,0-0.2,0-0.3,0c-0.8-0.1-1.5,0.4-1.6,1.2
				c0,0.1,0,0.2,0,0.3c0,0.8-0.1,1.6-0.1,2.3h-0.6c0.1-2.1,0.2-4.2,0.4-6.3l0.6,0l-0.1,2.6c0.4-0.5,1.1-0.8,1.7-0.7
				c1,0,1.7,0.8,1.7,1.7C5013.1,264,5013.1,264.1,5013.1,264.2z"/>
			<path class="st5" d="M5018.6,265.1l-3.8-0.3c0,0.9,0.7,1.7,1.7,1.7c0.5,0.1,1-0.1,1.4-0.5c0.1,0.1,0.2,0.3,0.3,0.4
				c-0.5,0.4-1.1,0.7-1.8,0.6c-1.2,0-2.2-1-2.2-2.3c0,0,0-0.1,0-0.1c0-1.2,1-2.1,2.1-2.1c0.1,0,0.1,0,0.2,0c1.2,0.1,2.1,1.1,2,2.3
				c0,0,0,0.1,0,0.1C5018.6,265,5018.6,265.1,5018.6,265.1z M5014.9,264.4l3.2,0.2c0-0.9-0.7-1.6-1.5-1.6
				C5015.7,263,5015,263.6,5014.9,264.4L5014.9,264.4z"/>
			<path class="st5" d="M5024,265l-0.1,2.6l-0.6,0l0.1-2.5c0.1-0.7-0.3-1.3-1-1.5c-0.1,0-0.2,0-0.3,0c-0.8-0.1-1.5,0.4-1.6,1.2
				c0,0.1,0,0.2,0,0.3c0,0.8-0.1,1.5-0.1,2.3h-0.6l0.3-4.4h0.6c0,0.3,0,0.5,0,0.8c0.4-0.5,1.1-0.8,1.8-0.7c1,0,1.7,0.8,1.8,1.7
				C5024,264.8,5024,264.9,5024,265z"/>
			<path class="st5" d="M4921.5,311l-7.6-0.7c-0.7,1.1-1.4,2.3-2,3.4l-2.9-0.3c3.1-5.1,6.6-10,10.4-14.6l2.7,0.3
				c0.5,5.4,1.7,10.7,3.5,15.8l-3-0.3C4922.2,313.4,4921.8,312.2,4921.5,311z M4920.9,308.7c-0.5-2.3-0.9-4.6-1.2-6.9
				c-1.6,2.1-3.1,4.2-4.5,6.4L4920.9,308.7z"/>
			<path class="st5" d="M4935.8,304.1c-0.2,0.9-0.4,1.7-0.5,2.5c-0.2-0.1-0.4-0.1-0.6-0.1c-1.9-0.3-3.7,1-4,2.9c0,0.1,0,0.2,0,0.3
				c-0.3,1.8-0.5,3.7-0.7,5.5l-2.7-0.2c0.4-3.9,1-7.7,2-11.5l2.5,0.2c-0.1,0.6-0.3,1.1-0.4,1.7
				C4932.6,304.3,4934.2,303.8,4935.8,304.1z"/>
			<path class="st5" d="M4949.3,311.2c-0.2,3.2-3,5.6-6.2,5.3c-0.1,0-0.2,0-0.3,0c-1.5,0-2.9-0.8-3.7-1.9c0,0.5-0.1,1-0.1,1.5
				l-2.6-0.2c0.4-5.3,1.4-10.6,2.8-15.8l2.6,0.3c-0.5,1.9-1,3.9-1.3,5.8c1.1-0.9,2.6-1.3,4-1.2
				C4947.8,305.2,4949.8,307.7,4949.3,311.2z M4946.6,311c0.4-1.7-0.7-3.4-2.3-3.8c-0.2,0-0.4-0.1-0.5-0.1c-2-0.2-3.8,1.2-4,3.2
				c-0.4,1.7,0.8,3.4,2.5,3.8c0.2,0,0.3,0.1,0.5,0.1c1.9,0.2,3.7-1.2,3.9-3.1C4946.6,311.1,4946.6,311,4946.6,311L4946.6,311z"/>
			<path class="st5" d="M4962.8,313.2l-9.2-0.8c0.1,1.7,1.5,2.8,3.5,3c1.2,0.1,2.4-0.2,3.3-1l1.3,1.7c-1.3,1.2-3.1,1.7-4.9,1.4
				c-3.9-0.3-6.3-3-5.9-6.3c0.5-3.3,3.5-5.6,6.8-5.2c3,0.1,5.3,2.6,5.2,5.6c0,0.2,0,0.5-0.1,0.7
				C4962.9,312.7,4962.8,313,4962.8,313.2z M4953.8,310.7l6.6,0.6c0-1.6-1.3-3-2.9-3C4955.8,308.1,4954.3,309.1,4953.8,310.7
				L4953.8,310.7z"/>
			<path class="st5" d="M4966.2,307l2.7,0.2c-0.5,3.7-0.9,7.4-1.2,11.1l-2.7-0.2C4965.3,314.5,4965.7,310.7,4966.2,307z
				 M4966.4,303.6c0.2-0.9,1.1-1.6,2-1.4c0.8,0,1.5,0.7,1.5,1.5c0,0.1,0,0.1,0,0.2c-0.1,1-1,1.6-2,1.5c0,0,0,0,0,0
				c-0.8,0-1.5-0.7-1.5-1.5C4966.3,303.7,4966.3,303.7,4966.4,303.6L4966.4,303.6z"/>
			<path class="st5" d="M4978.4,318.7c-0.8,0.5-1.8,0.6-2.7,0.5c-2.5-0.2-3.9-1.6-3.7-4.1c0.2-1.8,0.4-3.6,0.5-5.4l-1.9-0.2
				c0.1-0.7,0.2-1.4,0.2-2.1l1.9,0.2l0.3-2.5l2.7,0.2c-0.1,0.8-0.2,1.7-0.3,2.5l3.1,0.3c-0.1,0.7-0.1,1.4-0.2,2.1l-3.1-0.3
				c-0.2,1.8-0.4,3.5-0.5,5.3c-0.2,0.8,0.3,1.6,1.1,1.8c0.1,0,0.2,0,0.4,0c0.5,0.1,1.1-0.1,1.6-0.3
				C4978,317.4,4978.2,318,4978.4,318.7z"/>
			<path class="st5" d="M4979.4,318.2c0.4-0.6,0.8-1.2,1.2-1.9c1.2,0.8,2.6,1.3,4,1.4c1.7,0.1,2.5-0.2,2.6-1
				c0.2-2.1-7.2-0.7-6.8-5.1c0.2-2.1,2.4-3.3,5.5-3c1.5,0.1,3,0.6,4.3,1.3l-1.2,1.9c-1-0.7-2.1-1-3.3-1.1c-1.7-0.1-2.5,0.3-2.6,1
				c-0.2,2.2,7.2,0.9,6.8,5.2c-0.2,2.1-2.3,3.2-5.6,3C4982.5,319.8,4980.8,319.2,4979.4,318.2z"/>
			<path class="st5" d="M5003.6,310.3c-2,3.5-4,7-6,10.6l-2.8-0.2c-1.3-3.8-2.7-7.6-4-11.4l2.8,0.2c1,2.8,1.9,5.6,2.9,8.5
				c1.5-2.6,3-5.2,4.5-7.8L5003.6,310.3z"/>
			<path class="st5" d="M5015.4,317.6l-9.2-0.8c0.2,1.6,1.5,2.8,3.5,2.9c1.2,0.1,2.4-0.2,3.3-0.9l1.3,1.7c-1.4,1.1-3.1,1.6-4.9,1.4
				c-3.9-0.3-6.1-2.9-5.8-6.1s3-5.4,6.5-5.1s5.8,2.7,5.4,6.1C5015.5,317,5015.4,317.3,5015.4,317.6z M5006.4,315.1l6.6,0.5
				c-0.1-1.6-1.4-2.9-3.1-2.9C5008.3,312.5,5006.7,313.5,5006.4,315.1L5006.4,315.1z"/>
			<path class="st5" d="M5025.4,311.9c-0.1,0.8-0.1,1.6-0.2,2.4c-0.2-0.1-0.4-0.1-0.6-0.1c-1.7-0.3-3.4,0.8-3.7,2.5
				c0,0.2-0.1,0.4-0.1,0.6c-0.2,1.8-0.4,3.5-0.7,5.3l-2.7-0.2c0.5-3.6,0.9-7.3,1.1-10.9l2.6,0.2l-0.1,1.6
				C5022,312.2,5023.4,311.8,5025.4,311.9z"/>
			<path class="st5" d="M5033.9,323.2c-0.8,0.4-1.8,0.6-2.7,0.5c-2.5-0.2-3.7-1.6-3.4-4c0.2-1.8,0.4-3.5,0.6-5.3l-1.9-0.2
				c0.1-0.7,0.1-1.4,0.2-2l1.9,0.2c0-0.8,0.1-1.7,0.1-2.5l2.7,0.2c0,0.8-0.1,1.7-0.1,2.5l3.1,0.2c0,0.7-0.1,1.4-0.2,2l-3.1-0.3
				c-0.1,1.7-0.4,3.5-0.6,5.2c-0.2,0.7,0.2,1.5,0.9,1.7c0.2,0,0.3,0.1,0.5,0.1c0.6,0.1,1.1-0.1,1.6-0.3
				C5033.6,321.9,5033.7,322.6,5033.9,323.2z"/>
			<path class="st5" d="M5044.2,313.5c-0.1,0.8-0.1,1.6-0.2,2.4c-0.2-0.1-0.4-0.1-0.6-0.1c-1.8-0.3-3.4,0.9-3.7,2.6
				c0,0.2,0,0.3,0,0.5c-0.2,1.8-0.5,3.5-0.9,5.3l-2.6-0.2c0.7-3.6,1.2-7.3,1.4-11l2.6,0.2c0,0.5-0.1,1.1-0.1,1.6
				C5040.8,313.8,5042.2,313.3,5044.2,313.5z"/>
			<path class="st5" d="M5055.7,319.1c-0.3,2.1-0.8,4.3-1.3,6.4l-2.5-0.2c0.1-0.5,0.2-0.9,0.3-1.3c-1.1,1-2.5,1.4-3.9,1.2
				c-2.6-0.2-3.9-1.7-3.6-3.6s1.8-3.1,5.3-2.9l3,0.2c0-0.1,0-0.1,0-0.2c0.2-1.5-0.6-2.5-2.6-2.6c-1.3-0.1-2.6,0.2-3.7,0.8
				c-0.3-0.7-0.6-1.3-0.9-2c1.5-0.8,3.3-1.2,5.1-1C5054.3,314.3,5056.2,316,5055.7,319.1z M5052.4,321.9l0.2-1.3l-2.8-0.2
				c-1.8-0.2-2.5,0.5-2.6,1.2s0.5,1.6,1.9,1.7C5050.5,323.5,5051.7,322.9,5052.4,321.9L5052.4,321.9z"/>
			<path class="st5" d="M5071.4,315.8c-0.3,3.2-1,6.3-1.8,9.3c-1.2,4-4.1,5.6-7.9,5.3c-1.8-0.1-3.6-0.8-4.9-2l1.8-1.8
				c1,1,2.3,1.6,3.8,1.7c2.5,0.2,4-0.8,4.6-3c0.1-0.2,0.1-0.4,0.2-0.6c-1.2,0.9-2.7,1.3-4.2,1.1c-3.2-0.3-5.1-2.6-4.6-5.8
				s3.2-5.1,6.6-4.8c1.5,0,2.9,0.7,3.9,1.9c0.1-0.5,0.1-1,0.2-1.5L5071.4,315.8z M5068,320.8c0.4-1.9-1-3.2-3-3.4
				c-1.9-0.3-3.6,0.9-4,2.8c-0.3,1.5,0.6,3,2.2,3.4c0.2,0,0.5,0.1,0.7,0.1C5065.7,323.9,5067.5,322.7,5068,320.8L5068,320.8z"/>
			<path d="M4589.3,389.6c-0.6,3.8-3.2,6.4-6.3,6.4c-4,0-6.8-4.2-5.9-9.1c0.6-3.3,2.5-5.6,5.1-6.2
				C4586.6,379.9,4590.1,384.2,4589.3,389.6z"/>
			<path d="M4560.5,394.7c-4,2.7-8.7,0.1-9.3-5.2c-0.3-3.6,1.3-7,4-8.3c2.8-1.2,6.1,0,7.4,2.8
				C4564.5,387.5,4563.4,392.7,4560.5,394.7z"/>
			<rect class="st6" width="5886.5" height="1571.6"/>
		</g>
	</g>
</g>
</svg>
