<?xml version="1.0" encoding="utf-8"?>
<!-- Generator: Adobe Illustrator 25.2.3, SVG Export Plug-In . SVG Version: 6.00 Build 0)  -->
<svg version="1.1" id="Ebene_1" xmlns="http://www.w3.org/2000/svg" xmlns:xlink="http://www.w3.org/1999/xlink" x="0px" y="0px"
	 viewBox="0 0 1788.2 735.5" style="enable-background:new 0 0 1788.2 735.5;" xml:space="preserve">
<style type="text/css">
	.st0{fill:#010202;}
	.st1{fill:#1D70B6;}
	.st2{fill:#E8620B;}
	.st3{fill:#CAFF70;}
	.st4{fill:none;}
</style>
<g id="Ebene_2_1_">
	<g id="Ebene_1-2">
		<path class="st0" d="M642.9,363.5c-8.2,1.9-15.3,7.9-19.5,16.5c-12.3,25.3-0.8,69.7,24.9,96.4c8.6,8.9,16.2,14,25.8,17.3l3.2,1.1
			l-6.3,3c-3,1.4-5.8,3-8.6,4.8c-0.9,0.7-1.9,1.3-3,1.7c-0.4,0-2.8,1.6-5.4,3.5c-5.6,4.3-7.6,6.9-15.6,21
			c-16.8,29.3-35.8,58.4-59.8,92.2c-7.2,10.2-16.7,23.6-21,29.9s-10.6,15.3-14,20.1c-8,11.1-12.2,17.6-12.6,19.5
			c-0.3,1.3-0.5,1.4-1.7,1.2c-6.6-1.5-8.2-1.8-9.9-1.8c-2.6,0-5.2,0.7-7.4,2.1c-1.4,1.4-2.6,3.1-3.5,4.9c-1.8,3.2-3.9,6.1-6.3,8.9
			c-4.8,5.4-5.3,7.1-2.9,8c1.4,0.3,2.8,0.3,4.1-0.1c6.1-1.4,12.1-3.4,17.8-6.1c2.1-1.1,6.6-3.3,10.1-5c4.7-2.2,6.5-3.3,7.1-4.4
			c0.8-1.5,0.3-2.7-1.4-3.5s-1.3-1.4,0.7-1.1c1.3,0.2,1.8,0.1,1.8-0.3c0-0.8,4.4-7.4,12.8-19.1c3.5-4.8,9.2-13.1,12.8-18.4
			s11-15.9,16.5-23.5c28.5-39.9,45.7-66.3,64.8-99.4c2.9-4.9,5.3-8.9,5.4-8.8c-0.2,1.5-0.6,3-1.1,4.4c-3.1,11-5.3,22.3-6.5,33.7
			c-0.4,4.2-0.8,6-1.2,6s-0.6,0.5-0.6,1.8c0,2-3.8,11.5-12.5,30.7c-12,26.5-20.3,48.5-24,63.8c-1.7,7.1-1.8,8.9-0.6,8.9
			c0.5,0,2.4,0.2,4.2,0.3c2.8,0.4,3.5,0.3,3.5-0.3s2.5-1.5,6.2-2.6c5.4-1.7,11.7-4.6,22.8-10.1c4.1-2.1,5.8-3.9,4.9-5.5
			s-11.4-5.3-17.6-6c-3.3-0.4-7.4,0.6-9.4,2.2c-0.8,0.7-1.5,1.2-1.5,1.1s0.7-2.1,1.5-4.5c3.7-10.7,10.4-27.2,18-44l5.1-11.4l0.4,4.8
			c1.9,27,7.8,50,17.8,70.6c9.9,20.2,22,33.2,35.9,38.3c5.7,2.1,14.3,2.3,17.7,0.5c0.9-0.5,1-0.5,0.7,0.1c-0.2,0.3-0.2,0.5,0,0.2
			c0.3-0.4,0.5-0.8,0.6-1.3c0.6-3.3,1-5,1.4-5.7c0.8-1.3,6.1-3.5,22-9.4c45.9-17.1,76.5-23.7,112.2-24.3l15.3-0.3l2.9,4
			c2.8,3.8,16,21.6,19.1,25.7l1.5,1.9l-7.3-0.3c-52.6-2.4-69.9-2.8-64.9-1.7c1.2,0.2,2.1,0.6,2.1,0.8c0,0.7-11.8,3.2-19.1,4
			c-8.3,1-6.1,1.1-32.2-1.9c-5-0.6-9.4-1-9.9-0.9s2,0.5,5.3,0.9c6.4,0.7,8.3,1.2,4.7,1.3c-1.2,0-3.4,0.2-5,0.5
			c-2.5,0.2-5.1,0.1-7.5-0.5c-1.6-0.4-3.2-0.6-4.9-0.7c1.5,0.5,3.1,0.9,4.7,1.1c2,0.3,4,0.7,6,1.3c1.8,0.8-7.5,0.6-14.4-0.3
			c-2.5-0.3-5-0.5-7.4-0.6c-0.5,0.1,1.9,0.5,5.4,0.9c6.2,0.8,6.3,0.8,3.3,1.1c-1.7,0.2-4.9,0.6-7.1,0.9c-7.4,1.1-10.6,1.6-13.9,2.1
			c-1.8,0.3-5,0.7-7.1,1s-4.5,0.7-5.3,0.8c-6.1,0.9-6.3,1-1.5,1.3c4.3,0.3,4,0.3-2.5,0.4c-3.9,0-13.2,0.2-20.8,0.5
			c-12.2,0.5-11.2,0.5,9.6,0.3c12.8-0.1,26.6-0.5,30.7-0.8c5.7-0.5,8.2-0.5,10.9,0c1.9,0.3,24.6,4.3,50.5,9
			c91.6,16.4,97.4,17.1,136.1,17.2c26,0,23.8,0.7,24-7.2c0-2.1,0.3-4.2,0.8-6.2c0.7-1.3,3.4-3,4.8-3c0.6,0,0.9-0.1,0.7-0.3
			s-5.7-0.7-12.4-1.2c-15-1.2-29.3-2.6-29.5-2.7c-0.6-0.7,6.6-2.1,13.5-2.6c22.7-1.9,37.4-4.9,43-8.7l1.3-0.9l-1.8-0.3
			c-1.2-0.2-0.2-0.4,2.8-0.4c12.1-0.2,40.5-1.9,41.7-2.6c0.9-0.5-8.8-1.1-18.5-1.2c-4,0-7.2,0-7.2,0s0.5-1.1,1.2-2.3
			c1-1.9,2.5-3.5,4.2-4.8c5.6-4.7,10.8-9.8,15.4-15.5c4.4-5.9,7.1-12.6,7.1-17.5c0-2.1-3.3-13.5-4.6-16c-0.7-1.2-0.8-1-2,2.8
			c-3.3,9.8-9.7,19.1-21.3,31.3c-5,5.3-5.1,5.4-4.6,6.9s0.7,8.1,0.2,9.9c-0.4,1.1-0.7,1-9.7-2.9c-38.3-16.5-72-25.7-103.9-28.6
			l-3.8-0.4l-6.8-9.4c-20.8-29-38.3-51-46.6-58.6c-10.3-9.4-25-3.1-44.6,19.1C759,627,746.5,644.4,725,677.7
			c-5.5,8.5-10.6,16-11.3,16.6l-1.3,1.2l-0.9-1.4c-2.7-4.5-7.5-19.5-10.8-34.6c-4.9-21.6-9.2-49.5-11.7-76c-1.8-19.2-2-24.3-2-43.5
			c0-17,0.2-20.7,0.9-24.7c1-5.7,3.1-11.1,6.2-16c1.3-2,2.7-4.4,3.1-5.3c1-1.6,2.4-3,3.9-4.1c17.4-13.1,19-46.9,3.8-79.3
			C692,383,670.3,363.9,650.8,363C648.1,362.8,645.5,363,642.9,363.5z M658.2,373.4c10.8,3.6,23.3,14.8,32.1,28.6
			c6,9.5,10.5,19.9,13.4,30.8c2.2,7.7,3,15.7,2.6,23.8c-0.4,11-2.8,18.2-8,23.9c-9.6,10.5-26.3,7.1-42.2-8.6
			c-17.3-17.1-28.7-43.6-28.8-67.1c0-12.8,2.8-21.8,8.6-27.6S648.9,370.2,658.2,373.4L658.2,373.4z M682.2,502.9c-0.3,1-0.6,2-1,2.9
			c-6.9,18.4-2.5,90.3,9.1,146.7c3.6,17.6,8.2,34.2,11.7,41.9c0.6,1.2,1.1,2.4,1.5,3.7c0,0.8-6.5-1.4-9.5-3.1
			c-4.7-2.8-13.6-12-18-18.7c-8.2-12.4-15.4-30.1-19.3-47.6c-3.3-14.8-4.4-24.1-4.7-40.4c-0.4-17.5,0.6-29.1,3.7-44.2
			c2.5-12.2,8.6-31,10.8-33.6c0.7-0.8,14.4-7.9,15.4-7.9C682,502.5,682.2,502.7,682.2,502.9L682.2,502.9z M811.5,595.8
			c2.5,2.1,4.9,4.4,7,6.9c10.1,11.2,18.9,22.5,36,45.9l8.5,11.6l-13,0.3c-9.2,0.1-18.4,0.7-27.5,2c-19.7,2.5-43.2,8.3-67.8,16.6
			c-8,2.7-29,10.5-30.6,11.3c-0.7,0.4-0.9,0.4-0.5-0.2c6.5-10.7,27.2-41.5,34.9-52.1C783.2,604.1,801.9,589.2,811.5,595.8z
			 M883.6,667.9c17.8,2.4,35.3,6.4,52.3,12c8.9,2.9,22.8,7.9,23.4,8.5s-7.9,2-11.7,2c-1.8,0-3.6-0.2-5.4-0.5c-2-0.5-2.4-0.4-4.7,1
			c-1,0.6-2,1.2-3.1,1.6c-0.9-0.4-1.7-0.9-2.4-1.6c-1.1-1-2-1.4-2.2-1.1s-1.9,2.4-3.9,4.7l-3.5,4.2l-12.2-0.4
			c-6.7-0.2-12.3-0.4-12.5-0.6c-0.5-0.2-10.5-13.3-17.5-22.8C873.7,665.9,873.4,666.5,883.6,667.9z M974.2,694.3
			c4.3,1.8,8.2,3.5,8.5,3.8s-3.7,0.4-8.9,0.4s-11.5,0.1-14.2,0.2c-4.7,0.3-4.8,0.3-3.5-0.6c0.7-0.5,3.1-2.3,5.3-4
			c1.4-1.2,2.9-2.2,4.5-3.1C968.7,692,971.5,693.1,974.2,694.3z M773.5,699.9c-0.4,0.1-0.9,0.1-1.3,0c-0.4-0.2-0.1-0.2,0.6-0.2
			S773.8,699.7,773.5,699.9z M778.7,700.3c-0.3,0.2-0.7,0.2-1,0c-0.4-0.2-0.2-0.3,0.3-0.3S778.9,700.2,778.7,700.3z M758.7,702.9
			c-1.4,0.1-2.9,0.1-4.3,0c-1.2-0.1-0.3-0.2,2.1-0.2S760,702.8,758.7,702.9L758.7,702.9z"/>
		<path class="st0" d="M675.1,401.8c2.4,1.8,4,5.8,3.3,8.2s-2.9,2.2-5.2-0.1c-2.8-2.8-3.7-7.5-1.7-8.8
			C672.2,400.5,673.8,400.8,675.1,401.8z"/>
		<path class="st0" d="M701.3,453.4c-5.5,4.2-14.3,4.9-21.3,1.6l-2.9-1.4l-0.8,1.1c-1.1,1.6-0.9,2.2,1.2,3.2
			c4.8,2.5,10.3,3.4,15.8,2.7c3.3-0.5,8.5-2.7,10.6-4.4l1.1-1l-1.2-1.4l-1.1-1.5L701.3,453.4z"/>
		<path class="st0" d="M733.2,695.3c0.4,0.1,0.9,0.1,1.3,0c0.3-0.2,0-0.2-0.7-0.2S732.9,695.2,733.2,695.3z"/>
		<path class="st0" d="M741.3,695.8c0.4,0.1,0.9,0.1,1.3,0c0.3-0.2,0-0.2-0.7-0.2S741,695.7,741.3,695.8z"/>
		<path class="st0" d="M745.6,696.3c0.5,0.1,1,0.1,1.5,0c0.3-0.2,0-0.3-0.9-0.3S745.1,696.2,745.6,696.3z"/>
		<path class="st0" d="M750.7,696.8c0.6,0.1,1.2,0.1,1.8,0c0.5-0.2,0-0.2-0.9-0.2S750.2,696.7,750.7,696.8z"/>
		<path class="st0" d="M755,697.3c0.8,0.1,1.5,0.1,2.3,0c0.6-0.1,0.1-0.2-1.2-0.2S754.3,697.2,755,697.3z"/>
		<path class="st0" d="M744.4,697.8c0.4,0.1,0.9,0.1,1.3,0c0.3-0.2,0-0.3-0.7-0.3S744,697.7,744.4,697.8z"/>
		<path class="st0" d="M747.5,698.5c0.8,0.2,1.7,0.4,2.5,0.4c1.1,0,1.1,0-0.2-0.4c-0.8-0.2-1.7-0.4-2.5-0.4
			C746.4,698.1,746.5,698.2,747.5,698.5z"/>
		<path class="st0" d="M722.3,699.4c0.6,0.1,1.2,0.1,1.8,0c0.5-0.2,0.1-0.3-0.9-0.3S721.8,699.2,722.3,699.4z"/>
		<path class="st0" d="M730.2,699.9c0.7,0.1,1.3,0.1,2,0c0.5-0.2,0-0.2-1.2-0.2S729.5,699.8,730.2,699.9z"/>
		<path class="st0" d="M735.2,700.4c1,0.1,2,0.1,3,0c0.8-0.1,0-0.2-1.7-0.2S734.3,700.3,735.2,700.4z"/>
		<path class="st0" d="M702.8,708.5c0.3,0.2,0.7,0.1,1,0c0.2-0.2-0.1-0.3-0.7-0.2S702.4,708.3,702.8,708.5z"/>
		<path class="st0" d="M645.1,710c1.2,0.1,2.4,0.1,3.5,0s0.3-0.2-1.6-0.2S644.2,709.9,645.1,710z"/>
		<path class="st0" d="M653,710c0.6,0.1,1.2,0.1,1.8,0c0.5-0.2,0-0.2-0.9-0.2S652.5,709.8,653,710z"/>
		<path id="Pfad_1116" class="st1" d="M1161.7,316.9c-14.3,0-25.9,11.6-25.9,25.9s11.6,25.9,25.9,25.9s25.9-11.6,25.9-25.9l0,0
			C1187.7,328.5,1176.1,316.9,1161.7,316.9z M1152.6,329.1c1.2-1.8,4.1-3.1,7.4-3.5s6.5,0.5,8.2,2.2c0.2,0.1,0.3,0.3,0.4,0.5
			c-0.5,0.5-1.1,0.9-1.7,1.2c-2.1,1.3-5.6,3.3-5.3,7.9c-1.1,0-2.2,0.4-3.1,1.1C1153,333.3,1151.8,330.3,1152.6,329.1L1152.6,329.1z
			 M1154.3,357.9c-2.1-0.1-4.8-2-6.7-4.6s-2.8-5.9-2.2-8.2c0.1-0.2,0.1-0.4,0.2-0.6c0.7,0.2,1.3,0.5,1.9,0.9
			c2.2,1.2,5.7,3.1,9.5,0.7c0.6,0.9,1.5,1.7,2.5,2.1C1157.8,355.5,1155.7,358,1154.3,357.9L1154.3,357.9z M1161.8,346.2
			c-1.7,0-3.1-1.4-3.1-3.1s1.4-3.1,3.1-3.1s3.1,1.4,3.1,3.1l0,0C1164.9,344.8,1163.5,346.2,1161.8,346.2L1161.8,346.2z
			 M1177.7,350.2c-1.4,3.1-3.7,5.4-6,6c-0.2,0.1-0.4,0.1-0.6,0.1c-0.2-0.7-0.2-1.4-0.2-2.1c0-2.5-0.1-6.5-4.2-8.5
			c0.4-0.8,0.7-1.7,0.7-2.6c0-0.2,0-0.4-0.1-0.6c7.2-2.1,10.5-1.6,11.1-0.4C1179.3,343.9,1179.1,347.1,1177.7,350.2L1177.7,350.2z"
			/>
		<g id="Gruppe_30">
			<path id="Pfad_1117" class="st1" d="M1223.1,235.6l-1.9,3.3l1.9,3.3h3.8l1.9-3.3l-1.9-3.3H1223.1z"/>
			<path id="Pfad_1118" class="st1" d="M1210.7,265.7c-0.2-0.2-0.4-0.5-0.4-0.8v-23.7c0-1.5-1.2-2.7-2.7-2.7h-3
				c-1.5,0-2.7,1.2-2.7,2.7v23.7c0,0.3-0.1,0.6-0.4,0.8c-3.4,2.5-4.2,7.4-1.7,10.8s7.4,4.2,10.8,1.7s4.2-7.4,1.7-10.8l0,0
				C1211.9,266.7,1211.3,266.2,1210.7,265.7z M1206.1,277.8c-3.2,0-5.9-2.7-5.8-5.9c0-2.5,1.5-4.6,3.8-5.5v-20.6
				c0-0.8,0.7-1.5,1.5-1.5h1c0.8,0,1.5,0.7,1.5,1.5l0,0v20.6c3,1.1,4.6,4.5,3.5,7.5C1210.7,276.3,1208.5,277.8,1206.1,277.8
				L1206.1,277.8z"/>
			<path id="Pfad_1119" class="st1" d="M1210.6,217.2c-20.2,0-36.6,16.4-36.6,36.6s16.4,36.6,36.6,36.6s36.6-16.4,36.6-36.6
				S1230.9,217.2,1210.6,217.2L1210.6,217.2z M1193.4,242.7c0-0.4,0.3-0.8,0.8-0.8h1.6c0.4,0,0.8,0.3,0.8,0.8l0,0v0.8
				c0,0.4-0.3,0.8-0.8,0.8l0,0h-1.6c-0.4,0-0.8-0.3-0.8-0.8l0,0V242.7z M1193.4,247.7c0-0.4,0.3-0.8,0.8-0.8h1.6
				c0.4,0,0.8,0.3,0.8,0.8l0,0l0,0v0.8c0,0.4-0.3,0.8-0.8,0.8l0,0h-1.6c-0.4,0-0.8-0.3-0.8-0.8l0,0l0,0V247.7z M1193.4,252.7
				c0-0.4,0.3-0.8,0.8-0.8l0,0h1.6c0.4,0,0.8,0.3,0.8,0.8l0,0l0,0v0.8c0,0.4-0.3,0.8-0.8,0.8l0,0h-1.6c-0.4,0-0.8-0.3-0.8-0.8l0,0
				l0,0V252.7z M1193.4,257.7c0-0.4,0.3-0.8,0.8-0.8l0,0h1.6c0.4,0,0.8,0.3,0.8,0.8l0,0v0.8c0,0.4-0.3,0.8-0.8,0.8l0,0h-1.6
				c-0.4,0-0.8-0.4-0.8-0.8l0,0V257.7z M1195.7,264.4h-1.6c-0.4,0-0.8-0.4-0.8-0.8l0,0v-0.8c0-0.4,0.3-0.8,0.8-0.8l0,0h1.6
				c0.4,0,0.8,0.3,0.8,0.8l0,0v0.8C1196.5,264,1196.2,264.4,1195.7,264.4L1195.7,264.4z M1215,275.6c-2.1,4.9-7.7,7.2-12.6,5.1
				s-7.2-7.7-5.1-12.6l0,0c0.1-0.2,0.2-0.5,0.3-0.7c0.6-1.2,1.5-2.2,2.5-3v-23.2c0-2.5,2.1-4.6,4.6-4.6h2.9c2.5,0,4.6,2.1,4.6,4.6
				v23.3c3.3,2.7,4.5,7.3,2.8,11.2L1215,275.6z M1233,239.5h-2.2l0.8,1.3c0.2,0.3,0.1,0.7-0.2,0.9l0,0c-0.1,0.1-0.2,0.1-0.3,0.1
				c-0.2,0-0.5-0.1-0.6-0.3l-0.8-1.3l-1.1,1.9h1.6c0.4,0,0.7,0.2,0.8,0.6s-0.2,0.7-0.6,0.8c-0.1,0-0.1,0-0.2,0h-1.5l1.1,2
				c0.2,0.3,0.1,0.7-0.2,1s-0.7,0.1-1-0.2c0,0,0-0.1-0.1-0.1l0,0l-1.1-2l-0.8,1.3c-0.2,0.3-0.6,0.4-1,0.2c-0.3-0.2-0.4-0.6-0.2-0.9
				l0.8-1.3h-2.2l0.8,1.3c0.2,0.3,0.1,0.7-0.2,1s-0.7,0.1-1-0.2c0,0,0-0.1-0.1-0.1l-0.8-1.3l-1.1,2c-0.2,0.3-0.6,0.4-1,0.2
				c-0.3-0.2-0.4-0.6-0.2-0.9l1.1-2h-1.5c-0.4,0-0.6-0.4-0.6-0.8c0-0.3,0.3-0.6,0.6-0.6h1.5l-1.1-1.9l-0.8,1.3
				c-0.1,0.2-0.4,0.3-0.6,0.3c-0.1,0-0.2,0-0.3-0.1c-0.3-0.2-0.4-0.6-0.2-0.9l0,0l0.8-1.3h-2.2c-0.4,0-0.7-0.2-0.8-0.6
				s0.2-0.7,0.6-0.8c0.1,0,0.1,0,0.2,0h2.2l-0.8-1.3c-0.2-0.3-0.1-0.7,0.2-0.9c0.3-0.2,0.7-0.1,0.9,0.2l0.8,1.3l1.1-1.9h-1.5
				c-0.4,0-0.7-0.2-0.8-0.6s0.2-0.7,0.6-0.8c0.1,0,0.1,0,0.2,0h1.5l-1.1-1.9c-0.2-0.3,0-0.8,0.3-0.9c0.3-0.1,0.7,0,0.9,0.2l0,0
				l1.1,1.9l0.8-1.3c0.2-0.3,0.6-0.5,0.9-0.3s0.5,0.6,0.3,0.9c0,0,0,0.1-0.1,0.1l-0.8,1.3h2.2l-0.8-1.3c-0.2-0.3,0-0.8,0.3-0.9
				c0.3-0.1,0.7,0,0.9,0.2l0.8,1.3l1.1-1.9c0.2-0.3,0.6-0.4,0.9-0.2s0.4,0.6,0.3,0.9l-1.1,1.9h1.5c0.4,0,0.7,0.2,0.8,0.6
				s-0.2,0.7-0.6,0.8c-0.1,0-0.1,0-0.2,0h-1.5l1.1,1.9l0.8-1.3c0.2-0.3,0.6-0.4,0.9-0.2s0.4,0.6,0.2,0.9l0,0l-0.8,1.3h2.2
				c0.4,0,0.7,0.3,0.7,0.7C1233.7,239.2,1233.4,239.5,1233,239.5L1233,239.5L1233,239.5z"/>
		</g>
		<g id="Gruppe_32">
			<path id="Pfad_1120" class="st2" d="M1080.9,393.9c-1.3-1.6-2.3-3.5-2.9-5.4c-1.4,1.6-2.4,3.5-2.9,5.5c-0.4,2.1-0.6,4.3-0.6,6.5
				c0,0.8-0.6,1.4-1.4,1.4l0,0l0,0c-2.1-0.1-4-1.4-4.7-3.4c-0.6,1.4-0.9,3-0.9,4.5c0,0.2,0,0.4,0,0.6c-0.4,4.7,3.1,8.9,7.8,9.3
				s8.9-3.1,9.3-7.8c0-0.1,0-0.3,0-0.4c0-0.4,0-0.7,0-1.1c0-0.3,0-0.5,0-0.8C1084.3,399.6,1083,396.5,1080.9,393.9z"/>
			<path id="Pfad_1121" class="st2" d="M1076,329.7c-28.5,0-51.6,23.1-51.6,51.6s23.1,51.6,51.6,51.6s51.6-23.1,51.6-51.6l0,0
				C1127.6,352.8,1104.5,329.7,1076,329.7L1076,329.7z M1076.1,415.6L1076.1,415.6c-14.3,0-25.8-11.5-25.8-25.8c0-0.5,0-1,0-1.5
				c0.4-14.6,7.6-18.3,7.9-18.4c0.7-0.3,1.6,0,1.9,0.7l0,0c0.1,0.1,0.1,0.3,0.1,0.4s1.3,8.8,7.2,10.1c-0.1-4.9,0.4-9.8,1.5-14.5
				c2.2-7.8,6.9-14.6,13.4-19.4c0.6-0.5,1.5-0.3,2,0.3c0.2,0.2,0.3,0.5,0.3,0.8c0,6.7,3.4,11.2,7.3,16.5c4.2,5.7,9,12.1,9.8,22.4
				c0,0,0.2,2,0.2,2.7C1101.7,404,1090.2,415.6,1076.1,415.6L1076.1,415.6z"/>
		</g>
		<path id="Pfad_1122" class="st2" d="M1152.4,149.5c-15.9,0-28.9,12.9-28.9,28.9s12.9,28.9,28.9,28.9s28.9-12.9,28.9-28.9l0,0
			C1181.2,162.4,1168.3,149.5,1152.4,149.5z M1162.6,178.9l2.9,5.7h-12.1v-6.2h8.3C1162,178.3,1162.4,178.5,1162.6,178.9z
			 M1155.6,171.3c0.4-0.4,1-0.4,1.4,0l0,0l1.5,1.5c0.3,0.5,0.1,1.1-0.3,1.4c-0.3,0.2-0.7,0.2-1,0l-1.5-1.5
			C1155.2,172.3,1155.2,171.7,1155.6,171.3L1155.6,171.3z M1160.9,168.1c0,0.6-0.4,1-1,1h-2.1c-0.5-0.1-0.9-0.7-0.7-1.2
			c0.1-0.4,0.4-0.6,0.7-0.7h2.2C1160.6,167.2,1161,167.7,1160.9,168.1L1160.9,168.1z M1155.6,163.6l1.5-1.5c0.4-0.4,1-0.4,1.4,0
			s0.4,1,0,1.4l0,0l-1.5,1.5c-0.4,0.4-1,0.4-1.4,0S1155.2,164,1155.6,163.6L1155.6,163.6z M1151.4,160.6c0.1-0.5,0.6-0.9,1.2-0.8
			c0.4,0.1,0.7,0.4,0.8,0.7v2.2c-0.1,0.5-0.7,0.9-1.2,0.8c-0.4-0.1-0.7-0.4-0.8-0.8V160.6z M1152.4,164.6c2,0,3.6,1.6,3.6,3.6
			s-1.6,3.6-3.6,3.6s-3.6-1.6-3.6-3.6C1148.8,166.2,1150.4,164.6,1152.4,164.6L1152.4,164.6z M1149.2,172.7l-1.5,1.5
			c-0.4,0.4-1,0.4-1.4,0c-0.3-0.4-0.3-1,0-1.3l1.5-1.5c0.3-0.5,0.9-0.6,1.4-0.4s0.6,0.9,0.4,1.4
			C1149.5,172.5,1149.4,172.6,1149.2,172.7L1149.2,172.7L1149.2,172.7z M1146.4,162.1c0.4-0.4,1-0.4,1.4,0l0,0l1.5,1.5
			c0.5,0.3,0.6,0.9,0.4,1.4c-0.3,0.5-0.9,0.6-1.4,0.4c-0.1-0.1-0.3-0.2-0.3-0.3l0,0l-1.5-1.5C1146,163.1,1146,162.5,1146.4,162.1
			L1146.4,162.1z M1144.8,167.2h2.1c0.5-0.1,1.1,0.2,1.2,0.7s-0.2,1.1-0.7,1.2c-0.2,0-0.3,0-0.5,0h-2.1c-0.5-0.1-0.9-0.7-0.7-1.2
			C1144.2,167.6,1144.5,167.3,1144.8,167.2z M1151.4,192.8h-14.6c-0.6,0-1-0.4-1-1c0-0.2,0-0.3,0.1-0.4l2.4-4.8h13.1V192.8z
			 M1151.4,184.6h-12.1l2.9-5.7c0.2-0.3,0.5-0.5,0.9-0.5h8.3L1151.4,184.6L1151.4,184.6z M1152.4,176.7c-0.6,0-1-0.4-1-1v-2.1
			c0.1-0.5,0.7-0.9,1.2-0.8c0.4,0.1,0.7,0.4,0.8,0.8v2.1C1153.4,176.3,1152.9,176.7,1152.4,176.7L1152.4,176.7L1152.4,176.7z
			 M1168,192.8h-14.7v-6.3h13.1l2.4,4.9c0.2,0.5,0,1.1-0.5,1.3C1168.3,192.7,1168.1,192.8,1168,192.8L1168,192.8z"/>
		<path id="Pfad_1123" class="st3" d="M952.9,186.3c-30.1,0-54.5,24.4-54.5,54.5s24.4,54.5,54.5,54.5s54.5-24.4,54.5-54.5l0,0
			C1007.4,210.7,983,186.3,952.9,186.3z M928.8,222.1c-0.2-0.5,0-1.1,0.5-1.3c3.5-1.5,7.2-2.2,11-2.1c3.5-0.2,7,1.1,9.6,3.4
			c2.5,2.6,3.2,6.3,2,9.7l-0.1,0.2c-3.6-3.2-7.5-6-11.8-8.2l0,0c-0.5-0.3-1.1-0.2-1.4,0.3c-0.3,0.5-0.2,1.1,0.3,1.4c0,0,0,0,0.1,0
			l0,0c4.3,2.2,8.2,5,11.7,8.2c-1.8,2.4-4.7,3.8-7.7,3.8c-2.8,0-5.4-1.3-7-3.7c-0.5-0.7-0.8-1.5-1.1-2.3c-0.2-0.5-0.3-1-0.5-1.5
			c-0.2-0.7-0.4-1.3-0.6-1.9c-0.9-2.3-2.5-4.2-4.7-5.5C929.1,222.4,929,222.2,928.8,222.1L928.8,222.1z M952.8,263.2
			c2.3,3.9,1,9-2.9,11.4l-8,4.7c-0.5,0.3-1.1,0.1-1.4-0.3l0,0l-1.6-2.7l-3.9,2.3c-0.4,0.3-1.1,0.2-1.4-0.2s-0.2-1.1,0.2-1.4
			c0.1,0,0.1-0.1,0.2-0.1l3.9-2.3l-3.2-5.4l-3.9,2.3l0,0c-0.5,0.3-1.1,0.1-1.4-0.3s-0.1-1.1,0.3-1.4l0,0h0.1l3.9-2.3l-1.6-2.7
			c-0.3-0.5-0.1-1.1,0.3-1.4l0,0l0,0l8-4.7c3.8-2.3,8.8-1.1,11.2,2.6c4.7-5.9,6.5-11.6,5.5-16.9c-0.4-2.2-1.3-4.3-2.6-6.2
			c-0.1-0.1-0.2-0.2-0.3-0.4c-1-1.5-2.2-2.9-3.5-4.1c0.4-0.6,0.7-1.2,1-1.8c1,0.9,1.9,1.9,2.7,2.9c0.3-2.2,0.8-4.4,1.6-6.6l0,0
			c0.5,0.6,1,1.1,1.6,1.5c-0.7,2.4-1.2,4.9-1.4,7.4c1.4,2.1,2.3,4.4,2.8,6.8c1.2,6-1,12.4-6.3,19L952.8,263.2z M982.8,211
			c-2.7,1.9-4.7,4.7-5.6,7.9c-0.2,0.8-0.4,1.7-0.6,2.6c-0.1,0.7-0.2,1.4-0.4,2.1c-0.2,1.1-0.6,2.1-1.1,3.1c-1.9,3.5-5.7,5.7-9.7,5.6
			h-0.2c-2.7,0-5.3-0.9-7.4-2.6c0.2-0.8,0.5-1.6,0.9-2.5c2.8-6.9,7.4-11.1,13.7-12.5c0.5-0.2,0.8-0.7,0.7-1.2s-0.6-0.8-1.1-0.7
			c-6.9,1.5-12.2,6.2-15.2,13.7c-0.2,0.6-0.4,1.1-0.6,1.6c-0.6-0.7-1.1-1.5-1.6-2.3c-2-4.1-1.5-9,1.4-12.6c2.5-3,6.6-5,12-5.6
			c4.9-0.5,9.9,0,14.6,1.5c0.4,0.1,0.6,0.4,0.7,0.8l0,0C983.3,210.4,983.1,210.8,982.8,211L982.8,211z"/>
		<path id="Pfad_1124" class="st3" d="M1062.5,139.3c-21,0-38.1,15.8-38.1,35.4s17,35.3,38.1,35.3s38.1-15.8,38.1-35.4
			S1083.6,139.3,1062.5,139.3L1062.5,139.3z M1047.9,164.6h29.3c3.2-0.2,6,2.2,6.3,5.4s-2.2,6-5.4,6.3c-0.3,0-0.6,0-0.8,0H1048
			c-1.4-0.1-2.7,0.9-2.8,2.4c-0.1,1.4,0.9,2.7,2.4,2.8c0.2,0,0.3,0,0.5,0h29.3c3.2-0.2,6,2.2,6.3,5.4s-2.2,6-5.4,6.3
			c-0.3,0-0.6,0-0.8,0h-33.8c-0.9,0-1.6-0.7-1.6-1.6c0-0.9,0.7-1.6,1.6-1.6l0,0h33.8c1.4,0.1,2.7-0.9,2.8-2.4
			c0.1-1.4-0.9-2.7-2.4-2.8c-0.2,0-0.3,0-0.5,0h-29.3c-3.2,0.2-6-2.2-6.3-5.4s2.2-6,5.4-6.3c0.3,0,0.6,0,0.8,0h29.3
			c1.4,0.1,2.7-0.9,2.8-2.4c0.1-1.4-0.9-2.7-2.4-2.8c-0.2,0-0.3,0-0.5,0h-29.3c-3.2,0.2-6-2.2-6.3-5.4s2.2-6,5.4-6.3
			c0.3,0,0.6,0,0.8,0h33.8c0.9-0.1,1.7,0.6,1.8,1.5s-0.6,1.7-1.5,1.8c-0.1,0-0.2,0-0.3,0h-33.8c-1.4-0.1-2.7,0.9-2.8,2.4
			c-0.1,1.4,0.9,2.7,2.4,2.8C1047.5,164.6,1047.7,164.6,1047.9,164.6L1047.9,164.6z"/>
		<g id="Gruppe_35">
			<path id="Pfad_1125" class="st1" d="M1086.5,269.9l-4.3,7.5l4.3,7.5h8.7l4.3-7.5l-4.3-7.5H1086.5z"/>
			<path id="Pfad_1126" class="st1" d="M1090.8,237.5c-22,0-39.8,17.8-39.8,39.8s17.8,39.8,39.8,39.8s39.8-17.8,39.8-39.8
				C1130.6,255.4,1112.8,237.5,1090.8,237.5L1090.8,237.5L1090.8,237.5z M1109.2,278.9h-5.2l1.8,3c0.4,0.8,0.2,1.7-0.6,2.1
				s-1.7,0.2-2.1-0.6l-1.8-3l-2.5,4.4h3.5c0.9,0.1,1.5,0.8,1.4,1.7c-0.1,0.8-0.7,1.4-1.4,1.4h-3.5l2.6,4.5c0.4,0.8,0.2,1.7-0.6,2.1
				s-1.7,0.2-2.1-0.6l-2.6-4.5l-1.8,3c-0.4,0.8-1.4,1-2.1,0.6s-1-1.4-0.6-2.1l1.8-3h-5l1.8,3c0.5,0.7,0.2,1.7-0.5,2.2
				s-1.7,0.2-2.2-0.5c0,0,0-0.1-0.1-0.1l0,0l-1.8-3l-2.6,4.4c-0.4,0.8-1.4,1-2.1,0.6s-1-1.4-0.6-2.1l2.6-4.5h-3.5
				c-0.9-0.1-1.5-0.8-1.4-1.7c0.1-0.8,0.7-1.4,1.4-1.4h3.5l-2.5-4.4l-1.8,3c-0.4,0.7-1.4,1-2.1,0.6l0,0c-0.8-0.4-1-1.4-0.6-2.1
				l1.8-3h-5.1c-0.9,0-1.6-0.7-1.6-1.6s0.7-1.6,1.6-1.6l0,0h5.1l-1.8-3c-0.4-0.7-0.2-1.7,0.5-2.2c0.7-0.4,1.7-0.2,2.2,0.5l0,0l1.8,3
				l2.5-4.4h-3.5c-0.9-0.1-1.5-0.8-1.4-1.7c0.1-0.8,0.7-1.4,1.4-1.4h3.5l-2.6-4.5c-0.4-0.8-0.2-1.7,0.6-2.1s1.7-0.2,2.1,0.6l0,0
				l2.6,4.5l1.8-3c0.4-0.8,1.4-1,2.1-0.6s1,1.4,0.6,2.1l0,0l-1.8,3h5l-1.8-3c-0.4-0.8-0.2-1.7,0.6-2.1s1.7-0.2,2.1,0.6l0,0l1.8,3
				l2.6-4.5c0.4-0.8,1.4-1,2.1-0.6c0.8,0.4,1,1.4,0.6,2.1l0,0l0,0l-2.6,4.5h3.5c0.9-0.1,1.6,0.6,1.7,1.4c0.1,0.9-0.6,1.6-1.4,1.7
				c-0.1,0-0.2,0-0.3,0h-3.5l2.5,4.4l1.8-3c0.4-0.7,1.4-1,2.2-0.5c0.7,0.4,1,1.3,0.6,2.1l0,0l-1.8,3h5.1c0.9,0,1.6,0.7,1.6,1.6
				s-0.7,1.6-1.6,1.6L1109.2,278.9z"/>
		</g>
		<path id="Pfad_1127" class="st1" d="M970.7,314.1c-23.3,0-42.2,18.9-42.2,42.2s18.9,42.2,42.2,42.2s42.2-18.9,42.2-42.2
			S994,314.1,970.7,314.1L970.7,314.1z M981.8,383.4c-2.2,0-4-1.8-4-4c0-0.4,0.1-0.8,0.2-1.2v-0.1l2.3-7.4c0.3-0.8,1.1-1.3,1.9-1
			c0.5,0.2,0.8,0.5,1,1l2.3,7.3c0,0.1,0.1,0.2,0.1,0.3c0.6,2.1-0.5,4.3-2.7,5l0,0C982.6,383.4,982.2,383.5,981.8,383.4L981.8,383.4z
			 M987.2,366.2c0,0.8-0.7,1.5-1.5,1.5l0,0h-7.6c-0.8,0-1.5-0.7-1.5-1.5l0,0v-2.6c0-0.7,0.5-1.4,1.2-1.5v-2.9c0-0.5-0.4-0.9-0.9-1
			c0,0,0,0-0.1,0h-0.3c-2.2,3.9-7.1,5.3-11,3.1c-1.3-0.7-2.4-1.8-3.1-3.1h-11.6c-0.9,0-1.5-0.7-1.5-1.5l0,0v-5.1
			c0-0.9,0.7-1.5,1.5-1.5h11.8c1-1.6,2.4-2.8,4.2-3.4v-1.9c0-0.1,0-0.2,0-0.3h-4.1c-0.8,0-1.5-0.7-1.5-1.5l0,0l0,0v-2.2
			c0-0.9,0.7-1.5,1.5-1.5h4.1V339c0-0.8,0.7-1.5,1.5-1.5l0,0h2.3c0.8,0,1.5,0.7,1.5,1.5l0,0v0.2h4.1c0.9,0,1.5,0.7,1.5,1.5l0,0v2.2
			c0,0.8-0.7,1.5-1.5,1.5l0,0h-4.1c0,0.1,0,0.2,0,0.3v1.9c1.7,0.6,3.2,1.8,4.2,3.4h3c3.6,0,6.5,2.9,6.5,6.6v5.5
			c0.8,0.1,1.3,0.7,1.3,1.5L987.2,366.2z"/>
		<path class="st0" d="M756.6,388c-7.1,0-12.9-4.8-12.9-10.7s5.8-10.7,12.9-10.7s12.9,4.8,12.9,10.7S763.7,388,756.6,388z
			 M756.6,372.1c-3.9,0-7.1,2.4-7.1,5.2s3.3,5.2,7.1,5.2s7.1-2.4,7.1-5.2S760.4,372.1,756.6,372.1z"/>
		<path class="st0" d="M797.9,379.5c-13.4,0-24.3-9.1-24.3-20.3s10.9-20.3,24.3-20.3s24.3,9.1,24.3,20.3S811.3,379.5,797.9,379.5z
			 M797.9,345.7c-9.4,0-17.1,6.1-17.1,13.5s7.7,13.5,17.1,13.5s17.1-6.1,17.1-13.5S807.3,345.6,797.9,345.7L797.9,345.7z"/>
		<path class="st0" d="M1076.2,472.4c-10.6,0-21-1.8-31-5.3c-16.3-5.8-27.1-14.9-37.6-23.7c-4.6-3.9-9-8-13.1-12.3
			c-7.9,5.6-17.2,8.8-26.9,9.3c-15.9,0.6-27-6.8-31.7-9.9c-6.8-4.5-12.6-10.4-17.1-17.3c-17-2.1-33.2-8.6-47-18.8
			c-17.6-13.1-29.9-30.8-35.4-50.9c-6.5-23.7-1.6-42.9,0.5-51.1c7.6-29.5,26.1-49,37.7-58.9c-3.4-13.8-2.8-28.3,1.8-41.8
			c3.1-9.1,8.1-17.5,14.6-24.6c4.6-4.8,21.5-20.4,46.4-19.8c8.7,0.2,17.2,2.3,25,6.1c7.2-11.8,16.9-21.9,28.3-29.6
			c37-24.2,85.2-22.1,120,5.1c12.7-14.3,31.7-21.3,50.7-18.6c19.9,3.2,31.6,16.7,35.7,22.3c3.8,5.2,6.6,11.1,8.4,17.3
			c4.3,0.5,8.6,1.3,12.7,2.4c20.3,5.5,33.2,17.1,38.1,21.5c15.5,13.8,26.4,31.9,31.4,52.1c7.8,30.8-0.2,63.4-21.2,87.2
			c-8,9.6-17.5,17.7-28.1,24.2c2.6,11.2,1.7,23-2.3,33.8c-4.9,12-13.5,22.2-24.6,29.1c-9.9,6-19.2,7.7-27.5,9.2
			c-5.4,1-11,1.5-16.5,1.6c-0.9,2.8-2,5.5-3.2,8.2c-8.9,19-23.4,29.1-31.3,34.5c-6.7,4.7-20.7,14.4-41.9,17.7
			C1086.1,472,1081.1,472.4,1076.2,472.4z M995.3,420.2l2.6,2.8c4.7,5.1,9.6,9.8,14.9,14.2c9.9,8.3,20.1,17,35.1,22.3
			c13.5,4.7,27.9,6,42,3.8c19.3-3.1,32.3-12.1,38.6-16.4c7.2-5,20.6-14.3,28.6-31.3c1.5-3.2,2.7-6.5,3.7-9.9l0.8-2.9h3.1
			c6,0.1,12.1-0.4,18-1.5c7.6-1.4,16.2-2.9,24.8-8.1c9.5-5.9,17-14.7,21.2-25.1c3.8-10.2,4.3-21.3,1.3-31.7l-0.9-3l2.7-1.6
			c10.9-6.2,20.5-14.3,28.5-23.9c8.4-9.6,14.7-20.9,18.5-33.1c4.4-15.3,4.8-31.6,1.1-47.1c-4.5-18.6-14.6-35.3-28.9-48
			c-4.9-4.4-16.4-14.8-34.8-19.8c-4.6-1.2-9.4-2.1-14.1-2.4l-2.9-0.2l-0.7-2.9c-1.4-6.2-4.1-12.1-7.8-17.2
			c-3.5-4.8-13.5-16.3-30.5-19c-16-2.6-28.6,4.1-34.7,8.3c-4.2,2.9-7.9,6.4-10.9,10.4l-2.6,3.4l-3.2-2.7
			c-32.1-27.2-78.2-30.1-113.5-7.1c-11.5,7.8-21,18.2-27.8,30.3l-2,3.5l-3.4-2c-7.6-4.3-16.1-6.6-24.8-6.9
			c-21.6-0.5-36.4,13.2-40.4,17.4c-5.8,6.3-10.2,13.7-12.9,21.7c-4.3,12.8-4.7,26.6-1,39.5l0.7,2.5l-2.1,1.7
			c-10.6,8.6-29.5,27.3-37,56.3c-2,7.6-6.5,25.4-0.6,47c5.1,18.4,16.3,34.5,32.5,46.6c13.2,9.7,28.7,15.8,45,17.5l2,0.2l1,1.7
			c4,6.6,9.4,12.2,15.8,16.5c4.1,2.7,13.6,9.1,26.9,8.6c9.2-0.5,18-3.9,25.1-9.7L995.3,420.2z"/>
		<path class="st0" d="M723.3,403.9c-7.1,0-12.9-4.8-12.9-10.7s5.8-10.7,12.9-10.7s12.9,4.8,12.9,10.7S730.5,403.9,723.3,403.9z
			 M723.3,388c-3.9,0-7.1,2.4-7.1,5.2s3.3,5.2,7.1,5.2s7.1-2.4,7.1-5.2S727.2,388,723.3,388z"/>
		<rect class="st4" width="1788.2" height="735.5"/>
	</g>
</g>
</svg>
