<svg xmlns="http://www.w3.org/2000/svg" viewBox="0 0 1788.25 735.47"><defs><style>.cls-1{fill:#1d6fb6;}.cls-2{fill:#e9610c;}.cls-3{fill:#c6cb1f;}.cls-4{fill:none;}</style></defs><g id="Ebene_2" data-name="Ebene 2"><g id="Ebene_1-2" data-name="Ebene 1"><path d="M642.88,363.49c-8.25,1.88-15.29,7.85-19.49,16.51-12.26,25.32-.81,69.68,24.86,96.41,8.56,8.92,16.15,14,25.78,17.27l3.24,1.11-6.28,3a77,77,0,0,0-8.56,4.81,9.62,9.62,0,0,1-3,1.67c-.4,0-2.83,1.57-5.37,3.55-5.62,4.3-7.59,6.94-15.64,21-16.81,29.27-35.75,58.39-59.8,92.16-7.25,10.18-16.71,23.6-21,29.88S547,666.2,543.59,671c-8,11.14-12.16,17.62-12.61,19.55-.26,1.26-.46,1.41-1.67,1.16-6.64-1.52-8.16-1.77-9.93-1.82a13.89,13.89,0,0,0-7.44,2.12,18,18,0,0,0-3.45,4.86,55.5,55.5,0,0,1-6.32,8.87c-4.76,5.41-5.32,7.09-2.94,8a7.78,7.78,0,0,0,4.15-.1,90.24,90.24,0,0,0,17.77-6.08c2.08-1.06,6.64-3.29,10.13-5,4.66-2.18,6.53-3.35,7.09-4.36.81-1.52.35-2.73-1.42-3.54s-1.31-1.42.66-1.12c1.27.21,1.77.1,1.77-.35,0-.81,4.41-7.39,12.81-19.14,3.45-4.81,9.17-13.12,12.76-18.38s11-15.9,16.46-23.55c28.51-39.9,45.73-66.28,64.82-99.4,2.88-4.91,5.26-8.91,5.36-8.81a25.41,25.41,0,0,1-1.11,4.41A200.44,200.44,0,0,0,644,562c-.41,4.15-.81,6-1.22,6s-.61.55-.61,1.77c0,2-3.84,11.49-12.5,30.73-11.95,26.49-20.26,48.51-24,63.81-1.73,7.08-1.83,8.86-.56,8.91.45,0,2.38.15,4.25.35,2.79.36,3.45.26,3.55-.3s2.53-1.52,6.17-2.63c5.37-1.73,11.65-4.56,22.79-10.13,4.1-2.08,5.77-3.9,4.91-5.47s-11.39-5.27-17.57-6c-3.34-.4-7.39.56-9.37,2.18-.81.71-1.46,1.17-1.46,1.06s.65-2.12,1.46-4.5c3.65-10.69,10.38-27.24,18-44l5.11-11.4.36,4.81c1.92,27,7.75,50,17.82,70.64C671,688,683.14,701,697,706.1c5.67,2.08,14.28,2.28,17.68.51.86-.51,1-.46.7.1-.25.35-.2.5,0,.25a2.4,2.4,0,0,0,.61-1.26c.56-3.3,1-5,1.42-5.73.81-1.26,6.08-3.49,22-9.41,45.92-17.07,76.46-23.7,112.21-24.31l15.29-.3,2.94,4c2.78,3.79,16,21.57,19.14,25.72l1.47,1.92-7.3-.3c-52.56-2.38-69.87-2.84-64.86-1.72,1.16.25,2.12.61,2.12.81,0,.71-11.79,3.19-19.14,4-8.3,1-6.12,1.06-32.25-1.87-5-.56-9.42-1-9.88-.87s2,.46,5.32.87c6.38.65,8.26,1.21,4.66,1.31-1.16,0-3.39.25-5,.46a25.76,25.76,0,0,1-7.55-.46,25.7,25.7,0,0,0-4.86-.66,23.41,23.41,0,0,0,4.71,1.12,56.45,56.45,0,0,1,6,1.26c1.77.76-7.45.56-14.44-.3a66.2,66.2,0,0,0-7.44-.61c-.5.1,1.93.51,5.42.91,6.23.76,6.28.76,3.29,1.07-1.67.15-4.86.6-7.09.91-7.44,1.11-10.58,1.62-13.92,2.07-1.83.26-5,.71-7.09,1s-4.46.66-5.32.76c-6.13.86-6.28,1-1.52,1.31,4.26.31,4,.31-2.53.36-3.9.05-13.22.25-20.76.5-12.25.46-11.24.46,9.62.26,12.81-.1,26.63-.51,30.74-.81,5.67-.46,8.25-.46,10.88,0,1.88.3,24.61,4.35,50.49,9,91.6,16.41,97.37,17.11,136.11,17.22,26,.05,23.75.7,24-7.19a25.53,25.53,0,0,1,.76-6.18c.71-1.27,3.44-3,4.76-3,.56,0,.86-.1.71-.3s-5.72-.71-12.36-1.22c-15-1.21-29.27-2.58-29.47-2.73-.61-.66,6.64-2.08,13.52-2.64,22.69-1.92,37.42-4.86,43-8.66l1.32-.91-1.77-.3c-1.17-.2-.16-.36,2.83-.41,12.1-.15,40.51-1.92,41.68-2.58.91-.5-8.81-1.11-18.54-1.21-4,0-7.24,0-7.24,0s.51-1.07,1.17-2.33a15.56,15.56,0,0,1,4.15-4.76,119.62,119.62,0,0,0,15.44-15.45c4.41-5.92,7.09-12.56,7.09-17.52,0-2.07-3.29-13.52-4.56-16-.65-1.16-.75-1-2,2.84-3.29,9.77-9.67,19.14-21.32,31.34-5,5.27-5.11,5.37-4.56,6.94s.66,8.1.16,9.87c-.36,1.07-.71,1-9.73-2.93-38.33-16.46-72-25.73-103.9-28.56l-3.85-.36-6.79-9.42c-20.81-29-38.28-51-46.58-58.58-10.33-9.42-25-3.09-44.61,19.14C759,627,746.49,644.43,725,677.74c-5.52,8.51-10.59,16-11.3,16.61l-1.26,1.17-.86-1.42c-2.74-4.51-7.45-19.5-10.84-34.58-4.91-21.58-9.21-49.53-11.7-76C687.24,564.32,687,559.26,687,540c0-17,.15-20.71.91-24.71a44.19,44.19,0,0,1,6.18-16c1.26-2,2.68-4.35,3.14-5.32a15.57,15.57,0,0,1,3.9-4.1c17.36-13.11,19-46.94,3.84-79.29C692.05,383,670.28,363.9,650.78,363A31.32,31.32,0,0,0,642.88,363.49Zm15.35,9.93C669,377,681.52,388.26,690.33,402a110.68,110.68,0,0,1,13.37,30.84,74.37,74.37,0,0,1,2.63,23.75c-.4,11-2.83,18.17-8.05,23.9C688.71,491,672,487.6,656.1,471.91c-17.27-17.07-28.66-43.6-28.76-67.1-.05-12.76,2.78-21.77,8.61-27.59S648.86,370.23,658.23,373.42ZM682.18,502.9a25.23,25.23,0,0,1-1,2.93c-6.94,18.44-2.54,90.34,9.06,146.7,3.59,17.57,8.25,34.23,11.7,41.87a25,25,0,0,1,1.46,3.65c0,.76-6.53-1.42-9.46-3.14-4.71-2.79-13.57-11.95-18-18.68-8.2-12.41-15.39-30.13-19.29-47.6-3.29-14.79-4.36-24.06-4.71-40.36-.36-17.52.61-29.12,3.69-44.21,2.49-12.15,8.56-31,10.79-33.62.71-.81,14.43-7.9,15.39-7.9A.35.35,0,0,1,682.18,502.9ZM811.5,595.76a63.28,63.28,0,0,1,7,6.94c10.08,11.19,18.89,22.53,36,45.93l8.46,11.64-13,.31a214.43,214.43,0,0,0-27.45,2c-19.65,2.49-43.24,8.26-67.85,16.56-8,2.74-29,10.53-30.59,11.34-.71.41-.86.36-.5-.2,6.53-10.68,27.19-41.52,34.94-52.1C783.25,604.12,801.88,589.23,811.5,595.76Zm72.06,72.11a287.91,287.91,0,0,1,52.31,12c8.91,2.89,22.83,7.9,23.44,8.51s-7.9,2-11.7,2a27.14,27.14,0,0,1-5.36-.55c-2-.51-2.38-.41-4.71,1a14.1,14.1,0,0,1-3.09,1.57,6.7,6.7,0,0,1-2.38-1.62c-1.12-1-2-1.37-2.18-1.07s-1.92,2.38-3.9,4.66l-3.54,4.16-12.16-.36c-6.68-.15-12.3-.4-12.5-.56-.51-.25-10.48-13.31-17.47-22.78C873.74,665.9,873.43,666.55,883.56,667.87Zm90.69,26.43c4.35,1.83,8.15,3.55,8.45,3.8s-3.74.41-8.91.41-11.54.1-14.18.25c-4.65.3-4.76.3-3.49-.61.66-.51,3.09-2.33,5.32-4a36.53,36.53,0,0,1,4.45-3.14A88.61,88.61,0,0,1,974.25,694.3Zm-200.77,5.57a2.72,2.72,0,0,1-1.27,0c-.36-.15-.1-.25.61-.25S773.78,699.72,773.48,699.87Zm5.26.46a1,1,0,0,1-1,0c-.41-.15-.25-.31.3-.31S778.94,700.18,778.74,700.33Zm-20,2.58a30.85,30.85,0,0,1-4.3,0c-1.22-.1-.26-.2,2.12-.2S760,702.81,758.79,702.91Z"/><path d="M675.06,401.79c2.36,1.82,4,5.79,3.32,8.17s-2.89,2.17-5.21-.15c-2.76-2.76-3.69-7.47-1.73-8.77C672.24,400.49,673.79,400.83,675.06,401.79Z"/><path d="M701.32,453.43C695.85,457.68,687,458.34,680,455l-2.94-1.41-.76,1.06c-1.11,1.57-.86,2.23,1.22,3.24a26.37,26.37,0,0,0,15.75,2.68c3.34-.55,8.55-2.73,10.58-4.4l1.11-1-1.16-1.42-1.11-1.47Z"/><path d="M733.22,695.31a2.48,2.48,0,0,0,1.27,0c.3-.15,0-.25-.66-.25S732.86,695.16,733.22,695.31Z"/><path d="M741.32,695.82a2.72,2.72,0,0,0,1.27,0c.3-.15,0-.25-.66-.25S741,695.67,741.32,695.82Z"/><path d="M745.63,696.33a3.83,3.83,0,0,0,1.51,0c.31-.15,0-.26-.91-.26S745.12,696.18,745.63,696.33Z"/><path d="M750.69,696.83a4.79,4.79,0,0,0,1.77,0c.46-.15,0-.25-.91-.25S750.18,696.68,750.69,696.83Z"/><path d="M755,697.34a8.7,8.7,0,0,0,2.28,0c.61-.1.1-.2-1.16-.2S754.33,697.24,755,697.34Z"/><path d="M744.36,697.85a2.72,2.72,0,0,0,1.27,0c.3-.16,0-.26-.66-.26S744,697.69,744.36,697.85Z"/><path d="M747.5,698.51a11.11,11.11,0,0,0,2.53.4c1.11,0,1.11,0-.25-.4a13.15,13.15,0,0,0-2.53-.41C746.44,698.1,746.49,698.2,747.5,698.51Z"/><path d="M722.33,699.37a5.26,5.26,0,0,0,1.77,0c.46-.16.06-.26-.91-.26S721.83,699.21,722.33,699.37Z"/><path d="M730.18,699.87a6.9,6.9,0,0,0,2,0c.45-.15-.05-.25-1.17-.2S729.52,699.77,730.18,699.87Z"/><path d="M735.24,700.38a15.42,15.42,0,0,0,3,0c.76-.1,0-.2-1.67-.2S734.33,700.28,735.24,700.38Z"/><path d="M702.84,708.48a1,1,0,0,0,1-.05c.2-.15-.1-.3-.66-.25S702.43,708.33,702.84,708.48Z"/><path d="M645.06,710a21,21,0,0,0,3.55,0c1.06-.1.35-.2-1.62-.2S644.2,709.9,645.06,710Z"/><path d="M653,710a5.26,5.26,0,0,0,1.77,0c.46-.15,0-.25-.91-.25S652.45,709.85,653,710Z"/><path id="Pfad_1116" data-name="Pfad 1116" class="cls-1" d="M1161.73,316.91a25.94,25.94,0,1,0,25.94,25.94,25.94,25.94,0,0,0-25.94-25.94Zm-9.13,12.22c1.19-1.78,4.09-3.15,7.4-3.48s6.48.49,8.19,2.21a3.72,3.72,0,0,1,.41.48,7.1,7.1,0,0,1-1.73,1.24c-2.13,1.28-5.55,3.34-5.29,7.86a5.55,5.55,0,0,0-3.11,1.09c-5.45-5.18-6.64-8.24-5.87-9.4Zm1.74,28.79c-2.13-.13-4.76-2-6.7-4.65s-2.83-5.86-2.2-8.21a3.86,3.86,0,0,1,.21-.6,8.16,8.16,0,0,1,1.95.88c2.18,1.21,5.67,3.14,9.46.66a5.55,5.55,0,0,0,2.48,2.14c-1.74,7.31-3.85,9.83-5.2,9.78Zm7.44-11.76a3.14,3.14,0,1,1,3.14-3.14h0a3.14,3.14,0,0,1-3.14,3.14Zm15.93,4c-1.41,3.14-3.66,5.38-6,6a4.62,4.62,0,0,1-.63.11,7.2,7.2,0,0,1-.2-2.12c0-2.49-.12-6.49-4.17-8.53a5.38,5.38,0,0,0,.67-2.6,4.2,4.2,0,0,0-.06-.61c7.23-2.14,10.5-1.58,11.08-.39.95,1.92.68,5.1-.68,8.12Z"/><g id="Gruppe_30" data-name="Gruppe 30"><path id="Pfad_1117" data-name="Pfad 1117" class="cls-1" d="M1223.07,235.63l-1.89,3.29,1.89,3.28h3.8l1.89-3.28-1.89-3.29Z"/><path id="Pfad_1118" data-name="Pfad 1118" class="cls-1" d="M1210.68,265.69a.93.93,0,0,1-.38-.76V241.21a2.7,2.7,0,0,0-2.69-2.7h-3a2.7,2.7,0,0,0-2.69,2.7v23.72a.92.92,0,0,1-.39.76,7.73,7.73,0,1,0,10.8,1.69A7.53,7.53,0,0,0,1210.68,265.69Zm-4.55,12.11a5.87,5.87,0,0,1-2-11.38v-20.6a1.48,1.48,0,0,1,1.48-1.48h1a1.48,1.48,0,0,1,1.48,1.48h0v20.6a5.87,5.87,0,0,1-2,11.38Z"/><path id="Pfad_1119" data-name="Pfad 1119" class="cls-1" d="M1210.64,217.18a36.64,36.64,0,1,0,36.64,36.64,36.64,36.64,0,0,0-36.64-36.64Zm-17.26,25.51a.78.78,0,0,1,.77-.78h1.59a.78.78,0,0,1,.78.78v.84a.77.77,0,0,1-.78.77h-1.59a.77.77,0,0,1-.77-.77Zm0,5a.78.78,0,0,1,.77-.78h1.59a.78.78,0,0,1,.78.78h0v.84a.77.77,0,0,1-.78.77h-1.59a.77.77,0,0,1-.77-.77h0Zm0,5a.77.77,0,0,1,.77-.77h1.59a.77.77,0,0,1,.78.77h0v.84a.77.77,0,0,1-.78.77h-1.59a.77.77,0,0,1-.77-.77h0Zm0,5a.77.77,0,0,1,.77-.77h1.59a.77.77,0,0,1,.78.77v.84a.78.78,0,0,1-.78.78h-1.59a.78.78,0,0,1-.77-.78h0Zm2.36,6.66h-1.59a.78.78,0,0,1-.77-.78h0v-.84a.77.77,0,0,1,.77-.77h1.59a.77.77,0,0,1,.78.77v.84a.78.78,0,0,1-.78.78Zm19.24,11.2a9.61,9.61,0,1,1-17.72-7.46c.1-.24.21-.47.33-.7a9.73,9.73,0,0,1,2.48-3V241.21a4.58,4.58,0,0,1,4.58-4.58h2.95a4.58,4.58,0,0,1,4.58,4.58v23.26a9.63,9.63,0,0,1,2.81,11.2Zm18-36.07h-2.25l.76,1.33a.69.69,0,0,1-.25.94h0a.73.73,0,0,1-.35.09.68.68,0,0,1-.59-.34l-.77-1.33-1.1,1.91H1230a.69.69,0,1,1,0,1.37h-1.53l1.12,2a.69.69,0,1,1-1.19.69h0l-1.12-2-.77,1.33a.69.69,0,0,1-1.19-.69l.77-1.33h-2.2l.76,1.33a.69.69,0,1,1-1.19.69l-.76-1.33-1.13,2a.69.69,0,0,1-1.19-.69l1.13-2H1220a.69.69,0,0,1,0-1.37h1.54l-1.11-1.91-.76,1.33a.7.7,0,0,1-.6.34.73.73,0,0,1-.35-.09.69.69,0,0,1-.25-.94h0l.77-1.33h-2.25a.69.69,0,1,1,0-1.37h2.25l-.77-1.33a.69.69,0,0,1,.25-.94.7.7,0,0,1,.94.25l.77,1.33,1.1-1.91H1220a.69.69,0,1,1,0-1.37h1.53l-1.12-1.95a.69.69,0,0,1,1.19-.69h0l1.12,1.95.77-1.33a.69.69,0,1,1,1.19.69l-.77,1.33h2.21l-.77-1.33a.69.69,0,0,1,1.19-.69l.77,1.33,1.12-1.95a.69.69,0,0,1,.94-.25.7.7,0,0,1,.26.94l-1.13,1.95H1230a.69.69,0,1,1,0,1.37h-1.53l1.1,1.91.77-1.33a.7.7,0,0,1,.94-.25.69.69,0,0,1,.25.94h0l-.77,1.33H1233a.69.69,0,0,1,.69.69.68.68,0,0,1-.69.68Z"/></g><g id="Gruppe_32" data-name="Gruppe 32"><path id="Pfad_1120" data-name="Pfad 1120" class="cls-2" d="M1080.86,393.91a18.43,18.43,0,0,1-2.95-5.42A13.85,13.85,0,0,0,1075,394a29,29,0,0,0-.55,6.51,1.43,1.43,0,0,1-1.43,1.43h0a5.21,5.21,0,0,1-4.72-3.42,11.66,11.66,0,0,0-.91,4.55c0,.21,0,.39,0,.56a8.61,8.61,0,1,0,17.18,1.09,6.61,6.61,0,0,0,0-1.09c0-.27,0-.51,0-.76A16.27,16.27,0,0,0,1080.86,393.91Z"/><path id="Pfad_1121" data-name="Pfad 1121" class="cls-2" d="M1076,329.7a51.56,51.56,0,1,0,51.56,51.55A51.55,51.55,0,0,0,1076,329.7Zm.08,85.92H1076a25.81,25.81,0,0,1-25.77-25.77c0-.49,0-1,0-1.47.42-14.63,7.63-18.29,7.94-18.44a1.43,1.43,0,0,1,1.91.67,1.47,1.47,0,0,1,.13.42c0,.09,1.34,8.83,7.17,10.08a63.33,63.33,0,0,1,1.47-14.53,36.49,36.49,0,0,1,13.44-19.43,1.44,1.44,0,0,1,2.27,1.17c0,6.68,3.37,11.22,7.27,16.46,4.21,5.67,9,12.1,9.76,22.35,0,0,.15,2,.15,2.71a25.8,25.8,0,0,1-25.69,25.78Z"/></g><path id="Pfad_1122" data-name="Pfad 1122" class="cls-2" d="M1152.39,149.48a28.86,28.86,0,1,0,28.86,28.86,28.87,28.87,0,0,0-28.86-28.86Zm10.16,29.38,2.89,5.72h-12.09v-6.25h8.33A1,1,0,0,1,1162.55,178.86Zm-7-7.55a1,1,0,0,1,1.37,0h0l1.52,1.52a1,1,0,0,1-1.38,1.37l-1.51-1.51a1,1,0,0,1,0-1.37Zm5.39-3.16a1,1,0,0,1-1,1h-2.14a1,1,0,0,1,0-1.94H1160a1,1,0,0,1,1,1Zm-5.39-4.54,1.51-1.51a1,1,0,0,1,1.38,0,1,1,0,0,1,0,1.37l0,0-1.52,1.51a1,1,0,0,1-1.37,0,1,1,0,0,1,0-1.38Zm-4.14-3a1,1,0,0,1,1.95-.06v2.2a1,1,0,0,1-1.95,0Zm1,4a3.56,3.56,0,1,1-3.57,3.56,3.56,3.56,0,0,1,3.57-3.56Zm-3.17,8.1-1.51,1.51a1,1,0,0,1-1.37,0,1,1,0,0,1,0-1.34l1.52-1.52a1,1,0,1,1,1.4,1.35l0,0Zm-2.88-10.59a1,1,0,0,1,1.37,0h0l1.51,1.51a1,1,0,1,1-1.34,1.41l0,0-1.51-1.51a1,1,0,0,1,0-1.38Zm-1.54,5.08h2.14a1,1,0,1,1,0,1.94h-2.14a1,1,0,0,1,0-1.94Zm6.61,25.6h-14.64a1,1,0,0,1-1-1,1,1,0,0,1,.11-.44l2.44-4.84h13.07Zm0-8.2h-12.08l2.89-5.72a1,1,0,0,1,.86-.53h8.33Zm1-7.88a1,1,0,0,1-1-1v-2.14a1,1,0,0,1,1.95,0v2.15a1,1,0,0,1-1,1h0ZM1168,192.78h-14.65v-6.26h13.07l2.45,4.85a1,1,0,0,1-.87,1.41Z"/><path id="Pfad_1123" data-name="Pfad 1123" class="cls-3" d="M952.92,186.3a54.49,54.49,0,1,0,54.48,54.49,54.49,54.49,0,0,0-54.48-54.49Zm-24.09,35.76a1,1,0,0,1,.53-1.31,27.38,27.38,0,0,1,11-2.14,13.38,13.38,0,0,1,9.59,3.43,9.27,9.27,0,0,1,2,9.67l-.06.16a54.77,54.77,0,0,0-11.82-8.2h0a1,1,0,1,0-1,1.73l.05,0a52.13,52.13,0,0,1,11.74,8.23,9.67,9.67,0,0,1-7.7,3.82,8.26,8.26,0,0,1-7-3.69,10.1,10.1,0,0,1-1.09-2.33c-.17-.52-.32-1-.46-1.53-.19-.67-.37-1.31-.61-1.92a10.85,10.85,0,0,0-4.68-5.47,1,1,0,0,1-.41-.48Zm24,41.13a8.31,8.31,0,0,1-2.9,11.38l-8,4.74a1,1,0,0,1-1.37-.34h0l-1.61-2.7-3.89,2.31a1,1,0,1,1-1-1.72l3.9-2.31-3.22-5.41-3.89,2.31,0,0a1,1,0,0,1-1.06-1.7l.06,0,3.89-2.32-1.61-2.7a1,1,0,0,1,.34-1.38h0l8-4.74a8.32,8.32,0,0,1,11.21,2.61c4.66-5.91,6.5-11.58,5.48-16.85a17.53,17.53,0,0,0-2.56-6.17.92.92,0,0,1-.26-.38,27.24,27.24,0,0,0-3.52-4.14,8.54,8.54,0,0,0,1-1.79,32.17,32.17,0,0,1,2.71,2.89,37.18,37.18,0,0,1,1.57-6.57h0a12.1,12.1,0,0,0,1.61,1.51,35.58,35.58,0,0,0-1.43,7.44,19.37,19.37,0,0,1,2.82,6.84c1.17,6-1,12.45-6.35,19ZM982.81,211a14.73,14.73,0,0,0-5.64,7.94c-.23.84-.39,1.71-.57,2.62-.12.68-.25,1.37-.42,2.05a12.09,12.09,0,0,1-1.13,3.13,10.72,10.72,0,0,1-9.68,5.58h-.21a12.51,12.51,0,0,1-7.43-2.58c.25-.8.54-1.62.86-2.46,2.78-6.91,7.4-11.11,13.71-12.46a1,1,0,0,0-.42-1.95c-6.92,1.48-12.17,6.23-15.16,13.72-.23.55-.42,1.1-.61,1.64a10.72,10.72,0,0,1-1.56-2.32,11.93,11.93,0,0,1,1.4-12.62c2.48-3,6.63-5,12-5.55a35.76,35.76,0,0,1,14.57,1.49,1,1,0,0,1,.69.81h0a1,1,0,0,1-.4,1Z"/><path id="Pfad_1124" data-name="Pfad 1124" class="cls-3" d="M1062.5,139.32c-21,0-38.08,15.83-38.08,35.36s17,35.35,38.08,35.35,38.08-15.82,38.08-35.35-17-35.36-38.08-35.36Zm-14.63,25.28h29.27a5.87,5.87,0,1,1,0,11.71h-29.27a2.61,2.61,0,1,0,0,5.2h29.27a5.87,5.87,0,1,1,0,11.71h-33.85a1.63,1.63,0,1,1,0-3.26h33.83a2.61,2.61,0,1,0,0-5.2h-29.27a5.87,5.87,0,1,1,0-11.71h29.27a2.61,2.61,0,1,0,0-5.2h-29.27a5.87,5.87,0,1,1,0-11.71h33.82a1.63,1.63,0,1,1,0,3.25h-33.84a2.61,2.61,0,1,0,0,5.2Z"/><g id="Gruppe_35" data-name="Gruppe 35"><path id="Pfad_1125" data-name="Pfad 1125" class="cls-1" d="M1086.49,269.85l-4.33,7.5,4.33,7.5h8.67l4.33-7.5-4.33-7.5Z"/><path id="Pfad_1126" data-name="Pfad 1126" class="cls-1" d="M1090.82,237.54a39.81,39.81,0,1,0,39.81,39.81,39.81,39.81,0,0,0-39.81-39.81Zm18.34,41.38H1104l1.75,3a1.57,1.57,0,1,1-2.72,1.57l-1.75-3-2.51,4.36h3.5a1.58,1.58,0,0,1,0,3.15h-3.5l2.56,4.45a1.57,1.57,0,0,1-2.72,1.57l-2.56-4.45-1.76,3a1.57,1.57,0,0,1-2.72-1.57l1.75-3h-5l1.75,3a1.57,1.57,0,1,1-2.7,1.6l0,0-1.75-3L1083,294a1.57,1.57,0,0,1-2.72-1.57l2.57-4.45h-3.5a1.58,1.58,0,0,1,0-3.15h3.5l-2.52-4.36-1.75,3a1.56,1.56,0,0,1-2.14.58,1.58,1.58,0,0,1-.58-2.15l1.75-3h-5.13a1.57,1.57,0,0,1,0-3.14h5.13l-1.75-3a1.57,1.57,0,1,1,2.7-1.61l0,0,1.75,3,2.52-4.36h-3.5a1.58,1.58,0,0,1,0-3.15h3.5l-2.57-4.45a1.57,1.57,0,0,1,2.72-1.57l2.57,4.45,1.75-3a1.57,1.57,0,0,1,2.72,1.57l-1.75,3h5l-1.75-3a1.57,1.57,0,0,1,2.72-1.57l1.75,3,2.57-4.45a1.58,1.58,0,0,1,2.14-.6,1.56,1.56,0,0,1,.6,2.14l0,0-2.57,4.45h3.5a1.58,1.58,0,1,1,0,3.15h-3.5l2.52,4.36,1.75-3a1.57,1.57,0,0,1,2.74,1.53l0,0-1.75,3h5.14a1.57,1.57,0,0,1,0,3.14Z"/></g><path id="Pfad_1127" data-name="Pfad 1127" class="cls-1" d="M970.65,314.08a42.19,42.19,0,1,0,42.19,42.19,42.19,42.19,0,0,0-42.19-42.19Zm11.18,69.37a4,4,0,0,1-4-4,3.71,3.71,0,0,1,.19-1.19.2.2,0,0,1,0-.11l2.31-7.39a1.54,1.54,0,0,1,2.93,0l2.29,7.28a1.11,1.11,0,0,1,.07.26,4,4,0,0,1-2.66,5,4.12,4.12,0,0,1-1.16.17Zm5.42-17.28a1.53,1.53,0,0,1-1.53,1.54h-7.58a1.54,1.54,0,0,1-1.54-1.53h0v-2.6a1.55,1.55,0,0,1,1.23-1.51v-2.93a.94.94,0,0,0-1-.95h-.31a8.09,8.09,0,0,1-14.1,0H950.82a1.54,1.54,0,0,1-1.54-1.54h0v-5.06a1.54,1.54,0,0,1,1.54-1.54h11.81a8.1,8.1,0,0,1,4.19-3.39v-1.91a1.63,1.63,0,0,1,0-.31h-4.12a1.53,1.53,0,0,1-1.54-1.53h0v-2.2a1.54,1.54,0,0,1,1.54-1.54h4.09V339a1.53,1.53,0,0,1,1.53-1.53h2.34a1.52,1.52,0,0,1,1.53,1.53v.19h4.09a1.54,1.54,0,0,1,1.54,1.54h0v2.2a1.53,1.53,0,0,1-1.53,1.53h-4.13a1.63,1.63,0,0,1,0,.31v1.91a8.06,8.06,0,0,1,4.19,3.39h3a6.56,6.56,0,0,1,6.55,6.56v5.46a1.53,1.53,0,0,1,1.34,1.52Z"/><path d="M756.58,388c-7.13,0-12.93-4.81-12.93-10.71s5.8-10.72,12.93-10.72,12.94,4.81,12.94,10.72S763.71,388,756.58,388Zm0-15.9c-3.86,0-7.12,2.37-7.12,5.19s3.26,5.18,7.12,5.18,7.13-2.37,7.13-5.18S760.44,372.1,756.58,372.1Z"/><path d="M797.9,379.45c-13.42,0-24.34-9.1-24.34-20.27s10.92-20.27,24.34-20.27,24.34,9.09,24.34,20.27S811.32,379.45,797.9,379.45Zm0-33.8c-9.42,0-17.09,6.07-17.09,13.53s7.67,13.53,17.09,13.53S815,366.64,815,359.18,807.33,345.65,797.9,345.65Z"/><path d="M1076.17,472.36a92.76,92.76,0,0,1-31-5.3c-16.31-5.78-27.12-14.89-37.57-23.7a171.47,171.47,0,0,1-13.13-12.3,50.42,50.42,0,0,1-26.91,9.26c-15.9.59-27-6.78-31.68-9.92a60.08,60.08,0,0,1-17.1-17.33,99.41,99.41,0,0,1-47-18.77c-17.64-13.14-29.89-30.75-35.43-50.92-6.5-23.7-1.56-42.94.55-51.15,7.58-29.5,26.08-49,37.7-58.87a74.11,74.11,0,0,1,1.77-41.76A69,69,0,0,1,891,167c4.59-4.79,21.49-20.37,46.39-19.84a61,61,0,0,1,25,6.1,98.19,98.19,0,0,1,28.28-29.64,103.16,103.16,0,0,1,120,5.08,57,57,0,0,1,50.66-18.58c19.94,3.24,31.58,16.67,35.65,22.29a55.43,55.43,0,0,1,8.41,17.31,84.33,84.33,0,0,1,12.73,2.42c20.3,5.47,33.25,17.15,38.13,21.54a102,102,0,0,1,31.36,52.06,96.17,96.17,0,0,1-21.21,87.22,112.19,112.19,0,0,1-28.09,24.18,58.74,58.74,0,0,1-2.33,33.77A62.06,62.06,0,0,1,1211.42,400c-9.86,6-19.24,7.68-27.52,9.17a105.63,105.63,0,0,1-16.48,1.62,76,76,0,0,1-3.24,8.18c-8.88,19-23.45,29.12-31.28,34.55-6.73,4.66-20.74,14.38-41.88,17.73A96.12,96.12,0,0,1,1076.17,472.36Zm-80.89-52.18,2.56,2.79a164.33,164.33,0,0,0,14.89,14.25c9.91,8.34,20.15,17,35.08,22.27a87.23,87.23,0,0,0,42,3.78c19.32-3.07,32.31-12.07,38.55-16.4,7.21-5,20.63-14.3,28.58-31.34a66.78,66.78,0,0,0,3.69-9.89l.84-2.94,3.06,0a96.16,96.16,0,0,0,18-1.51c7.58-1.36,16.18-2.9,24.76-8.12a53.5,53.5,0,0,0,21.22-25.1,50.79,50.79,0,0,0,1.34-31.73l-.86-3,2.73-1.56a104.26,104.26,0,0,0,28.54-23.9,91.43,91.43,0,0,0,18.51-33.11,92.55,92.55,0,0,0,1.06-47.09,93.92,93.92,0,0,0-28.92-48c-4.91-4.43-16.41-14.79-34.85-19.76a78.48,78.48,0,0,0-14.14-2.44l-2.92-.23-.67-2.86a47.91,47.91,0,0,0-7.82-17.24C1187,132.27,1177,120.77,1160,118c-16-2.6-28.6,4.07-34.68,8.28a48.6,48.6,0,0,0-10.94,10.45l-2.56,3.35-3.22-2.72a95,95,0,0,0-113.45-7.13,90,90,0,0,0-27.76,30.27l-2,3.49L962,162a53.36,53.36,0,0,0-24.79-6.89c-21.63-.48-36.41,13.17-40.42,17.36a60.74,60.74,0,0,0-12.88,21.72,66.52,66.52,0,0,0-1,39.53l.7,2.54L881.56,238c-10.61,8.57-29.52,27.26-37,56.27-2,7.6-6.52,25.39-.58,47,5.06,18.43,16.29,34.55,32.48,46.61a91.48,91.48,0,0,0,45,17.45l2,.21,1,1.7a52.34,52.34,0,0,0,15.76,16.5c4.07,2.71,13.59,9.08,26.92,8.57a42.85,42.85,0,0,0,25.13-9.71Z"/><path d="M723.31,403.9c-7.13,0-12.93-4.81-12.93-10.72s5.8-10.71,12.93-10.71,12.94,4.81,12.94,10.71S730.45,403.9,723.31,403.9Zm0-15.9c-3.86,0-7.12,2.37-7.12,5.18s3.26,5.19,7.12,5.19,7.13-2.37,7.13-5.19S727.18,388,723.31,388Z"/><rect class="cls-4" width="1788.25" height="735.47"/></g></g></svg>