<?xml version="1.0" encoding="utf-8"?>
<!-- Generator: Adobe Illustrator 25.2.3, SVG Export Plug-In . SVG Version: 6.00 Build 0)  -->
<svg version="1.1" id="Ebene_1" xmlns="http://www.w3.org/2000/svg" xmlns:xlink="http://www.w3.org/1999/xlink" x="0px" y="0px"
	 viewBox="0 0 566.9 566.9" style="enable-background:new 0 0 566.9 566.9;" xml:space="preserve">
<style type="text/css">
	.st0{fill:#CAFF70;}
</style>
<g id="Ebene_2_1_">
	<g id="Ebene_2-2">
		<path class="st0" d="M283.6,245.1c-9,0-16.6,4.3-22.7,12.6c-6.1,8.4-9.2,19.4-9.2,33.1c0,11.1,2.2,20.4,6.6,27.8
			s10.1,11.2,17.2,11.2c10.4,0,19.4-5.1,26.9-15.2s11.5-22.3,11.4-34.9c0-10.5-3.1-18.9-9.2-25.2S291.5,245.1,283.6,245.1z"/>
		<path class="st0" d="M283.5,0C126.9,0,0,126.9,0,283.5S126.9,567,283.5,567s283.4-127,283.4-283.5S440,0,283.5,0z M417.8,339.5
			c-18.1,21.8-39.7,32.6-64.6,32.6c-16.9,0-29.8-6.5-38.5-19.6c-11.6,13.6-25.5,20.5-41.8,20.5c-18.2,0-33.8-7.6-46.8-23.1
			s-19.4-35.6-19.4-60.7c0-25.7,7.3-46.7,21.9-63s32.1-24.5,52.6-24.5c12.9,0,24.8,4.4,35.6,13.3l2.7-9.9h42.6l-12.4,101.1
			c-0.7,6-1.1,12-1.1,18c0,6.3,2.9,9.4,8.8,9.4c10.8,0,21.3-6.8,31.3-20.5s15.1-30.8,15.1-51.3c0-30.1-11-55-32.9-74.8
			s-48.9-29.7-80.7-29.7c-34.6,0-63.7,12.1-87.4,36.2s-35.6,54.2-35.6,90.3c0,33.2,11.1,62.1,33.2,86.7c22.2,24.6,53.5,37,94,37
			c25.4,0,51.4-5.7,78.1-17.2c10.1-4.3,21.7,0.4,26,10.5s-0.4,21.7-10.5,26l0,0c-30.6,13.1-61.8,19.6-93.6,19.6
			c-52.7,0-94.7-16-125.8-48.1S121.9,328,122,283.5c0-46.4,16.3-85.2,49-116.4s72.2-46.8,118.6-46.8c44.2,0,81.1,13.7,110.9,41.1
			C430.1,189,445,222.1,445,261C445,291.7,435.9,317.8,417.8,339.5z"/>
	</g>
</g>
</svg>
