<svg xmlns="http://www.w3.org/2000/svg" viewBox="0 0 573.39 1000"><defs><style>.cls-1{fill:#010101;}</style></defs><g id="Ebene_2" data-name="Ebene 2"><g id="Ebene_1-2" data-name="Ebene 1"><g id="Ebene_2-2" data-name="Ebene 2"><g id="Ebene_2-2-2" data-name="Ebene 2-2"><path class="cls-1" d="M46.84.92c1,1,.69,3.37,1.44,5.54,2,5.61,1.71,9.06,8.36,13.14,5.34,3.28,8.57,12.72,12,20.94,1.92,4.63,8,17.43,11.08,24.38,14.34,32.08,46.73,71.9,68.59,97.76,33.53,39.64,69.56,70,114.53,91.82,7.52,3.66,12.52,5.91,16.4,7.95s3.95,3.14,4.72,2.42c2.29-2.14,2.89-10.82.79-13.82-1.14-1.68-2.31-.9-6-2-35.44-10.84-51.53-44.63-59.26-80.85-1.44-6.79-2.25-38.72-.9-45.59,6.39-32.52,16.86-64.91,46.86-79.64C307.92,22.13,337.4,57,352.22,94.05a173.23,173.23,0,0,1,5,17.44c2.1,9.08,2.59,21,2.73,30.92s.36,22-1.54,31c-3.55,16.65-8.43,31.89-17,45.3-10.36,16.12-22,25.35-39.7,31.35-1.45.51-1.62,4-1.26,6.07.12.61-.3,4.5.26,5.23,1.75-1.05,14-9.57,16-10.92,20.24-13.75,68.91-47.4,81.64-56.65,41.92-30.44,65.87-46.25,91.91-82.5,1.45-2,.34-1.77,2.24-4a57.55,57.55,0,0,1-2.66-5.11c-6.11-11.85-5.85-32.27-6.21-43.65-.23-7.09-3.27-23.21,1.29-26.3,3.13-2.14,5.56,6.31,8.41,10.33s6.92,10.7,16.56,11.13c4.7.22,21.21.36,26.29-.14,8.39-.84,31.09-4.41,35.4,1.37,8.88,11.91-17.13,23.3-26.59,30.94-7.23,5.79-27.19,17.65-38.68,22.21-5.24,2.08-3.47-.91-7.59,6.33-26.18,46.05-102.62,92.5-145.36,121.74-19.21,13.14-36.37,23.33-49.7,35.11-7.22,6.35-2.58-.09-5.27,3.89-6.51,9.63-3.2,12.78-4.64,28.3-.94,10,.34,22.13,1,42.87.82,25.86,2.8,69.9,4.34,99.56,1.44,28.05,1.79,66.36.36,89.12-1.72,27.46-1.54,31.21-10.58,51.76-1,2.18-1.71,1.59-2.61,4,1.22,1.55,3.89,6.72,4.95,8.46,33,54.66,63.05,118.9,75.68,179.92,4.78,23.13,4.34,30.5,5.51,48s-.87,28.69-1.17,42.5c-.12,4.84-2.9,8.35-1.23,8.75,18.93,4.66,49.49-4.24,69.38-7.22,1.44-.22,1.57,1.78,2,4.7A25.21,25.21,0,0,0,448.09,889c4.66,4.83-2.41,8.67-7.31,10.12-2.36.66-5.78,1.44-1.74,2.7,14.76,4.33-39.3,4.18-90.81,2.69-11.65-.35-21.29-2.89-20.61-.34s23.12,5.41,34,8.24c26.15,6.83,42.37,10.12,14.82,6-4.87-.73-41.43-6.47-54.67-8.24s-57.29-9.12-66.22-10.68c-31.25-5.53-63.6-15.08-87.23-15-6.29,0,9.52,2.89,12.7,3.86a181.72,181.72,0,0,0,26,5.36,452.34,452.34,0,0,1,61.34,10.92c5.67,1.44,28.13,5.13,30.72,5.59,10.26,1.82,78.19,9.22,79.18,16.07.39,2.89-6.32,1.94-16.86,2.13-17.44.29-46.61-.78-71.46-2.34-6.17-.38-31.06-2.64-42.94-2.9s-31.35,1.75-44.88-.11c-82.53-11.32-106.84-14-100.2-9.53,1.31.87,13.56,9.76,22.22,12.27,21.29,6.15,83,15,98.85,15.9,18.88,1,13.91.7,20.34,5.93,2.27,1.85-1.36,1.13.55,1.68a19.67,19.67,0,0,0,3.58.43,6.21,6.21,0,0,1,3.47,1.2c1.24,1.27,0,2-.81,3.12s-1.63,2-1.23,3.38a6.75,6.75,0,0,1-.78,4.34,25.38,25.38,0,0,1-1.36,2.89c-5.11,1.71-13.53,3.6-18.32,5.15-16.68,5.39-50.33-5.67-64.53-7-8.67-.79-15.78-2-15.9-.82s7.14.88,16.39,2.51c25.18,4.42,2.75.2-18.28-1.44-44.91-3.37-11.42,10.08-20.83,22.65-5.88,7.89-23-8.06-30.67-.09-3.77,3.89,9.35,17.34-.48,13.72S47.7,995.64,36,987.72c-1.44-1-.48-1.34.87-4.52s7.09-12.87,12.28-15.47,9-12.54,12.51-13.85c12.24-4.51,9.64-2.71,25.44,2.27,20.72,6.52,60.34,36.14,27.69,7.77-16-13.87,6.3-2-11.32-8.79-5.94-2.29-18.9-6.52-25.18-8a133.66,133.66,0,0,0-19.77-3.27c-3.7-.22-9.87-.1-9.37-1.16,1.45-3.18,4.54-3.44,11-4.33,8.83-1.33,15.34-2.36,29-4.66s7.63-1.63-5.91-6.36C48,915,12.77,911.43,78.59,894.81c19.34-4.88,91.78,15.5,113.49,18.46,5.18.71,11.81,1.65,6.28-.74-13.74-5.91-53.06-12.83-68.49-15.36-7.92-1.3-9.15-1.22-11.17-2.68s-.09-.82-2.57-1.44-15.28-4.09-16.29-4.34c-5.54-1.37-66.76-15.67-52-21.36,6.52-2.52,17.7-.59,26-.78,2,0,9,.56,11.56.52-.49-.78-2.18-2.59-2.69-3.22-1.11-1.45-2.89-3.5-2.67-5,.72-4.19,4.84-6,8.19-7.44,4.34-1.9,8.33-3.35,11.24-7.36s14.19,2.27,19.68,3.82c2.69.75,17.85,5.78,22.25,5.39,6-.45,8.39,4.25,13.57-.19,16-13.77,18.05-39.34,23.12-65.23,5-25.58,14.63-69.57,26.27-98.29,14.08-34.69,32.19-66.07,56.64-94.14,1.64-1.89,4.48-5.21,6.3-7.06-.54-2.29-.6-.68-1.21-2.81-7.23-25.07-4.52-34.4-5.48-67.41-.5-17.84,2.71-84.44,4.14-102.94,3.74-48.25,6.93-86.73,13.92-125.3,3.35-18.56,5.49-4.6-.58-17.1-2.89-5.86-11.71-5.58-20.61-10.55-22.9-12.78-38.62-20.24-62.5-39.9C151.38,186.54,110.29,133,80.05,84.12c-5.58-9-8.31-12.06-14.77-17-14.69-11.33-34.58-20.71-49-27.4C8.68,36.22,1.13,34.87.11,29.67c-1.2-6.11,8.08-5.26,13.67-6.36,9.16-1.82,24-6.16,27.19-16.88C42.21,2.28,42.64,1.6,44.61.5,46.05-.31,45.85-.12,46.84.92Zm230.68,47c-10.28,2.89-20.34,9.82-28.36,20.82-5.66,7.78-13.12,21.53-16.23,32.63a149.25,149.25,0,0,0,1.82,87.75A113.21,113.21,0,0,0,242,205c21.51,38.2,58.59,51.94,88.17,13.09,8.52-11.17,12.28-22.06,16.23-35.9,3.58-12.56,4.51-25.74,4.26-39.9-.46-25.56-7.37-53.92-23.12-73.71-10.92-13.77-19.52-19.08-35.39-22C286.5,45.48,284.75,45.86,277.52,47.93ZM279,420.25c-2.14,26.39-3.76,70.26-3.86,94-.13,29.21,0,35.52,2.67,59.57.23,2.09.43,1.15.64,3.33.6-2.41.73-1.65,1.44-4.09,8.24-28.76,6.9-56.1,6.26-88.66-.16-8-1.29-38.78-1.81-51.07s-1.44-29.44-2.34-40.47c-.42-5-.27-2.28-.6-6.11-.27,3.83-.29,3.93-.61,8C280.08,403.68,279.93,408.78,279,420.25ZM267.4,601.74c-25,29.29-44.13,62.37-58.2,100.76-9.27,25.28-17.75,63.47-22.48,88.76-4.58,24.57-7.23,46.44-20.13,63.89-3.52,4.71-2.42,2.12-4.34,5.51s-4,3.67-6.76,6.36c-1.31,1.22-4.56,3.73-6,5.24,9.88.83,24.06,2.89,34.12,3.88,50.52,4.62,110.34,12.77,157.12,17.11,19.47,1.79,19.68,1.82,26.66,1.91,9.76.13-.88-1.1-.86-2.6,0-2.27-9.49-4.53-8.5-11.26q1.47-5.76,2.37-11.65c1.85-16.12,3.81-22.09,2.8-42.47C361.15,784.79,351,746,333.1,702.27c-11.5-28-32.79-72.6-50.36-99.54-3.64-5.55-2.46-7.55-7.23-7.23S271.84,596.5,267.4,601.74Zm11,292.64c4.33,3,3.67,4.33-2.55,4.33-7.54,0,22,2.79,27.61,3.6,6.55,1,17.71,1.1-4.76-4.22-17.41-4.12-23.67-6-20.33-3.71Z"/><path class="cls-1" d="M257,174c.34.38.21,4.88.52,7.84.71,6.91,2.29,15.51,8.49,21,9,7.95,19.47,12.33,31.51,7.73,10.64-4.06,15.15-15.36,17.53-25.62.67-2.89.94-6.62,1.45-8.3.66-2.15.5-2.24,2.32-1.82s2,1.62,1.62,4.94c-1.2,11.57-5.92,28.22-17.86,33.58-20.86,9.38-38.9-1.21-48.15-20.24-2.18-4.48-2.28-14.45-.78-18.08C254.55,172.75,255.84,172.58,257,174Z"/><path class="cls-1" d="M317.83,121.29a8.68,8.68,0,0,1-1,3.29,7,7,0,0,1-3.9,2.89,3.42,3.42,0,0,1-2.89-.31,3.74,3.74,0,0,1-2.17-2,8,8,0,0,1-.89-6c.94-2.89,2.18-5.18,5.5-5.45,2.58-.22,4.12,1.73,5.18,4.06A7.59,7.59,0,0,1,317.83,121.29Z"/><path class="cls-1" d="M265.57,120a7.85,7.85,0,0,1-.36,3.05,6.36,6.36,0,0,1-3,3.16,3.14,3.14,0,0,1-2.56.17,3.47,3.47,0,0,1-2.23-1.45,7,7,0,0,1-1.7-5.1c.37-2.63,1.1-4.88,4-5.64,2.24-.59,3.91.89,5.19,2.76A7,7,0,0,1,265.57,120Z"/></g></g></g></g></svg>