<?xml version="1.0" encoding="utf-8"?>
<!-- Generator: Adobe Illustrator 25.2.2, SVG Export Plug-In . SVG Version: 6.00 Build 0)  -->
<svg version="1.1" id="Ebene_1" xmlns="http://www.w3.org/2000/svg" xmlns:xlink="http://www.w3.org/1999/xlink" x="0px" y="0px"
	 viewBox="0 0 777.6 1356.2" style="enable-background:new 0 0 777.6 1356.2;" xml:space="preserve">
<style type="text/css">
	.st0{fill:#010101;}
</style>
<g id="Ebene_2_1_">
	<g id="Ebene_1-2">
		<g id="Ebene_2-2">
			<g id="Ebene_2-2-2">
				<path class="st0" d="M63.5,1.3c1.4,1.4,0.9,4.6,2,7.5c2.7,7.6,2.3,12.3,11.3,17.8C84.1,31,88.4,43.8,93.1,55
					c2.6,6.3,10.8,23.6,15,33.1c19.4,43.5,63.4,97.5,93,132.6c45.5,53.8,94.3,94.9,155.3,124.5c10.2,5,17,8,22.2,10.8
					c5.3,2.8,5.4,4.3,6.4,3.3c3.1-2.9,3.9-14.7,1.1-18.7c-1.5-2.3-3.1-1.2-8.1-2.7c-48.1-14.7-69.9-60.5-80.4-109.7
					c-2-9.2-3.1-52.5-1.2-61.8c8.7-44.1,22.9-88,63.6-108c57.6-28.3,97.6,19,117.7,69.3c2.7,7.8,4.9,15.7,6.8,23.7
					c2.8,12.3,3.5,28.5,3.7,41.9c0.2,13.5,0.5,29.8-2.1,42c-4.8,22.6-11.4,43.3-23.1,61.4c-14.1,21.9-29.8,34.4-53.8,42.5
					c-2,0.7-2.2,5.4-1.7,8.2c0.2,0.8-0.4,6.1,0.4,7.1c2.4-1.4,19-13,21.7-14.8C457,321,523,275.4,540.2,262.8
					c56.9-41.3,89.3-62.7,124.7-111.9c2-2.7,0.5-2.4,3-5.4c-1.3-2.2-2.5-4.6-3.6-6.9c-8.3-16.1-7.9-43.8-8.4-59.2
					c-0.3-9.6-4.4-31.5,1.7-35.7c4.2-2.9,7.5,8.6,11.4,14c3.9,5.5,9.4,14.5,22.5,15.1c6.4,0.3,28.8,0.5,35.7-0.2
					c11.4-1.1,42.2-6,48,1.9c12,16.2-23.2,31.6-36.1,42c-9.8,7.9-36.9,23.9-52.5,30.1c-7.1,2.8-4.7-1.2-10.3,8.6
					c-35.5,62.5-139.2,125.5-197.1,165.1c-26.1,17.8-49.3,31.6-67.4,47.6c-9.8,8.6-3.5-0.1-7.1,5.3c-8.8,13.1-4.3,17.3-6.3,38.4
					c-1.3,13.6,0.5,30,1.4,58.1c1.1,35.1,3.8,94.8,5.9,135c2,38,2.4,90,0.5,120.9c-2.3,37.2-2.1,42.3-14.3,70.2
					c-1.4,3-2.3,2.2-3.5,5.4c1.7,2.1,5.3,9.1,6.7,11.5c44.8,74.1,85.5,161.3,102.6,244c6.5,31.4,5.9,41.4,7.5,65.1
					c1.6,23.7-1.2,38.9-1.6,57.6c-0.2,6.6-3.9,11.3-1.7,11.9c25.7,6.3,67.1-5.8,94.1-9.8c2-0.3,2.1,2.4,2.7,6.4
					c1.2,6.7,4.4,12.9,9.1,17.8c6.3,6.6-3.3,11.8-9.9,13.7c-3.2,0.9-7.8,2-2.4,3.7c20,5.9-53.3,5.7-123.2,3.6
					c-15.8-0.5-28.9-3.9-28-0.5c0.9,3.5,31.4,7.3,46.1,11.2c35.5,9.3,57.5,13.7,20.1,8.1c-6.6-1-56.2-8.8-74.1-11.2
					c-18-2.4-77.7-12.4-89.8-14.5c-42.4-7.5-86.3-20.5-118.3-20.3c-8.5,0,12.9,3.9,17.2,5.2c11.6,3.3,23.3,5.7,35.3,7.3
					c28,3,55.8,8,83.2,14.8c7.7,2,38.2,7,41.7,7.6c13.9,2.5,106,12.5,107.4,21.8c0.5,3.9-8.6,2.6-22.9,2.9
					c-23.7,0.4-63.2-1.1-96.9-3.2c-8.4-0.5-42.1-3.6-58.2-3.9c-16.1-0.4-42.5,2.4-60.9-0.1c-111.9-15.4-144.9-19-135.9-12.9
					c1.8,1.2,18.4,13.2,30.1,16.6c28.9,8.3,112.6,20.3,134.1,21.6c25.6,1.4,18.9,0.9,27.6,8c3.1,2.5-1.8,1.5,0.7,2.3
					c1.6,0.3,3.2,0.5,4.9,0.6c1.7,0.1,3.3,0.6,4.7,1.6c1.7,1.7,0,2.7-1.1,4.2c-1.1,1.5-2.2,2.7-1.7,4.6c0.3,2-0.1,4.1-1.1,5.9
					c-0.5,1.3-1.1,2.7-1.8,3.9c-6.9,2.3-18.3,4.9-24.8,7c-22.6,7.3-68.3-7.7-87.5-9.5c-11.8-1.1-21.4-2.7-21.6-1.1
					c-0.2,1.6,9.7,1.2,22.2,3.4c34.1,6,3.7,0.3-24.8-2c-60.9-4.6-15.5,13.7-28.3,30.7c-8,10.7-31.2-10.9-41.6-0.1
					c-5.1,5.3,12.7,23.5-0.7,18.6c-13.3-4.9-63-5-78.8-15.8c-2-1.4-0.7-1.8,1.2-6.1c1.8-4.3,9.6-17.5,16.7-21c7-3.5,12.2-17,17-18.8
					c16.6-6.1,13.1-3.7,34.5,3.1c28.1,8.8,81.8,49,37.6,10.5c-21.7-18.8,8.5-2.7-15.4-11.9c-8.1-3.1-25.6-8.8-34.1-10.8
					c-8.8-2.1-17.8-3.6-26.8-4.4c-5-0.3-13.4-0.1-12.7-1.6c2-4.3,6.2-4.7,14.9-5.9c12-1.8,20.8-3.2,39.3-6.3s10.3-2.2-8-8.6
					c-47.8-16.7-95.6-21.6-6.3-44.1c26.2-6.6,124.5,21,153.9,25c7,1,16,2.2,8.5-1c-18.6-8-72-17.4-92.9-20.8
					c-10.7-1.8-12.4-1.7-15.1-3.6c-2.7-2-0.1-1.1-3.5-2s-20.7-5.5-22.1-5.9c-7.5-1.9-90.5-21.3-70.5-29c8.8-3.4,24-0.8,35.3-1.1
					c2.7,0,12.2,0.8,15.7,0.7c-0.7-1.1-3-3.5-3.6-4.4c-1.5-2-3.9-4.7-3.6-6.8c1-5.7,6.6-8.1,11.1-10.1c5.9-2.6,11.3-4.5,15.2-10
					c3.9-5.4,19.2,3.1,26.7,5.2c3.6,1,24.2,7.8,30.2,7.3c8.1-0.6,11.4,5.8,18.4-0.3c21.7-18.7,24.5-53.4,31.4-88.5
					c6.8-34.7,19.8-94.4,35.6-133.3c19.1-47,43.7-89.6,76.8-127.7c2.2-2.6,6.1-7.1,8.5-9.6c-0.7-3.1-0.8-0.9-1.6-3.8
					c-9.8-34-6.1-46.7-7.4-91.4c-0.7-24.2,3.7-114.5,5.6-139.6c5.1-65.4,9.4-117.6,18.9-169.9c4.5-25.2,7.4-6.2-0.8-23.2
					c-3.9-7.9-15.9-7.6-28-14.3c-31.1-17.3-52.4-27.5-84.8-54.1C205.3,253,149.6,180.4,108.6,114.1c-7.6-12.2-11.3-16.4-20-23.1
					C68.6,75.7,41.6,62.9,22.1,53.9C11.8,49.1,1.5,47.3,0.1,40.2c-1.6-8.3,11-7.1,18.5-8.6c12.4-2.5,32.5-8.4,36.9-22.9
					c1.7-5.6,2.3-6.6,4.9-8C62.4-0.4,62.2-0.2,63.5,1.3z M376.4,65c-13.9,3.9-27.6,13.3-38.5,28.2c-7.7,10.6-17.8,29.2-22,44.3
					c-11.1,39-10.3,80.5,2.5,119c2.7,7.4,6,14.6,9.8,21.5c29.2,51.8,79.5,70.4,119.6,17.8c11.6-15.1,16.7-29.9,22-48.7
					c4.9-17,6.1-34.9,5.8-54.1c-0.6-34.7-10-73.1-31.4-100c-14.8-18.7-26.5-25.9-48-29.8C388.6,61.7,386.2,62.2,376.4,65L376.4,65z
					 M378.4,570c-2.9,35.8-5.1,95.3-5.2,127.5c-0.2,39.6,0,48.2,3.6,80.8c0.3,2.8,0.6,1.6,0.9,4.5c0.8-3.3,1-2.2,2-5.5
					c11.2-39,9.4-76.1,8.5-120.2c-0.2-10.8-1.7-52.6-2.5-69.3c-0.7-16.7-2-39.9-3.2-54.9c-0.6-6.8-0.4-3.1-0.8-8.3
					c-0.4,5.2-0.4,5.3-0.8,10.8C379.8,547.5,379.6,554.4,378.4,570z M362.6,816.1c-33.9,39.7-59.9,84.6-78.9,136.7
					c-12.6,34.3-24.1,86.1-30.5,120.4c-6.2,33.3-9.8,63-27.3,86.6c-4.8,6.4-3.3,2.9-5.9,7.5c-2.6,4.6-5.4,5-9.2,8.6
					c-1.8,1.7-6.2,5.1-8.1,7.1c13.4,1.1,32.6,3.9,46.3,5.3c68.5,6.3,149.6,17.3,213.1,23.2c26.4,2.4,26.7,2.5,36.2,2.6
					c13.2,0.2-1.2-1.5-1.2-3.5c0-3.1-12.9-6.1-11.5-15.3c1.3-5.2,2.4-10.5,3.2-15.8c2.5-21.9,5.2-30,3.8-57.6
					c-2.8-57.5-16.5-110.1-40.8-169.4c-15.6-38-44.5-98.5-68.3-135c-4.9-7.5-3.3-10.2-9.8-9.8C367.2,808.1,368.7,809,362.6,816.1z
					 M377.6,1213c5.9,4.1,5,5.9-3.5,5.9c-10.2,0,29.8,3.8,37.4,4.9c8.9,1.4,24,1.5-6.5-5.7C381.5,1212.4,373,1209.9,377.6,1213
					L377.6,1213z"/>
				<path class="st0" d="M348.5,236c0.5,0.5,0.3,6.6,0.7,10.6c1,9.4,3.1,21,11.5,28.5c12.2,10.8,26.4,16.7,42.7,10.5
					c14.4-5.5,20.5-20.8,23.8-34.7c0.9-3.9,1.3-9,2-11.3c0.9-2.9,0.7-3,3.1-2.5c2.5,0.6,2.7,2.2,2.2,6.7c-1.6,15.7-8,38.3-24.2,45.5
					c-28.3,12.7-52.8-1.6-65.3-27.5c-3-6.1-3.1-19.6-1.1-24.5C345.2,234.3,347,234.1,348.5,236z"/>
				<path class="st0" d="M431,164.5c-0.1,1.6-0.6,3.1-1.4,4.5c-1.2,1.9-3.1,3.3-5.3,3.9c-1.3,0.4-2.7,0.3-3.9-0.4
					c-1.3-0.5-2.4-1.4-2.9-2.7c-1.5-2.4-1.9-5.4-1.2-8.1c1.3-3.9,3-7,7.5-7.4c3.5-0.3,5.6,2.3,7,5.5
					C431.3,161.3,431.3,162.9,431,164.5z"/>
				<path class="st0" d="M360.2,162.8c0.1,1.4-0.1,2.8-0.5,4.1c-0.8,1.9-2.3,3.4-4.1,4.3c-1.1,0.6-2.3,0.7-3.5,0.2
					c-1.2-0.2-2.3-0.9-3-2c-1.7-1.9-2.5-4.4-2.3-6.9c0.5-3.6,1.5-6.6,5.4-7.6c3-0.8,5.3,1.2,7,3.7
					C359.9,159.9,360.2,161.3,360.2,162.8z"/>
			</g>
		</g>
	</g>
</g>
</svg>
