<?xml version="1.0" encoding="utf-8"?>
<!-- Generator: Adobe Illustrator 25.2.3, SVG Export Plug-In . SVG Version: 6.00 Build 0)  -->
<svg version="1.1" id="Ebene_1" xmlns="http://www.w3.org/2000/svg" xmlns:xlink="http://www.w3.org/1999/xlink" x="0px" y="0px"
	 viewBox="0 0 878.5 1027.1" style="enable-background:new 0 0 878.5 1027.1;" xml:space="preserve">
<style type="text/css">
	.st0{fill:#040506;}
	.st1{fill:#1D6FB7;}
	.st2{fill:#E9630D;}
	.st3{fill:#CAFF70;}
	.st4{fill:#C1181A;}
	.st5{fill:#020203;}
</style>
<g>
	<path id="Pfad_1113" class="st0" d="M641.3,312.7c2.5,1.4,2.2,3.7,1.1,6c-0.5,0.7-1.3,1.2-2.1,1.3c-0.7,0.1-1.5-0.1-2.1-0.6
		c-0.7-0.7-1.1-1.6-1.2-2.6c-0.2-0.7-0.1-1.4,0.2-2C638.1,313.2,639.4,311.6,641.3,312.7z M626.3,312.5c2.5,1.4,2.2,3.7,1.1,6
		c-0.5,0.7-1.3,1.2-2.1,1.3c-0.7,0.1-1.5-0.1-2.1-0.6c-0.7-0.7-1.1-1.6-1.2-2.6c-0.2-0.7-0.1-1.4,0.2-2
		C623.1,313.1,624.4,311.5,626.3,312.5L626.3,312.5z"/>
	<path id="Pfad_1114" class="st0" d="M618.2,355.8c0.3,6.2,4.9,18.4,12.3,17.3s10.8-13.3,12.5-17.3c1-2.4,3-5.6,2.8-3.8
		c-0.7,7.3,2,6.9-5.9,16c-10.1,11.7-23.4,4.7-25.1-12.6c-0.4-3.9-1.2-2.9-0.1-5.4c0.6-1.4,1-1,2,0.1S618.1,353.8,618.2,355.8z"/>
	<path id="Pfad_1115" class="st0" d="M770.1,923.3c-0.3,0.2-0.7,0.2-0.9,0s0.5-0.2,0.6-0.2S770.3,923.1,770.1,923.3z"/>
	<g id="Gruppe_31">
		<path id="Pfad_1116" class="st1" d="M510.9,71.4c-22.7,0-41.1,18.4-41.1,41.1s18.4,41.1,41.1,41.1c22.7,0,41.1-18.4,41.1-41.1l0,0
			C551.9,89.8,533.5,71.4,510.9,71.4z M496.4,90.8c1.9-2.8,6.5-5,11.7-5.5c5.4-0.5,10.3,0.8,13,3.5c0.2,0.2,0.4,0.5,0.6,0.8
			c-0.8,0.8-1.7,1.5-2.7,2c-3.4,2-8.8,5.3-8.4,12.4c-1.8,0.1-3.5,0.7-4.9,1.7C497.1,97.5,495.2,92.7,496.4,90.8L496.4,90.8z
			 M499.2,136.4c-3.4-0.2-7.5-3.1-10.6-7.4c-3.2-4.4-4.5-9.3-3.5-13c0.1-0.3,0.2-0.7,0.4-1c1.1,0.3,2.1,0.8,3.1,1.4
			c3.5,1.9,9,5,15,1c0.9,1.5,2.3,2.7,3.9,3.4C504.7,132.4,501.3,136.4,499.2,136.4L499.2,136.4z M510.9,117.8c-2.8,0-5-2.2-5-5
			s2.2-5,5-5c2.8,0,5,2.2,5,5l0,0C515.9,115.5,513.7,117.8,510.9,117.8z M536.2,124.1c-2.2,5-5.8,8.5-9.5,9.5
			c-0.3,0.1-0.7,0.1-1,0.2c-0.3-1.1-0.4-2.2-0.3-3.4c-0.1-4-0.2-10.3-6.6-13.5c0.7-1.3,1-2.7,1.1-4.1c0-0.3,0-0.6-0.1-1
			c11.4-3.4,16.6-2.5,17.5-0.6C538.7,114.2,538.3,119.2,536.2,124.1L536.2,124.1z"/>
		<g id="Gruppe_30">
			<path id="Pfad_1117" class="st1" d="M778,90.2l-2.1,3.7l2.1,3.7h4.3l2.1-3.7l-2.1-3.7H778z"/>
			<path id="Pfad_1118" class="st1" d="M764.1,123.9c-0.3-0.2-0.4-0.5-0.4-0.8V96.4c0-1.7-1.3-3-3-3h-3.3c-1.7,0-3,1.3-3,3V123
				c0,0.3-0.2,0.6-0.4,0.8c-3.9,2.8-4.7,8.2-1.9,12.1c2.8,3.9,8.2,4.7,12.1,1.9c3.9-2.8,4.7-8.2,1.9-12.1
				C765.5,125,764.9,124.4,764.1,123.9L764.1,123.9z M759,137.4c-3.6,0-6.6-2.9-6.6-6.6c0-2.8,1.7-5.2,4.3-6.2v-23.1
				c0-0.9,0.7-1.7,1.7-1.7h1.2c0.9,0,1.7,0.7,1.7,1.7l0,0v23.1c3.4,1.2,5.2,5,4,8.4C764.3,135.7,761.8,137.5,759,137.4z"/>
			<path id="Pfad_1119" class="st1" d="M764.1,69.5c-22.7,0-41.1,18.4-41.1,41.1s18.4,41.1,41.1,41.1s41.1-18.4,41.1-41.1
				S786.7,69.5,764.1,69.5z M744.7,98.1c0-0.5,0.4-0.9,0.8-0.9l0,0h1.8c0.5,0,0.9,0.4,0.9,0.9v1c0,0.5-0.4,0.9-0.9,0.9h-1.8
				c-0.5,0-0.9-0.4-0.9-0.9v-1H744.7z M744.7,103.8c0-0.5,0.4-0.9,0.9-0.9h1.8c0.5,0,0.9,0.4,0.9,0.8l0,0l0,0v1
				c0,0.5-0.4,0.9-0.9,0.9h-1.8c-0.5,0-0.9-0.4-0.9-0.9l0,0V103.8z M744.7,109.4c0-0.5,0.4-0.9,0.9-0.9h1.8c0.5,0,0.9,0.4,0.9,0.9
				l0,0v0.9c0,0.5-0.4,0.9-0.9,0.9h-1.8c-0.5,0-0.9-0.4-0.9-0.9l0,0V109.4z M744.7,115.1c0-0.5,0.4-0.9,0.9-0.9h1.8
				c0.5,0,0.9,0.4,0.9,0.9v1c0,0.5-0.4,0.9-0.9,0.9h-1.8c-0.5,0-0.9-0.4-0.9-0.9l0,0V115.1z M747.4,122.5h-1.8
				c-0.5,0-0.9-0.4-0.9-0.9l0,0v-1c0-0.5,0.4-0.9,0.9-0.9h1.8c0.5,0,0.9,0.4,0.9,0.9v1C748.2,122.1,747.8,122.5,747.4,122.5z
				 M768.9,135.1c-2.3,5.5-8.6,8.1-14.1,5.7c-5.5-2.3-8.1-8.6-5.8-14.1c0.1-0.3,0.2-0.5,0.4-0.8c0.7-1.3,1.6-2.5,2.8-3.4V96.4
				c0-2.8,2.3-5.1,5.1-5.1h3.3c2.8,0,5.1,2.3,5.1,5.1v26.1C769.5,125.5,770.8,130.7,768.9,135.1L768.9,135.1z M789.1,94.7h-2.5
				l0.9,1.5c0.2,0.4,0.1,0.8-0.3,1l0,0c-0.1,0.1-0.3,0.1-0.4,0.1c-0.3,0-0.5-0.1-0.7-0.4l-0.9-1.5l-1.2,2.2h1.7
				c0.4,0,0.8,0.3,0.8,0.8l0,0c0,0.4-0.3,0.8-0.8,0.8H784l1.3,2.2c0.2,0.4,0.1,0.8-0.3,1c-0.4,0.2-0.8,0.1-1-0.3l0,0l-1.3-2.2
				l-0.9,1.5c-0.2,0.4-0.7,0.5-1.1,0.3c-0.4-0.2-0.5-0.7-0.3-1.1l0.9-1.5h-2.5l0.8,1.5c0.2,0.4,0.1,0.8-0.3,1.1
				c-0.4,0.2-0.8,0.1-1.1-0.3l0,0l-0.9-1.5l-1.3,2.2c-0.2,0.4-0.7,0.5-1,0.3c-0.4-0.2-0.5-0.7-0.3-1v-0.1l1.3-2.2h-1.7
				c-0.4,0-0.8-0.4-0.8-0.8s0.3-0.8,0.8-0.8h1.7l-1.2-2.1l-0.9,1.5c-0.1,0.2-0.4,0.4-0.7,0.4c-0.4,0-0.8-0.3-0.8-0.7
				c0-0.1,0-0.3,0.1-0.4l0,0l0.9-1.5h-2.5c-0.4,0-0.8-0.3-0.8-0.8c0-0.4,0.3-0.8,0.8-0.8h2.5l-0.9-1.5c-0.2-0.4-0.1-0.8,0.3-1.1
				c0.4-0.2,0.8-0.1,1.1,0.3l0.8,1.5l1.2-2.1h-1.7c-0.4,0-0.8-0.3-0.8-0.8c0-0.4,0.3-0.8,0.8-0.8h1.7l-1.2-2.2
				c-0.2-0.4-0.1-0.8,0.2-1.1c0.4-0.2,0.8-0.1,1.1,0.2v0.1l0,0l1.3,2.2l0.8-1.5c0.2-0.4,0.7-0.5,1.1-0.3c0.4,0.2,0.5,0.7,0.3,1.1
				l-0.9,1.5h2.5l-0.9-1.5c-0.2-0.4-0.1-0.8,0.3-1.1c0.4-0.2,0.8-0.1,1.1,0.3l0.9,1.5l1.3-2.2c0.2-0.4,0.7-0.4,1.1-0.2
				c0.3,0.2,0.4,0.6,0.3,1l-1.3,2.2h1.7c0.4,0,0.8,0.3,0.8,0.8c0,0.4-0.3,0.8-0.8,0.8H784l1.2,2.1l0.9-1.5c0.2-0.4,0.7-0.4,1.1-0.2
				c0.3,0.2,0.4,0.6,0.3,1l0,0l-0.9,1.5h2.5c0.4,0,0.8,0.3,0.8,0.8C789.9,94.3,789.5,94.7,789.1,94.7L789.1,94.7z"/>
		</g>
	</g>
	<g id="Gruppe_33">
		<g id="Gruppe_32">
			<path id="Pfad_1120" class="st2" d="M472.3,213.4c-1-1.3-1.8-2.8-2.4-4.3c-1.1,1.3-1.9,2.8-2.3,4.4c-0.3,1.7-0.5,3.4-0.4,5.2
				c0,0.6-0.5,1.1-1.1,1.1l0,0c-1.7-0.1-3.2-1.1-3.8-2.7c-0.5,1.1-0.7,2.4-0.7,3.6c0,0.2,0,0.3,0,0.4c-0.2,3.8,2.6,7,6.4,7.3
				s7-2.6,7.3-6.4l0,0c0-0.3,0-0.6,0-0.9c0-0.2,0-0.4,0-0.6C475,217.9,474,215.4,472.3,213.4z"/>
			<path id="Pfad_1121" class="st2" d="M468.4,162.2c-22.7,0-41.1,18.4-41.1,41.1s18.4,41.1,41.1,41.1s41.1-18.4,41.1-41.1l0,0
				C509.5,180.6,491.1,162.2,468.4,162.2z M468.5,230.7L468.5,230.7c-11.4,0-20.6-9.2-20.6-20.5c0-0.4,0-0.8,0-1.2
				c0.3-11.6,6.1-14.6,6.3-14.7c0.6-0.3,1.2,0,1.5,0.5c0.1,0.1,0.1,0.2,0.1,0.3s1.1,7,5.7,8c-0.1-3.9,0.3-7.8,1.2-11.6
				c1.7-6.2,5.5-11.7,10.7-15.5c0.5-0.4,1.2-0.3,1.6,0.3c0.1,0.2,0.2,0.4,0.2,0.7c0,5.3,2.7,8.9,5.8,13.1c3.4,4.5,7.1,9.6,7.8,17.8
				c0,0,0.1,1.6,0.1,2.2C488.9,221.4,479.7,230.6,468.5,230.7L468.5,230.7z"/>
		</g>
		<path id="Pfad_1122" class="st2" d="M806.5,162.2c-22.7,0-41.1,18.4-41.1,41.1s18.4,41.1,41.1,41.1c22.7,0,41.1-18.4,41.1-41.1
			l0,0C847.6,180.6,829.2,162.2,806.5,162.2z M821,204l4.1,8.1h-17.2v-8.9h11.8C820.3,203.2,820.8,203.5,821,204z M811,193.3
			c0.5-0.6,1.4-0.6,2,0l0,0l0,0l2.2,2.1c0.6,0.6,0.6,1.4,0,2s-1.4,0.6-2,0l0,0l-2.2-2.2C810.4,194.7,810.4,193.8,811,193.3
			L811,193.3L811,193.3z M818.7,188.8c0,0.8-0.6,1.4-1.4,1.4l0,0h-3c-0.8,0-1.4-0.6-1.4-1.4c0-0.8,0.6-1.4,1.4-1.4l0,0h3
			C818.1,187.4,818.7,188,818.7,188.8L818.7,188.8L818.7,188.8z M811,182.3l2.2-2.1c0.5-0.6,1.4-0.6,2,0c0.6,0.5,0.6,1.4,0,2l0,0
			v0.1l-2.2,2.1c-0.6,0.6-1.4,0.6-2,0S810.4,182.9,811,182.3L811,182.3z M805.1,178c-0.1-0.8,0.5-1.4,1.2-1.5
			c0.8-0.1,1.4,0.5,1.5,1.2c0,0.1,0,0.1,0,0.2v3.1c-0.1,0.8-0.7,1.3-1.5,1.3c-0.7-0.1-1.2-0.6-1.3-1.3L805.1,178L805.1,178z
			 M806.5,183.7c2.8,0,5.1,2.3,5.1,5.1s-2.3,5.1-5.1,5.1s-5.1-2.3-5.1-5.1S803.7,183.7,806.5,183.7L806.5,183.7z M802,195.3
			l-2.2,2.1c-0.6,0.6-1.4,0.6-2,0s-0.6-1.4,0-2l2.2-2.1c0.5-0.6,1.4-0.6,2,0C802.5,193.8,802.5,194.7,802,195.3L802,195.3L802,195.3
			L802,195.3z M797.9,180.2c0.5-0.6,1.4-0.6,2,0l0,0l0,0l2.2,2.1c0.6,0.5,0.6,1.4,0,2l0,0c-0.5,0.6-1.4,0.6-2,0l0,0l0,0l-2.2-2.1
			C797.3,181.6,797.3,180.7,797.9,180.2L797.9,180.2z M795.7,187.4h3c0.8,0,1.4,0.6,1.4,1.4c0,0.8-0.6,1.4-1.4,1.4h-3
			c-0.8,0-1.4-0.6-1.4-1.4S794.9,187.4,795.7,187.4L795.7,187.4z M805.1,223.9h-20.8c-0.8,0-1.4-0.6-1.4-1.4l0,0
			c0-0.2,0.1-0.4,0.2-0.6l3.5-6.9h18.6L805.1,223.9z M805.1,212.2h-17.2l4.1-8.2c0.2-0.5,0.7-0.8,1.2-0.8H805L805.1,212.2z
			 M806.5,201c-0.8,0-1.4-0.6-1.4-1.4l0,0v-3c0.1-0.8,0.7-1.3,1.5-1.3c0.7,0.1,1.2,0.6,1.3,1.3v3C807.9,200.4,807.3,201,806.5,201
			L806.5,201z M828.7,223.9h-20.8V215h18.6l3.5,6.9c0.3,0.7,0.1,1.5-0.6,1.9C829.2,223.8,828.9,223.9,828.7,223.9L828.7,223.9z"/>
	</g>
	<g id="Gruppe_34">
		<path id="Pfad_1123" class="st3" d="M684.4,0c-22.7,0-41.1,18.4-41.1,41.1s18.4,41.1,41.1,41.1s41.1-18.4,41.1-41.1l0,0
			C725.5,18.4,707.1,0,684.4,0z M666.2,27c-0.2-0.4,0-0.8,0.4-1l0,0c2.6-1.1,5.4-1.6,8.3-1.6c2.7-0.1,5.3,0.8,7.2,2.6
			c1.9,1.9,2.4,4.8,1.5,7.3v0.1c-2.7-2.4-5.7-4.5-8.9-6.2l0,0c-0.4-0.2-0.8-0.1-1,0.3s-0.1,0.8,0.3,1l0,0c3.2,1.6,6.2,3.7,8.9,6.2
			c-1.4,1.8-3.6,2.9-5.9,2.9c-2.1,0-4.1-1-5.3-2.8c-0.4-0.5-0.6-1.1-0.8-1.8c-0.1-0.4-0.2-0.8-0.3-1.2s-0.3-1-0.5-1.4
			c-0.7-1.7-1.9-3.2-3.5-4.1C666.4,27.2,666.3,27.1,666.2,27L666.2,27z M684.3,58c1.8,3,0.8,6.8-2.2,8.6l-6,3.6
			c-0.3,0.2-0.8,0.1-1-0.3l0,0l-1.2-2l-2.9,1.6c-0.4,0.2-0.8,0.1-1-0.3s-0.1-0.8,0.3-1l2.9-1.8l-2.4-4.1l-2.9,1.8l0,0
			c-0.4,0.2-0.8,0.1-1-0.2c-0.2-0.4-0.1-0.8,0.2-1l0,0l0,0l2.9-1.7l-1.2-2c-0.2-0.3-0.1-0.8,0.3-1l0,0l6-3.6c2.9-1.7,6.6-0.8,8.4,2
			c3.5-4.5,4.9-8.7,4.1-12.7c-0.3-1.7-1-3.2-1.9-4.7c-0.1-0.1-0.1-0.2-0.2-0.3c-0.8-1.1-1.7-2.2-2.7-3.1c0.3-0.4,0.6-0.9,0.8-1.3
			c0.7,0.7,1.4,1.4,2,2.2c0.2-1.7,0.6-3.4,1.2-5l0,0c0.4,0.4,0.8,0.7,1.2,1c-0.6,1.8-0.9,3.7-1.1,5.6c1,1.6,1.8,3.3,2.1,5.2
			c0.9,4.5-0.7,9.4-4.8,14.4L684.3,58z M706.9,18.7c-2.1,1.5-3.6,3.6-4.2,6c-0.2,0.6-0.3,1.3-0.4,2c-0.1,0.5-0.2,1-0.3,1.5
			c-0.2,0.8-0.5,1.6-0.8,2.4c-1.5,2.7-4.3,4.3-7.3,4.2h-0.2c-2,0-4-0.7-5.6-2c0.2-0.6,0.4-1.2,0.7-1.9c2.1-5.2,5.6-8.4,10.3-9.4
			c0.4-0.1,0.7-0.5,0.6-0.9c-0.1-0.4-0.5-0.7-0.9-0.6l0,0c-5.2,1.1-9.2,4.7-11.4,10.3c-0.2,0.4-0.3,0.8-0.5,1.2
			c-0.5-0.5-0.9-1.1-1.2-1.7c-1.5-3.1-1.1-6.8,1.1-9.5c1.9-2.3,5-3.8,9-4.2c3.7-0.4,7.5,0,11,1.1c0.3,0.1,0.5,0.3,0.5,0.6l0,0
			C707.3,18.2,707.2,18.5,706.9,18.7L706.9,18.7z"/>
		<path id="Pfad_1124" class="st3" d="M590.5,0c-22.7,0-41.1,18.4-41.1,41.1s18.4,41.1,41.1,41.1s41.1-18.4,41.1-41.1l0,0
			C631.6,18.4,613.2,0,590.5,0z M574.8,29.4h31.6c3.8,0.1,6.7,3.3,6.5,7.1c-0.1,3.6-3,6.4-6.5,6.5h-31.6c-1.7,0-3,1.3-3,3s1.3,3,3,3
			h31.6c3.8,0.1,6.7,3.3,6.5,7.1c-0.1,3.6-3,6.4-6.5,6.5h-36.5c-1-0.1-1.8-1-1.8-2c0.1-0.9,0.8-1.7,1.8-1.8h36.5c1.7,0,3-1.3,3-3
			s-1.3-3-3-3h-31.6c-3.8-0.1-6.7-3.3-6.5-7.1c0.1-3.6,3-6.4,6.5-6.5h31.6c1.7,0,3-1.3,3-3s-1.3-3-3-3h-31.6
			c-3.8-0.1-6.7-3.3-6.5-7.1c0.1-3.6,3-6.4,6.5-6.5h36.5c1,0.1,1.8,1,1.8,2c-0.1,0.9-0.8,1.7-1.8,1.8h-36.5c-1.7,0-3,1.3-3,3
			S573.1,29.3,574.8,29.4z"/>
	</g>
	<g id="Gruppe_36">
		<g id="Gruppe_35">
			<path id="Pfad_1125" class="st1" d="M814.7,298l-4.5,7.7l4.5,7.7h8.9l4.5-7.7l-4.5-7.7H814.7z"/>
			<path id="Pfad_1126" class="st1" d="M819.2,264.7c-22.7,0-41.1,18.4-41,41.1c0,22.7,18.4,41.1,41.1,41c22.7,0,41-18.4,41-41.1
				C860.2,283.1,841.9,264.7,819.2,264.7L819.2,264.7z M838.1,307.4h-5.3l1.8,3.1c0.5,0.7,0.3,1.8-0.5,2.2c-0.7,0.5-1.8,0.3-2.2-0.5
				c0-0.1-0.1-0.1-0.1-0.2l-1.8-3l-2.6,4.5h3.6c0.9,0,1.6,0.7,1.6,1.6s-0.7,1.6-1.6,1.6h-3.6l2.7,4.6c0.4,0.8,0.2,1.8-0.6,2.2
				c-0.8,0.4-1.8,0.2-2.2-0.6l-2.7-4.6l-1.8,3.1c-0.4,0.8-1.4,1-2.2,0.6s-1-1.4-0.6-2.2l1.8-3.1h-5.2l1.8,3.1
				c0.5,0.8,0.2,1.8-0.6,2.2c-0.8,0.5-1.8,0.2-2.2-0.6l0,0l0,0l-1.8-3.1l-2.7,4.6c-0.4,0.8-1.4,1-2.2,0.6s-1-1.4-0.6-2.2l2.7-4.6
				h-3.6c-0.9,0-1.6-0.7-1.6-1.6s0.7-1.6,1.6-1.6h3.6l-2.6-4.5l-1.8,3.1c-0.4,0.8-1.4,1-2.2,0.6s-1-1.4-0.6-2.2l1.8-3.1h-5.3
				c-0.9,0-1.6-0.7-1.6-1.6s0.7-1.6,1.6-1.6l0,0h5.3l-1.8-3.2c-0.5-0.8-0.2-1.8,0.6-2.2c0.8-0.5,1.8-0.2,2.2,0.6l0,0l0,0l1.8,3.1
				l2.6-4.5h-3.6c-0.9,0-1.6-0.7-1.6-1.6s0.7-1.6,1.6-1.6l0,0h3.6l-2.7-4.6c-0.4-0.8-0.2-1.8,0.6-2.2c0.8-0.4,1.8-0.2,2.2,0.6
				l2.6,4.6l1.8-3.1c0.4-0.8,1.4-1,2.2-0.6s1,1.4,0.6,2.2l0,0l-1.8,3.1h5.2l-1.8-3.1c-0.5-0.7-0.3-1.8,0.5-2.2
				c0.7-0.5,1.8-0.3,2.2,0.5c0,0.1,0.1,0.1,0.1,0.2l1.8,3.1l2.7-4.6c0.4-0.8,1.4-1.1,2.2-0.6c0.8,0.4,1.1,1.4,0.6,2.2l0,0l-2.7,4.6
				h3.6c0.9,0,1.6,0.7,1.6,1.6s-0.7,1.6-1.6,1.6h-3.6l2.6,4.5l1.8-3.1c0.4-0.8,1.4-1.1,2.2-0.7s1.1,1.4,0.7,2.2c0,0,0,0.1-0.1,0.1
				l0,0l-1.8,3.1h5.3c0.9,0,1.6,0.7,1.6,1.6S838.9,307.4,838.1,307.4L838.1,307.4L838.1,307.4z"/>
		</g>
		<path id="Pfad_1127" class="st1" d="M455.8,264.7c-22.7,0-41.1,18.4-41.1,41.1s18.4,41.1,41.1,41.1s41.1-18.4,41.1-41.1l0,0
			C496.8,283.1,478.4,264.7,455.8,264.7z M466.6,332.2c-2.1,0-3.9-1.7-3.9-3.9l0,0c0-0.4,0.1-0.8,0.2-1.2V327l2.3-7.2
			c0.2-0.8,1.1-1.2,1.9-1c0.5,0.1,0.8,0.5,1,1l2.2,7.1c0,0.1,0.1,0.2,0.1,0.3c0.6,2.1-0.5,4.2-2.6,4.8l0,0
			C467.4,332.2,467,332.2,466.6,332.2L466.6,332.2z M471.9,315.4c0,0.8-0.7,1.5-1.5,1.5H463c-0.8,0-1.5-0.7-1.5-1.5l0,0v-2.5
			c0-0.7,0.5-1.3,1.2-1.5v-2.9c0-0.5-0.4-0.9-0.9-0.9l0,0h-0.3c-2.1,3.8-6.9,5.1-10.7,3c-1.3-0.7-2.3-1.8-3-3h-11.3
			c-0.8,0-1.5-0.7-1.5-1.5l0,0l0,0v-4.9c0-0.8,0.7-1.5,1.5-1.5H448c0.9-1.5,2.4-2.7,4.1-3.3v-1.9c0-0.1,0-0.2,0-0.3h-4
			c-0.8,0-1.5-0.7-1.5-1.5l0,0v-2.1c0-0.8,0.7-1.5,1.5-1.5h4v-0.2c0-0.8,0.7-1.5,1.5-1.5h2.3c0.8,0,1.5,0.7,1.5,1.5v0.2h4
			c0.8,0,1.5,0.7,1.5,1.5l0,0v2.1c0,0.8-0.7,1.5-1.5,1.5h-4c0,0.1,0,0.2,0,0.3v1.9c1.7,0.6,3.1,1.8,4.1,3.3h2.9
			c3.5,0,6.4,2.9,6.4,6.4l0,0v5.3c0.7,0.1,1.3,0.7,1.3,1.5L471.9,315.4z"/>
	</g>
	<path class="st0" d="M876.1,346.8c-3-3.7-7.1,1.1-13.1,5.5c-8.8,6.5-20.7,12-34.9,15.3s-11.4-2.4-33.2,4.5
		c-33,10.5-9.3,28.5-19,47.8c-10.8,21.5-42.4,10.2-58.3,6.1c-24.2-6.3-33.8,0.4-54.7-3c-4-0.6-10,0.7-13.5,0.7s-5.1,0.5-7.2,0.6
		s-1.8,0.1-3.6,0.1c0-2.1-0.7-4.9-0.9-6.8c-0.4-4.2-0.6-8.1-0.8-12c-0.1-1.8,0.1-2.9,0.1-4.5c1-0.4,1.9-1,2.7-1.6
		c7.3-7.2,15.4-14.9,20.6-23.8c5.7-9.8,10.8-22,12.1-32.5c3.8-30.4-1.5-57.8-19.2-82.4c-4-5.5-7.8-6.1-14.1-6.9
		c-8.5-1.1-14.6,1-22.4,6c-5.2,3.6-9.4,8.5-12.3,14.1c-18.6,38.3-17.2,80.8,1.7,118.2c4.8,9.5,11.3,6.8,18.7,11.8
		c1,0.7,2.4-0.6,3.4,0c0.1,0.8,0,1.7,0.1,2.5c0,1.8,0,3.5,0.1,5.3s0.8,4.5,0.5,6.3c-0.5,2.8,3,4-1.3,4.9c-3.8,0.8-7.8,1.3-11.7,1.4
		c-27.7,1.8-53,8.4-81.9,12.8c-10.5,1.6-27.7-31.8-35.3-38.8c-11.9-11-22.4-17.7-32.9-26c-5.2-4.1-7.5-3.6-12.1-4.4
		c-10.3-1.7-20.5-4-30.5-7c-7.1-2.1-19.3-11.9-24-16.1s-5.1-9.8-9.7-5.3s0.7,8.5,4,14.6c6.3,11.5,26.2,24.5,38.6,25.3
		s17.3-2.9,27.2-3.1c3.8-0.1,1.7,1.2,3.9,1.7s2.3,1.2,3.9,2s1.2,0.8,3.3,1.9s3.7,3,6.7,4.9c21.6,13.9,41.5,59.7,65.9,53.7
		c26.5-6.6,51.2-10.5,78.4-11.1c2.5-0.1,5.8-0.9,8.4-0.3c0.3,2.6,0.2,6.4,0.3,9.1c0.5,17.3-2.4,41.3-4.7,56.8
		c-4.7,32.4-10.5,60.8-12.1,92.2c-0.2,4.5,0.2,5.4,0.1,9.6c-2.1-0.7-4.2-1.1-6.4-1.2c-22.8-4-45.4-10-67.7-16.2
		c-12-3.4-27.5-7.6-38.9-7.7s-16.5-1.6-23.7,6.8c-5.5,6.5-7.2,6.5-0.4,16.2c9.7,13.8,17.7,24.6,33.5,39.8
		c11.6,11.1,31.5,29.4,46.4,42.1c12.8,10.9,28.8,25.6,41,37.4c2,2,2,2.3,3.7,4c-0.7,0.8-1.3,1.6-1.6,2.6c-1.1,1.9-2.3,3.8-3.5,5.6
		c-0.8,0.8-1.4,1.8-1.8,2.9c0.7,2,2.7,7.9,3.3,9.2c3.2,8.1,5.9,16.5,8,25c1.2,4.8,0,6,0.2,9s-0.9,4,0.6,6c3.5,4.8,5.2,9,11.2,3.1
		c2-1.9,3.2-6.4,2.9-11.5s1.2-13.3-0.9-19.9c-4.3-14-7.8-26.8-17.6-39.6c-1.9-2.5-4.6-4.2-9.3-8.5c-10.9-9.9-24.3-22.5-37.3-33.4
		c-26.4-22.1-55.1-46.2-74.3-74.8c-2.8-4.1-2.6-4.2-2.9-7c-0.5-4.4-2.2-4.5,2.3-6c7.1-2.4,7.3-4.7,17.2-3.7
		c16.3,1.6,35.3,6,53.3,11.2c15.8,4.5,36.8,9.5,53.4,12.6c3.3,0.6,5.5,0,7.7,1.2c3.4,1.8,2.9-0.5,4.8,3.8c1.3,2.9,1.8-2.8,2.6,5.4
		c1.8,16.5,2.4,26.2,3,48.6c0.3,12.5,1.8,36,2.3,56.5c0.9,33.7,1.6,77.3,8.6,111.5c0.6,2.9,1,5.8,1.3,8.8c0.7,4.6-0.4,2-2.1,4.2
		c-2.3,3-5.2,1.8-4.9,6.7s2.6,9.5,4.6,14.8c1.5,3.4,2.8,6.9,3.8,10.5c1.5,7.4,2.6,15,3.2,22.5c0,1.6,0.1,3.2,0.4,4.8
		c-3.5,0.2-5.3,0.3-9,0.4c-8.3,0.2-13.5,0.7-22.9,1c-7.3,0.2-14.7,0.5-21.9,0.9c12.4-0.9,23.5-2.1,27.7-2.9
		c20.9-3.7-94.8,1.3-121.1,2.7c-25.4,1.4-84.6,0.7-116.9,10.7c-17.3,5.3,24.6,2.4,31.2,2.2c4.2-0.1,18,0.3,20.7-0.5
		c4-1.3,3.8-1.4,5.2-0.8s-2.6,0.5-2.9,1.2s-6.3,0.8,0.1,0.8s7.8,0,16.9-0.5s27.3-1.3,38.9-1.8s30.6-1.4,41.1-1.8
		c23.9-1,45.2-1.6,67.5-2.2c1.4-0.1,2.9,0,4.3,0c-1.4,0.2-3.1,0.6-3.3,0.6c-8.2-0.1-38.5,5.2-41.7,5.5c-8.7,0.9-44.3,0.3-30.7,8.2
		c15,8.8,37,5.7,56.7,2.7c-0.9,0.5-1.6,1.2-2.3,2c-5.5,7.3,14.1,1.3,21.1,0.9c4.1-0.2,22.6-1,30.7-1.2s25.1-0.7,32.5-1.1
		s13.3-1.2,17.9-0.6s-5.5,1.5-7,1.7c-4.6,0.7-24.4-3.3-19,8.3c2.2,4.8,1.5,2.5,14,3.5c26.1,2.1,52.4,2.8,78.6,2.2
		c7.4-0.2,33.9,1,45,1.3c5,0.1,14.8,0.6,20.3,0.3s20.3-2.1,23.6-2.5c7.5-0.9,24.6,1.1,25.8-3.7s-11.5-1-21.7-1.2
		c-67.2-1.4-123.5-1.6-119.1-7.8c2.7-3.7,25.4-7.8,32.5-3.7c2.5,1.5,9.4,0.9,11.1-1.4c0.4-0.5,0.1-0.8-0.4-1
		c4.2-0.2,14.6-1.4,21.4-1.7c13.5-0.6,31-1.8,44.8-3c2.7-0.2,2.8-0.3,5.1-0.5c-1.4-0.1-1.5-0.3-2.9-0.4c-3.1-0.3-5.2-0.5-8.8-0.8
		s-4.4-0.7-9.7-1.1s-9.4-0.3-17.8-0.4s-15.2,0.1-27.4-0.3c-46.8-1.3-101.9,1.7-147.6,3.7c-11.3,0.5-25.2,7-22.9-1s40.5-7.8,49.5-7.3
		c2.7,0.2,6.4,0.1,8.4,0.5c4,0.9,8.1,1,12.1,0.3c2.1-0.4,0.8-1,1.3-2.5l0,0c0.2-0.6-0.2-1.2-0.8-1.4l0,0c4.1-0.5,4.5-0.7,9.3-1.2
		c17.4-1.6,36.4-3,54.7-4.2c3.9-0.3,10.2-0.8,14.3-1.6c1.8-0.3,3-0.7,4.7-1c-3.5,0-5.7-0.1-9.5-0.2c-8.3,0-20.4,0.2-28.4,0.4
		c-15.7,0.3-28.7,0.5-43.9,0.6c-2.6,0-6-0.1-8.7-0.1c-0.7-1.2-1.2-2.4-1.7-3.7c-1.1-5.1-1.9-10.3-2.3-15.6
		c-0.7-7.9-2.6-15.6-5.6-22.9c-0.9-2.1-2.8-5.5-3.6-7.5c-1.7-3.9-3.5-6.3-5.5-9.9c-0.6-1-1-2.1-1.1-3.3c-0.5-2.4,0.5-0.1-0.4-4.3
		c-13.3-61.8-10.8-126.6-12.7-190c-0.2-7.7-0.9-18.8-1.2-26.4c-0.1-3.5-0.2-5.1-0.5-8.1c0.5-1.7,1.3,0.4,1.9-1.3
		c8-24.6,12.6-43.7,15.3-71.1c2.9-29.9,3.2-66.1-1.2-97.4c-0.6-4-3.5-6,2.4-8.3s13.2-1.1,20.4-1.2c31.1-0.6,85.1,20.6,109.9-0.5
		c13.8-11.7,6.6-26.1,7.2-43.4c0.2-6.2,8.8-5.4,11.4-7.1c2.6-1.5,5.6-2.2,8.5-1.8c2.5,0.2,1.8,0.6,2.4,2.9s-3.6,4.5-3.2,7.2
		c0.6,4.1-4.5,5.9,4.9,6.8c7.3,0.8,23.9-2.3,35.3-4.8c4.2-0.9,20-11.2,22.3-14.9C868.9,363.7,884.3,356.7,876.1,346.8z M516.5,905.9
		c-18.4,0.9-41.2,3.7-61.2,0.8c-5.1-0.8,13.3-1.1,22.3-0.3s23.1-1.3,32-1.4c8.9-0.1,31.7-2.6,37.5-2c5.3,0.4,10.6,0.5,15.9,0.4
		C547.8,904.2,532.4,905.1,516.5,905.9z M618.5,923.4c5.2,0.4-3,0.8-4.5,0.5s-3.2-0.4-5.1-0.6C612.1,923.3,615.3,923.3,618.5,923.4
		L618.5,923.4z M600.9,301c1.1-4.4,1-7.7,2-11c0.4-1.3,1.8-2.9,2.7-4.3c5.4-8.9,12-17.6,20.6-23.4c3.8-2.6,8.5-4.3,12-1.7
		c15.3,11.3,22.1,22.6,28.4,41c2,6,2.4,19.8,1.4,26.3c-3.4,21.6-12.2,42-25.5,59.3c-4.9,6.4-8.9,6.3-15,8.5c-4,1.4-5.2,2-8.3-1.1
		c-7.3-7.3-11.3-12.5-14.3-23.7c-4.6-18.1-6.4-36.4-7-55 M635.6,520.3c-1.2,18.1-4.8,40.8-7.1,55.4c-1.3,8.5,0.8,13-4.7,13.9
		s-1.9-5.1-1.3-12.2c0.9-10.8,3.2-31.5,6-45c0.8-3.9,3.3-21.1,3.6-23l0,0c0.6-4.6,1.6-25.1,4-20.2
		C639,494.8,636.1,513.9,635.6,520.3L635.6,520.3z"/>
</g>
<g id="Gruppe_38">
	<path id="path3" class="st4" d="M95.4,780.7c4.2-0.4,16.7-48.1,72.1-53.1c45.1-4.1,86.4,16.5,84.2,27.5s-89.8,61.8-115.9,96.7
		c-21.3,28.6-19.1,70.5-10.9,78.3s13.5,3.2,10.9-1s-11.9-28.6,14.5-55.2s134-65.7,118.1-131.8c-11.9-49.6-115.9-71.1-161.9-15
		C83.6,754.7,91.1,781.1,95.4,780.7z"/>
	<path id="path5" class="st4" d="M107.7,999.7c10.2,3.2,46.1,1,25-21C119.3,964.7,86.6,993.1,107.7,999.7z"/>
	<g id="Gruppe_37">
		<path class="st0" d="M200.1,663.1c-2.6-18.2-9-38.3-16-50.4c-1.6-3.1-2.9-6.3-4.1-9.6c-1.1-2.9-2.3-5.8-3.6-8.7l-1-1.5l0.6-3.7
			c2.3-13.3,1.7-24.2-1.7-32.9c-3.7-9.6-10.4-15.8-18.9-17.6c-2.9-0.6-6-0.7-8.9-0.4l-3,0.6c-13.8,2.7-29.4,15.3-41,33
			c-6.2,9.5-11,19.9-14.1,30.8c-2.6,8.4-3.7,17.2-3.3,26c0.2,6,0.4,7.9,1.2,11.2c2.9,11,8.9,18.7,17.2,21.8c1.8,0.6,1.8,0.8,1.5,1.7
			c-0.9,2.4-3.7,7.4-4.3,7.6c-0.8,0.3-10.4-0.5-23-2c-29.5-3.4-35.6-4-42.9-4.5c-12.7-0.8-21.9,0.4-27.9,3.4
			c-2.5,1.2-2.6,1.4-3.7,4.1c-3.7,8.8-4,18.6-0.8,27.7c3,9.2,9.3,18.8,21.4,32.8c8.5,9.8,12.3,14.9,14.4,19c0.7,1.4,0.9,2.4,0.9,5.4
			c0,4.1-0.4,5.4-2.7,7.3c-1.3,1.1-1.4,1.4-2.4,6c-2.2,11-3.9,21.1-3.8,23c0.1,1.4,0.3,2.2,0.9,2.5c1,0.6,1.6,0.1,4.7-3.6
			c4.1-5,7.3-7.9,10.7-9.8c8.7-4.8,9-7.6,1.7-18.8c-2.6-4-3-4.8-3.4-7.6c-1.1-6.2-4.4-11.5-15.7-24.8C20,720.3,18.1,718,14.8,713
			C7,702,4,692.6,5.1,683.3c0.5-4,2.2-9.6,3.2-10.7c1-0.7,2.1-1.2,3.3-1.5c7.8-2.4,19.9-2.4,42.3,0.2c4.7,0.6,15.2,1.7,23.2,2.6
			s15.8,1.7,17.3,1.9l2.7,0.3l-2.3,3.6C78.1,705.8,58,761.2,49.1,805.9c-3.6,17.8-4,23.6-3,45.1c1.9,42.6,1.8,74.8,0,99.2
			c-2,26-6,41.7-11.7,45.1c-2,1.2-2.5,1.9-2.5,3.2c0,1.8-2.8,3.5-10.2,6.2c-4.4,1.6-5.8,2.6-5.8,4s0.6,1.9,4,4.2
			c2.5,1.8,4.9,3.8,7.1,5.8c1.6,1.6,3.4,3.1,5.3,4.4c2.6,1.4,4.6,0.6,8.8-3.2c3.6-3.2,5.6-4.2,11.3-5.8c5-1.4,5.5-1.7,5.5-3
			c0-1.7-2.9-3.3-15.4-8.4c-1.7-0.7-3.3-1.4-4.9-2.3c-0.4-0.4-0.2-0.9,1.6-2.7c5.8-5.8,9.7-21,11.7-46.1c1.2-15,1.6-29.6,1.3-54.8
			c-0.4-22.3-0.6-32-1.4-48.4l-0.3-5.3h1.4c2.2,0,5.3-1.8,7.4-4.3c2.4-2.9,5.7-9.8,7.7-16.1c3.6-11.1,6.4-23.4,13.3-57.3
			c7.9-39.4,11.7-54.9,17-69.7c3.1-8.8,8.7-19.5,9.9-19.1c0.3,0.1,3.4,1.3,6.8,2.6c19.6,7.7,39.6,12.9,57.5,15
			c8.3,0.7,16.6,0.8,24.8,0.1l3.6-0.5l0.4-1.6C201.1,689.3,200.9,668.8,200.1,663.1z M77.8,736.2c-0.7,3-3.4,16-6,28.8
			c-6.9,34-7.6,37.3-10.4,47.7c-2.8,10.2-6,18.8-8.2,21.4c-0.6,0.8-0.6,0.5-0.4-4.4c0.7-17.2,11.1-57.9,23.5-92.3
			c1.4-3.8,2.6-6.8,2.7-6.8S78.4,733.2,77.8,736.2z M102.9,656.4c-8.6-4.2-13-14.9-13-28.4c0-12.3,3.6-26.9,10.9-41.3
			c8.1-15.9,20.5-29.7,32.2-36.1c7.8-4.2,15.3-5.7,20.9-4c2.7,0.7,5.2,2.1,7.3,4.1c5.7,5.3,8.7,14.2,8.7,25.8
			c-0.4,4.7-2.8,17.1-4,22.1c-0.2,1.3-0.5,2.5-0.9,3.7c-0.8,2.8-1.8,5.9-2.7,8.2c0,0.7-5.1,10.6-7.1,13.9
			c-4.1,6.8-9.1,13.1-14.8,18.8c-4.5,4.7-9.8,8.5-15.6,11.5c-4.5,2.5-9.6,3.7-14.8,3.4C106.2,657.9,105.7,657.8,102.9,656.4z
			 M194.5,690.6L194.5,690.6c-0.7,0.7-14.8,1-20.8,0.4c-14.8-1.6-29.4-4.8-43.6-9.5c-5.7-1.8-20.9-7.5-21.4-7.9
			c0.3-0.8,0.7-1.6,1.1-2.4c0.7-1.4,1.3-2.9,1.7-4.4l0.5-2.2l2.4-0.2c7-0.7,15.8-4.7,23.6-10.5c11.6-9.6,21-21.6,27.5-35.1
			c2.2-4.5,3-5.7,3.6-5.6c0.6,0.1,1.3,0,1.9-0.2c1.8-0.5,3.7-0.3,5.3,0.7c1.2,0.6,1.8,1.5,3.8,5.3c7.4,14.5,11.9,29.4,14.4,48
			C195.2,672,195.2,689.9,194.5,690.6L194.5,690.6z"/>
		<path id="Pfad_1130" class="st0" d="M56.8,842.8c-0.6,0.4-1.4,1-1.8,1.1s-0.1,1.1,1.6,3.9c15.1,24.2,24.5,53.3,27.8,85.9
			c1.4,14,1.4,35.5,0,55.1c-0.8,11.5-0.7,12.7,1.4,14.1c1.2,0.8,1.8,0.9,6.8,0.9c2.9-0.1,5.8,0.1,8.7,0.8c4.8,1.3,9.8,1.9,14.8,1.8
			c7.7,0,12.3-1.4,16-4.7c2.9-3.1,5.5-6.5,7.9-10c0.9-1.4,0.6-1.4-3.6-0.2c-7.9,2.4-18.4,2.4-33.4,0.2l-5.5-0.8l-0.9,1.1
			c-1.4,1.9-3.3,3.4-5.4,4.4c-0.7,0.4-1.4,0.7-2.2,0.9c-0.1-0.2,0-3.3,0.9-16.6c1.4-19.8,0.8-39.8-2-59.5
			c-2.9-21-9.1-41.3-18.4-60.3c-4.8-9.6-10.2-19-11-19C57.8,842.2,57.3,842.5,56.8,842.8z"/>
		<path id="Pfad_1131" class="st0" d="M97.4,1012.9c0.2,0.1,0.5,0.1,0.8,0c0.2-0.1-0.1-0.2-0.5-0.2S97.1,1012.8,97.4,1012.9z"/>
		<path id="Pfad_1132" class="st0" d="M94.8,1013.3c0.4,0.1,0.8,0.1,1.2,0c0.2-0.1,0-0.2-0.7-0.2S94.4,1013.2,94.8,1013.3z"/>
		<path id="Pfad_1133" class="st0" d="M92.2,1013.7c0.3,0.1,0.7,0.1,1,0c0.2-0.1,0-0.2-0.5-0.2S91.9,1013.6,92.2,1013.7z"/>
		<path id="Pfad_1134" class="st0" d="M81.4,1015.5c-23.3,4.9-35.8,8.3-34.7,9.5c0.6,0.6,6.3,0.7,13.4,0.4c2.5-0.2,5-0.2,7.6-0.1
			c0.1,0.1-0.3,0.4-0.8,0.6c-1.2,0.4-1.8,1.2-1,1.2c0.5,0,12.2-1.6,15.3-2.2c0.7-0.1-0.2-0.1-2,0s-2.9,0-2.5-0.2
			c0.8-0.6,1.5-1.2,2.1-2l1.5-1.7H79c-1.5-0.1,4.6-1,7.3-1.2c1,0,1.4-0.2,0.9-0.2c-0.8-0.2-10.7,0.7-15.9,1.4
			c-1.4,0.2-1.9,0.1-1.7-0.2c0.5-0.3,1-0.5,1.6-0.5c0.7,0,4.8-0.6,9.1-1.4s6.7-1.3,5.3-1.2l-2.5,0.2l1.3-1.4c1.1-1.2,1.7-1.5,4.3-2
			c1.9-0.4,2.5-0.6,1.6-0.6C87.3,1014.3,84.4,1014.8,81.4,1015.5z M84.5,1015.7c-0.2,0.1-0.5,0.1-0.8,0s-0.2-0.2,0.2-0.2
			S84.7,1015.5,84.5,1015.7L84.5,1015.7z M82.1,1018.1c-0.2,0.1-0.5,0.1-0.8,0s-0.2-0.2,0.2-0.2S82.3,1017.9,82.1,1018.1
			L82.1,1018.1z"/>
		<path id="Pfad_1135" class="st0" d="M93.8,1016.5c0.2,0.1,0.5,0.1,0.8,0c0.2-0.1-0.1-0.2-0.5-0.2S93.4,1016.4,93.8,1016.5z"/>
		<path id="Pfad_1136" class="st0" d="M90.8,1016.9c0.5,0.1,0.9,0.1,1.4,0c0.4-0.1,0-0.2-0.7-0.2S90.4,1016.8,90.8,1016.9z"/>
		<path id="Pfad_1137" class="st0" d="M88.6,1017.3c0.3,0.1,0.7,0.1,1,0c0.2-0.1,0-0.2-0.5-0.2S88.3,1017.2,88.6,1017.3z"/>
		<path id="Pfad_1138" class="st0" d="M91.8,1018.9c0.2,0.1,0.5,0.1,0.8,0c0.2-0.1-0.1-0.2-0.5-0.2S91.4,1018.8,91.8,1018.9z"/>
		<path id="Pfad_1139" class="st0" d="M89.2,1019.3c0.4,0.1,0.8,0.1,1.2,0c0.2-0.1,0-0.2-0.7-0.2S88.8,1019.2,89.2,1019.3z"/>
		<path id="Pfad_1140" class="st0" d="M109.2,633.6l-0.7-2.3c1.2-0.4,2.4-0.7,3.6-1c8.5-2.1,17.3-2.5,25.9-1.2l-0.3,2.4
			c-8.3-1.2-16.8-0.8-25,1.2C111.5,632.9,110.3,633.2,109.2,633.6z"/>
	</g>
</g>
<path class="st5" d="M150.2,593.8c-1.1,2-3.2,3-5,2.4c-2.3-0.8-3-3.8-1.5-6.5c1.1-1.8,2.7-2.7,4.3-2.5
	C150.7,587.7,151.8,590.9,150.2,593.8z"/>
<path class="st5" d="M134.7,589.9c-0.9,2.1-2.9,3.3-4.8,2.8c-2.4-0.7-3.3-3.6-2.1-6.4c0.9-1.9,2.4-3,4-2.8
	C134.7,583.7,136.1,586.8,134.7,589.9z"/>
</svg>
