<svg xmlns="http://www.w3.org/2000/svg" viewBox="0 0 566.93 566.93"><defs><style>.cls-1{fill:#2a4b9b;}</style></defs><g id="Ebene_2" data-name="Ebene 2"><g id="Ebene_2-2" data-name="Ebene 2"><path class="cls-1" d="M293.56,346.93a5.92,5.92,0,0,1-2.43-4.78v-149a16.93,16.93,0,0,0-16.91-16.91H255.68a16.93,16.93,0,0,0-16.91,16.91v149a5.92,5.92,0,0,1-2.43,4.78,48.51,48.51,0,1,0,57.22,0Zm-28.61,76a36.82,36.82,0,0,1-12.57-71.42V222.2a9.3,9.3,0,0,1,9.29-9.3h6.56a9.3,9.3,0,0,1,9.29,9.3V351.5A36.82,36.82,0,0,1,265,422.92Z"/><polygon class="cls-1" points="351.39 147.81 339.48 168.44 351.39 189.06 375.2 189.06 387.11 168.44 375.2 147.81 351.39 147.81"/><path class="cls-1" d="M283.46,0C126.91,0,0,126.91,0,283.46S126.91,566.93,283.46,566.93,566.93,440,566.93,283.46,440,0,283.46,0ZM184.92,202.48a4.85,4.85,0,0,1,4.85-4.86h10a4.85,4.85,0,0,1,4.85,4.86v5.29a4.85,4.85,0,0,1-4.85,4.85h-10a4.85,4.85,0,0,1-4.85-4.85Zm0,31.65a4.86,4.86,0,0,1,4.85-4.86h10a4.86,4.86,0,0,1,4.85,4.86v5.29a4.86,4.86,0,0,1-4.85,4.86h-10a4.86,4.86,0,0,1-4.85-4.86Zm0,31.65a4.85,4.85,0,0,1,4.85-4.85h10a4.85,4.85,0,0,1,4.85,4.85v5.29a4.85,4.85,0,0,1-4.85,4.86h-10a4.85,4.85,0,0,1-4.85-4.86Zm0,31.66a4.86,4.86,0,0,1,4.85-4.86h10a4.86,4.86,0,0,1,4.85,4.86v5.29a4.86,4.86,0,0,1-4.85,4.86h-10a4.86,4.86,0,0,1-4.85-4.86Zm14.84,41.8h-10a4.85,4.85,0,0,1-4.85-4.86v-5.29a4.85,4.85,0,0,1,4.85-4.85h10a4.85,4.85,0,0,1,4.85,4.85v5.29A4.85,4.85,0,0,1,199.76,339.24Zm120.8,70.36a60.37,60.37,0,1,1-109.21-51.26,61,61,0,0,1,15.57-19.1V193.18a28.8,28.8,0,0,1,28.76-28.76h18.54A28.8,28.8,0,0,1,303,193.18V339.24A60.24,60.24,0,0,1,325.3,386.1,60,60,0,0,1,320.56,409.6Zm93.13-236.85H399.57l4.81,8.34A4.31,4.31,0,0,1,402.8,187a4.21,4.21,0,0,1-2.15.58,4.29,4.29,0,0,1-3.74-2.16l-4.82-8.33-6.92,12h9.63a4.32,4.32,0,0,1,0,8.63h-9.63l7.06,12.24a4.31,4.31,0,1,1-7.47,4.31L377.7,202l-4.82,8.33a4.3,4.3,0,0,1-3.74,2.16,4.21,4.21,0,0,1-2.15-.58,4.3,4.3,0,0,1-1.58-5.89l4.81-8.34H356.37l4.81,8.34a4.3,4.3,0,0,1-1.58,5.89,4.21,4.21,0,0,1-2.15.58,4.3,4.3,0,0,1-3.74-2.16L348.9,202l-7.06,12.23a4.32,4.32,0,0,1-7.48-4.31l7.06-12.24H331.8a4.32,4.32,0,1,1,0-8.63h9.62l-6.92-12-4.81,8.33a4.32,4.32,0,0,1-3.75,2.16,4.21,4.21,0,0,1-2.15-.58,4.31,4.31,0,0,1-1.58-5.89l4.81-8.34H312.9a4.32,4.32,0,1,1,0-8.63H327l-4.81-8.33a4.32,4.32,0,1,1,7.48-4.32l4.81,8.33,6.92-12H331.8a4.32,4.32,0,1,1,0-8.63h9.62L334.36,127a4.32,4.32,0,1,1,7.48-4.32l7.06,12.23,4.81-8.33a4.31,4.31,0,1,1,7.47,4.32l-4.81,8.33h13.85l-4.81-8.33a4.31,4.31,0,1,1,7.47-4.32l4.82,8.33,7.06-12.23a4.31,4.31,0,1,1,7.47,4.32l-7.06,12.23h9.63a4.32,4.32,0,0,1,0,8.63h-9.63l6.93,12,4.81-8.33a4.31,4.31,0,1,1,7.47,4.32l-4.81,8.33H413.7a4.32,4.32,0,0,1,0,8.63Z"/></g></g></svg>